<?xml version="1.0" encoding="UTF-8" standalone="no"?>
<svg
   xmlns:dc="http://purl.org/dc/elements/1.1/"
   xmlns:cc="http://creativecommons.org/ns#"
   xmlns:rdf="http://www.w3.org/1999/02/22-rdf-syntax-ns#"
   xmlns:svg="http://www.w3.org/2000/svg"
   xmlns="http://www.w3.org/2000/svg"
   xmlns:sodipodi="http://sodipodi.sourceforge.net/DTD/sodipodi-0.dtd"
   xmlns:inkscape="http://www.inkscape.org/namespaces/inkscape"
   width="86.724899mm"
   height="130.30879mm"
   viewBox="0 0 86.724899 130.30879"
   version="1.1"
   id="svg857"
   inkscape:version="1.0.1 (3bc2e813f5, 2020-09-07)"
   sodipodi:docname="SFH4780S.svg">
  <defs
     id="defs851">
    <inkscape:path-effect
       effect="bspline"
       id="path-effect1436"
       is_visible="true"
       lpeversion="1"
       weight="33.333333"
       steps="2"
       helper_size="0"
       apply_no_weight="true"
       apply_with_weight="true"
       only_selected="false" />
  </defs>
  <sodipodi:namedview
     id="base"
     pagecolor="#ffffff"
     bordercolor="#666666"
     borderopacity="1.0"
     inkscape:pageopacity="0.0"
     inkscape:pageshadow="2"
     inkscape:zoom="2.8"
     inkscape:cx="283.85392"
     inkscape:cy="535.84272"
     inkscape:document-units="mm"
     inkscape:current-layer="layer1"
     inkscape:document-rotation="0"
     showgrid="false"
     inkscape:window-width="1920"
     inkscape:window-height="1017"
     inkscape:window-x="-8"
     inkscape:window-y="-8"
     inkscape:window-maximized="1" />
  <metadata
     id="metadata854">
    <rdf:RDF>
      <cc:Work
         rdf:about="">
        <dc:format>image/svg+xml</dc:format>
        <dc:type
           rdf:resource="http://purl.org/dc/dcmitype/StillImage" />
        <dc:title></dc:title>
      </cc:Work>
    </rdf:RDF>
  </metadata>
  <g
     inkscape:label="Vrstva 1"
     inkscape:groupmode="layer"
     id="layer1"
     transform="translate(-49.34746,-90.514326)">
    <path
       style="fill:none;stroke:#000000;stroke-width:0.264583px;stroke-linecap:butt;stroke-linejoin:miter;stroke-opacity:1"
       d="m 49.349517,220.69085 c 1.52004,-0.0236 3.039817,-0.0473 4.654101,-0.11422 1.614283,-0.0669 3.323018,-0.17718 5.016042,-0.34256 1.693024,-0.16537 3.370259,-0.38585 4.819154,-0.67722 1.448894,-0.29138 2.669418,-0.65359 3.771799,-1.17725 1.102381,-0.52365 2.086674,-1.20872 2.980401,-2.03553 0.893727,-0.8268 1.696909,-1.79534 2.551286,-3.24816 0.854377,-1.45282 1.759928,-3.38991 2.543451,-5.61051 0.783522,-2.2206 1.444966,-4.72464 2.204866,-7.85479 0.7599,-3.13015 1.618203,-6.88621 2.252111,-10.2447 0.633909,-3.35849 1.043376,-6.31925 1.567038,-10.3038 0.523663,-3.98455 1.161484,-8.99263 1.756015,-13.7725 0.594531,-4.77987 1.145735,-9.33124 1.598525,-13.32364 0.452789,-3.99241 0.807135,-7.42562 1.153616,-10.64633 0.346481,-3.2207 0.685077,-6.2287 0.988253,-9.66596 0.303175,-3.43725 0.570903,-7.30355 0.815015,-10.81167 0.244112,-3.50813 0.464593,-6.65786 0.755952,-10.37074 0.291359,-3.71287 0.653579,-7.98864 0.944936,-11.217214 0.291357,-3.22857 0.511838,-5.409763 0.665378,-6.638225 0.15354,-1.228462 0.240157,-1.504063 0.350442,-1.697084 0.110285,-0.193021 0.244149,-0.303261 0.409652,-0.291333 0.165504,0.01193 0.362363,0.145794 0.515804,0.43327 0.15344,0.287476 0.263681,0.728439 0.346329,1.748184 0.08265,1.019744 0.13777,2.618238 0.287394,5.008184 0.149624,2.389948 0.39373,5.571188 0.614218,8.528088 0.220487,2.95691 0.417346,5.68931 0.696893,9.76048 0.279548,4.07117 0.641769,9.48085 0.98431,15.43009 0.342542,5.94925 0.665389,12.43771 0.92525,17.46562 0.259861,5.0279 0.45672,8.59499 0.720523,12.35117 0.263803,3.75618 0.594526,7.70123 0.948883,11.8157 0.354358,4.11447 0.732328,8.39812 1.086684,12.32753 0.354357,3.92941 0.685079,7.50436 1.086691,10.95737 0.401612,3.45301 0.874071,6.78386 1.236311,9.04386 0.36224,2.26 0.61422,3.44902 0.98829,4.73259 0.37407,1.28356 0.87015,2.66157 1.31114,3.76402 0.441,1.10244 0.82684,1.92925 1.30725,2.64187 0.4804,0.71262 1.05523,1.31107 1.72854,1.83074 0.6733,0.51968 1.44499,0.96064 2.29937,1.24012 0.85439,0.27948 1.79143,0.39759 2.53558,0.48421 0.74414,0.0866 1.29534,0.14173 5.48071,0.19684 4.18536,0.0551 12.00459,0.11023 19.82371,0.16535"
       id="path1434"
       inkscape:path-effect="#path-effect1436"
       inkscape:original-d="m 49.349517,220.69085 c 1.520044,-0.0234 3.039821,-0.047 4.559336,-0.0709 1.709066,-0.10999 3.417801,-0.22023 5.126303,-0.33073 1.677566,-0.22023 3.354802,-0.44071 5.031808,-0.66146 1.220838,-0.36197 2.441361,-0.72419 3.661643,-1.08668 0.984599,-0.68483 1.968892,-1.3699 2.95294,-2.05525 0.803479,-0.96832 1.606664,-1.93686 2.409598,-2.90569 0.905851,-1.9369 1.811401,-3.87399 2.716705,-5.81138 0.661736,-2.50388 1.323181,-5.00792 1.984374,-7.51228 0.858602,-3.75595 1.716906,-7.51201 2.574962,-11.26842 0.409747,-2.9606 0.819214,-5.92136 1.228424,-8.88244 0.638111,-5.00802 1.275934,-10.0161 1.913504,-15.02455 0.551492,-4.55129 1.102696,-9.10266 1.653645,-13.65439 0.354624,-3.43309 0.70897,-6.8663 1.063059,-10.29985 0.338876,-3.00786 0.677471,-6.01586 1.01581,-9.02418 0.268004,-3.8662 0.535731,-7.7325 0.803201,-11.59915 0.220755,-3.1496 0.441235,-6.29933 0.661458,-9.4494 0.362498,-4.27568 0.724717,-8.55145 1.086681,-12.827569 0.220755,-2.181016 0.441237,-4.362209 0.661458,-6.543712 0.08689,-0.275349 0.173503,-0.550952 0.259858,-0.826823 0.134136,-0.109982 0.267999,-0.220223 0.4016,-0.330729 0.197131,0.134133 0.393991,0.267997 0.590587,0.401601 0.110511,0.441245 0.220753,0.882208 0.330729,1.322916 0.05539,1.598819 0.110509,3.197313 0.165365,4.795573 0.24438,3.181623 0.488484,6.362863 0.73233,9.543893 0.19713,2.73278 0.393991,5.46518 0.590587,8.19736 0.3625,5.41016 0.72472,10.81984 1.086683,16.22935 0.323125,6.48899 0.645972,12.97745 0.968563,19.46578 0.19713,3.56748 0.393991,7.13457 0.590587,10.70145 0.331002,3.94547 0.661723,7.89052 0.992187,11.83538 0.378249,4.28408 0.756219,8.56773 1.133931,12.85119 0.330999,3.57536 0.661722,7.15031 0.992187,10.72508 0.472744,3.33124 0.94521,6.66209 1.41741,9.99274 0.25225,1.18934 0.50423,2.37836 0.75595,3.56715 0.49637,1.37833 0.99245,2.75634 1.48828,4.13412 0.38613,0.8271 0.77197,1.65391 1.15755,2.48046 0.57512,0.59874 1.14995,1.19719 1.72452,1.79539 0.77198,0.44125 1.54367,0.88221 2.31511,1.32292 0.93735,0.11838 1.87439,0.2365 2.81119,0.35435 0.5515,0.0554 1.1027,0.11051 1.65365,0.16536 7.8198,0.0554 15.63903,0.11051 23.45815,0.16537" />
  </g>
</svg>
