<?xml version="1.0" encoding="UTF-8" standalone="no"?>
<svg
   xmlns:dc="http://purl.org/dc/elements/1.1/"
   xmlns:cc="http://creativecommons.org/ns#"
   xmlns:rdf="http://www.w3.org/1999/02/22-rdf-syntax-ns#"
   xmlns:svg="http://www.w3.org/2000/svg"
   xmlns="http://www.w3.org/2000/svg"
   xmlns:sodipodi="http://sodipodi.sourceforge.net/DTD/sodipodi-0.dtd"
   xmlns:inkscape="http://www.inkscape.org/namespaces/inkscape"
   width="87.998489mm"
   height="131.64865mm"
   viewBox="0 0 87.998489 131.64865"
   version="1.1"
   id="svg8"
   inkscape:version="1.0.1 (3bc2e813f5, 2020-09-07)"
   sodipodi:docname="SFH4715S.svg">
  <defs
     id="defs2">
    <inkscape:path-effect
       effect="bspline"
       id="path-effect849"
       is_visible="true"
       lpeversion="1"
       weight="33.333333"
       steps="2"
       helper_size="0"
       apply_no_weight="true"
       apply_with_weight="true"
       only_selected="false" />
  </defs>
  <sodipodi:namedview
     id="base"
     pagecolor="#ffffff"
     bordercolor="#666666"
     borderopacity="1.0"
     inkscape:pageopacity="0.0"
     inkscape:pageshadow="2"
     inkscape:zoom="3.959798"
     inkscape:cx="246.68826"
     inkscape:cy="483.62698"
     inkscape:document-units="mm"
     inkscape:current-layer="layer1"
     inkscape:document-rotation="0"
     showgrid="false"
     inkscape:window-width="1920"
     inkscape:window-height="1017"
     inkscape:window-x="-8"
     inkscape:window-y="-8"
     inkscape:window-maximized="1" />
  <metadata
     id="metadata5">
    <rdf:RDF>
      <cc:Work
         rdf:about="">
        <dc:format>image/svg+xml</dc:format>
        <dc:type
           rdf:resource="http://purl.org/dc/dcmitype/StillImage" />
        <dc:title></dc:title>
      </cc:Work>
    </rdf:RDF>
  </metadata>
  <g
     inkscape:label="Vrstva 1"
     inkscape:groupmode="layer"
     id="layer1"
     transform="translate(-62.975381,-95.161609)">
    <path
       style="fill:none;stroke:#000000;stroke-width:0.264583px;stroke-linecap:butt;stroke-linejoin:miter;stroke-opacity:1"
       d="m 62.975381,226.61115 c 1.125024,0 2.249784,0 4.176377,-0.0223 1.926593,-0.0223 4.654915,-0.0668 7.283091,-0.10579 2.628175,-0.039 5.15605,-0.0724 7.433423,-0.15035 2.277372,-0.078 4.304126,-0.20046 5.863171,-0.41763 1.559045,-0.21718 2.650376,-0.52899 3.864189,-1.09137 1.213813,-0.56239 2.550133,-1.37532 3.569052,-2.23277 1.018919,-0.85746 1.72049,-1.75948 2.633661,-3.24616 0.913172,-1.48668 2.037905,-3.55797 2.928815,-5.76293 0.8909,-2.20496 1.54793,-4.54352 2.22725,-7.19396 0.67932,-2.65044 1.38089,-5.61262 2.08248,-8.82545 0.70159,-3.21283 1.40315,-6.67613 2.26066,-11.44807 0.8575,-4.77193 1.87088,-10.85219 2.72838,-16.87694 0.8575,-6.02474 1.55907,-11.99364 2.22169,-18.64204 0.66261,-6.6484 1.28623,-13.97589 1.79293,-20.41826 0.50671,-6.44236 0.89647,-11.99923 1.14703,-15.74659 0.25057,-3.74736 0.36193,-5.68503 0.61249,-8.09606 0.25056,-2.41103 0.64032,-5.29526 0.91316,-7.14946 0.27283,-1.854199 0.42873,-2.678262 0.58466,-3.168362 0.15593,-0.490101 0.31184,-0.646001 0.4679,-0.701638 0.15607,-0.05564 0.31197,-0.01109 0.46779,0.200613 0.15582,0.211707 0.31172,0.59033 0.4286,1.208384 0.11688,0.618053 0.19483,1.475527 0.32847,2.956665 0.13364,1.481138 0.32295,3.585848 0.47885,6.587088 0.1559,3.00125 0.27839,6.89885 0.45657,11.52044 0.17819,4.62159 0.41204,9.96688 0.64591,15.31232 0.23386,5.34544 0.46772,10.69073 0.66261,15.14526 0.19488,4.45452 0.35079,8.01805 0.6626,14.23772 0.31182,6.21967 0.77953,15.09507 1.16931,22.25016 0.38977,7.15508 0.70158,12.58945 1.13034,17.20547 0.42877,4.61601 0.97443,8.41339 1.42547,11.04156 0.45103,2.62818 0.80738,4.08699 1.1415,5.20619 0.33412,1.11921 0.64593,1.89873 1.19166,2.78962 0.54573,0.8909 1.32525,1.89314 2.09926,2.66707 0.77402,0.77394 1.5424,1.3196 2.37764,1.7483 0.83523,0.42869 1.73725,0.7405 2.61701,0.93535 0.87975,0.19484 1.73722,0.27279 4.38768,0.31176 2.65045,0.039 7.09372,0.039 11.53681,0.039"
       id="path847"
       inkscape:path-effect="#path-effect849"
       inkscape:original-d="m 62.975381,226.61115 c 1.125024,2.6e-4 2.249784,2.6e-4 3.374279,0 2.728695,-0.0443 5.457018,-0.0888 8.185128,-0.13364 2.52824,-0.0331 5.056114,-0.0666 7.583773,-0.10022 2.0271,-0.12224 4.053854,-0.24474 6.080382,-0.3675 1.091636,-0.31155 2.182966,-0.62336 3.274052,-0.93544 1.336638,-0.8127 2.672958,-1.62563 4.009043,-2.43884 0.701861,-0.90178 1.40343,-1.8038 2.104748,-2.7061 1.125045,-2.07112 2.249783,-4.14241 3.374274,-6.21402 0.65732,-2.33839 1.31434,-4.67695 1.97112,-7.01582 0.70186,-2.96203 1.40343,-5.92421 2.10474,-8.88671 0.70186,-3.46317 1.40343,-6.92647 2.10475,-10.39011 1.01368,-6.08024 2.02706,-12.1605 3.04019,-18.24114 0.70186,-5.96887 1.40343,-11.93777 2.10475,-17.90706 0.62391,-7.32752 1.24752,-14.65501 1.87089,-21.98292 0.39004,-5.55682 0.7798,-11.11369 1.1693,-16.67093 0.11163,-1.93748 0.22299,-3.87515 0.33409,-5.81312 0.39004,-2.88407 0.7798,-5.7683 1.1693,-8.652848 0.15618,-0.823833 0.31208,-1.647896 0.46772,-2.472243 0.15618,-0.155646 0.31208,-0.311549 0.46773,-0.467722 0.15617,0.04481 0.31207,0.08936 0.46772,0.133636 0.15617,0.378904 0.31207,0.757528 0.46772,1.135896 0.0782,0.857771 0.15617,1.715243 0.23386,2.572469 0.18958,2.105052 0.37889,4.209762 0.56795,6.314242 0.12276,3.89802 0.24526,7.79562 0.36749,11.69304 0.23413,5.34576 0.46799,10.69105 0.70158,16.03617 0.23413,5.34576 0.46799,10.69105 0.70159,16.03617 0.15617,3.56393 0.31208,7.12746 0.46772,10.69078 0.46799,8.87602 0.93571,17.75142 1.40316,26.62673 0.31209,5.43486 0.6239,10.86923 0.93545,16.30344 0.54595,3.7978 1.09161,7.59518 1.63702,11.39237 0.35663,1.45914 0.71298,2.91795 1.06908,4.37654 0.31209,0.77981 0.6239,1.55933 0.93544,2.3386 0.77982,1.00255 1.55934,2.00479 2.33861,3.00679 0.76868,0.54595 1.53707,1.09161 2.3052,1.63702 0.90232,0.31209 1.80434,0.62389 2.70611,0.93545 0.85777,0.0782 1.71524,0.15617 2.57246,0.23386 4.44371,2.6e-4 8.88698,2.6e-4 13.33007,0" />
  </g>
</svg>
