<?xml version="1.0" encoding="UTF-8" standalone="no"?>
<svg
   xmlns:dc="http://purl.org/dc/elements/1.1/"
   xmlns:cc="http://creativecommons.org/ns#"
   xmlns:rdf="http://www.w3.org/1999/02/22-rdf-syntax-ns#"
   xmlns:svg="http://www.w3.org/2000/svg"
   xmlns="http://www.w3.org/2000/svg"
   xmlns:sodipodi="http://sodipodi.sourceforge.net/DTD/sodipodi-0.dtd"
   xmlns:inkscape="http://www.inkscape.org/namespaces/inkscape"
   width="79.86557mm"
   height="99.267838mm"
   viewBox="0 0 79.86557 99.267838"
   version="1.1"
   id="svg4966"
   inkscape:version="1.0.1 (3bc2e813f5, 2020-09-07)"
   sodipodi:docname="SMBB740D-1100-02.svg">
  <defs
     id="defs4960">
    <inkscape:path-effect
       effect="bspline"
       id="path-effect5545"
       is_visible="true"
       lpeversion="1"
       weight="33.333333"
       steps="2"
       helper_size="0"
       apply_no_weight="true"
       apply_with_weight="true"
       only_selected="false" />
  </defs>
  <sodipodi:namedview
     id="base"
     pagecolor="#ffffff"
     bordercolor="#666666"
     borderopacity="1.0"
     inkscape:pageopacity="0.0"
     inkscape:pageshadow="2"
     inkscape:zoom="1.4"
     inkscape:cx="112.82789"
     inkscape:cy="459.92065"
     inkscape:document-units="mm"
     inkscape:current-layer="layer1"
     inkscape:document-rotation="0"
     showgrid="false"
     inkscape:window-width="1920"
     inkscape:window-height="1017"
     inkscape:window-x="-8"
     inkscape:window-y="-8"
     inkscape:window-maximized="1" />
  <metadata
     id="metadata4963">
    <rdf:RDF>
      <cc:Work
         rdf:about="">
        <dc:format>image/svg+xml</dc:format>
        <dc:type
           rdf:resource="http://purl.org/dc/dcmitype/StillImage" />
        <dc:title></dc:title>
      </cc:Work>
    </rdf:RDF>
  </metadata>
  <g
     inkscape:label="Vrstva 1"
     inkscape:groupmode="layer"
     id="layer1"
     transform="translate(-77.557015,-99.646141)">
    <path
       style="fill:none;stroke:#000000;stroke-width:0.264583px;stroke-linecap:butt;stroke-linejoin:miter;stroke-opacity:1"
       d="m 77.558275,198.71489 c 2.338876,0.0223 4.677484,0.0445 6.938154,0.0139 2.260671,-0.0306 4.443328,-0.11416 6.108175,-0.28957 1.664847,-0.17542 2.811855,-0.44268 3.947734,-0.79905 1.13588,-0.35637 2.260619,-0.80181 3.301814,-1.39481 1.041196,-0.59299 1.998894,-1.33354 2.836868,-2.16317 0.83797,-0.82962 1.55624,-1.74834 2.26896,-2.92597 0.71271,-1.17764 1.41985,-2.61419 2.07411,-4.24007 0.65426,-1.62588 1.2556,-3.44104 1.84026,-5.3899 0.58466,-1.94886 1.1526,-4.03128 1.58971,-5.93001 0.43711,-1.89873 0.74334,-3.61367 1.14982,-6.03027 0.40648,-2.41659 0.91317,-5.53467 1.39203,-8.81989 0.47887,-3.28522 0.92988,-6.73738 1.30017,-10.03373 0.37028,-3.29635 0.65982,-6.43671 0.98277,-9.70244 0.32295,-3.26573 0.67931,-6.65665 1.01618,-10.01704 0.33688,-3.36039 0.65425,-6.69005 0.9605,-9.90567 0.30625,-3.21562 0.60136,-6.317 0.80738,-8.5192 0.20602,-2.2022 0.32295,-3.50512 0.50948,-5.10597 0.18653,-1.60086 0.44266,-3.49955 0.6264,-4.73012 0.18375,-1.23057 0.29511,-1.79293 0.40089,-2.17162 0.10579,-0.37868 0.20601,-0.573564 0.29522,-0.679428 0.0892,-0.105864 0.16717,-0.122571 0.27302,-0.08346 0.10585,0.03911 0.23949,0.133762 0.33681,0.325903 0.0973,0.19215 0.15857,0.48169 0.23652,0.98839 0.0779,0.5067 0.17259,1.23054 0.29787,2.54741 0.12527,1.31688 0.28118,3.2267 0.46771,5.9217 0.18653,2.69501 0.40368,6.17501 0.57072,9.33494 0.16704,3.15993 0.28397,5.99961 0.42039,8.75586 0.13643,2.75624 0.29233,5.42888 0.42875,7.89001 0.13642,2.46113 0.25335,4.7106 0.37028,7.07986 0.11694,2.36926 0.23386,4.85815 0.35915,7.41951 0.12528,2.56136 0.25891,5.19503 0.44545,8.07935 0.18654,2.88432 0.42596,6.0191 0.67096,8.9229 0.24501,2.9038 0.49556,5.57644 0.72665,7.85661 0.23108,2.28017 0.44266,4.16772 0.72665,6.07761 0.28399,1.90989 0.64034,3.84198 1.0524,5.72681 0.41206,1.88483 0.87977,3.72227 1.39487,5.18392 0.5151,1.46164 1.07746,2.5474 1.76798,3.42156 0.69052,0.87416 1.50901,1.53675 2.60039,2.02667 1.09138,0.48991 2.45553,0.80729 3.80023,0.99658 1.3447,0.18928 2.66988,0.25053 6.42842,0.30064 3.75853,0.0501 9.95015,0.0891 16.14163,0.12806"
       id="path5543"
       inkscape:path-effect="#path-effect5545"
       inkscape:original-d="m 77.558275,198.71489 c 2.338874,0.0225 4.677481,0.0448 7.015826,0.0668 2.183008,-0.0833 4.365667,-0.16678 6.548102,-0.25057 1.14732,-0.26701 2.294329,-0.53427 3.441096,-0.80181 1.125046,-0.44519 2.249784,-0.89063 3.374276,-1.33634 0.958001,-0.74031 1.915697,-1.48086 2.873145,-2.22168 0.71857,-0.91849 1.43684,-1.83721 2.15486,-2.75622 0.70743,-1.43633 1.41457,-2.87288 2.12146,-4.30972 0.60163,-1.81498 1.20297,-3.63014 1.80406,-5.44561 0.56823,-2.08226 1.13616,-4.16469 1.70385,-6.24743 0.30652,-1.71475 0.61276,-3.42969 0.91874,-5.14494 0.50697,-3.11794 1.01366,-6.23602 1.52009,-9.35443 0.4513,-3.45204 0.9023,-6.9042 1.35306,-10.35669 0.28981,-3.14022 0.57934,-6.28058 0.86862,-9.42126 0.35663,-3.39078 0.71298,-6.7817 1.06908,-10.17294 0.31765,-3.32954 0.63503,-6.6592 0.95215,-9.9892 0.29538,-3.10124 0.59048,-6.20262 0.88533,-9.30432 0.11719,-1.3027 0.23412,-2.60562 0.35079,-3.90882 0.2564,-1.8985 0.51253,-3.79719 0.7684,-5.69618 0.11163,-0.56213 0.22299,-1.12449 0.33409,-1.68714 0.10049,-0.19462 0.20071,-0.389502 0.30067,-0.58465 0.0782,-0.01643 0.15617,-0.03314 0.23386,-0.05011 0.13391,0.09492 0.26754,0.189582 0.40091,0.28397 0.0615,0.28981 0.12276,0.57935 0.18375,0.86863 0.0949,0.72413 0.18958,1.44797 0.28397,2.17156 0.15617,1.91017 0.31208,3.81999 0.46772,5.72959 0.21743,3.48041 0.43458,6.96041 0.65147,10.44022 0.1172,2.84006 0.23413,5.67974 0.35079,8.51921 0.15618,2.67302 0.31208,5.34566 0.46772,8.01809 0.1172,2.24983 0.23413,4.4993 0.3508,6.74856 0.11719,2.48926 0.23412,4.97815 0.35079,7.46684 0.1339,2.63403 0.26753,5.2677 0.4009,7.90115 0.2397,3.13518 0.47912,6.26996 0.71829,9.40455 0.25083,2.67301 0.50139,5.34565 0.75169,8.01808 0.21186,1.8879 0.42345,3.77545 0.63477,5.66278 0.35663,1.93244 0.71298,3.86453 1.06908,5.79641 0.46799,1.83777 0.93571,3.67521 1.40316,5.51243 0.56266,1.08607 1.12502,2.17183 1.68714,3.25735 0.8188,0.66288 1.63729,1.32547 2.45554,1.98781 1.36448,0.31766 2.72864,0.63503 4.09256,0.95215 1.32551,0.0615 2.65069,0.12276 3.97564,0.18375 6.19213,0.0392 12.38375,0.0782 18.57523,0.11693" />
  </g>
</svg>
