<?xml version="1.0" encoding="UTF-8" standalone="no"?>
<svg
   xmlns:dc="http://purl.org/dc/elements/1.1/"
   xmlns:cc="http://creativecommons.org/ns#"
   xmlns:rdf="http://www.w3.org/1999/02/22-rdf-syntax-ns#"
   xmlns:svg="http://www.w3.org/2000/svg"
   xmlns="http://www.w3.org/2000/svg"
   xmlns:sodipodi="http://sodipodi.sourceforge.net/DTD/sodipodi-0.dtd"
   xmlns:inkscape="http://www.inkscape.org/namespaces/inkscape"
   width="77.076721mm"
   height="99.291283mm"
   viewBox="0 0 77.076721 99.291283"
   version="1.1"
   id="svg1444"
   inkscape:version="1.0.1 (3bc2e813f5, 2020-09-07)"
   sodipodi:docname="SMBB910D-1100-02.svg">
  <defs
     id="defs1438">
    <inkscape:path-effect
       effect="bspline"
       id="path-effect2023"
       is_visible="true"
       lpeversion="1"
       weight="33.333333"
       steps="2"
       helper_size="0"
       apply_no_weight="true"
       apply_with_weight="true"
       only_selected="false" />
  </defs>
  <sodipodi:namedview
     id="base"
     pagecolor="#ffffff"
     bordercolor="#666666"
     borderopacity="1.0"
     inkscape:pageopacity="0.0"
     inkscape:pageshadow="2"
     inkscape:zoom="0.7"
     inkscape:cx="515.71499"
     inkscape:cy="305.04124"
     inkscape:document-units="mm"
     inkscape:current-layer="layer1"
     inkscape:document-rotation="0"
     showgrid="false"
     fit-margin-top="0"
     fit-margin-left="0"
     fit-margin-right="0"
     fit-margin-bottom="0"
     inkscape:window-width="1920"
     inkscape:window-height="1017"
     inkscape:window-x="-8"
     inkscape:window-y="-8"
     inkscape:window-maximized="1" />
  <metadata
     id="metadata1441">
    <rdf:RDF>
      <cc:Work
         rdf:about="">
        <dc:format>image/svg+xml</dc:format>
        <dc:type
           rdf:resource="http://purl.org/dc/dcmitype/StillImage" />
        <dc:title></dc:title>
      </cc:Work>
    </rdf:RDF>
  </metadata>
  <g
     inkscape:label="Vrstva 1"
     inkscape:groupmode="layer"
     id="layer1"
     transform="translate(-62.071948,-94.878684)">
    <path
       style="fill:none;stroke:#000000;stroke-width:0.264583px;stroke-linecap:butt;stroke-linejoin:miter;stroke-opacity:1"
       d="m 62.106756,192.90178 c 1.715159,-0.46777 3.430137,-0.9355 5.262027,-1.67607 1.83189,-0.74057 3.780689,-1.75394 5.51234,-2.97892 1.731652,-1.22497 3.246153,-2.66152 4.649309,-4.31524 1.403156,-1.65372 2.694933,-3.52457 3.825261,-5.54578 1.130329,-2.02121 2.099161,-4.19273 2.917682,-6.15829 0.81852,-1.96555 1.48668,-3.72504 2.127022,-5.76854 0.640342,-2.0435 1.252822,-4.37092 2.127028,-7.60604 0.874206,-3.23513 2.010077,-7.37772 2.984507,-11.14179 0.97443,-3.76407 1.78736,-7.14942 2.427697,-9.79987 0.640338,-2.65044 1.108052,-4.56584 1.653737,-7.37219 0.545686,-2.80635 1.169301,-6.5035 1.714979,-9.54372 0.545677,-3.04022 1.013391,-5.42333 1.403168,-7.8232 0.389777,-2.39987 0.701586,-4.81639 1.113629,-7.6673 0.412038,-2.85091 0.924298,-6.13603 1.236108,-7.912304 0.3118,-1.776275 0.42316,-2.043538 0.57914,-2.238513 0.15597,-0.194975 0.35642,-0.317473 0.55143,-0.339654 0.195,-0.02218 0.38431,0.05577 0.54013,0.250752 0.15581,0.194981 0.2783,0.506786 0.39522,0.85758 0.11691,0.350795 0.22827,0.740555 0.42314,1.753962 0.19486,1.013406 0.47326,2.650407 0.84632,6.030287 0.37306,3.37989 0.84077,8.50245 1.20827,13.33005 0.36749,4.82759 0.63476,9.35995 0.96885,14.58291 0.33409,5.22295 0.73499,11.13617 1.09135,15.93592 0.35636,4.79975 0.66817,8.48577 1.0134,12.03827 0.34523,3.5525 0.72386,6.97125 0.99113,9.26532 0.26728,2.29408 0.42318,3.46336 0.66263,4.8053 0.23944,1.34193 0.56239,2.85643 0.95216,4.63825 0.38978,1.78182 0.84635,3.83084 1.33082,5.43448 0.48447,1.60363 0.99672,2.76177 1.56471,3.79188 0.56798,1.0301 1.1916,1.93212 1.79301,2.61697 0.6014,0.68485 1.18047,1.15256 1.86537,1.53671 0.6849,0.38414 1.47556,0.68481 2.45555,0.94649 0.98,0.26167 2.14928,0.48439 3.31859,0.65698 1.1693,0.1726 2.33859,0.2951 4.92779,0.37861 2.5892,0.0835 6.59816,0.12806 10.60694,0.1726"
       id="path2021"
       inkscape:path-effect="#path-effect2023"
       inkscape:original-d="m 62.106756,192.90178 c 1.715244,-0.46746 3.430223,-0.93518 5.144937,-1.40317 1.949146,-1.01315 3.897947,-2.02652 5.846522,-3.04019 1.514821,-1.43633 3.02932,-2.87288 4.543581,-4.30972 1.292095,-1.87066 2.58387,-3.74151 3.87541,-5.61266 0.969134,-2.17134 1.937967,-4.34286 2.906556,-6.51469 0.668451,-1.7593 1.336612,-3.51879 2.004521,-5.27858 0.612769,-2.32725 1.225251,-4.65467 1.837478,-6.98241 1.136182,-4.1425 2.272056,-8.28509 3.407685,-12.42803 0.813226,-3.38522 1.626156,-6.77057 2.438837,-10.15625 0.467995,-1.9152 0.935706,-3.8306 1.403164,-5.74629 0.623906,-3.69704 1.247521,-7.39419 1.870885,-11.09169 0.467998,-2.38293 0.935709,-4.76604 1.403167,-7.14946 0.312084,-2.41634 0.623893,-4.83286 0.935443,-7.24968 0.512538,-3.28499 1.024798,-6.570113 1.536798,-9.855566 0.11163,-0.26701 0.22299,-0.534273 0.33409,-0.801809 0.20072,-0.122235 0.40117,-0.244732 0.60135,-0.367496 0.18959,0.07822 0.3789,0.156173 0.56795,0.233863 0.12277,0.312084 0.24526,0.623892 0.3675,0.935442 0.11163,0.390041 0.22299,0.779801 0.33408,1.169305 0.27868,1.637323 0.55708,3.274321 0.83522,4.911081 0.468,5.12303 0.93571,10.24559 1.40317,15.36799 0.26754,4.5328 0.5348,9.06516 0.80181,13.59734 0.40117,5.91372 0.80207,11.82694 1.20271,17.74002 0.31208,3.68642 0.62389,7.37244 0.93544,11.05827 0.37891,3.41916 0.75753,6.83791 1.1359,10.25647 0.15617,1.16959 0.31208,2.33887 0.46772,3.50791 0.32322,1.51482 0.64617,3.02932 0.96885,4.54358 0.45686,2.04938 0.91344,4.0984 1.36976,6.1472 0.51254,1.15846 1.02479,2.3166 1.5368,3.47451 0.6239,0.90231 1.24752,1.80433 1.87088,2.7061 0.57936,0.468 1.15844,0.93571 1.73726,1.40317 0.79095,0.30094 1.5816,0.60162 2.37201,0.90203 1.1696,0.22299 2.33888,0.44571 3.50791,0.66817 1.1696,0.12277 2.33888,0.24527 3.50792,0.3675 4.00939,0.0448 8.01835,0.0893 12.02713,0.13364" />
  </g>
</svg>
