<?xml version="1.0" encoding="UTF-8" standalone="no"?>
<svg
   xmlns:dc="http://purl.org/dc/elements/1.1/"
   xmlns:cc="http://creativecommons.org/ns#"
   xmlns:rdf="http://www.w3.org/1999/02/22-rdf-syntax-ns#"
   xmlns:svg="http://www.w3.org/2000/svg"
   xmlns="http://www.w3.org/2000/svg"
   xmlns:sodipodi="http://sodipodi.sourceforge.net/DTD/sodipodi-0.dtd"
   xmlns:inkscape="http://www.inkscape.org/namespaces/inkscape"
   width="80.583015mm"
   height="99.288864mm"
   viewBox="0 0 80.583015 99.288864"
   version="1.1"
   id="svg1444"
   inkscape:version="1.0.1 (3bc2e813f5, 2020-09-07)"
   sodipodi:docname="SMBB760D-1100-02.svg">
  <defs
     id="defs1438">
    <inkscape:path-effect
       effect="bspline"
       id="path-effect2023"
       is_visible="true"
       lpeversion="1"
       weight="33.333333"
       steps="2"
       helper_size="0"
       apply_no_weight="true"
       apply_with_weight="true"
       only_selected="false" />
  </defs>
  <sodipodi:namedview
     id="base"
     pagecolor="#ffffff"
     bordercolor="#666666"
     borderopacity="1.0"
     inkscape:pageopacity="0.0"
     inkscape:pageshadow="2"
     inkscape:zoom="7.9195959"
     inkscape:cx="286.96708"
     inkscape:cy="377.72282"
     inkscape:document-units="mm"
     inkscape:current-layer="layer1"
     inkscape:document-rotation="0"
     showgrid="false"
     inkscape:window-width="1920"
     inkscape:window-height="1017"
     inkscape:window-x="-8"
     inkscape:window-y="-8"
     inkscape:window-maximized="1" />
  <metadata
     id="metadata1441">
    <rdf:RDF>
      <cc:Work
         rdf:about="">
        <dc:format>image/svg+xml</dc:format>
        <dc:type
           rdf:resource="http://purl.org/dc/dcmitype/StillImage" />
        <dc:title></dc:title>
      </cc:Work>
    </rdf:RDF>
  </metadata>
  <g
     inkscape:label="Vrstva 1"
     inkscape:groupmode="layer"
     id="layer1"
     transform="translate(-63.107873,-75.98851)">
    <path
       style="fill:none;stroke:#000000;stroke-width:0.264583px;stroke-linecap:butt;stroke-linejoin:miter;stroke-opacity:1"
       d="m 63.109016,175.01142 c 1.932398,-0.0167 3.864533,-0.0334 5.882985,-0.13085 2.018452,-0.0975 4.123159,-0.27563 6.01074,-0.57911 1.88758,-0.30348 3.557978,-0.73221 4.8219,-1.1888 1.263923,-0.45659 2.121397,-0.94101 2.803477,-1.36697 0.682079,-0.42596 1.188767,-0.79345 1.92094,-1.64812 0.732173,-0.85468 1.689872,-2.19657 2.47219,-3.50227 0.782317,-1.3057 1.389231,-2.57521 1.9544,-4.0257 0.565169,-1.45048 1.08856,-3.0819 1.653732,-5.08922 0.565172,-2.00732 1.172085,-4.39043 1.815211,-7.14945 0.643126,-2.75903 1.322425,-5.89382 1.926575,-9.03147 0.604149,-3.13766 1.133109,-6.27801 1.628677,-9.42681 0.495569,-3.14879 0.957712,-6.30585 1.375326,-9.31823 0.417614,-3.01238 0.790671,-5.8799 1.133113,-8.53313 0.342442,-2.65323 0.654251,-5.09202 0.954934,-7.69792 0.300683,-2.6059 0.590214,-5.37877 0.879764,-8.360524 0.28955,-2.981754 0.57908,-6.172219 0.84079,-8.964654 0.2617,-2.792434 0.49556,-5.186678 0.70157,-7.010254 0.20602,-1.823576 0.3842,-3.076377 0.52061,-3.894909 0.13641,-0.818531 0.23107,-1.20273 0.32852,-1.461723 0.0974,-0.258992 0.19767,-0.392623 0.32589,-0.462247 0.12821,-0.06962 0.28411,-0.07519 0.42885,0.03077 0.14474,0.10596 0.27837,0.32311 0.41472,0.860436 0.13635,0.537326 0.27556,1.394798 0.46208,3.073604 0.18652,1.678805 0.42038,4.178839 0.66537,7.252472 0.245,3.073633 0.50113,6.720676 0.72385,10.178503 0.22273,3.457823 0.41204,6.726243 0.58465,9.958573 0.17261,3.23232 0.32852,6.42835 0.53454,10.32608 0.20602,3.89772 0.46215,8.49689 0.70437,12.66745 0.24222,4.17056 0.4705,7.91226 0.77119,11.74595 0.30069,3.83369 0.67374,7.75913 0.94659,10.44298 0.27284,2.68385 0.44545,4.12597 0.64034,5.57926 0.19489,1.45329 0.41204,2.91768 0.6849,4.29302 0.27286,1.37535 0.60137,2.66156 1.04963,4.02855 0.44826,1.36698 1.0162,2.81467 1.67052,3.94777 0.65432,1.1331 1.39486,1.95159 2.3582,2.59186 0.96333,0.64026 2.14931,1.1024 3.47174,1.40303 1.32242,0.30063 2.78124,0.43983 6.89057,0.51221 4.10932,0.0724 10.86888,0.0779 17.62831,0.0835"
       id="path2021"
       inkscape:path-effect="#path-effect2023"
       inkscape:original-d="m 63.109016,175.01142 c 1.932401,-0.0164 3.864536,-0.0331 5.796407,-0.0501 2.105054,-0.17792 4.209762,-0.35609 6.314245,-0.53454 1.670732,-0.42849 3.341131,-0.85722 5.011303,-1.28623 0.857771,-0.48417 1.715244,-0.96859 2.57247,-1.45328 0.506973,-0.36724 1.013661,-0.73473 1.520094,-1.10249 0.957998,-1.34167 1.915697,-2.68356 2.873148,-4.02574 0.6072,-1.26929 1.214112,-2.5388 1.820772,-3.80859 0.52368,-1.63123 1.04707,-3.26265 1.57021,-4.89438 0.6072,-2.38293 1.214115,-4.76604 1.820772,-7.14946 0.679591,-3.13464 1.358887,-6.26943 2.037932,-9.40454 0.529246,-3.14022 1.058207,-6.28057 1.586913,-9.42125 0.462425,-3.15692 0.92457,-6.31398 1.386459,-9.47137 0.373338,-2.86737 0.746392,-5.73489 1.119193,-8.60274 0.312084,-2.43861 0.623892,-4.8774 0.935442,-7.3165 0.289814,-2.77271 0.579354,-5.54558 0.868624,-8.318762 0.28981,-3.19033 0.57935,-6.380795 0.86863,-9.57159 0.23413,-2.394072 0.46798,-4.788316 0.70158,-7.182869 0.17845,-1.252585 0.35662,-2.505387 0.53454,-3.758478 0.0949,-0.383942 0.18958,-0.768135 0.28397,-1.152599 0.1005,-0.133373 0.20072,-0.267007 0.30068,-0.400904 0.15618,-0.0053 0.31208,-0.01087 0.46772,-0.01669 0.13391,0.217426 0.26754,0.434578 0.40091,0.65147 0.13947,0.857771 0.27867,1.715243 0.41761,2.572469 0.23413,2.500398 0.46798,5.000432 0.70158,7.50025 0.2564,3.647453 0.51253,7.294496 0.7684,10.941346 0.18958,3.268807 0.37889,6.537227 0.56795,9.805447 0.15617,3.19643 0.31208,6.39246 0.46772,9.58829 0.2564,4.59962 0.51253,9.19879 0.7684,13.79779 0.22856,3.74212 0.45685,7.48382 0.68488,11.22532 0.37333,3.92587 0.74639,7.85131 1.11919,11.77657 0.17288,1.44243 0.34548,2.88455 0.51783,4.32642 0.21743,1.46471 0.43458,2.9291 0.65147,4.39324 0.32879,1.28653 0.6573,2.57274 0.98556,3.85871 0.56822,1.448 1.13616,2.89568 1.70384,4.34313 0.74084,0.81879 1.48138,1.63729 2.22168,2.45555 1.1863,0.46242 2.37228,0.92456 3.55802,1.38645 1.45914,0.13947 2.91796,0.27868 4.37654,0.41761 6.76009,0.006 13.51965,0.0114 20.27908,0.0167" />
  </g>
</svg>
