<?xml version="1.0" encoding="UTF-8" standalone="no"?>
<svg
   xmlns:dc="http://purl.org/dc/elements/1.1/"
   xmlns:cc="http://creativecommons.org/ns#"
   xmlns:rdf="http://www.w3.org/1999/02/22-rdf-syntax-ns#"
   xmlns:svg="http://www.w3.org/2000/svg"
   xmlns="http://www.w3.org/2000/svg"
   xmlns:sodipodi="http://sodipodi.sourceforge.net/DTD/sodipodi-0.dtd"
   xmlns:inkscape="http://www.inkscape.org/namespaces/inkscape"
   width="78.418617mm"
   height="99.806mm"
   viewBox="0 0 78.418617 99.806"
   version="1.1"
   id="svg8"
   inkscape:version="1.0.1 (3bc2e813f5, 2020-09-07)"
   sodipodi:docname="SMBB980D-1100-02.svg">
  <defs
     id="defs2">
    <inkscape:path-effect
       effect="bspline"
       id="path-effect849"
       is_visible="true"
       lpeversion="1"
       weight="33.333333"
       steps="2"
       helper_size="0"
       apply_no_weight="true"
       apply_with_weight="true"
       only_selected="false" />
  </defs>
  <sodipodi:namedview
     id="base"
     pagecolor="#ffffff"
     bordercolor="#666666"
     borderopacity="1.0"
     inkscape:pageopacity="0.0"
     inkscape:pageshadow="2"
     inkscape:zoom="1.4"
     inkscape:cx="143.43146"
     inkscape:cy="189.09239"
     inkscape:document-units="mm"
     inkscape:current-layer="layer1"
     inkscape:document-rotation="0"
     showgrid="false"
     fit-margin-top="0"
     fit-margin-left="0"
     fit-margin-right="0"
     fit-margin-bottom="0"
     inkscape:window-width="1920"
     inkscape:window-height="1017"
     inkscape:window-x="-8"
     inkscape:window-y="-8"
     inkscape:window-maximized="1" />
  <metadata
     id="metadata5">
    <rdf:RDF>
      <cc:Work
         rdf:about="">
        <dc:format>image/svg+xml</dc:format>
        <dc:type
           rdf:resource="http://purl.org/dc/dcmitype/StillImage" />
        <dc:title></dc:title>
      </cc:Work>
    </rdf:RDF>
  </metadata>
  <g
     inkscape:label="Vrstva 1"
     inkscape:groupmode="layer"
     id="layer1"
     transform="translate(-121.19359,-77.212931)">
    <path
       style="fill:none;stroke:#000000;stroke-width:0.264583px;stroke-linecap:butt;stroke-linejoin:miter;stroke-opacity:1"
       d="m 121.202,176.88691 c 1.74864,-0.11138 3.49703,-0.22274 5.09507,-0.43992 1.59803,-0.21717 3.04572,-0.54012 4.51009,-1.12478 1.46437,-0.58466 2.94546,-1.43099 4.40428,-2.60029 1.45881,-1.16929 2.89536,-2.66152 4.10364,-4.06468 1.20827,-1.40315 2.18824,-2.7172 3.00675,-4.37089 0.81851,-1.6537 1.47553,-3.64705 2.35531,-6.55363 0.87977,-2.90659 1.98223,-6.72624 3.03462,-10.86338 1.05239,-4.13714 2.05463,-8.59155 2.91213,-12.7621 0.8575,-4.17054 1.5702,-8.05702 2.27736,-12.04939 0.70716,-3.99238 1.40873,-8.09043 1.95441,-11.29769 0.54568,-3.20725 0.93544,-5.52354 1.59249,-9.42684 0.65705,-3.90331 1.58134,-9.393363 2.39985,-13.474834 0.81851,-4.081471 1.53122,-6.754116 1.95996,-8.240839 0.42874,-1.486723 0.57351,-1.787396 0.74622,-1.976797 0.17272,-0.189401 0.37316,-0.26735 0.55142,-0.289562 0.17827,-0.02221 0.33417,0.0112 0.45101,0.122683 0.11684,0.111488 0.1948,0.300806 0.28945,0.551374 0.0947,0.250569 0.20601,0.562376 0.43984,1.792942 0.23384,1.230565 0.59019,3.379815 0.92427,5.740718 0.33409,2.360903 0.64589,4.933319 0.93543,7.745247 0.28954,2.811928 0.5568,5.863189 0.79066,8.975798 0.23386,3.11261 0.43431,6.28637 0.66818,9.46022 0.23387,3.17386 0.50113,6.34763 0.75727,9.54932 0.25613,3.2017 0.50112,6.43115 0.77397,9.90569 0.27284,3.47454 0.57351,7.19396 0.97999,11.4926 0.40648,4.29863 0.91873,9.1762 1.38647,12.96255 0.46773,3.78635 0.8909,6.48127 1.4199,8.94241 0.529,2.46114 1.16375,4.68834 1.73176,6.20844 0.568,1.52009 1.06912,2.33302 1.49235,2.86752 0.42324,0.5345 0.76845,0.79063 1.24733,1.05786 0.47888,0.26724 1.09136,0.54564 1.80965,0.80175 0.71829,0.2561 1.54235,0.48996 2.2662,0.64584 0.72386,0.15588 1.34747,0.23383 2.01008,0.31179 0.66261,0.0779 1.36419,0.1559 2.08246,0.17815 0.71827,0.0223 1.45325,-0.0111 2.27178,-0.0111 0.81853,1e-5 1.72055,0.0334 3.86431,0.0501 2.14375,0.0167 5.5291,0.0167 8.91425,0.0167"
       id="path847"
       inkscape:path-effect="#path-effect849"
       inkscape:original-d="m 121.202,176.88691 c 1.74866,-0.1111 3.49705,-0.22246 5.24517,-0.33409 1.448,-0.32269 2.89569,-0.64564 4.34313,-0.96885 1.48141,-0.84611 2.9625,-1.69244 4.44336,-2.53906 1.43686,-1.49202 2.87341,-2.98425 4.30972,-4.47677 0.98027,-1.31383 1.96024,-2.62788 2.93996,-3.94222 0.65732,-1.99316 1.31434,-3.98651 1.97111,-5.98016 1.10278,-3.81954 2.20524,-7.63919 3.30746,-11.45918 1.00255,-4.45431 2.00479,-8.90872 3.00679,-13.36348 0.71299,-3.88635 1.4257,-7.77282 2.13815,-11.65963 0.70186,-4.09795 1.40343,-8.196 2.10475,-12.2944 0.39004,-2.31611 0.7798,-4.6324 1.16931,-6.949 0.92458,-5.490011 1.84887,-10.980064 2.77292,-16.470488 0.71299,-2.672485 1.4257,-5.345128 2.13815,-8.018087 0.14504,-0.300418 0.28981,-0.601091 0.43432,-0.902036 0.20072,-0.07769 0.40116,-0.155641 0.60135,-0.233859 0.15618,0.03367 0.31208,0.06708 0.46772,0.100226 0.0782,0.189585 0.15617,0.378897 0.23386,0.567947 0.11163,0.312087 0.22299,0.623895 0.33409,0.935445 0.35663,2.149599 0.71298,4.298849 1.06908,6.447877 0.31209,2.572785 0.62389,5.145201 0.93544,7.717406 0.26754,3.051658 0.53481,6.102918 0.80181,9.153989 0.20072,3.17415 0.40117,6.34791 0.60136,9.52147 0.26754,3.17415 0.5348,6.34792 0.80181,9.52148 0.24526,3.22983 0.49025,6.45928 0.73499,9.68852 0.30095,3.71984 0.60162,7.43926 0.90203,11.1585 0.51254,4.87803 1.0248,9.7556 1.5368,14.63301 0.42345,2.69528 0.84662,5.3902 1.26953,8.0849 0.63504,2.22756 1.2698,4.45476 1.9043,6.68174 0.5014,0.81322 1.00252,1.62615 1.50339,2.43883 0.34549,0.25641 0.69071,0.51253 1.03567,0.7684 0.61277,0.27868 1.22525,0.55708 1.83748,0.83522 0.82436,0.23413 1.64842,0.46799 2.47224,0.70158 0.62391,0.0782 1.24752,0.15617 1.87088,0.23386 0.70187,0.0782 1.40344,0.15617 2.10475,0.23386 0.73527,-0.0331 1.47025,-0.0665 2.20498,-0.10022 0.90231,0.0337 1.80433,0.0671 2.7061,0.10022 3.38575,2.7e-4 6.7711,2.7e-4 10.15625,0" />
  </g>
</svg>
