<?xml version="1.0" encoding="UTF-8" standalone="no"?>
<svg
   xmlns:dc="http://purl.org/dc/elements/1.1/"
   xmlns:cc="http://creativecommons.org/ns#"
   xmlns:rdf="http://www.w3.org/1999/02/22-rdf-syntax-ns#"
   xmlns:svg="http://www.w3.org/2000/svg"
   xmlns="http://www.w3.org/2000/svg"
   xmlns:sodipodi="http://sodipodi.sourceforge.net/DTD/sodipodi-0.dtd"
   xmlns:inkscape="http://www.inkscape.org/namespaces/inkscape"
   width="80.888977mm"
   height="99.198349mm"
   viewBox="0 0 80.888977 99.198349"
   version="1.1"
   id="svg5553"
   inkscape:version="1.0.1 (3bc2e813f5, 2020-09-07)"
   sodipodi:docname="SMBB750D-1100-02.svg">
  <defs
     id="defs5547">
    <inkscape:path-effect
       effect="bspline"
       id="path-effect6132"
       is_visible="true"
       lpeversion="1"
       weight="33.333333"
       steps="2"
       helper_size="0"
       apply_no_weight="true"
       apply_with_weight="true"
       only_selected="false" />
  </defs>
  <sodipodi:namedview
     id="base"
     pagecolor="#ffffff"
     bordercolor="#666666"
     borderopacity="1.0"
     inkscape:pageopacity="0.0"
     inkscape:pageshadow="2"
     inkscape:zoom="7.9195959"
     inkscape:cx="279.67218"
     inkscape:cy="367.42097"
     inkscape:document-units="mm"
     inkscape:current-layer="layer1"
     inkscape:document-rotation="0"
     showgrid="false"
     inkscape:window-width="1920"
     inkscape:window-height="1017"
     inkscape:window-x="-8"
     inkscape:window-y="-8"
     inkscape:window-maximized="1" />
  <metadata
     id="metadata5550">
    <rdf:RDF>
      <cc:Work
         rdf:about="">
        <dc:format>image/svg+xml</dc:format>
        <dc:type
           rdf:resource="http://purl.org/dc/dcmitype/StillImage" />
        <dc:title></dc:title>
      </cc:Work>
    </rdf:RDF>
  </metadata>
  <g
     inkscape:label="Vrstva 1"
     inkscape:groupmode="layer"
     id="layer1"
     transform="translate(-61.656282,-92.095345)">
    <path
       style="fill:none;stroke:#000000;stroke-width:0.264583px;stroke-linecap:butt;stroke-linejoin:miter;stroke-opacity:1"
       d="m 61.657367,191.04334 c 1.917707,0.0157 3.835149,0.0315 5.750633,-0.002 1.915484,-0.0335 3.828951,-0.11617 5.342822,-0.23233 1.513871,-0.11616 2.628091,-0.26577 3.797446,-0.50005 1.169356,-0.23428 2.393818,-0.55319 3.557241,-1.00795 1.163423,-0.45476 2.265836,-1.04534 3.147742,-1.65756 0.881907,-0.61223 1.54335,-1.24611 2.177235,-1.97055 0.633886,-0.72444 1.240208,-1.53943 1.700859,-2.27567 0.460651,-0.73624 0.775627,-1.39375 1.192979,-2.37609 0.417353,-0.98235 0.937059,-2.28949 1.466626,-3.74825 0.529568,-1.45876 1.06896,-3.06906 1.683182,-5.27984 0.614221,-2.21078 1.303226,-5.02192 1.82689,-7.52996 0.523664,-2.50804 0.881948,-4.71286 1.116219,-6.28185 0.234271,-1.56899 0.344511,-2.5021 0.551218,-4.09081 0.206708,-1.58871 0.50987,-3.8329 0.771701,-5.89407 0.261831,-2.06116 0.482313,-3.93919 0.694927,-5.74444 0.212614,-1.80525 0.417346,-3.5376 0.622087,-5.43735 0.204742,-1.89974 0.409475,-3.96676 0.622089,-6.02596 0.212613,-2.05921 0.433094,-4.11047 0.661458,-6.42363 0.228365,-2.31316 0.464596,-4.88808 0.740203,-7.42173 0.275607,-2.53365 0.590581,-5.02588 0.850447,-7.47684 0.259869,-2.45095 0.464599,-4.8605 0.671309,-6.9453 0.2067,-2.08479 0.41537,-3.844711 0.61617,-5.360571 0.20079,-1.51586 0.39371,-2.787567 0.53151,-3.586843 0.13779,-0.799276 0.22048,-1.126075 0.30324,-1.317157 0.0827,-0.191083 0.1654,-0.246179 0.24028,-0.226321 0.0749,0.01986 0.14182,0.11435 0.21064,0.368304 0.0688,0.253954 0.13969,0.667362 0.2578,1.752086 0.1181,1.084724 0.28346,2.840703 0.43504,4.773911 0.15158,1.933211 0.28939,4.043541 0.41341,6.386221 0.12402,2.34269 0.23426,4.9176 0.3445,7.15792 0.11025,2.24031 0.22049,4.1459 0.30908,5.74247 0.0886,1.59657 0.15552,2.88402 0.27167,4.88615 0.11616,2.00213 0.28152,4.71878 0.4272,7.33707 0.14568,2.61829 0.27166,5.13808 0.38978,7.19334 0.11812,2.05527 0.22837,3.64589 0.33271,5.06528 0.10434,1.41939 0.20277,2.66748 0.32089,4.2483 0.11812,1.58083 0.25592,3.4943 0.4075,5.54759 0.15159,2.0533 0.31695,4.24631 0.49413,6.34882 0.17718,2.10251 0.36617,4.11441 0.59257,6.024 0.2264,1.90959 0.49019,3.71675 0.69886,5.1952 0.20868,1.47845 0.36223,2.62811 0.56895,3.84277 0.20672,1.21466 0.46657,2.49424 0.74219,3.72268 0.27562,1.22843 0.56697,2.40565 0.85636,3.53368 0.2894,1.12804 0.57681,2.20682 0.91349,3.10452 0.33669,0.89771 0.72253,1.61427 1.25213,2.3584 0.52961,0.74413 1.20286,1.51582 1.92539,2.10045 0.72253,0.58463 1.49421,0.98228 2.31317,1.27753 0.81895,0.29525 1.68513,0.48817 2.55329,0.60626 0.86815,0.11808 1.73827,0.16139 5.60865,0.20864 3.87038,0.0472 10.74075,0.0984 17.61099,0.14961"
       id="path6130"
       inkscape:path-effect="#path-effect6132"
       inkscape:original-d="m 61.657367,191.04334 c 1.917705,0.016 3.835146,0.0318 5.752325,0.0472 1.913805,-0.0824 3.827271,-0.1651 5.740513,-0.24805 1.114528,-0.14935 2.228747,-0.29897 3.342725,-0.44885 1.224775,-0.31866 2.449237,-0.63757 3.673456,-0.95675 1.102717,-0.59033 2.205128,-1.18091 3.307292,-1.77176 0.661736,-0.63365 1.323181,-1.26753 1.984375,-1.90169 0.606613,-0.81477 1.21294,-1.62976 1.81901,-2.44504 0.315251,-0.65727 0.630225,-1.31478 0.944941,-1.97256 0.519994,-1.30693 1.039699,-2.61407 1.559153,-3.92151 0.539678,-1.6101 1.079071,-3.2204 1.61821,-4.831 0.689298,-2.81099 1.378302,-5.62213 2.067057,-8.4336 0.358561,-2.20464 0.716844,-4.40946 1.07487,-6.61458 0.110508,-0.93288 0.22075,-1.86599 0.330729,-2.79939 0.30344,-2.24401 0.606602,-4.4882 0.909505,-6.7327 0.220755,-1.87784 0.441238,-3.75587 0.661459,-5.63421 0.205004,-1.73216 0.409739,-3.46451 0.614211,-5.19717 0.205005,-2.06683 0.409739,-4.13385 0.614212,-6.20117 0.220755,-2.05109 0.441235,-4.10235 0.661458,-6.15392 0.236503,-2.57475 0.472734,-5.14967 0.708705,-7.72489 0.315251,-2.49207 0.630224,-4.9843 0.944941,-7.47684 0.205006,-2.40939 0.409736,-4.81894 0.614216,-7.2288 0.20894,-1.75972 0.41761,-3.519637 0.62602,-5.279854 0.19319,-1.271492 0.38611,-2.543199 0.57877,-3.815197 0.0829,-0.326532 0.16563,-0.653319 0.24805,-0.980376 0.083,-0.05486 0.16563,-0.109977 0.24805,-0.165365 0.0672,0.09476 0.13413,0.189254 0.2008,0.283483 0.0711,0.413684 0.142,0.827087 0.21261,1.240234 0.16563,1.756315 0.33099,3.512294 0.49609,5.268045 0.13807,2.11067 0.27587,4.221 0.41341,6.3311 0.11051,2.57528 0.22075,5.15019 0.33073,7.72489 0.11051,1.90593 0.22075,3.81152 0.33073,5.71689 0.0672,1.28777 0.13413,2.57522 0.2008,3.86244 0.16564,2.71703 0.331,5.43368 0.4961,8.15011 0.12626,2.52016 0.25225,5.03995 0.37797,7.55953 0.11051,1.59094 0.22075,3.18156 0.33073,4.77195 0.0987,1.24839 0.19713,2.49648 0.2953,3.74432 0.13807,1.91381 0.27587,3.82728 0.41341,5.74052 0.16563,2.19335 0.33099,4.38636 0.49609,6.57914 0.18926,2.01224 0.37824,4.02414 0.56697,6.03581 0.26406,1.8075 0.52785,3.61466 0.79138,5.4216 0.15382,1.14996 0.30737,2.29962 0.46066,3.44903 0.26013,1.2799 0.51998,2.55948 0.77958,3.83882 0.29162,1.17753 0.58298,2.35474 0.87407,3.53172 0.28769,1.07909 0.5751,2.15787 0.86226,3.23642 0.38612,0.71686 0.77196,1.43342 1.15755,2.14974 0.67354,0.77198 1.3468,1.54366 2.01981,2.3151 0.77198,0.39794 1.54366,0.79559 2.3151,1.19299 0.86648,0.19319 1.73266,0.38611 2.59859,0.57877 0.87041,0.0436 1.74053,0.0869 2.6104,0.12993 6.8709,0.0514 13.74127,0.10264 20.61151,0.15356" />
  </g>
</svg>
