<?xml version="1.0" encoding="UTF-8" standalone="no"?>
<svg
   xmlns:dc="http://purl.org/dc/elements/1.1/"
   xmlns:cc="http://creativecommons.org/ns#"
   xmlns:rdf="http://www.w3.org/1999/02/22-rdf-syntax-ns#"
   xmlns:svg="http://www.w3.org/2000/svg"
   xmlns="http://www.w3.org/2000/svg"
   xmlns:sodipodi="http://sodipodi.sourceforge.net/DTD/sodipodi-0.dtd"
   xmlns:inkscape="http://www.inkscape.org/namespaces/inkscape"
   width="78.735565mm"
   height="98.716331mm"
   viewBox="0 0 78.735565 98.716331"
   version="1.1"
   id="svg2031"
   inkscape:version="1.0.1 (3bc2e813f5, 2020-09-07)"
   sodipodi:docname="SMBB590D-1100-02.svg">
  <defs
     id="defs2025">
    <inkscape:path-effect
       effect="bspline"
       id="path-effect2610"
       is_visible="true"
       lpeversion="1"
       weight="33.333333"
       steps="2"
       helper_size="0"
       apply_no_weight="true"
       apply_with_weight="true"
       only_selected="false" />
  </defs>
  <sodipodi:namedview
     id="base"
     pagecolor="#ffffff"
     bordercolor="#666666"
     borderopacity="1.0"
     inkscape:pageopacity="0.0"
     inkscape:pageshadow="2"
     inkscape:zoom="2.8"
     inkscape:cx="153.45888"
     inkscape:cy="301.47931"
     inkscape:document-units="mm"
     inkscape:current-layer="layer1"
     inkscape:document-rotation="0"
     showgrid="false"
     inkscape:window-width="1920"
     inkscape:window-height="1017"
     inkscape:window-x="-8"
     inkscape:window-y="-8"
     inkscape:window-maximized="1" />
  <metadata
     id="metadata2028">
    <rdf:RDF>
      <cc:Work
         rdf:about="">
        <dc:format>image/svg+xml</dc:format>
        <dc:type
           rdf:resource="http://purl.org/dc/dcmitype/StillImage" />
        <dc:title></dc:title>
      </cc:Work>
    </rdf:RDF>
  </metadata>
  <g
     inkscape:label="Vrstva 1"
     inkscape:groupmode="layer"
     id="layer1"
     transform="translate(-62.958678,-91.703417)">
    <path
       style="fill:none;stroke:#000000;stroke-width:0.264583px;stroke-linecap:butt;stroke-linejoin:miter;stroke-opacity:1"
       d="m 62.958678,190.22909 c 4.226464,0 8.452662,0 11.814763,-0.0139 3.362102,-0.0139 5.860004,-0.0417 7.864928,-0.16586 2.004925,-0.12416 3.516799,-0.34465 4.68612,-0.64783 1.169321,-0.30318 1.996127,-0.68902 2.755968,-1.21266 0.759841,-0.52364 1.452785,-1.18509 2.228402,-2.37016 0.775617,-1.18508 1.63392,-2.89381 2.256012,-4.50412 0.622092,-1.61031 1.007935,-3.12219 1.417416,-4.93334 0.409481,-1.81114 0.842572,-3.92147 1.255993,-6.52401 0.413422,-2.60255 0.807138,-5.69716 1.208743,-9.05173 0.401605,-3.35457 0.811072,-6.9689 1.126059,-10.32347 0.314986,-3.35456 0.535468,-6.44918 0.755948,-9.18953 0.22049,-2.74036 0.44097,-5.12628 0.61816,-8.12649 0.17718,-3.00022 0.31104,-6.61454 0.48822,-10.61484 0.17718,-4.00029 0.39766,-8.3863 0.60634,-11.97711 0.20867,-3.5908 0.40553,-6.3862 0.5709,-9.07143 0.16537,-2.685221 0.29923,-5.260133 0.39372,-6.791739 0.0945,-1.531606 0.1496,-2.019814 0.22046,-2.346677 0.0709,-0.326863 0.15748,-0.492222 0.2403,-0.523623 0.0828,-0.0314 0.16157,0.07097 0.2166,0.232406 0.055,0.161434 0.0865,0.381914 0.17314,1.511916 0.0866,1.130003 0.22835,3.169457 0.3504,5.157789 0.12206,1.988328 0.22442,3.925418 0.36223,6.882338 0.13781,2.95691 0.31104,6.93345 0.49216,10.9928 0.18111,4.05935 0.3701,8.20125 0.53152,12.18186 0.16143,3.9806 0.29529,7.79965 0.42129,10.99673 0.12599,3.19707 0.24411,5.77198 0.4646,9.56755 0.22049,3.79557 0.54334,8.81152 0.83077,12.60706 0.28743,3.79554 0.5394,6.37045 0.88196,9.07932 0.34255,2.70886 0.77564,5.55149 1.24026,7.90994 0.46462,2.35844 0.9607,4.23253 1.36234,5.48852 0.40164,1.25599 0.70874,1.89382 1.12221,2.47651 0.41347,0.58269 0.93318,1.11027 1.56711,1.56695 0.63393,0.45667 1.382,0.84251 2.34662,1.11806 0.96463,0.27555 2.14578,0.44091 6.49257,0.53539 4.34678,0.0945 11.85891,0.11812 19.37092,0.14175"
       id="path2608"
       inkscape:path-effect="#path-effect2610"
       inkscape:original-d="m 62.958678,190.22909 c 4.226464,2.6e-4 8.452662,2.6e-4 12.678597,0 2.49827,-0.0276 4.996172,-0.0554 7.493863,-0.0834 1.512199,-0.22023 3.024073,-0.44071 4.535715,-0.66146 0.827103,-0.3856 1.65391,-0.77144 2.480468,-1.15755 0.693235,-0.66121 1.386176,-1.32266 2.078869,-1.98438 0.858602,-1.70854 1.716905,-3.41727 2.574962,-5.1263 0.386122,-1.51167 0.771967,-3.02355 1.157552,-4.53572 0.433371,-2.11014 0.86646,-4.22047 1.299294,-6.3311 0.393997,-3.09448 0.787715,-6.18909 1.181174,-9.28404 0.409747,-3.6142 0.819214,-7.22853 1.228424,-10.84319 0.220755,-3.09448 0.441234,-6.1891 0.661454,-9.28404 0.22076,-2.38576 0.44124,-4.77168 0.66146,-7.15792 0.13414,-3.61421 0.268,-7.22853 0.4016,-10.84319 0.22076,-4.38593 0.44124,-8.77194 0.66146,-13.1583 0.19713,-2.79524 0.39399,-5.59064 0.59059,-8.38635 0.13413,-2.574747 0.26799,-5.149659 0.4016,-7.724886 0.0554,-0.487965 0.1105,-0.976175 0.16536,-1.464659 0.0869,-0.165103 0.17351,-0.330465 0.25986,-0.496094 0.079,0.102637 0.15776,0.205002 0.23624,0.307107 0.0318,0.220756 0.0633,0.441236 0.0945,0.661459 0.14201,2.039802 0.28375,4.079256 0.42522,6.118489 0.10264,1.937434 0.205,3.874524 0.30711,5.811384 0.17351,3.97697 0.34674,7.95351 0.51972,11.92987 0.18925,4.14234 0.37824,8.28424 0.56696,12.42597 0.13413,3.81948 0.268,7.63853 0.4016,11.4574 0.11838,2.57528 0.2365,5.15019 0.35435,7.72489 0.32313,5.01643 0.64598,10.03238 0.96857,15.04818 0.25225,2.57528 0.50423,5.15019 0.75595,7.72489 0.43337,2.84302 0.86646,5.68565 1.29929,8.52809 0.49637,1.87443 0.99245,3.74852 1.48828,5.62239 0.30738,0.63811 0.61448,1.27594 0.92132,1.9135 0.51999,0.52787 1.0397,1.05545 1.55915,1.58278 0.74836,0.38612 1.49642,0.77197 2.24424,1.15755 1.18146,0.16564 2.36261,0.331 3.54352,0.4961 7.51269,0.0239 15.02482,0.0475 22.53683,0.0709" />
  </g>
</svg>
