<?xml version="1.0" encoding="UTF-8" standalone="no"?>
<svg
   xmlns:dc="http://purl.org/dc/elements/1.1/"
   xmlns:cc="http://creativecommons.org/ns#"
   xmlns:rdf="http://www.w3.org/1999/02/22-rdf-syntax-ns#"
   xmlns:svg="http://www.w3.org/2000/svg"
   xmlns="http://www.w3.org/2000/svg"
   xmlns:sodipodi="http://sodipodi.sourceforge.net/DTD/sodipodi-0.dtd"
   xmlns:inkscape="http://www.inkscape.org/namespaces/inkscape"
   width="79.798111mm"
   height="98.874672mm"
   viewBox="0 0 79.798111 98.874672"
   version="1.1"
   id="svg8"
   inkscape:version="1.0.1 (3bc2e813f5, 2020-09-07)"
   sodipodi:docname="SMBB1050D-1100-02.svg">
  <defs
     id="defs2">
    <inkscape:path-effect
       effect="bspline"
       id="path-effect849"
       is_visible="true"
       lpeversion="1"
       weight="33.333333"
       steps="2"
       helper_size="0"
       apply_no_weight="true"
       apply_with_weight="true"
       only_selected="false" />
  </defs>
  <sodipodi:namedview
     id="base"
     pagecolor="#ffffff"
     bordercolor="#666666"
     borderopacity="1.0"
     inkscape:pageopacity="0.0"
     inkscape:pageshadow="2"
     inkscape:zoom="1.4"
     inkscape:cx="190.69639"
     inkscape:cy="206.53662"
     inkscape:document-units="mm"
     inkscape:current-layer="layer1"
     inkscape:document-rotation="0"
     showgrid="false"
     fit-margin-top="0"
     fit-margin-left="0"
     fit-margin-right="0"
     fit-margin-bottom="0"
     inkscape:window-width="1920"
     inkscape:window-height="1017"
     inkscape:window-x="-8"
     inkscape:window-y="-8"
     inkscape:window-maximized="1" />
  <metadata
     id="metadata5">
    <rdf:RDF>
      <cc:Work
         rdf:about="">
        <dc:format>image/svg+xml</dc:format>
        <dc:type
           rdf:resource="http://purl.org/dc/dcmitype/StillImage" />
        <dc:title></dc:title>
      </cc:Work>
    </rdf:RDF>
  </metadata>
  <g
     inkscape:label="Vrstva 1"
     inkscape:groupmode="layer"
     id="layer1"
     transform="translate(-43.39326,-155.38014)">
    <path
       style="fill:none;stroke:#000000;stroke-width:0.264583px;stroke-linecap:butt;stroke-linejoin:miter;stroke-opacity:1"
       d="m 43.394713,254.05568 c 1.520357,-0.0167 3.040457,-0.0334 4.73317,-0.12807 1.692713,-0.0947 3.557993,-0.26728 4.930518,-0.46218 1.372525,-0.19489 2.252265,-0.41204 3.407627,-0.87142 1.155362,-0.45938 2.586338,-1.16095 3.769514,-1.99058 1.183176,-0.82963 2.118605,-1.78733 2.859151,-2.68377 0.740545,-0.89645 1.28621,-1.73165 2.193822,-3.29352 0.907612,-1.56187 2.177112,-3.85032 3.193303,-5.61264 1.01619,-1.76233 1.779008,-2.99843 2.413773,-4.2568 0.634765,-1.25838 1.141451,-2.53902 1.598043,-3.89763 0.456592,-1.35862 0.863058,-2.79517 1.241698,-4.30135 0.378639,-1.50618 0.729424,-3.08192 1.138688,-5.12265 0.409264,-2.04074 0.876974,-4.54634 1.286238,-7.04644 0.409264,-2.5001 0.76005,-4.99456 1.110846,-7.57819 0.350797,-2.58364 0.701579,-5.25628 1.016181,-7.70627 0.314602,-2.45 0.593003,-4.6772 0.865846,-7.07986 0.272843,-2.40266 0.540108,-4.98065 0.879768,-8.44963 0.33966,-3.46898 0.751691,-7.82872 1.141461,-11.75149 0.389769,-3.92278 0.757255,-7.40835 1.04958,-9.98084 0.292325,-2.57249 0.509477,-4.23176 0.676528,-5.12833 0.167052,-0.89657 0.28398,-1.0302 0.409382,-1.10818 0.125402,-0.078 0.259038,-0.10024 0.3955,-0.0918 0.136462,0.008 0.275668,0.0474 0.37299,0.19227 0.09732,0.14488 0.153002,0.39545 0.219823,0.67664 0.06682,0.28119 0.144774,0.59301 0.183712,0.93542 0.03894,0.34242 0.03894,0.71548 0.100207,1.41709 0.06127,0.70161 0.183766,1.73169 0.31183,2.95668 0.128065,1.225 0.261695,2.64484 0.386973,4.32086 0.125277,1.67602 0.242205,3.60812 0.367488,6.02749 0.125282,2.41937 0.258916,5.32587 0.375849,7.86774 0.116932,2.54186 0.217157,4.71895 0.334089,7.02974 0.116933,2.31079 0.250564,4.75515 0.437099,8.04316 0.186534,3.28801 0.425959,7.41947 0.659822,11.37844 0.233863,3.95897 0.462148,7.74522 0.732207,11.70697 0.270058,3.96176 0.581869,8.09879 0.874201,11.6123 0.292333,3.51351 0.565163,6.4033 0.87699,8.95074 0.311827,2.54744 0.662611,4.75238 0.971663,6.32817 0.309053,1.57579 0.576318,2.52235 0.896522,3.37428 0.320205,0.85194 0.693262,1.60919 1.13319,2.29963 0.439928,0.69043 0.946612,1.31404 1.637109,1.81789 0.690496,0.50384 1.564673,0.88804 2.555794,1.14133 0.99112,0.2533 2.099151,0.37579 3.502322,0.44538 1.40317,0.0696 3.10141,0.0863 4.88601,0.0863 1.7846,0 3.65545,-0.0167 6.61494,-0.0251 2.9595,-0.008 7.00744,-0.008 11.05519,-0.008"
       id="path847"
       inkscape:path-effect="#path-effect849"
       inkscape:original-d="m 43.394713,254.05568 c 1.52036,-0.0164 3.04046,-0.0331 4.56029,-0.0501 1.86562,-0.17235 3.7309,-0.34496 5.59596,-0.51784 0.88004,-0.21689 1.75978,-0.43404 2.63928,-0.65146 1.4313,-0.70134 2.86228,-1.4029 4.29302,-2.10475 0.93572,-0.95747 1.87115,-1.91517 2.80633,-2.87315 0.54595,-0.83497 1.09161,-1.67017 1.63703,-2.50565 1.26982,-2.28828 2.53932,-4.57673 3.80858,-6.86549 0.76312,-1.23588 1.52593,-2.47198 2.2885,-3.70836 0.50697,-1.28043 1.01366,-2.56107 1.52009,-3.842 0.40675,-1.43634 0.81321,-2.87289 1.21942,-4.30972 0.35107,-1.57555 0.70185,-3.15129 1.05238,-4.72733 0.46799,-2.50544 0.9357,-5.01104 1.40316,-7.51696 0.35106,-2.4943 0.70185,-4.98876 1.05238,-7.48354 0.35106,-2.67249 0.70184,-5.34513 1.05237,-8.01809 0.27868,-2.22703 0.55708,-4.45423 0.83522,-6.68174 0.26754,-2.57782 0.5348,-5.15581 0.80181,-7.73411 0.41231,-4.35966 0.82434,-8.7194 1.23612,-13.0795 0.36776,-3.48545 0.73525,-6.97102 1.10248,-10.45692 0.21743,-1.65907 0.43458,-3.31834 0.65147,-4.9779 0.1172,-0.13337 0.23413,-0.267 0.35079,-0.4009 0.13391,-0.022 0.26754,-0.0443 0.40091,-0.0668 0.13947,0.0392 0.27867,0.0782 0.41761,0.11693 0.0559,0.25084 0.11162,0.5014 0.16704,0.7517 0.0782,0.31208 0.15617,0.62389 0.23386,0.93544 2.7e-4,0.37333 2.7e-4,0.74639 0,1.11919 0.12277,1.03039 0.24526,2.06047 0.3675,3.0903 0.1339,1.42017 0.26753,2.84001 0.4009,4.25961 0.1172,1.93244 0.23413,3.86454 0.35079,5.79641 0.13391,2.90688 0.26754,5.81338 0.40091,8.71967 0.10049,2.17744 0.20071,4.35453 0.30068,6.5314 0.1339,2.44471 0.26753,4.88907 0.4009,7.3332 0.2397,4.13189 0.47912,8.26335 0.71829,12.39463 0.22856,3.78666 0.45685,7.5729 0.68487,11.35895 0.31209,4.13746 0.6239,8.27449 0.93545,12.41133 0.2731,2.89018 0.54594,5.77997 0.81851,8.66956 0.35106,2.20528 0.70185,4.41021 1.05237,6.61492 0.26754,0.94686 0.53481,1.89342 0.80181,2.83974 0.37334,0.75754 0.7464,1.51479 1.11919,2.27179 0.50698,0.62391 1.01366,1.24752 1.5201,1.87088 0.87447,0.38448 1.74865,0.76867 2.62258,1.15261 1.10834,0.12276 2.21637,0.24526 3.324167,0.36749 1.69857,0.017 3.39681,0.0337 5.09482,0.0501 1.87119,-0.0164 3.74204,-0.0331 5.61266,-0.0501 4.04837,2.7e-4 8.09631,2.7e-4 12.14406,0" />
  </g>
</svg>
