<?xml version="1.0" encoding="UTF-8" standalone="no"?>
<svg
   xmlns:dc="http://purl.org/dc/elements/1.1/"
   xmlns:cc="http://creativecommons.org/ns#"
   xmlns:rdf="http://www.w3.org/1999/02/22-rdf-syntax-ns#"
   xmlns:svg="http://www.w3.org/2000/svg"
   xmlns="http://www.w3.org/2000/svg"
   xmlns:sodipodi="http://sodipodi.sourceforge.net/DTD/sodipodi-0.dtd"
   xmlns:inkscape="http://www.inkscape.org/namespaces/inkscape"
   width="80.703896mm"
   height="99.272949mm"
   viewBox="0 0 80.703896 99.272949"
   version="1.1"
   id="svg2618"
   inkscape:version="1.0.1 (3bc2e813f5, 2020-09-07)"
   sodipodi:docname="SMBB780D-1100-02.svg">
  <defs
     id="defs2612">
    <inkscape:path-effect
       effect="bspline"
       id="path-effect3197"
       is_visible="true"
       lpeversion="1"
       weight="33.333333"
       steps="2"
       helper_size="0"
       apply_no_weight="true"
       apply_with_weight="true"
       only_selected="false" />
  </defs>
  <sodipodi:namedview
     id="base"
     pagecolor="#ffffff"
     bordercolor="#666666"
     borderopacity="1.0"
     inkscape:pageopacity="0.0"
     inkscape:pageshadow="2"
     inkscape:zoom="1.979899"
     inkscape:cx="353.21952"
     inkscape:cy="450.75016"
     inkscape:document-units="mm"
     inkscape:current-layer="layer1"
     inkscape:document-rotation="0"
     showgrid="false"
     inkscape:window-width="1920"
     inkscape:window-height="1017"
     inkscape:window-x="-8"
     inkscape:window-y="-8"
     inkscape:window-maximized="1" />
  <metadata
     id="metadata2615">
    <rdf:RDF>
      <cc:Work
         rdf:about="">
        <dc:format>image/svg+xml</dc:format>
        <dc:type
           rdf:resource="http://purl.org/dc/dcmitype/StillImage" />
        <dc:title></dc:title>
      </cc:Work>
    </rdf:RDF>
  </metadata>
  <g
     inkscape:label="Vrstva 1"
     inkscape:groupmode="layer"
     id="layer1"
     transform="translate(-82.114483,-93.493851)">
    <path
       style="fill:none;stroke:#000000;stroke-width:0.264583px;stroke-linecap:butt;stroke-linejoin:miter;stroke-opacity:1"
       d="m 82.118561,192.6178 c 1.264218,-0.039 2.528181,-0.078 3.950846,-0.14757 1.422665,-0.0696 3.003977,-0.16982 4.379305,-0.28676 1.375328,-0.11694 2.544609,-0.25057 3.791853,-0.50115 1.247245,-0.25058 2.57243,-0.61807 3.956079,-1.19159 1.383649,-0.57352 2.825766,-1.35305 3.983886,-2.23 1.15812,-0.87696 2.0323,-1.85136 2.91762,-3.05127 0.88532,-1.19991 1.78177,-2.62533 2.66989,-4.63261 0.88812,-2.00729 1.76787,-4.59642 2.39428,-6.50629 0.62642,-1.90987 0.99948,-3.1404 1.5563,-5.49016 0.55682,-2.34977 1.29737,-5.81863 1.80407,-8.36048 0.50671,-2.54185 0.77954,-4.15657 1.11085,-6.47572 0.33131,-2.31915 0.72107,-5.34257 1.16653,-8.75308 0.44545,-3.41051 0.94657,-7.20789 1.37254,-10.78543 0.42596,-3.57754 0.77675,-6.93505 1.14703,-10.46806 0.37028,-3.533 0.76005,-7.24129 1.11084,-10.37895 0.35079,-3.13766 0.6626,-5.70452 0.97442,-8.24082 0.31181,-2.5363 0.62362,-5.0419 0.88532,-6.857124 0.2617,-1.815228 0.47328,-2.939964 0.61805,-3.588691 0.14476,-0.648728 0.22271,-0.821344 0.32026,-0.927225 0.0975,-0.105882 0.21448,-0.144859 0.34261,-0.105734 0.12813,0.03912 0.26733,0.156052 0.34515,0.3788 0.0778,0.222748 0.0945,0.55126 0.21145,2.001782 0.11694,1.450523 0.33409,4.022942 0.52897,6.706802 0.19488,2.68386 0.36749,5.479 0.51505,8.12109 0.14755,2.64209 0.27005,5.13098 0.46493,8.93684 0.19489,3.80586 0.46215,8.92842 0.74335,13.8479 0.28119,4.91949 0.5763,9.63559 0.92988,14.75831 0.35358,5.12272 0.76561,10.65175 1.10527,14.594 0.33967,3.94225 0.60693,6.29752 0.88813,8.34104 0.28121,2.04352 0.57631,3.77517 0.96609,5.75466 0.38978,1.97949 0.8742,4.20669 1.19718,5.54305 0.32297,1.33635 0.48445,1.7818 0.67098,2.28293 0.18654,0.50113 0.39812,1.05794 0.65985,1.63702 0.26173,0.57909 0.57354,1.18044 0.9717,1.75394 0.39817,0.5735 0.88258,1.11916 1.48676,1.62583 0.60418,0.50666 1.32802,0.97438 2.20501,1.36409 0.87699,0.38972 1.90707,0.70153 3.08472,0.88524 1.17765,0.18371 2.50284,0.23939 6.40615,0.29507 3.90331,0.0557 10.38446,0.11135 16.86548,0.16703"
       id="path3195"
       inkscape:path-effect="#path-effect3197"
       inkscape:original-d="m 82.118561,192.6178 c 1.264227,-0.0387 2.528189,-0.0777 3.791887,-0.11693 1.581639,-0.1 3.162954,-0.20018 4.744035,-0.30067 1.16959,-0.13338 2.338871,-0.26701 3.507912,-0.40091 1.325501,-0.36724 2.650688,-0.73472 3.975634,-1.10248 1.442434,-0.77929 2.884551,-1.55881 4.326421,-2.33861 0.87448,-0.97418 1.74866,-1.94858 2.62259,-2.92326 0.89674,-1.4252 1.79319,-2.85061 2.68939,-4.27632 0.88005,-2.58895 1.7598,-5.17808 2.63929,-7.76751 0.37334,-1.23032 0.74639,-2.46085 1.11919,-3.69167 0.74084,-3.46874 1.48139,-6.9376 2.22168,-10.4068 0.27311,-1.61452 0.54594,-3.22924 0.81851,-4.84426 0.39005,-3.02329 0.77981,-6.04671 1.16931,-9.07046 0.5014,-3.79727 1.00252,-7.59465 1.50339,-11.39237 0.35106,-3.35737 0.70185,-6.71488 1.05237,-10.07272 0.39004,-3.70817 0.7798,-7.41646 1.16931,-11.12509 0.31208,-2.56669 0.62389,-5.13354 0.93544,-7.7007 0.31209,-2.50544 0.6239,-5.01104 0.93545,-7.51696 0.21185,-1.124516 0.42343,-2.249252 0.63476,-3.374276 0.0782,-0.17235 0.15617,-0.344959 0.23386,-0.517835 0.1172,-0.03871 0.23413,-0.07769 0.35079,-0.11693 0.13947,0.117197 0.27867,0.234125 0.41761,0.35079 0.017,0.32879 0.0337,0.657302 0.0501,0.985557 0.21743,2.572784 0.43458,5.145204 0.65147,7.717404 0.17288,2.79552 0.34549,5.59066 0.51784,8.38558 0.12276,2.48927 0.24526,4.97816 0.36749,7.46685 0.26754,5.12303 0.53481,10.24559 0.80181,15.368 0.29538,4.71655 0.59049,9.43265 0.88533,14.14858 0.41232,5.52951 0.82435,11.05854 1.23612,16.58741 0.26754,2.35562 0.53481,4.71089 0.80181,7.06594 0.29538,1.73198 0.59049,3.46363 0.88533,5.19505 0.4847,2.22756 0.96912,4.45476 1.45328,6.68174 0.16174,0.44572 0.32322,0.89116 0.48443,1.33635 0.21185,0.55708 0.42344,1.11388 0.63476,1.67043 0.31209,0.60163 0.62389,1.20298 0.93545,1.80407 0.48469,0.54595 0.96911,1.09161 1.45327,1.63702 0.72414,0.468 1.44798,0.93571 2.17157,1.40317 1.03038,0.31209 2.06046,0.62389 3.0903,0.93544 1.3255,0.0559 2.65069,0.11163 3.97564,0.16705 6.48168,0.0559 12.96283,0.11162 19.44385,0.16704" />
  </g>
</svg>
