<?xml version="1.0" encoding="UTF-8" standalone="no"?>
<svg
   xmlns:dc="http://purl.org/dc/elements/1.1/"
   xmlns:cc="http://creativecommons.org/ns#"
   xmlns:rdf="http://www.w3.org/1999/02/22-rdf-syntax-ns#"
   xmlns:svg="http://www.w3.org/2000/svg"
   xmlns="http://www.w3.org/2000/svg"
   xmlns:sodipodi="http://sodipodi.sourceforge.net/DTD/sodipodi-0.dtd"
   xmlns:inkscape="http://www.inkscape.org/namespaces/inkscape"
   width="79.6875mm"
   height="99.458527mm"
   viewBox="0 0 79.6875 99.458527"
   version="1.1"
   id="svg857"
   inkscape:version="1.0.1 (3bc2e813f5, 2020-09-07)"
   sodipodi:docname="SMBB940D-1100-02.svg">
  <defs
     id="defs851">
    <inkscape:path-effect
       effect="bspline"
       id="path-effect1436"
       is_visible="true"
       lpeversion="1"
       weight="33.333333"
       steps="2"
       helper_size="0"
       apply_no_weight="true"
       apply_with_weight="true"
       only_selected="false" />
  </defs>
  <sodipodi:namedview
     id="base"
     pagecolor="#ffffff"
     bordercolor="#666666"
     borderopacity="1.0"
     inkscape:pageopacity="0.0"
     inkscape:pageshadow="2"
     inkscape:zoom="1.979899"
     inkscape:cx="172.62293"
     inkscape:cy="319.81546"
     inkscape:document-units="mm"
     inkscape:current-layer="layer1"
     inkscape:document-rotation="0"
     showgrid="false"
     fit-margin-top="0"
     fit-margin-left="0"
     fit-margin-right="0"
     fit-margin-bottom="0"
     inkscape:window-width="1920"
     inkscape:window-height="1017"
     inkscape:window-x="-8"
     inkscape:window-y="-8"
     inkscape:window-maximized="1" />
  <metadata
     id="metadata854">
    <rdf:RDF>
      <cc:Work
         rdf:about="">
        <dc:format>image/svg+xml</dc:format>
        <dc:type
           rdf:resource="http://purl.org/dc/dcmitype/StillImage" />
        <dc:title></dc:title>
      </cc:Work>
    </rdf:RDF>
  </metadata>
  <g
     inkscape:label="Vrstva 1"
     inkscape:groupmode="layer"
     id="layer1"
     transform="translate(-20.72317,-111.98373)">
    <path
       style="fill:none;stroke:#000000;stroke-width:0.264583px;stroke-linecap:butt;stroke-linejoin:miter;stroke-opacity:1"
       d="m 20.730093,211.27656 c 2.550447,-0.13365 5.100643,-0.26728 7.216522,-0.49837 2.115878,-0.2311 3.797415,-0.55961 5.456678,-1.14428 1.659263,-0.58467 3.296256,-1.42544 4.66876,-2.372 1.372504,-0.94657 2.480535,-1.99892 3.583006,-3.50785 1.102471,-1.50894 2.199365,-3.47444 3.157087,-5.37316 0.957721,-1.89873 1.77622,-3.73061 2.672697,-6.07759 0.896476,-2.34697 1.870875,-5.20892 2.558542,-7.2747 0.687667,-2.06578 1.088563,-3.33528 1.456068,-4.8164 0.367505,-1.48111 0.701586,-3.17379 0.977209,-4.55469 0.275623,-1.3809 0.492776,-2.44996 0.902041,-4.69951 0.409264,-2.24954 1.010608,-5.67943 1.584132,-9.20408 0.573523,-3.52465 1.119187,-7.14386 1.595266,-10.43464 0.476079,-3.29079 0.882542,-6.25296 1.311293,-9.46858 0.428751,-3.21563 0.879759,-6.68449 1.339133,-10.10056 0.459373,-3.41608 0.927085,-6.77915 1.325206,-9.4296 0.39812,-2.65044 0.726633,-4.58811 1.016173,-6.08317 0.28954,-1.49506 0.540099,-2.54741 0.712711,-3.15161 0.172612,-0.6042 0.26727,-0.76011 0.373166,-0.85761 0.105895,-0.0975 0.22283,-0.13649 0.350962,-0.10015 0.128133,0.0363 0.267333,0.1477 0.395308,0.37882 0.127976,0.23112 0.244903,0.5819 0.439761,1.60644 0.194858,1.02454 0.46769,2.72279 0.751658,4.96397 0.283969,2.24119 0.579073,5.02519 0.812933,7.47797 0.233859,2.45278 0.406467,4.57418 0.609706,7.0548 0.203239,2.48063 0.437094,5.32031 0.701581,8.8561 0.264486,3.5358 0.559591,7.76749 0.840783,11.72367 0.281193,3.95618 0.548456,7.63663 0.790672,10.88844 0.242216,3.25181 0.459368,6.07479 0.645902,8.52756 0.186533,2.45278 0.342437,4.53521 0.506703,6.43396 0.164265,1.89874 0.336872,3.61368 0.696025,6.57318 0.359153,2.9595 0.904818,7.16335 1.314088,9.97248 0.40927,2.80914 0.682101,4.22341 0.985587,5.46512 0.303486,1.2417 0.637565,2.31075 0.988385,3.23785 0.35082,0.9271 0.71831,1.71219 1.155465,2.37478 0.437155,0.66259 0.943845,1.20269 1.500692,1.63974 0.556846,0.43705 1.163758,0.77113 1.884836,1.0467 0.721079,0.27558 1.55628,0.49274 2.717227,0.62633 1.160947,0.1336 2.647604,0.18372 5.982954,0.22547 3.33535,0.0418 8.519159,0.0752 13.702809,0.10858"
       id="path1434"
       inkscape:path-effect="#path-effect1436"
       inkscape:original-d="m 20.730093,211.27656 c 2.550461,-0.13337 5.100658,-0.267 7.650589,-0.4009 1.681869,-0.32827 3.363407,-0.65678 5.044712,-0.98556 1.637324,-0.84054 3.274317,-1.68131 4.91108,-2.52236 1.108339,-1.05213 2.216372,-2.10448 3.324164,-3.15712 1.097206,-1.96532 2.194102,-3.93082 3.290755,-5.89663 0.818795,-1.83168 1.637292,-3.66356 2.455539,-5.49573 0.974704,-2.86181 1.949104,-5.72376 2.92326,-8.58604 0.401177,-1.26929 0.802074,-2.53879 1.202714,-3.80859 0.334356,-1.69247 0.668438,-3.38515 1.00226,-5.07812 0.217427,-1.06883 0.434578,-2.13789 0.65147,-3.20723 0.601634,-3.42976 1.202976,-6.85965 1.80407,-10.28988 0.545949,-3.61908 1.091615,-7.23828 1.637024,-10.85782 0.406747,-2.96204 0.81321,-5.92421 1.219417,-8.88672 0.451292,-3.46874 0.902301,-6.9376 1.353053,-10.4068 0.467995,-3.36295 0.935707,-6.72602 1.403165,-10.08943 0.328789,-1.93747 0.657301,-3.87514 0.985557,-5.81311 0.250833,-1.05213 0.501393,-2.10448 0.751694,-3.15712 0.09493,-0.15564 0.189582,-0.31155 0.283975,-0.46772 0.117197,-0.0387 0.234124,-0.0777 0.35079,-0.11693 0.139472,0.11163 0.278672,0.22299 0.41761,0.33409 0.117197,0.35106 0.234125,0.70184 0.35079,1.05237 0.273108,1.69857 0.545941,3.39681 0.818512,5.09482 0.295381,2.78438 0.590487,5.56838 0.885333,8.35218 0.172879,2.12176 0.345488,4.24316 0.517835,6.36435 0.23413,2.84006 0.467984,5.67974 0.701582,8.51922 0.295381,4.23211 0.590484,8.4638 0.88533,12.6953 0.267539,3.68086 0.534803,7.36131 0.801807,11.04157 0.217427,2.82336 0.434578,5.64634 0.65147,8.46911 0.156176,2.08278 0.312079,4.16521 0.467723,6.24742 0.172878,1.71528 0.345487,3.43022 0.517834,5.14494 0.545949,4.20427 1.091616,8.40812 1.637025,12.61178 0.273108,1.4146 0.545941,2.82887 0.818512,4.2429 0.33436,1.06937 0.668441,2.13842 1.002263,3.20724 0.367766,0.78538 0.735256,1.57047 1.102487,2.35531 0.506973,0.54038 1.013661,1.08048 1.520095,1.62032 0.6072,0.33436 1.214112,0.66844 1.820772,1.00226 0.835499,0.21743 1.670701,0.43458 2.505652,0.65147 1.486982,0.0504 2.973639,0.10049 4.46006,0.15034 5.184286,0.0337 10.368095,0.0671 15.551747,0.10023" />
  </g>
</svg>
