<?xml version="1.0" encoding="UTF-8" standalone="no"?>
<svg
   xmlns:dc="http://purl.org/dc/elements/1.1/"
   xmlns:cc="http://creativecommons.org/ns#"
   xmlns:rdf="http://www.w3.org/1999/02/22-rdf-syntax-ns#"
   xmlns:svg="http://www.w3.org/2000/svg"
   xmlns="http://www.w3.org/2000/svg"
   xmlns:sodipodi="http://sodipodi.sourceforge.net/DTD/sodipodi-0.dtd"
   xmlns:inkscape="http://www.inkscape.org/namespaces/inkscape"
   width="77.904037mm"
   height="99.577499mm"
   viewBox="0 0 77.904037 99.577499"
   version="1.1"
   id="svg857"
   inkscape:version="1.0.1 (3bc2e813f5, 2020-09-07)"
   sodipodi:docname="SMBB850D-1100-02.svg">
  <defs
     id="defs851">
    <inkscape:path-effect
       effect="bspline"
       id="path-effect1436"
       is_visible="true"
       lpeversion="1"
       weight="33.333333"
       steps="2"
       helper_size="0"
       apply_no_weight="true"
       apply_with_weight="true"
       only_selected="false" />
  </defs>
  <sodipodi:namedview
     id="base"
     pagecolor="#ffffff"
     bordercolor="#666666"
     borderopacity="1.0"
     inkscape:pageopacity="0.0"
     inkscape:pageshadow="2"
     inkscape:zoom="1.4"
     inkscape:cx="143.08493"
     inkscape:cy="234.29751"
     inkscape:document-units="mm"
     inkscape:current-layer="layer1"
     inkscape:document-rotation="0"
     showgrid="false"
     fit-margin-top="0"
     fit-margin-left="0"
     fit-margin-right="0"
     fit-margin-bottom="0"
     inkscape:window-width="1920"
     inkscape:window-height="1017"
     inkscape:window-x="-8"
     inkscape:window-y="-8"
     inkscape:window-maximized="1" />
  <metadata
     id="metadata854">
    <rdf:RDF>
      <cc:Work
         rdf:about="">
        <dc:format>image/svg+xml</dc:format>
        <dc:type
           rdf:resource="http://purl.org/dc/dcmitype/StillImage" />
        <dc:title></dc:title>
      </cc:Work>
    </rdf:RDF>
  </metadata>
  <g
     inkscape:label="Vrstva 1"
     inkscape:groupmode="layer"
     id="layer1"
     transform="translate(-67.44017,-84.635648)">
    <path
       style="fill:none;stroke:#000000;stroke-width:0.264583px;stroke-linecap:butt;stroke-linejoin:miter;stroke-opacity:1"
       d="m 67.452147,183.81461 c 0.85773,-0.078 1.715217,-0.15593 2.784294,-0.31185 1.069077,-0.15591 2.349717,-0.38977 3.613679,-0.66261 1.263963,-0.27285 2.511197,-0.58465 3.563555,-0.91318 1.052359,-0.32853 1.909829,-0.67374 2.78956,-1.15817 0.879731,-0.48442 1.781744,-1.10804 2.639208,-1.88755 0.857464,-0.77952 1.67039,-1.71495 2.449928,-2.65039 0.779538,-0.93545 1.525653,-1.87087 2.210523,-2.98447 0.684871,-1.11359 1.308488,-2.40537 1.854169,-3.6582 0.545681,-1.25282 1.013392,-2.46664 1.831918,-5.03913 0.818525,-2.57249 1.987808,-6.50351 2.789622,-9.38223 0.801815,-2.87872 1.23612,-4.70503 2.054645,-8.32993 0.818525,-3.62489 2.021215,-9.04813 3.051329,-14.33788 1.030113,-5.28975 1.887583,-10.44572 2.728383,-15.59628 0.84079,-5.15056 1.66485,-10.29539 2.4444,-15.13413 0.77954,-4.838738 1.51452,-9.371092 1.99894,-11.965873 0.48442,-2.59478 0.71827,-3.251802 0.91316,-3.775216 0.19488,-0.523414 0.35079,-0.913177 0.50685,-1.108129 0.15607,-0.194952 0.31198,-0.194952 0.44554,-0.03888 0.13356,0.156069 0.24492,0.467877 0.49547,1.38106 0.25055,0.913183 0.64031,2.427682 1.05234,4.844267 0.41202,2.416585 0.84632,5.735115 1.19711,8.758626 0.35079,3.023508 0.61806,5.751828 0.94658,9.688538 0.32852,3.93671 0.71827,9.08154 1.186,14.85017 0.46773,5.76864 1.0134,12.1607 1.46442,17.34466 0.45102,5.18395 0.80738,9.15951 1.29738,13.34678 0.49001,4.18727 1.11363,8.586 1.65932,11.85451 0.54569,3.2685 1.0134,5.40662 1.55912,7.24969 0.54571,1.84306 1.16933,3.39097 1.79301,4.56027 0.62369,1.1693 1.2473,1.95996 2.14383,2.64478 0.89652,0.68481 2.06579,1.26388 3.46897,1.6703 1.40317,0.40642 3.04016,0.64027 6.19175,0.77389 3.15158,0.13361 7.81757,0.16702 10.19519,0.18931 2.37762,0.0223 2.46666,0.0334 2.55546,0.0445"
       id="path1434"
       inkscape:path-effect="#path-effect1436"
       inkscape:original-d="m 67.452147,183.81461 c 0.857755,-0.0777 1.715243,-0.15564 2.572469,-0.23386 1.280957,-0.2336 2.561598,-0.46745 3.841999,-0.70158 1.247547,-0.31155 2.49478,-0.62336 3.741774,-0.93544 0.857772,-0.34497 1.715244,-0.69018 2.572467,-1.03567 0.902319,-0.62338 1.804334,-1.24699 2.706106,-1.87089 0.813226,-0.9352 1.626153,-1.87062 2.438834,-2.80633 0.746408,-0.93519 1.492519,-1.87062 2.238383,-2.80633 0.623906,-1.29156 1.24752,-2.58334 1.870887,-3.87541 0.467995,-1.21361 0.935707,-2.42743 1.403165,-3.64154 1.16959,-3.9309 2.338871,-7.86192 3.507911,-11.79327 0.434587,-1.82611 0.868889,-3.65242 1.302938,-5.47902 1.203003,-5.42319 2.405693,-10.84643 3.608139,-16.27004 0.857771,-5.15591 1.715241,-10.31188 2.572471,-15.46822 0.82436,-5.14478 1.64842,-10.28961 2.47224,-15.43482 0.73527,-4.53227 1.47025,-9.064624 2.20498,-13.597334 0.23413,-0.656785 0.46798,-1.313809 0.70158,-1.971114 0.15617,-0.389509 0.31208,-0.779269 0.46772,-1.169302 0.15617,2.65e-4 0.31208,2.65e-4 0.46772,0 0.11163,0.312084 0.22299,0.623893 0.33409,0.935442 0.39004,1.514822 0.7798,3.029321 1.1693,4.543581 0.43459,3.318928 0.86889,6.637459 1.30294,9.955797 0.26754,2.72869 0.5348,5.45701 0.80181,8.18512 0.39004,5.14531 0.7798,10.29014 1.1693,15.43482 0.54596,6.39259 1.09162,12.78465 1.63703,19.17659 0.35663,3.97597 0.71298,7.95153 1.06908,11.9269 0.62391,4.39916 1.24752,8.79789 1.87088,13.19643 0.468,2.13846 0.93571,4.27658 1.40317,6.41447 0.6239,1.54823 1.24752,3.09614 1.87089,4.64381 0.6239,0.79095 1.24752,1.58161 1.87088,2.37202 1.1696,0.57936 2.33887,1.15843 3.50792,1.73725 1.63732,0.23413 3.27431,0.46798 4.91107,0.70158 4.66644,0.0337 9.33243,0.0671 13.99824,0.10023 0.0894,0.0114 0.17845,0.0225 0.26727,0.0334" />
  </g>
</svg>
