<?xml version="1.0" encoding="UTF-8" standalone="no"?>
<svg
   xmlns:dc="http://purl.org/dc/elements/1.1/"
   xmlns:cc="http://creativecommons.org/ns#"
   xmlns:rdf="http://www.w3.org/1999/02/22-rdf-syntax-ns#"
   xmlns:svg="http://www.w3.org/2000/svg"
   xmlns="http://www.w3.org/2000/svg"
   xmlns:sodipodi="http://sodipodi.sourceforge.net/DTD/sodipodi-0.dtd"
   xmlns:inkscape="http://www.inkscape.org/namespaces/inkscape"
   width="78.556168mm"
   height="99.495132mm"
   viewBox="0 0 78.556168 99.495132"
   version="1.1"
   id="svg8"
   inkscape:version="1.0.1 (3bc2e813f5, 2020-09-07)"
   sodipodi:docname="SMBB880D-1100-02.svg">
  <defs
     id="defs2">
    <inkscape:path-effect
       effect="bspline"
       id="path-effect849"
       is_visible="true"
       lpeversion="1"
       weight="33.333333"
       steps="2"
       helper_size="0"
       apply_no_weight="true"
       apply_with_weight="true"
       only_selected="false" />
  </defs>
  <sodipodi:namedview
     id="base"
     pagecolor="#ffffff"
     bordercolor="#666666"
     borderopacity="1.0"
     inkscape:pageopacity="0.0"
     inkscape:pageshadow="2"
     inkscape:zoom="1.4"
     inkscape:cx="35.07461"
     inkscape:cy="214.98897"
     inkscape:document-units="mm"
     inkscape:current-layer="layer1"
     inkscape:document-rotation="0"
     showgrid="false"
     fit-margin-top="0"
     fit-margin-left="0"
     fit-margin-right="0"
     fit-margin-bottom="0"
     inkscape:window-width="1920"
     inkscape:window-height="1017"
     inkscape:window-x="-8"
     inkscape:window-y="-8"
     inkscape:window-maximized="1" />
  <metadata
     id="metadata5">
    <rdf:RDF>
      <cc:Work
         rdf:about="">
        <dc:format>image/svg+xml</dc:format>
        <dc:type
           rdf:resource="http://purl.org/dc/dcmitype/StillImage" />
        <dc:title></dc:title>
      </cc:Work>
    </rdf:RDF>
  </metadata>
  <g
     inkscape:label="Vrstva 1"
     inkscape:groupmode="layer"
     id="layer1"
     transform="translate(-60.113841,-94.657062)">
    <path
       style="fill:none;stroke:#000000;stroke-width:0.264583px;stroke-linecap:butt;stroke-linejoin:miter;stroke-opacity:1"
       d="m 60.145461,193.42931 c 1.023875,-0.25203 2.047557,-0.50401 3.138182,-0.79144 1.090625,-0.28742 2.248154,-0.61027 3.472624,-1.06306 1.224471,-0.45279 2.515868,-1.03549 3.756072,-1.77963 1.240203,-0.74414 2.429227,-1.64969 3.393829,-2.57098 0.964602,-0.9213 1.704787,-1.85834 2.488298,-3.071 0.783511,-1.21267 1.610318,-2.70092 2.271782,-3.90179 0.661465,-1.20087 1.157547,-2.11429 1.752083,-3.08682 0.594536,-0.97253 1.287478,-2.00407 1.854442,-2.93325 0.566964,-0.92918 1.007931,-1.75599 1.421344,-2.64973 0.413413,-0.89375 0.799256,-1.85442 1.417415,-3.77975 0.618159,-1.92532 1.468587,-4.8152 2.043431,-6.83896 0.574843,-2.02375 0.874068,-3.18128 1.204806,-4.75225 0.330738,-1.57098 0.692957,-3.55531 1.287492,-6.90202 0.594535,-3.34671 1.421339,-8.05556 2.039495,-11.80779 0.618155,-3.75222 1.027622,-6.54762 1.48041,-9.57146 0.452788,-3.02385 0.948871,-6.27595 1.421341,-8.91394 0.472469,-2.63799 0.921307,-4.6617 1.504026,-7.16582 0.582719,-2.50412 1.299285,-5.4885 1.901693,-8.2131 0.602407,-2.7246 1.090617,-5.189269 1.389843,-6.598827 0.299227,-1.409557 0.409468,-1.763903 0.535558,-1.968752 0.126093,-0.204849 0.267833,-0.259971 0.433273,-0.275673 0.16544,-0.0157 0.35442,0.0079 0.49213,0.157681 0.13771,0.149761 0.22433,0.425356 0.30699,0.811203 0.0827,0.385848 0.16139,0.881932 0.28345,1.763887 0.12205,0.881954 0.28741,2.149724 0.49608,3.996321 0.20868,1.84659 0.46066,4.27188 0.68508,6.74057 0.22442,2.46868 0.42128,4.98059 0.58664,7.8115 0.16536,2.83092 0.29923,5.98066 0.48822,9.72109 0.18899,3.74043 0.4331,8.07132 0.69689,12.47322 0.2638,4.4019 0.54728,8.87452 0.85439,13.13073 0.30711,4.25621 0.63783,8.29575 0.91345,11.41802 0.27561,3.12226 0.49609,5.32708 0.87802,8.08713 0.38193,2.76005 0.92526,6.07515 1.3505,8.3824 0.42524,2.30725 0.73234,3.60652 1.07884,4.76408 0.34651,1.15757 0.73235,2.17336 1.13005,3.012 0.39771,0.83864 0.80717,1.50008 1.28753,2.1891 0.48037,0.68902 1.03157,1.40558 1.67734,1.96855 0.64576,0.56297 1.38595,0.97244 2.37421,1.34644 0.98826,0.37399 2.22453,0.71259 3.40964,0.9488 1.18512,0.23621 2.31903,0.37008 5.53186,0.43699 3.21284,0.0669 8.5044,0.0669 13.7958,0.0669"
       id="path847"
       inkscape:path-effect="#path-effect849"
       inkscape:original-d="m 60.145461,193.42931 c 1.023951,-0.25172 2.047634,-0.5037 3.071056,-0.75595 1.15784,-0.32259 2.315368,-0.64544 3.472656,-0.96856 1.291709,-0.58246 2.583103,-1.16517 3.874257,-1.74814 1.189339,-0.90532 2.378363,-1.81087 3.567149,-2.71671 0.740484,-0.93682 1.480672,-1.87386 2.220611,-2.8112 0.827103,-1.48804 1.65391,-2.97629 2.480469,-4.46484 0.496369,-0.9132 0.992452,-1.82662 1.488281,-2.74033 0.693235,-1.03131 1.386176,-2.06285 2.078868,-3.09468 0.441246,-0.82657 0.882211,-1.65338 1.322917,-2.48046 0.386122,-0.96045 0.771967,-1.92112 1.157552,-2.88207 0.850728,-2.88974 1.701157,-5.77962 2.55134,-8.66983 0.2995,-1.15731 0.598725,-2.31484 0.897694,-3.47266 0.362498,-1.98415 0.724718,-3.96848 1.086681,-5.95312 0.827103,-4.70879 1.65391,-9.41764 2.480469,-14.12686 0.409747,-2.79524 0.819213,-5.59064 1.228423,-8.38635 0.496366,-3.25197 0.992452,-6.50407 1.488281,-9.75651 0.44912,-2.02352 0.897956,-4.04723 1.346539,-6.07124 0.716859,-2.98423 1.433425,-5.96861 2.149739,-8.95331 0.488495,-2.46451 0.976704,-4.929179 1.46466,-7.394162 0.110508,-0.354094 0.220749,-0.70844 0.330729,-1.063058 0.142008,-0.05486 0.283748,-0.10998 0.425218,-0.165365 0.18926,0.02389 0.37824,0.04751 0.56697,0.07087 0.0869,0.275879 0.1735,0.551479 0.25986,0.826823 0.079,0.496369 0.15775,0.992452 0.23623,1.488281 0.16563,1.268085 0.331,2.535854 0.4961,3.803391 0.25225,2.42566 0.50423,4.85095 0.75595,7.27604 0.19713,2.51228 0.39399,5.02419 0.59059,7.5359 0.13413,3.15013 0.26799,6.29987 0.4016,9.4494 0.24438,4.33133 0.48848,8.66222 0.73233,12.99293 0.28375,4.47308 0.56722,8.9457 0.85044,13.41816 0.331,4.03996 0.66172,8.0795 0.99219,12.11886 0.22075,2.20517 0.44124,4.40999 0.66146,6.61458 0.54361,3.3155 1.08694,6.6306 1.63002,9.9455 0.30737,1.29959 0.61448,2.59885 0.92132,3.89788 0.38612,1.0161 0.77196,2.03189 1.15755,3.04743 0.40975,0.66174 0.81921,1.32318 1.22842,1.98438 0.55149,0.71686 1.10269,1.43342 1.65365,2.14974 0.74048,0.40974 1.48067,0.81921 2.22061,1.22842 1.23658,0.33888 2.47285,0.67747 3.70889,1.01581 1.13421,0.13414 2.26812,0.268 3.40178,0.4016 5.29204,2.7e-4 10.5836,2.7e-4 15.875,0" />
  </g>
</svg>
