<?xml version="1.0" encoding="UTF-8" standalone="no"?>
<svg
   xmlns:dc="http://purl.org/dc/elements/1.1/"
   xmlns:cc="http://creativecommons.org/ns#"
   xmlns:rdf="http://www.w3.org/1999/02/22-rdf-syntax-ns#"
   xmlns:svg="http://www.w3.org/2000/svg"
   xmlns="http://www.w3.org/2000/svg"
   xmlns:sodipodi="http://sodipodi.sourceforge.net/DTD/sodipodi-0.dtd"
   xmlns:inkscape="http://www.inkscape.org/namespaces/inkscape"
   width="77.726692mm"
   height="98.93483mm"
   viewBox="0 0 77.726692 98.93483"
   version="1.1"
   id="svg2618"
   inkscape:version="1.0.1 (3bc2e813f5, 2020-09-07)"
   sodipodi:docname="SMBB620D-1100-02.svg">
  <defs
     id="defs2612">
    <inkscape:path-effect
       effect="bspline"
       id="path-effect3197"
       is_visible="true"
       lpeversion="1"
       weight="33.333333"
       steps="2"
       helper_size="0"
       apply_no_weight="true"
       apply_with_weight="true"
       only_selected="false" />
  </defs>
  <sodipodi:namedview
     id="base"
     pagecolor="#ffffff"
     bordercolor="#666666"
     borderopacity="1.0"
     inkscape:pageopacity="0.0"
     inkscape:pageshadow="2"
     inkscape:zoom="1.979899"
     inkscape:cx="309.24059"
     inkscape:cy="208.60965"
     inkscape:document-units="mm"
     inkscape:current-layer="layer1"
     inkscape:document-rotation="0"
     showgrid="false"
     inkscape:window-width="1920"
     inkscape:window-height="1017"
     inkscape:window-x="-8"
     inkscape:window-y="-8"
     inkscape:window-maximized="1" />
  <metadata
     id="metadata2615">
    <rdf:RDF>
      <cc:Work
         rdf:about="">
        <dc:format>image/svg+xml</dc:format>
        <dc:type
           rdf:resource="http://purl.org/dc/dcmitype/StillImage" />
        <dc:title></dc:title>
      </cc:Work>
    </rdf:RDF>
  </metadata>
  <g
     inkscape:label="Vrstva 1"
     inkscape:groupmode="layer"
     id="layer1"
     transform="translate(-79.929483,-84.978666)">
    <path
       style="fill:none;stroke:#000000;stroke-width:0.264583px;stroke-linecap:butt;stroke-linejoin:miter;stroke-opacity:1"
       d="m 79.930293,183.78121 c 2.728638,-0.0167 5.457014,-0.0334 8.424852,-0.0501 2.967837,-0.0167 6.175008,-0.0334 8.405037,-0.10301 2.230029,-0.0696 3.482828,-0.19211 4.730068,-0.43712 1.24724,-0.24501 2.48891,-0.61251 3.51895,-1.12755 1.03004,-0.51505 1.84853,-1.17764 2.54173,-1.91816 0.6932,-0.74053 1.26114,-1.55903 1.7205,-2.32741 0.45937,-0.76838 0.81015,-1.48665 1.26953,-2.80907 0.45938,-1.32241 1.02731,-3.24894 1.52567,-5.3175 0.49835,-2.06856 0.92709,-4.27906 1.27789,-6.36433 0.3508,-2.08527 0.62363,-4.0452 0.92431,-6.1277 0.30068,-2.0825 0.62919,-4.28743 0.94101,-6.74578 0.31182,-2.45834 0.60693,-5.16996 0.86306,-7.74245 0.25614,-2.57249 0.47329,-5.00571 0.64869,-7.43899 0.17541,-2.43329 0.30904,-4.86651 0.46216,-7.28866 0.15313,-2.42216 0.32573,-4.8331 0.52897,-7.60606 0.20324,-2.77295 0.43709,-5.90773 0.63198,-8.70852 0.19489,-2.80079 0.35079,-5.26741 0.51784,-8.03201 0.16705,-2.7646 0.34523,-5.827002 0.49278,-8.327105 0.14756,-2.500102 0.26448,-4.437768 0.36193,-5.896627 0.0974,-1.458859 0.17539,-2.438829 0.25332,-3.045795 0.0779,-0.606965 0.15589,-0.840825 0.24222,-1.005161 0.0863,-0.164336 0.18099,-0.259002 0.25903,-0.250494 0.078,0.0085 0.13929,0.119877 0.1977,0.342593 0.0584,0.222715 0.11408,0.556805 0.19202,1.425434 0.0779,0.86863 0.17816,2.271769 0.28674,4.203926 0.10858,1.932158 0.2255,4.393214 0.35079,7.271962 0.12528,2.878747 0.25891,6.175007 0.37585,9.145617 0.11693,2.97062 0.21715,5.61542 0.32573,8.21019 0.10859,2.59477 0.22551,5.13934 0.34244,7.9123 0.11693,2.77295 0.23386,5.7741 0.3313,8.28534 0.0974,2.51124 0.1754,4.53243 0.27284,6.89334 0.0974,2.3609 0.21437,5.06138 0.35079,7.61717 0.13643,2.5558 0.29233,4.96675 0.5262,7.9847 0.23387,3.01796 0.54568,6.64273 0.80738,9.5159 0.26171,2.87316 0.47329,4.99457 0.76565,6.80424 0.29235,1.80967 0.6654,3.30746 1.00786,4.56029 0.34245,1.25284 0.65426,2.26065 0.95775,3.09588 0.30349,0.83523 0.59859,1.49781 0.92995,2.02677 0.33136,0.52895 0.69885,0.92428 1.30025,1.33627 0.60139,0.41199 1.43659,0.84073 2.36091,1.16363 0.92431,0.32291 1.93768,0.54006 2.95107,0.6681 1.0134,0.12804 2.02677,0.16701 5.78531,0.17258 3.75854,0.006 10.26197,-0.0223 16.76526,-0.0501"
       id="path3195"
       inkscape:path-effect="#path-effect3197"
       inkscape:original-d="m 79.930293,183.78121 c 2.72864,-0.0164 5.457016,-0.0331 8.185129,-0.0501 3.207562,-0.0164 6.414733,-0.0331 9.621702,-0.0501 1.253115,-0.12224 2.505916,-0.24473 3.758476,-0.36749 1.24198,-0.36724 2.48365,-0.73473 3.72507,-1.10249 0.8188,-0.66236 1.63729,-1.32495 2.45554,-1.98782 0.56822,-0.81826 1.13616,-1.63676 1.70384,-2.45554 0.35107,-0.71803 0.70185,-1.43631 1.05238,-2.15486 0.56822,-1.92634 1.13616,-3.85287 1.70384,-5.7797 0.42902,-2.21032 0.85775,-4.42082 1.28624,-6.63163 0.2731,-1.95975 0.54593,-3.91968 0.81851,-5.87993 0.32879,-2.20475 0.6573,-4.40968 0.98555,-6.61492 0.29539,-2.71146 0.59049,-5.42308 0.88533,-8.13501 0.21743,-2.43305 0.43458,-4.86627 0.65147,-7.2998 0.13391,-2.43305 0.26754,-4.86627 0.40091,-7.2998 0.17288,-2.41078 0.34548,-4.82172 0.51783,-7.23298 0.23413,-3.13465 0.46799,-6.26943 0.70158,-9.40455 0.15618,-2.46646 0.31209,-4.93308 0.46773,-7.40002 0.17844,-3.06226 0.35662,-6.124666 0.53454,-9.187393 0.11719,-1.937478 0.23412,-3.875143 0.35079,-5.813113 0.0782,-0.979744 0.15617,-1.959713 0.23386,-2.939965 0.0782,-0.233601 0.15617,-0.467455 0.23386,-0.701582 0.0949,-0.0944 0.18958,-0.18905 0.28397,-0.283975 0.0615,0.11163 0.12277,0.222991 0.18375,0.334089 0.0559,0.334357 0.11163,0.668438 0.16704,1.002261 0.1005,1.403455 0.20072,2.806594 0.30068,4.209494 0.1172,2.461421 0.23413,4.922477 0.35079,7.383319 0.1339,3.296655 0.26754,6.592915 0.40091,9.888975 0.10049,2.64517 0.20071,5.28997 0.30068,7.93456 0.11719,2.54495 0.23412,5.08952 0.35079,7.63389 0.11719,3.00154 0.23412,6.00269 0.35079,9.00364 0.0782,2.02153 0.15617,4.04272 0.23386,6.06368 0.1172,2.70085 0.23413,5.40133 0.35079,8.1016 0.15617,2.41131 0.31208,4.82226 0.46772,7.23299 0.31209,3.62518 0.6239,7.24995 0.93545,10.87453 0.21185,2.12175 0.42344,4.24316 0.63476,6.36435 0.37334,1.49812 0.74639,2.99591 1.11919,4.49347 0.31209,1.00811 0.6239,2.01592 0.93545,3.02349 0.29538,0.66288 0.59048,1.32547 0.88533,1.98782 0.36776,0.3956 0.73525,0.79093 1.10248,1.186 0.8355,0.42902 1.6707,0.85776 2.50565,1.28624 1.01369,0.21742 2.02706,0.43457 3.04019,0.65147 1.01369,0.0392 2.02706,0.0782 3.0402,0.11693 6.50395,-0.0276 13.00738,-0.0554 19.51067,-0.0835" />
  </g>
</svg>
