<?xml version="1.0" encoding="UTF-8" standalone="no"?>
<svg
   xmlns:dc="http://purl.org/dc/elements/1.1/"
   xmlns:cc="http://creativecommons.org/ns#"
   xmlns:rdf="http://www.w3.org/1999/02/22-rdf-syntax-ns#"
   xmlns:svg="http://www.w3.org/2000/svg"
   xmlns="http://www.w3.org/2000/svg"
   xmlns:sodipodi="http://sodipodi.sourceforge.net/DTD/sodipodi-0.dtd"
   xmlns:inkscape="http://www.inkscape.org/namespaces/inkscape"
   width="79.898651mm"
   height="99.623489mm"
   viewBox="0 0 79.898651 99.623489"
   version="1.1"
   id="svg8"
   inkscape:version="1.0.1 (3bc2e813f5, 2020-09-07)"
   sodipodi:docname="SMBB970D-1100-02.svg">
  <defs
     id="defs2">
    <inkscape:path-effect
       effect="bspline"
       id="path-effect849"
       is_visible="true"
       lpeversion="1"
       weight="33.333333"
       steps="2"
       helper_size="0"
       apply_no_weight="true"
       apply_with_weight="true"
       only_selected="false" />
  </defs>
  <sodipodi:namedview
     id="base"
     pagecolor="#ffffff"
     bordercolor="#666666"
     borderopacity="1.0"
     inkscape:pageopacity="0.0"
     inkscape:pageshadow="2"
     inkscape:zoom="1.4"
     inkscape:cx="384.28015"
     inkscape:cy="335.57707"
     inkscape:document-units="mm"
     inkscape:current-layer="layer1"
     inkscape:document-rotation="0"
     showgrid="false"
     fit-margin-top="0"
     fit-margin-left="0"
     fit-margin-right="0"
     fit-margin-bottom="0"
     inkscape:window-width="1920"
     inkscape:window-height="1017"
     inkscape:window-x="-8"
     inkscape:window-y="-8"
     inkscape:window-maximized="1" />
  <metadata
     id="metadata5">
    <rdf:RDF>
      <cc:Work
         rdf:about="">
        <dc:format>image/svg+xml</dc:format>
        <dc:type
           rdf:resource="http://purl.org/dc/dcmitype/StillImage" />
        <dc:title></dc:title>
      </cc:Work>
    </rdf:RDF>
  </metadata>
  <g
     inkscape:label="Vrstva 1"
     inkscape:groupmode="layer"
     id="layer1"
     transform="translate(-25.357196,-124.94837)">
    <path
       style="fill:none;stroke:#000000;stroke-width:0.264583px;stroke-linecap:butt;stroke-linejoin:miter;stroke-opacity:1"
       d="m 25.357196,221.06531 c 0.133899,0 0.267534,0 0.977383,-0.41764 0.709848,-0.41764 1.996056,-1.25284 3.232169,-2.17714 1.236113,-0.92431 2.422097,-1.93769 3.610875,-3.17658 1.188778,-1.2389 2.380335,-2.70329 3.209985,-3.75844 0.82965,-1.05516 1.297364,-1.70104 1.987811,-2.80353 0.690448,-1.10248 1.603599,-2.66152 2.399844,-4.31524 0.796244,-1.65372 1.47554,-3.40207 2.154858,-5.18667 0.679318,-1.7846 1.358616,-3.60534 2.040717,-5.6572 0.682101,-2.05185 1.366966,-4.33474 1.982246,-6.22236 0.61528,-1.88762 1.160943,-3.37984 1.973902,-5.94676 0.812959,-2.56693 1.89315,-6.2084 2.75343,-9.03703 0.86028,-2.82863 1.500598,-4.84424 2.358099,-7.56709 0.857501,-2.72284 1.932126,-6.15273 2.71167,-8.86719 0.779544,-2.71447 1.263962,-4.71339 1.926576,-7.46685 0.662613,-2.75346 1.50338,-6.2613 2.324684,-9.51312 0.821303,-3.25181 1.623098,-6.2474 2.285706,-8.38281 0.662608,-2.13541 1.185999,-3.41048 1.536809,-4.15388 0.35081,-0.7434 0.528988,-0.95499 0.676587,-1.09979 0.147598,-0.14481 0.26452,-0.22276 0.401063,-0.23382 0.136542,-0.0111 0.292462,0.0446 0.467852,0.13933 0.175391,0.0947 0.37027,0.22834 0.573435,0.50959 0.203166,0.28125 0.414748,0.70998 0.687555,1.52016 0.272808,0.81017 0.606887,2.00172 0.918692,3.30467 0.311805,1.30295 0.60134,2.71722 0.874174,4.21506 0.272833,1.49783 0.528961,3.07914 0.773954,4.82477 0.244994,1.74562 0.478849,3.65544 0.732197,6.0414 0.253347,2.38596 0.52618,5.24792 0.779535,7.7007 0.253354,2.45278 0.48721,4.49624 0.840788,7.83158 0.353578,3.33534 0.826859,7.96235 1.152596,11.12228 0.325737,3.15992 0.503913,4.85259 0.768404,7.14391 0.264492,2.29131 0.615276,5.1811 0.927094,7.70069 0.311819,2.5196 0.584651,4.66885 0.876987,6.65112 0.292336,1.98227 0.604144,3.79744 0.91596,5.68783 0.311815,1.89039 0.623623,3.85589 1.044032,6.03027 0.42041,2.17438 0.949368,4.55748 1.378135,6.24464 0.428766,1.68715 0.757279,2.67826 1.147071,3.67218 0.389793,0.99392 0.840802,1.99059 1.316921,2.82024 0.476119,0.82964 0.977237,1.49223 1.36425,1.9488 0.387013,0.45657 0.659844,0.70713 1.186052,1.09966 0.526209,0.39254 1.305731,0.92706 2.249542,1.35854 0.943812,0.43147 2.051848,0.75998 3.171038,0.99382 1.11919,0.23383 2.249495,0.37303 3.535735,0.47325 1.286239,0.10021 2.728354,0.16146 4.699489,0.20879 1.971132,0.0473 4.471162,0.0807 6.970982,0.11413"
       id="path847"
       inkscape:path-effect="#path-effect849"
       inkscape:original-d="m 25.357196,221.06531 c 0.133899,2.6e-4 0.267534,2.6e-4 0.400905,0 1.286525,-0.83497 2.572733,-1.67017 3.858703,-2.50565 1.186297,-1.01316 2.372281,-2.02654 3.558024,-3.0402 1.191866,-1.46417 2.38342,-2.92856 3.574733,-4.39324 0.467995,-0.64565 0.935707,-1.29154 1.403165,-1.9377 0.913452,-1.55884 1.826606,-3.11788 2.739511,-4.67722 0.679588,-1.74816 1.358884,-3.49651 2.03793,-5.24516 0.67959,-1.82055 1.358886,-3.64129 2.037932,-5.46232 0.685154,-2.28271 1.37002,-4.5656 2.054632,-6.84879 0.545952,-1.49202 1.091615,-2.98424 1.637027,-4.47676 1.0805,-3.64136 2.160694,-7.28283 3.240643,-10.92464 0.64061,-2.01544 1.28093,-4.03105 1.921,-6.04698 1.074933,-3.42976 2.149557,-6.85965 3.223937,-10.28987 0.484701,-1.99873 0.969119,-3.99765 1.45328,-5.99686 0.841065,-3.50772 1.681834,-7.01556 2.522354,-10.52374 0.80209,-2.99544 1.603883,-5.99103 2.405428,-8.98694 0.523677,-1.27486 1.04707,-2.54993 1.570207,-3.82529 0.178448,-0.21133 0.356624,-0.42292 0.53454,-0.63477 0.117197,-0.0777 0.234125,-0.15564 0.35079,-0.23386 0.156176,0.0559 0.312079,0.11163 0.467723,0.16704 0.195151,0.13391 0.390032,0.26754 0.584652,0.40091 0.211857,0.42902 0.423442,0.85775 0.634765,1.28623 0.334359,1.19187 0.668438,2.38342 1.00226,3.57473 0.289814,1.4146 0.57935,2.82887 0.868627,4.24291 0.256402,1.58164 0.512529,3.16295 0.7684,4.74403 0.23413,1.91017 0.467984,3.81999 0.701582,5.72959 0.273109,2.86233 0.545939,5.72429 0.818513,8.58603 0.23413,2.04381 0.467987,4.08727 0.701582,6.1305 0.473565,4.62746 0.946843,9.25447 1.419871,13.88131 0.178445,1.69301 0.356624,3.38568 0.534537,5.07812 0.351063,2.89018 0.701847,5.77997 1.052375,8.66956 0.273106,2.1496 0.545939,4.29885 0.818513,6.44787 0.312084,1.81551 0.623892,3.63068 0.935442,5.44562 0.312087,1.96585 0.623895,3.93135 0.935445,5.89663 0.529246,2.38347 1.058206,4.76657 1.586912,7.14946 0.32879,0.99141 0.657302,1.98252 0.985555,2.97338 0.451292,0.99698 0.9023,1.99365 1.353053,2.99007 0.501406,0.66289 1.002524,1.32548 1.503391,1.98782 0.273108,0.25084 0.545939,0.5014 0.818512,0.7517 0.779818,0.53481 1.559338,1.06934 2.33861,1.60361 1.10834,0.32879 2.216375,0.65731 3.324164,0.98556 1.130615,0.13947 2.26092,0.27867 3.390982,0.41761 1.442435,0.0615 2.884549,0.12276 4.326425,0.18375 2.500402,0.0337 5.000432,0.0671 7.500252,0.10022" />
  </g>
</svg>
