<?xml version="1.0" encoding="UTF-8" standalone="no"?>
<svg
   xmlns:dc="http://purl.org/dc/elements/1.1/"
   xmlns:cc="http://creativecommons.org/ns#"
   xmlns:rdf="http://www.w3.org/1999/02/22-rdf-syntax-ns#"
   xmlns:svg="http://www.w3.org/2000/svg"
   xmlns="http://www.w3.org/2000/svg"
   xmlns:sodipodi="http://sodipodi.sourceforge.net/DTD/sodipodi-0.dtd"
   xmlns:inkscape="http://www.inkscape.org/namespaces/inkscape"
   width="79.455742mm"
   height="99.12986mm"
   viewBox="0 0 79.455742 99.12986"
   version="1.1"
   id="svg2031"
   inkscape:version="1.0.1 (3bc2e813f5, 2020-09-07)"
   sodipodi:docname="SMBB800D-1100-02.svg">
  <defs
     id="defs2025">
    <inkscape:path-effect
       effect="bspline"
       id="path-effect2610"
       is_visible="true"
       lpeversion="1"
       weight="33.333333"
       steps="2"
       helper_size="0"
       apply_no_weight="true"
       apply_with_weight="true"
       only_selected="false" />
  </defs>
  <sodipodi:namedview
     id="base"
     pagecolor="#ffffff"
     bordercolor="#666666"
     borderopacity="1.0"
     inkscape:pageopacity="0.0"
     inkscape:pageshadow="2"
     inkscape:zoom="1.4"
     inkscape:cx="200.9299"
     inkscape:cy="202.84553"
     inkscape:document-units="mm"
     inkscape:current-layer="layer1"
     inkscape:document-rotation="0"
     showgrid="false"
     inkscape:window-width="1920"
     inkscape:window-height="1017"
     inkscape:window-x="-8"
     inkscape:window-y="-8"
     inkscape:window-maximized="1" />
  <metadata
     id="metadata2028">
    <rdf:RDF>
      <cc:Work
         rdf:about="">
        <dc:format>image/svg+xml</dc:format>
        <dc:type
           rdf:resource="http://purl.org/dc/dcmitype/StillImage" />
        <dc:title></dc:title>
      </cc:Work>
    </rdf:RDF>
  </metadata>
  <g
     inkscape:label="Vrstva 1"
     inkscape:groupmode="layer"
     id="layer1"
     transform="translate(-67.673843,-92.32926)">
    <path
       style="fill:none;stroke:#000000;stroke-width:0.264583px;stroke-linecap:butt;stroke-linejoin:miter;stroke-opacity:1"
       d="m 67.68136,191.11421 c 0.968816,-0.0551 1.937377,-0.11026 3.248476,-0.3032 1.311099,-0.19294 2.964713,-0.52366 4.535673,-0.92527 1.570959,-0.40161 3.059211,-0.87407 4.464773,-1.54735 1.405562,-0.67327 2.728451,-1.54732 3.858401,-2.64578 1.129951,-1.09846 2.066998,-2.42135 2.905634,-3.73245 0.838637,-1.31111 1.578826,-2.61038 2.421403,-4.18528 0.842577,-1.57491 1.787498,-3.42538 2.48046,-5.02389 0.692962,-1.59851 1.133924,-2.94502 1.586718,-4.58293 0.452793,-1.6379 0.917378,-3.56711 1.547346,-6.07912 0.629968,-2.512 1.425274,-5.60661 2.240297,-9.09111 0.815022,-3.48451 1.649704,-7.35869 2.382039,-10.70538 0.73233,-3.34669 1.36229,-6.16571 1.98044,-9.37459 0.61816,-3.20889 1.22449,-6.80746 1.80327,-10.00454 0.57877,-3.19709 1.12998,-5.99248 1.62608,-9.13837 0.4961,-3.14589 0.93707,-6.6421 1.37805,-10.07935 0.44097,-3.43726 0.88194,-6.815351 1.15753,-8.65409 0.2756,-1.838739 0.38584,-2.137968 0.52372,-2.330994 0.13788,-0.193026 0.30324,-0.279641 0.46869,-0.240109 0.16545,0.03953 0.33081,0.204894 0.49607,0.783697 0.16526,0.578803 0.33062,1.570973 0.59048,3.649868 0.25985,2.078895 0.61419,5.244388 0.87798,8.083168 0.26379,2.83878 0.43703,5.35069 0.67327,9.099 0.23623,3.74831 0.53546,8.73278 0.80713,13.37484 0.27167,4.64206 0.51578,8.94145 0.77564,13.13861 0.25986,4.19716 0.53546,8.29181 0.82682,12.18973 0.29137,3.89792 0.59847,7.59886 0.91739,10.91406 0.31893,3.3152 0.64965,6.24446 0.9804,8.65014 0.33074,2.40569 0.66146,4.28766 1.01977,5.96888 0.35831,1.68123 0.74415,3.16161 1.10246,4.37429 0.35831,1.21268 0.68903,2.1576 1.03555,2.94506 0.34652,0.78746 0.70873,1.4174 1.24426,2.02371 0.53552,0.6063 1.24421,1.189 2.12225,1.68505 0.87804,0.49604 1.92532,0.9055 2.60258,1.12116 0.67725,0.21566 1.03147,0.24098 1.66538,0.29611 0.63391,0.0551 1.57096,0.14175 5.13816,0.24017 3.5672,0.0984 9.76431,0.20866 15.96128,0.3189"
       id="path2608"
       inkscape:path-effect="#path-effect2610"
       inkscape:original-d="m 67.68136,191.11421 c 0.96883,-0.0549 1.937393,-0.10998 2.905692,-0.16537 1.653944,-0.33047 3.307558,-0.66119 4.96094,-0.99218 1.488575,-0.47222 2.976827,-0.94468 4.464843,-1.41741 1.323208,-0.87383 2.646098,-1.74788 3.96875,-2.62221 0.937348,-1.32268 1.874396,-2.64557 2.811198,-3.96875 0.740482,-1.29906 1.480669,-2.59833 2.220608,-3.89788 0.945224,-1.85028 1.890147,-3.70075 2.834823,-5.55153 0.441246,-1.3463 0.882208,-2.69281 1.322917,-4.03962 0.46487,-1.92903 0.929454,-3.85824 1.393787,-5.78776 0.795605,-3.09448 1.590914,-6.18909 2.385973,-9.28404 0.83498,-3.87407 1.669661,-7.74825 2.504094,-11.62277 0.630235,-2.81886 1.260185,-5.63788 1.889885,-8.45721 0.60661,-3.59846 1.21293,-7.19703 1.81901,-10.79595 0.55149,-2.79524 1.10269,-5.59063 1.65364,-8.38634 0.44125,-3.49609 0.88221,-6.9923 1.32292,-10.48884 0.44124,-3.37797 0.88221,-6.756063 1.32292,-10.13449 0.1105,-0.298974 0.22075,-0.598199 0.33072,-0.897694 0.16564,-0.08636 0.331,-0.172974 0.4961,-0.259858 0.16563,0.165631 0.33099,0.330993 0.49609,0.496093 0.16563,0.992471 0.331,1.98464 0.4961,2.976563 0.35462,3.165877 0.70897,6.331366 1.06305,9.496656 0.17351,2.51228 0.34675,5.02419 0.51972,7.5359 0.2995,4.98492 0.59873,9.96938 0.89769,14.95368 0.24438,4.29983 0.48849,8.59922 0.73233,12.89844 0.27588,4.09509 0.55148,8.18974 0.82682,12.28422 0.30738,3.70136 0.61448,7.4023 0.92132,11.10305 0.331,2.92964 0.66173,5.8589 0.99219,8.78795 0.331,1.88231 0.66172,3.76428 0.99219,5.64602 0.38612,1.4807 0.77196,2.96108 1.15755,4.44122 0.331,0.94522 0.66172,1.89014 0.99219,2.83482 0.3625,0.63024 0.72472,1.26018 1.08668,1.88988 0.70898,0.58299 1.41767,1.16569 2.12611,1.74814 1.0476,0.40975 2.09489,0.81921 3.14193,1.22842 0.30738,0.0239 0.66172,0.0475 0.99219,0.0709 0.93735,0.0869 1.8744,0.17351 2.8112,0.25986 6.19762,0.11051 12.39473,0.22075 18.5917,0.33073" />
  </g>
</svg>
