<?xml version="1.0" encoding="UTF-8" standalone="no"?>
<svg
   xmlns:dc="http://purl.org/dc/elements/1.1/"
   xmlns:cc="http://creativecommons.org/ns#"
   xmlns:rdf="http://www.w3.org/1999/02/22-rdf-syntax-ns#"
   xmlns:svg="http://www.w3.org/2000/svg"
   xmlns="http://www.w3.org/2000/svg"
   xmlns:sodipodi="http://sodipodi.sourceforge.net/DTD/sodipodi-0.dtd"
   xmlns:inkscape="http://www.inkscape.org/namespaces/inkscape"
   width="78.942978mm"
   height="99.493225mm"
   viewBox="0 0 78.942978 99.493225"
   version="1.1"
   id="svg2031"
   inkscape:version="1.0.1 (3bc2e813f5, 2020-09-07)"
   sodipodi:docname="SMBB890D-1100-02.svg">
  <defs
     id="defs2025">
    <inkscape:path-effect
       effect="bspline"
       id="path-effect2610"
       is_visible="true"
       lpeversion="1"
       weight="33.333333"
       steps="2"
       helper_size="0"
       apply_no_weight="true"
       apply_with_weight="true"
       only_selected="false" />
  </defs>
  <sodipodi:namedview
     id="base"
     pagecolor="#ffffff"
     bordercolor="#666666"
     borderopacity="1.0"
     inkscape:pageopacity="0.0"
     inkscape:pageshadow="2"
     inkscape:zoom="1.979899"
     inkscape:cx="236.76087"
     inkscape:cy="226.90153"
     inkscape:document-units="mm"
     inkscape:current-layer="layer1"
     inkscape:document-rotation="0"
     showgrid="false"
     fit-margin-top="0"
     fit-margin-left="0"
     fit-margin-right="0"
     fit-margin-bottom="0"
     inkscape:window-width="1920"
     inkscape:window-height="1017"
     inkscape:window-x="-8"
     inkscape:window-y="-8"
     inkscape:window-maximized="1" />
  <metadata
     id="metadata2028">
    <rdf:RDF>
      <cc:Work
         rdf:about="">
        <dc:format>image/svg+xml</dc:format>
        <dc:type
           rdf:resource="http://purl.org/dc/dcmitype/StillImage" />
        <dc:title></dc:title>
      </cc:Work>
    </rdf:RDF>
  </metadata>
  <g
     inkscape:label="Vrstva 1"
     inkscape:groupmode="layer"
     id="layer1"
     transform="translate(-26.27809,-147.2453)">
    <path
       style="fill:none;stroke:#000000;stroke-width:0.264583px;stroke-linecap:butt;stroke-linejoin:miter;stroke-opacity:1"
       d="m 26.309344,245.93808 c 1.42006,-0.34527 2.839927,-0.69049 4.243086,-1.11925 1.40316,-0.42875 2.789591,-0.94101 4.02847,-1.5368 1.238879,-0.59579 2.33021,-1.27509 3.479995,-2.28568 1.149784,-1.0106 2.358041,-2.35249 3.390917,-3.75842 1.032877,-1.40593 1.890347,-2.87588 2.56131,-4.02014 0.670962,-1.14426 1.155379,-1.96276 1.670443,-2.73118 0.515063,-0.76843 1.060731,-1.4867 1.492251,-2.17712 0.431521,-0.69041 0.748896,-1.353 1.22776,-2.44714 0.478863,-1.09414 1.119186,-2.61978 1.720547,-4.14824 0.601361,-1.52845 1.163729,-3.05965 1.553502,-4.22338 0.389774,-1.16373 0.606928,-1.95996 0.910395,-3.15154 0.303467,-1.19159 0.693227,-2.77847 1.130331,-4.72176 0.437104,-1.94328 0.921521,-4.24287 1.319645,-6.20286 0.398124,-1.95999 0.709933,-3.58028 1.060729,-5.43727 0.350796,-1.85699 0.740556,-3.95056 1.091351,-5.92447 0.350796,-1.97391 0.662604,-3.82805 1.002261,-5.74907 0.339658,-1.92103 0.707147,-3.90881 1.069074,-5.60711 0.361927,-1.6983 0.718278,-3.107 1.021741,-4.26796 0.303464,-1.16097 0.554025,-2.07413 0.971643,-3.83924 0.417617,-1.76511 1.002258,-4.38207 1.47834,-6.8404 0.476082,-2.45834 0.843569,-4.75792 1.213852,-7.05757 0.370284,-2.29966 0.74334,-4.59925 1.074639,-6.29198 0.331299,-1.69273 0.620837,-2.7785 0.81572,-3.46618 0.194882,-0.68768 0.295104,-0.97721 0.412062,-1.18888 0.116958,-0.21166 0.25059,-0.3453 0.376013,-0.36467 0.125423,-0.0194 0.242364,0.0753 0.359214,0.26743 0.11685,0.19214 0.23378,0.48169 0.36181,1.01622 0.12803,0.53454 0.267229,1.31406 0.453756,2.59195 0.186527,1.2779 0.420384,3.0541 0.615262,4.91943 0.194878,1.86534 0.350781,3.8197 0.495551,5.85487 0.14477,2.03517 0.278403,4.15101 0.43431,6.81538 0.155908,2.66437 0.334083,5.87711 0.50948,9.08716 0.175397,3.21005 0.348005,6.41722 0.523405,9.33773 0.175399,2.9205 0.353576,5.55417 0.548462,8.4886 0.194886,2.93443 0.40647,6.16944 0.640336,9.31545 0.233866,3.14602 0.489994,6.20285 0.762838,9.15677 0.272843,2.95391 0.562379,5.80473 0.854713,8.31876 0.292334,2.51403 0.587438,4.69112 0.949383,6.77919 0.361945,2.08807 0.790681,4.08698 1.18882,5.69062 0.398139,1.60363 0.765626,2.81188 1.077475,3.66938 0.311849,0.85749 0.567977,1.36418 0.860317,1.9043 0.29234,0.54011 0.620852,1.11361 1.069131,1.70382 0.448279,0.59021 1.016213,1.19712 1.631524,1.68707 0.615311,0.48995 1.277904,0.863 2.026824,1.17478 0.74892,0.31178 1.58412,0.56234 2.344167,0.74328 0.760048,0.18094 1.444912,0.2923 2.157635,0.38973 0.712723,0.0974 1.453267,0.18096 4.579806,0.23106 3.12654,0.0501 8.638861,0.0668 14.15103,0.0835"
       id="path2608"
       inkscape:path-effect="#path-effect2610"
       inkscape:original-d="m 26.309344,245.93808 c 1.420135,-0.34496 2.840003,-0.69018 4.259609,-1.03567 1.386752,-0.51202 2.773185,-1.02427 4.159382,-1.5368 1.091636,-0.67906 2.182966,-1.35836 3.274052,-2.03793 1.208569,-1.34168 2.416826,-2.68357 3.624842,-4.02575 0.857771,-1.46975 1.715243,-2.9397 2.572469,-4.40995 0.484701,-0.81826 0.969116,-1.63676 1.453277,-2.45554 0.545952,-0.71803 1.091615,-1.43631 1.637028,-2.15486 0.317653,-0.66235 0.635029,-1.32494 0.952145,-1.98781 0.640612,-1.52543 1.280933,-3.05107 1.921002,-4.577 0.562655,-1.53099 1.125021,-3.06219 1.687137,-4.59369 0.217426,-0.79599 0.434578,-1.59222 0.65147,-2.38872 0.390041,-1.58668 0.779801,-3.17356 1.169305,-4.76074 0.484701,-2.29941 0.969116,-4.599 1.453277,-6.89889 0.312086,-1.62009 0.623895,-3.24038 0.935445,-4.86097 0.39004,-2.09339 0.779801,-4.18696 1.169302,-6.28083 0.312087,-1.85396 0.623895,-3.7081 0.935445,-5.56255 0.367768,-1.98759 0.735256,-3.97537 1.102487,-5.96345 0.356629,-1.4085 0.712983,-2.8172 1.069078,-4.2262 0.250833,-0.91292 0.501393,-1.82608 0.751694,-2.73951 0.584928,-2.61681 1.16957,-5.23377 1.753958,-7.85104 0.367768,-2.29942 0.735256,-4.599 1.102487,-6.8989 0.373335,-2.29941 0.746392,-4.599 1.11919,-6.89889 0.289811,-1.08554 0.579347,-2.17131 0.868627,-3.25735 0.100491,-0.28929 0.200715,-0.57882 0.300678,-0.86863 0.1339,-0.13337 0.267533,-0.267 0.400904,-0.4009 0.117197,0.0949 0.234125,0.18958 0.35079,0.28397 0.117197,0.28981 0.234127,0.57935 0.350793,0.86863 0.139469,0.77981 0.278669,1.55933 0.417607,2.33861 0.23413,1.77652 0.467987,3.55272 0.701583,5.32868 0.156175,1.95472 0.312078,3.90908 0.467722,5.86323 0.133901,2.11619 0.267534,4.23203 0.400905,6.34765 0.178448,3.21313 0.356624,6.42587 0.534537,9.63841 0.172882,3.20756 0.345488,6.41473 0.517835,9.6217 0.178448,2.63403 0.356624,5.2677 0.53454,7.90115 0.211858,3.23541 0.423442,6.47042 0.634765,9.70523 0.256402,3.05722 0.512532,6.11405 0.7684,9.17068 0.289812,2.8512 0.579348,5.70202 0.868625,8.55263 0.29538,2.17744 0.590486,4.35453 0.88533,6.5314 0.429019,1.99926 0.857755,3.99817 1.286235,5.99686 0.367768,1.20857 0.735256,2.41682 1.102487,3.62484 0.256405,0.50697 0.512532,1.01366 0.7684,1.5201 0.32879,0.57379 0.657302,1.14729 0.985557,1.72054 0.568224,0.60721 1.13616,1.21412 1.703842,1.82078 0.662885,0.37333 1.325476,0.74639 1.987818,1.11919 0.835498,0.25083 1.670698,0.50139 2.505651,0.7517 0.685157,0.11162 1.370021,0.22298 2.054636,0.33408 0.740838,0.0838 1.481383,0.16731 2.221677,0.25057 5.51281,0.017 11.025131,0.0337 16.537301,0.0501" />
  </g>
</svg>
