<?xml version="1.0" encoding="UTF-8" standalone="no"?>
<svg
   xmlns:dc="http://purl.org/dc/elements/1.1/"
   xmlns:cc="http://creativecommons.org/ns#"
   xmlns:rdf="http://www.w3.org/1999/02/22-rdf-syntax-ns#"
   xmlns:svg="http://www.w3.org/2000/svg"
   xmlns="http://www.w3.org/2000/svg"
   xmlns:sodipodi="http://sodipodi.sourceforge.net/DTD/sodipodi-0.dtd"
   xmlns:inkscape="http://www.inkscape.org/namespaces/inkscape"
   width="78.681366mm"
   height="99.683754mm"
   viewBox="0 0 78.681366 99.683754"
   version="1.1"
   id="svg4379"
   inkscape:version="1.0.1 (3bc2e813f5, 2020-09-07)"
   sodipodi:docname="SMBB690D-1100-02.svg">
  <defs
     id="defs4373">
    <inkscape:path-effect
       effect="bspline"
       id="path-effect4958"
       is_visible="true"
       lpeversion="1"
       weight="33.333333"
       steps="2"
       helper_size="0"
       apply_no_weight="true"
       apply_with_weight="true"
       only_selected="false" />
  </defs>
  <sodipodi:namedview
     id="base"
     pagecolor="#ffffff"
     bordercolor="#666666"
     borderopacity="1.0"
     inkscape:pageopacity="0.0"
     inkscape:pageshadow="2"
     inkscape:zoom="1.979899"
     inkscape:cx="312.08519"
     inkscape:cy="403.20159"
     inkscape:document-units="mm"
     inkscape:current-layer="layer1"
     inkscape:document-rotation="0"
     showgrid="false"
     inkscape:window-width="1920"
     inkscape:window-height="1017"
     inkscape:window-x="-8"
     inkscape:window-y="-8"
     inkscape:window-maximized="1" />
  <metadata
     id="metadata4376">
    <rdf:RDF>
      <cc:Work
         rdf:about="">
        <dc:format>image/svg+xml</dc:format>
        <dc:type
           rdf:resource="http://purl.org/dc/dcmitype/StillImage" />
        <dc:title></dc:title>
      </cc:Work>
    </rdf:RDF>
  </metadata>
  <g
     inkscape:label="Vrstva 1"
     inkscape:groupmode="layer"
     id="layer1"
     transform="translate(-73.996903,-91.362451)">
    <path
       style="fill:none;stroke:#000000;stroke-width:0.264583px;stroke-linecap:butt;stroke-linejoin:miter;stroke-opacity:1"
       d="m 74.000251,190.91396 c 2.199662,-0.0557 4.399066,-0.11137 6.601274,-0.19768 2.202208,-0.0863 4.407138,-0.20323 6.172217,-0.40927 1.765079,-0.20604 3.090264,-0.50114 4.209419,-0.87979 1.119155,-0.37864 2.032305,-0.84078 2.928744,-1.43378 0.896439,-0.593 1.776182,-1.31684 2.555691,-2.1743 0.77951,-0.85746 1.458805,-1.84856 2.060161,-2.90927 0.601356,-1.06071 1.124747,-2.19101 1.851393,-4.17048 0.72665,-1.97947 1.6565,-4.80801 2.38315,-7.51691 0.72665,-2.70889 1.25005,-5.29801 1.77624,-7.97352 0.52619,-2.67551 1.05516,-5.43724 1.52567,-8.03757 0.47051,-2.60033 0.88254,-5.03911 1.26396,-7.56427 0.38143,-2.52516 0.73221,-5.13656 1.09971,-7.81763 0.3675,-2.68108 0.75169,-5.43167 1.11641,-8.37445 0.36471,-2.94277 0.70993,-6.07756 1.08021,-9.27369 0.37029,-3.19614 0.76562,-6.45342 1.10806,-9.54375 0.34245,-3.09033 0.63198,-6.01353 0.90204,-8.69181 0.27005,-2.67829 0.52061,-5.111513 0.75447,-7.021398 0.23386,-1.909885 0.45101,-3.29632 0.61526,-4.098188 0.16425,-0.801868 0.27561,-1.01902 0.38148,-1.155516 0.10587,-0.136495 0.20609,-0.192174 0.31477,-0.172542 0.10868,0.01963 0.22561,0.114285 0.33131,0.298074 0.10571,0.183789 0.20036,0.45663 0.28663,0.943832 0.0863,0.487202 0.16422,1.188773 0.2728,2.199397 0.10858,1.010625 0.24778,2.330243 0.39533,3.928307 0.14755,1.598064 0.30346,3.474484 0.45936,5.662774 0.15591,2.1883 0.31181,4.68833 0.43709,6.97962 0.12528,2.2913 0.21994,4.37374 0.34801,6.87942 0.12807,2.50568 0.28954,5.43445 0.42596,8.11831 0.13642,2.68385 0.24778,5.12264 0.37307,7.59212 0.12528,2.46948 0.26448,4.96952 0.42318,7.53645 0.15869,2.56693 0.33687,5.2006 0.50391,7.75639 0.16705,2.55579 0.32295,5.03355 0.48721,7.35269 0.16427,2.31914 0.33687,4.47953 0.50949,6.53697 0.17261,2.05743 0.34522,4.0118 0.55961,5.86322 0.21438,1.85142 0.47051,3.59978 0.735,5.27302 0.26449,1.67324 0.53732,3.27125 0.81853,4.69392 0.2812,1.42267 0.57074,2.6699 0.83524,3.66939 0.2645,0.99949 0.50393,1.75117 0.88539,2.53628 0.38147,0.78511 0.90486,1.6036 1.46172,2.28846 0.55686,0.68486 1.14707,1.23609 1.85981,1.6592 0.71275,0.42311 1.54795,0.71821 2.42493,0.94369 0.87699,0.22548 1.79571,0.38139 2.97336,0.45931 1.17765,0.0779 2.61419,0.0779 6.01915,0.0891 3.40496,0.0111 8.77808,0.0334 14.15105,0.0557"
       id="path4956"
       inkscape:path-effect="#path-effect4958"
       inkscape:original-d="m 74.000251,190.91396 c 2.199669,-0.0554 4.399073,-0.1111 6.598216,-0.16704 2.205281,-0.11667 4.41021,-0.2336 6.614919,-0.35079 1.325504,-0.29485 2.650688,-0.58996 3.975634,-0.88533 0.913456,-0.4619 1.826607,-0.92404 2.739515,-1.38646 0.880044,-0.72361 1.759788,-1.44745 2.639285,-2.17157 0.679587,-0.99088 1.358884,-1.98198 2.037932,-2.97337 0.523676,-1.13009 1.04707,-2.26039 1.570208,-3.39098 0.93016,-2.8284 1.86001,-5.65694 2.78962,-8.48581 0.52368,-2.58896 1.04707,-5.17808 1.57021,-7.76752 0.52925,-2.76158 1.05821,-5.52331 1.58692,-8.28536 0.41231,-2.43862 0.82434,-4.8774 1.23612,-7.3165 0.35106,-2.61123 0.70184,-5.22263 1.05237,-7.83434 0.38447,-2.75044 0.76867,-5.50103 1.1526,-8.25195 0.3455,-3.13464 0.69071,-6.26943 1.03567,-9.40454 0.39561,-3.25715 0.79094,-6.51443 1.18601,-9.77204 0.28981,-2.92306 0.57935,-5.84626 0.86863,-8.76978 0.25083,-2.43305 0.50139,-4.866273 0.75169,-7.299802 0.21743,-1.386224 0.43458,-2.772659 0.65147,-4.159383 0.11163,-0.216897 0.22299,-0.434049 0.33409,-0.65147 0.10049,-0.05542 0.20071,-0.111099 0.30067,-0.167042 0.1172,0.09493 0.23413,0.189579 0.3508,0.283972 0.0949,0.273108 0.18958,0.545941 0.28397,0.818515 0.0782,0.70186 0.15617,1.403429 0.23386,2.104747 0.13947,1.319932 0.27867,2.63955 0.41761,3.958929 0.15617,1.876754 0.31208,3.753174 0.46772,5.629364 0.15618,2.5004 0.31208,5.00043 0.46772,7.50025 0.0949,2.08278 0.18958,4.16522 0.28398,6.24743 0.16174,2.92915 0.32321,5.85792 0.48442,8.78648 0.11163,2.43915 0.22299,4.87794 0.33409,7.3165 0.13947,2.5004 0.27867,5.00044 0.41761,7.50026 0.17845,2.63403 0.35662,5.2677 0.53454,7.90115 0.15617,2.47813 0.31208,4.95589 0.46772,7.43344 0.17288,2.16073 0.34549,4.32112 0.51783,6.48128 0.17288,1.95471 0.34549,3.90908 0.51784,5.86323 0.2564,1.74868 0.51253,3.49704 0.7684,5.24516 0.27311,1.59835 0.54594,3.19636 0.81851,4.79415 0.28981,1.24755 0.57935,2.49478 0.86863,3.74177 0.23969,0.75198 0.47912,1.50366 0.71828,2.25509 0.52368,0.81879 1.04707,1.63729 1.57021,2.45554 0.5905,0.55152 1.18071,1.10275 1.77066,1.65373 0.8355,0.29538 1.6707,0.59048 2.50565,0.88533 0.91903,0.15617 1.83775,0.31208 2.75622,0.46772 1.43687,2.6e-4 2.87341,2.6e-4 4.30972,0 5.37361,0.0225 10.74673,0.0448 16.1197,0.0668" />
  </g>
</svg>
