<?xml version="1.0" encoding="UTF-8" standalone="no"?>
<svg
   xmlns:dc="http://purl.org/dc/elements/1.1/"
   xmlns:cc="http://creativecommons.org/ns#"
   xmlns:rdf="http://www.w3.org/1999/02/22-rdf-syntax-ns#"
   xmlns:svg="http://www.w3.org/2000/svg"
   xmlns="http://www.w3.org/2000/svg"
   xmlns:sodipodi="http://sodipodi.sourceforge.net/DTD/sodipodi-0.dtd"
   xmlns:inkscape="http://www.inkscape.org/namespaces/inkscape"
   width="80.992455mm"
   height="98.989677mm"
   viewBox="0 0 80.992455 98.989677"
   version="1.1"
   id="svg3205"
   inkscape:version="1.0.1 (3bc2e813f5, 2020-09-07)"
   sodipodi:docname="SMBB660D-1100-02.svg">
  <defs
     id="defs3199">
    <inkscape:path-effect
       effect="bspline"
       id="path-effect3784"
       is_visible="true"
       lpeversion="1"
       weight="33.333333"
       steps="2"
       helper_size="0"
       apply_no_weight="true"
       apply_with_weight="true"
       only_selected="false" />
  </defs>
  <sodipodi:namedview
     id="base"
     pagecolor="#ffffff"
     bordercolor="#666666"
     borderopacity="1.0"
     inkscape:pageopacity="0.0"
     inkscape:pageshadow="2"
     inkscape:zoom="1.4"
     inkscape:cx="216.75986"
     inkscape:cy="175.75656"
     inkscape:document-units="mm"
     inkscape:current-layer="layer1"
     inkscape:document-rotation="0"
     showgrid="false"
     inkscape:window-width="1920"
     inkscape:window-height="1017"
     inkscape:window-x="-8"
     inkscape:window-y="-8"
     inkscape:window-maximized="1" />
  <metadata
     id="metadata3202">
    <rdf:RDF>
      <cc:Work
         rdf:about="">
        <dc:format>image/svg+xml</dc:format>
        <dc:type
           rdf:resource="http://purl.org/dc/dcmitype/StillImage" />
        <dc:title></dc:title>
      </cc:Work>
    </rdf:RDF>
  </metadata>
  <g
     inkscape:label="Vrstva 1"
     inkscape:groupmode="layer"
     id="layer1"
     transform="translate(-69.547617,-94.453813)">
    <path
       style="fill:none;stroke:#000000;stroke-width:0.264583px;stroke-linecap:butt;stroke-linejoin:miter;stroke-opacity:1"
       d="m 69.547617,193.3112 c 2.657912,0 5.315556,0 7.299945,0 1.984388,0 3.295467,0 4.675482,-0.0335 1.380015,-0.0335 2.828893,-0.10041 4.159683,-0.21657 1.33079,-0.11616 2.543439,-0.28152 3.728519,-0.59849 1.18508,-0.31697 2.342609,-0.78549 3.224512,-1.24614 0.881903,-0.46065 1.48823,-0.91343 2.128011,-1.51975 0.639781,-0.60632 1.313035,-1.36619 2.007951,-2.3997 0.694916,-1.0335 1.411481,-2.34064 2.031601,-3.74229 0.620119,-1.40164 1.143763,-2.89777 1.590649,-4.37227 0.44688,-1.4745 0.81698,-2.92731 1.25205,-4.78965 0.43508,-1.86234 0.9351,-4.13409 1.35639,-6.5496 0.4213,-2.41552 0.76383,-4.97468 1.07094,-7.48667 0.30711,-2.51198 0.57878,-4.97665 0.8603,-7.68748 0.28152,-2.71083 0.57287,-5.66765 0.8347,-8.48084 0.26183,-2.81319 0.49412,-5.4826 0.74217,-8.58518 0.24805,-3.10259 0.51185,-6.63817 0.7343,-9.74272 0.22246,-3.10455 0.40357,-5.77789 0.6024,-8.49069 0.19884,-2.71279 0.41538,-5.46487 0.58665,-7.62841 0.17127,-2.16353 0.29726,-3.7384 0.42916,-5.23064 0.13189,-1.49224 0.26969,-2.90174 0.39372,-4.38216 0.12403,-1.480418 0.23427,-3.031666 0.33072,-3.958917 0.0964,-0.927252 0.17913,-1.230426 0.25403,-1.395909 0.0749,-0.165483 0.14183,-0.193042 0.23051,-0.187051 0.0887,0.006 0.19892,0.04536 0.28149,0.161616 0.0826,0.116253 0.13769,0.309171 0.19475,0.639893 0.0571,0.330721 0.11613,0.799249 0.17911,1.756007 0.063,0.956758 0.12992,2.4017 0.20473,3.974641 0.0748,1.57295 0.15749,3.27381 0.23427,4.98654 0.0768,1.71272 0.14764,3.4372 0.27167,6.59492 0.12402,3.15772 0.30119,7.74847 0.45868,12.17792 0.15749,4.42945 0.2953,8.69734 0.45476,12.71338 0.15946,4.01603 0.34057,7.77997 0.51972,11.56568 0.17914,3.7857 0.35632,7.59295 0.56303,11.14439 0.20671,3.55144 0.44294,6.84685 0.73233,10.06165 0.2894,3.2148 0.63194,6.3488 0.96859,8.78204 0.33665,2.43325 0.66737,4.1656 0.99025,5.55547 0.32287,1.38986 0.63785,2.43715 1.0769,3.41557 0.43906,0.97841 1.00208,1.8879 1.70494,2.6123 0.70287,0.7244 1.54542,1.26379 2.38604,1.63581 0.84062,0.37201 1.67924,0.57674 2.53361,0.68696 0.85436,0.11021 1.72447,0.12598 6.17934,0.14934 4.45487,0.0234 12.49416,0.0543 20.53334,0.0853"
       id="path3782"
       inkscape:path-effect="#path-effect3784"
       inkscape:original-d="m 69.547617,193.3112 c 2.657912,2.6e-4 5.315556,2.6e-4 7.972936,0 1.311397,2.6e-4 2.622476,2.6e-4 3.933314,0 1.449203,-0.0667 2.898082,-0.13361 4.346729,-0.2008 1.212961,-0.16511 2.42561,-0.33047 3.63802,-0.4961 1.157838,-0.46828 2.315369,-0.9368 3.472657,-1.4056 0.606613,-0.45252 1.212937,-0.9053 1.81901,-1.35835 0.673547,-0.75964 1.346803,-1.51951 2.019808,-2.27967 0.716859,-1.30693 1.433425,-2.61407 2.14974,-3.9215 0.52393,-1.49592 1.047575,-2.99205 1.570959,-4.48847 0.37038,-1.45261 0.74047,-2.90542 1.11031,-4.35854 0.50031,-2.27157 1.00033,-4.54332 1.50009,-6.81538 0.34281,-2.559 0.68535,-5.11816 1.02762,-7.67764 0.27195,-2.4645 0.54361,-4.92917 0.81502,-7.39416 0.29162,-2.95667 0.58297,-5.91349 0.87407,-8.87063 0.23257,-2.66924 0.46486,-5.33865 0.69689,-8.00837 0.26407,-3.53546 0.52786,-7.07104 0.79139,-10.60696 0.18138,-2.67318 0.36249,-5.34652 0.54334,-8.02018 0.21682,-2.75193 0.43336,-5.50401 0.64965,-8.25642 0.12625,-1.57466 0.25224,-3.14953 0.37797,-4.7247 0.13807,-1.4093 0.27587,-2.8188 0.41341,-4.2286 0.11051,-1.551048 0.22076,-3.102295 0.33073,-4.653838 0.0829,-0.302908 0.16563,-0.60607 0.24805,-0.909505 0.0672,-0.0273 0.13413,-0.05486 0.2008,-0.08268 0.11051,0.03964 0.22075,0.07901 0.33073,0.118118 0.0554,0.193193 0.11051,0.386114 0.16536,0.578776 0.0593,0.468807 0.11839,0.937331 0.17718,1.405599 0.0672,1.445265 0.13413,2.890207 0.2008,4.33491 0.0829,1.70119 0.16563,3.40205 0.24805,5.10268 0.0711,1.72482 0.142,3.4493 0.21261,5.17355 0.17744,4.59119 0.35461,9.18194 0.53153,13.77251 0.13807,4.26833 0.27587,8.53622 0.41341,12.80394 0.18138,3.76435 0.36249,7.52829 0.54334,11.29204 0.17744,3.80766 0.35462,7.61491 0.53153,11.42197 0.2365,3.29581 0.47273,6.59122 0.7087,9.88644 0.34281,3.13438 0.68535,6.26837 1.02763,9.40216 0.331,1.73269 0.66172,3.46504 0.99218,5.19717 0.31525,1.04759 0.63023,2.09488 0.94494,3.14192 0.56331,0.90979 1.12632,1.81928 1.68908,2.72852 0.84286,0.53968 1.68541,1.07907 2.52772,1.61821 0.83892,0.20501 1.67754,0.40974 2.5159,0.61421 0.87042,0.016 1.74053,0.0318 2.6104,0.0473 8.03987,0.0312 16.07916,0.0622 24.11834,0.0929" />
  </g>
</svg>
