<?xml version="1.0" encoding="UTF-8" standalone="no"?>
<svg
   xmlns:dc="http://purl.org/dc/elements/1.1/"
   xmlns:cc="http://creativecommons.org/ns#"
   xmlns:rdf="http://www.w3.org/1999/02/22-rdf-syntax-ns#"
   xmlns:svg="http://www.w3.org/2000/svg"
   xmlns="http://www.w3.org/2000/svg"
   xmlns:sodipodi="http://sodipodi.sourceforge.net/DTD/sodipodi-0.dtd"
   xmlns:inkscape="http://www.inkscape.org/namespaces/inkscape"
   width="78.899231mm"
   height="99.486092mm"
   viewBox="0 0 78.899231 99.486092"
   version="1.1"
   id="svg1444"
   inkscape:version="1.0.1 (3bc2e813f5, 2020-09-07)"
   sodipodi:docname="SMBB810D-1100-02.svg">
  <defs
     id="defs1438">
    <inkscape:path-effect
       effect="bspline"
       id="path-effect2023"
       is_visible="true"
       lpeversion="1"
       weight="33.333333"
       steps="2"
       helper_size="0"
       apply_no_weight="true"
       apply_with_weight="true"
       only_selected="false" />
  </defs>
  <sodipodi:namedview
     id="base"
     pagecolor="#ffffff"
     bordercolor="#666666"
     borderopacity="1.0"
     inkscape:pageopacity="0.0"
     inkscape:pageshadow="2"
     inkscape:zoom="0.98994949"
     inkscape:cx="318.13606"
     inkscape:cy="262.29375"
     inkscape:document-units="mm"
     inkscape:current-layer="layer1"
     inkscape:document-rotation="0"
     showgrid="false"
     fit-margin-top="0"
     fit-margin-left="0"
     fit-margin-right="0"
     fit-margin-bottom="0"
     inkscape:window-width="1920"
     inkscape:window-height="1017"
     inkscape:window-x="-8"
     inkscape:window-y="-8"
     inkscape:window-maximized="1" />
  <metadata
     id="metadata1441">
    <rdf:RDF>
      <cc:Work
         rdf:about="">
        <dc:format>image/svg+xml</dc:format>
        <dc:type
           rdf:resource="http://purl.org/dc/dcmitype/StillImage" />
        <dc:title></dc:title>
      </cc:Work>
    </rdf:RDF>
  </metadata>
  <g
     inkscape:label="Vrstva 1"
     inkscape:groupmode="layer"
     id="layer1"
     transform="translate(-60.415794,-95.151546)">
    <path
       style="fill:none;stroke:#000000;stroke-width:0.264583px;stroke-linecap:butt;stroke-linejoin:miter;stroke-opacity:1"
       d="m 60.419617,194.5054 c 3.274308,-0.0947 6.548361,-0.18933 8.886975,-0.29513 2.338613,-0.1058 3.741751,-0.22273 4.891499,-0.53456 1.149747,-0.31184 2.046197,-0.81852 2.886947,-1.45884 0.84075,-0.64032 1.625842,-1.41427 2.349681,-2.29958 0.723839,-0.88531 1.38643,-1.88198 2.088015,-3.05128 0.701584,-1.16931 1.44213,-2.51119 2.015649,-3.72781 0.573518,-1.21662 0.979983,-2.30795 1.592485,-4.1705 0.612502,-1.86255 1.430999,-4.49622 2.2189,-7.63387 0.787901,-3.13765 1.545149,-6.77912 2.149297,-9.93348 0.604148,-3.15436 1.055155,-5.82143 1.405953,-8.11829 0.350797,-2.29687 0.601357,-4.2234 1.049595,-7.38335 0.448237,-3.15994 1.094126,-7.5531 1.65094,-11.13622 0.556814,-3.58311 1.024525,-6.35597 1.528444,-9.19017 0.503918,-2.83421 1.044014,-5.72957 1.586915,-9.05655 0.542901,-3.32698 1.088566,-7.08538 1.595268,-10.35668 0.506701,-3.2713 0.974413,-6.0553 1.266738,-7.753586 0.292326,-1.698286 0.409253,-2.310767 0.554092,-2.664472 0.14484,-0.353705 0.31745,-0.44836 0.49296,-0.456618 0.17551,-0.0083 0.35369,0.06969 0.49001,0.234043 0.13632,0.164349 0.23097,0.414915 0.3757,1.358714 0.14473,0.9438 0.33961,2.580793 0.515,4.348689 0.17539,1.76789 0.3313,3.66658 0.49834,5.71288 0.16705,2.0463 0.34522,4.2401 0.46493,6.21122 0.11971,1.97113 0.18096,3.71948 0.27841,5.53471 0.0975,1.81523 0.23108,3.69722 0.37585,5.95511 0.14477,2.25789 0.30067,4.89156 0.43709,7.30814 0.13642,2.41658 0.25335,4.61594 0.40926,7.31651 0.15591,2.70057 0.35079,5.90217 0.49835,8.47188 0.14755,2.5697 0.24778,4.50737 0.40369,6.60936 0.15592,2.10199 0.3675,4.36817 0.56238,6.47015 0.19489,2.10198 0.37307,4.03965 0.65705,6.55926 0.28398,2.51961 0.67374,5.62098 1.05238,8.32433 0.37864,2.70334 0.74613,5.0085 1.14428,6.90168 0.39815,1.89318 0.82689,3.37427 1.24453,4.53523 0.41764,1.16096 0.82411,2.00174 1.22227,2.65597 0.39816,0.65424 0.78793,1.12196 1.2362,1.55068 0.44826,0.42872 0.95495,0.81848 1.52013,1.1386 0.56518,0.32012 1.1888,0.57068 1.93772,0.82401 0.74892,0.25333 1.62309,0.50946 2.27455,0.64584 0.65145,0.13637 1.08019,0.15307 1.73167,0.18091 0.65147,0.0278 1.52565,0.0668 4.78862,0.103 3.26296,0.0362 8.91449,0.0696 14.56586,0.103"
       id="path2021"
       inkscape:path-effect="#path-effect2023"
       inkscape:original-d="m 60.419617,194.5054 c 3.274316,-0.0944 6.548369,-0.18906 9.822156,-0.28398 1.403456,-0.11667 2.806594,-0.23359 4.209494,-0.35079 0.89675,-0.50644 1.793198,-1.01313 2.6894,-1.52009 0.785384,-0.77372 1.570474,-1.54768 2.355313,-2.32191 0.662882,-0.99645 1.325475,-1.99312 1.987817,-2.99008 0.740839,-1.34167 1.481383,-2.68356 2.221677,-4.02574 0.406747,-1.09111 0.81321,-2.18244 1.219417,-3.27405 0.818795,-2.63351 1.637292,-5.26718 2.45554,-7.90116 0.757541,-3.64136 1.514792,-7.28283 2.271792,-10.92464 0.451289,-2.66692 0.902297,-5.33399 1.35305,-8.00138 0.250835,-1.92635 0.501396,-3.85288 0.751697,-5.77971 0.646178,-4.39306 1.292066,-8.78622 1.937702,-13.17973 0.467995,-2.77271 0.93571,-5.54557 1.403165,-8.31876 0.540382,-2.89521 1.080479,-5.79057 1.620321,-8.68626 0.545952,-3.75829 1.091616,-7.51669 1.637028,-11.27543 0.467995,-2.78385 0.935707,-5.56785 1.403165,-8.352173 0.117197,-0.612241 0.234124,-1.224722 0.350789,-1.837479 0.17288,-0.0944 0.34549,-0.189052 0.51784,-0.283974 0.17844,0.07822 0.35662,0.156173 0.53454,0.23386 0.0949,0.250835 0.18957,0.501396 0.28397,0.751697 0.19515,1.637323 0.39003,3.274316 0.58465,4.911079 0.15618,1.89903 0.31208,3.79772 0.46772,5.69618 0.17845,2.19414 0.35663,4.38794 0.53454,6.58151 0.0615,1.74869 0.12276,3.49704 0.18375,5.24517 0.1339,1.88232 0.26753,3.76431 0.40091,5.64606 0.15617,2.63404 0.31207,5.26771 0.46771,7.90116 0.1172,2.19971 0.23413,4.39907 0.3508,6.59822 0.19515,3.20199 0.39003,6.40359 0.58465,9.60499 0.10049,1.93801 0.20072,3.87568 0.30068,5.81312 0.21185,2.26653 0.42344,4.53271 0.63476,6.79867 0.17845,1.938 0.35663,3.87567 0.53454,5.81311 0.39004,3.10177 0.7798,6.20314 1.1693,9.30432 0.36777,2.30551 0.73526,4.61066 1.10249,6.9156 0.42902,1.48141 0.85776,2.9625 1.28624,4.44335 0.40674,0.84107 0.81321,1.68184 1.21941,2.52236 0.39004,0.46799 0.7798,0.93571 1.16931,1.40316 0.50697,0.39005 1.01366,0.77981 1.52009,1.16931 0.62391,0.25083 1.24753,0.50139 1.87089,0.75169 0.87448,0.25641 1.74865,0.51254 2.62258,0.7684 0.42902,0.017 0.85776,0.0337 1.28624,0.0501 0.87447,0.0392 1.74865,0.0782 2.62258,0.11693 5.65201,0.0337 11.30354,0.0671 16.95491,0.10022" />
  </g>
</svg>
