<?xml version="1.0" encoding="UTF-8" standalone="no"?>
<svg
   xmlns:dc="http://purl.org/dc/elements/1.1/"
   xmlns:cc="http://creativecommons.org/ns#"
   xmlns:rdf="http://www.w3.org/1999/02/22-rdf-syntax-ns#"
   xmlns:svg="http://www.w3.org/2000/svg"
   xmlns="http://www.w3.org/2000/svg"
   xmlns:sodipodi="http://sodipodi.sourceforge.net/DTD/sodipodi-0.dtd"
   xmlns:inkscape="http://www.inkscape.org/namespaces/inkscape"
   width="80.883659mm"
   height="99.138794mm"
   viewBox="0 0 80.883659 99.138794"
   version="1.1"
   id="svg3792"
   inkscape:version="1.0.1 (3bc2e813f5, 2020-09-07)"
   sodipodi:docname="SMBB670D-1100-02.svg">
  <defs
     id="defs3786">
    <inkscape:path-effect
       effect="bspline"
       id="path-effect4371"
       is_visible="true"
       lpeversion="1"
       weight="33.333333"
       steps="2"
       helper_size="0"
       apply_no_weight="true"
       apply_with_weight="true"
       only_selected="false" />
  </defs>
  <sodipodi:namedview
     id="base"
     pagecolor="#ffffff"
     bordercolor="#666666"
     borderopacity="1.0"
     inkscape:pageopacity="0.0"
     inkscape:pageshadow="2"
     inkscape:zoom="1.979899"
     inkscape:cx="148.55792"
     inkscape:cy="210.1914"
     inkscape:document-units="mm"
     inkscape:current-layer="layer1"
     inkscape:document-rotation="0"
     showgrid="false"
     inkscape:window-width="1920"
     inkscape:window-height="1017"
     inkscape:window-x="-8"
     inkscape:window-y="-8"
     inkscape:window-maximized="1" />
  <metadata
     id="metadata3789">
    <rdf:RDF>
      <cc:Work
         rdf:about="">
        <dc:format>image/svg+xml</dc:format>
        <dc:type
           rdf:resource="http://purl.org/dc/dcmitype/StillImage" />
        <dc:title></dc:title>
      </cc:Work>
    </rdf:RDF>
  </metadata>
  <g
     inkscape:label="Vrstva 1"
     inkscape:groupmode="layer"
     id="layer1"
     transform="translate(-65.546736,-97.759969)">
    <path
       style="fill:none;stroke:#000000;stroke-width:0.264583px;stroke-linecap:butt;stroke-linejoin:miter;stroke-opacity:1"
       d="m 65.54785,196.74378 c 1.982518,0.0167 3.964766,0.0334 6.105724,0.0139 2.140959,-0.0195 4.440546,-0.0752 6.517454,-0.2311 2.076908,-0.15592 3.931054,-0.41205 5.501216,-0.86865 1.570162,-0.4566 2.856369,-1.11363 3.978304,-1.92099 1.121935,-0.80736 2.079628,-1.76505 2.909259,-2.84802 0.829632,-1.08297 1.531201,-2.29123 2.34972,-4.09251 0.818519,-1.80128 1.753944,-4.19553 2.455534,-6.30027 0.701591,-2.10474 1.169303,-3.91991 1.73448,-6.83484 0.565176,-2.91494 1.227769,-6.92947 1.804076,-10.88565 0.576308,-3.95618 1.066291,-7.85378 1.514533,-11.47865 0.44823,-3.62488 0.8547,-6.97682 1.2222,-10.14232 0.3675,-3.1655 0.69601,-6.14438 0.96607,-8.70016 0.27006,-2.55579 0.48164,-4.68834 0.70437,-7.29424 0.22273,-2.6059 0.45658,-5.68501 0.69045,-8.87836 0.23386,-3.19334 0.46772,-6.50074 0.69323,-9.35442 0.22551,-2.85369 0.44266,-5.2535 0.59021,-6.64833 0.14754,-1.394834 0.2255,-1.784598 0.31182,-2.026907 0.0863,-0.242309 0.18098,-0.336981 0.27858,-0.356381 0.0976,-0.0194 0.19783,0.03628 0.27567,0.153278 0.0778,0.116997 0.13353,0.295187 0.20032,0.684948 0.0668,0.38976 0.14473,0.991107 0.25331,2.188262 0.10857,1.19716 0.24777,2.99006 0.39532,5.66836 0.14755,2.67829 0.30346,6.24181 0.43152,9.45186 0.12807,3.21004 0.22829,6.06643 0.36472,9.3962 0.13642,3.32977 0.30903,7.13272 0.4538,10.69913 0.14477,3.56641 0.2617,6.89607 0.39812,10.01425 0.13642,3.11817 0.29233,6.02467 0.42875,8.5916 0.13642,2.56692 0.25334,4.79412 0.37863,7.06872 0.12529,2.2746 0.25892,4.59645 0.41483,6.88219 0.15591,2.28574 0.33409,4.53521 0.56796,6.74578 0.23387,2.21057 0.52341,4.38209 0.86586,6.52027 0.34245,2.13819 0.73778,4.24289 1.23618,5.99409 0.49839,1.75119 1.09973,3.14876 1.67329,4.26238 0.57355,1.11363 1.11921,1.94326 1.92666,2.57237 0.80744,0.62911 1.8765,1.05785 2.91773,1.33064 1.04124,0.2728 2.05462,0.38972 3.0875,0.46767 1.03289,0.0779 2.08524,0.11691 6.13611,0.13361 4.05087,0.0167 11.09996,0.0111 18.14893,0.006"
       id="path4369"
       inkscape:path-effect="#path-effect4371"
       inkscape:original-d="m 65.54785,196.74378 c 1.982515,0.017 3.964763,0.0337 5.946749,0.0501 2.299941,-0.0554 4.599527,-0.1111 6.898894,-0.16704 1.854483,-0.25588 3.70863,-0.512 5.562547,-0.7684 1.286526,-0.65679 2.572734,-1.31381 3.858704,-1.97111 0.957998,-0.95748 1.915695,-1.91517 2.873148,-2.87315 0.70186,-1.20804 1.403429,-2.4163 2.104747,-3.62485 0.935725,-2.39407 1.871152,-4.78831 2.806329,-7.18286 0.467995,-1.81498 0.935707,-3.63015 1.403165,-5.44562 0.662885,-4.01443 1.325475,-8.02896 1.987817,-12.04383 0.490268,-3.8975 0.980252,-7.7951 1.46998,-11.69305 0.40675,-3.3518 0.81321,-6.70374 1.21942,-10.05601 0.32879,-2.97874 0.6573,-5.95762 0.98556,-8.93682 0.21185,-2.13237 0.42344,-4.26492 0.63476,-6.39777 0.23413,-3.07896 0.46799,-6.15807 0.70158,-9.2375 0.23413,-3.30726 0.46799,-6.61466 0.70159,-9.92238 0.21742,-2.39964 0.43457,-4.79945 0.65147,-7.199575 0.0782,-0.389512 0.15617,-0.779272 0.23386,-1.169305 0.0949,-0.09439 0.18958,-0.189053 0.28397,-0.283975 0.10049,0.05595 0.20072,0.111628 0.30068,0.167045 0.0559,0.178448 0.11163,0.356624 0.16704,0.534538 0.0782,0.601633 0.15617,1.202978 0.23386,1.804072 0.13947,1.79323 0.27867,3.58613 0.41761,5.3788 0.15618,3.56393 0.31208,7.12745 0.46772,10.69078 0.1005,2.85676 0.20072,5.71315 0.30068,8.56933 0.17288,3.80336 0.34549,7.60631 0.51784,11.40907 0.11719,3.33006 0.23412,6.65972 0.35079,9.98919 0.15617,2.90688 0.31208,5.81338 0.46772,8.71967 0.1172,2.22756 0.23413,4.45476 0.35079,6.68174 0.1339,2.32222 0.26753,4.64407 0.40091,6.96571 0.17844,2.24983 0.35662,4.4993 0.53453,6.74856 0.28982,2.17187 0.57935,4.34339 0.86863,6.51469 0.39561,2.10506 0.79094,4.20976 1.18601,6.31424 0.60163,1.3979 1.20298,2.79546 1.80407,4.19279 0.54595,0.82994 1.09161,1.65957 1.63702,2.48895 1.06937,0.42902 2.13842,0.85776 3.20724,1.28624 1.01368,0.1172 2.02706,0.23412 3.04019,0.35079 1.05266,0.0392 2.10501,0.0782 3.15712,0.11693 7.04964,-0.005 14.09873,-0.0109 21.1477,-0.0167" />
  </g>
</svg>
