<?xml version="1.0" encoding="UTF-8" standalone="no"?>
<svg
   xmlns:dc="http://purl.org/dc/elements/1.1/"
   xmlns:cc="http://creativecommons.org/ns#"
   xmlns:rdf="http://www.w3.org/1999/02/22-rdf-syntax-ns#"
   xmlns:svg="http://www.w3.org/2000/svg"
   xmlns="http://www.w3.org/2000/svg"
   xmlns:sodipodi="http://sodipodi.sourceforge.net/DTD/sodipodi-0.dtd"
   xmlns:inkscape="http://www.inkscape.org/namespaces/inkscape"
   width="78.690125mm"
   height="99.313622mm"
   viewBox="0 0 78.690122 99.313618"
   version="1.1"
   id="svg8"
   inkscape:version="1.0.1 (3bc2e813f5, 2020-09-07)"
   sodipodi:docname="SMBD850D-1100-02.svg">
  <defs
     id="defs2">
    <inkscape:path-effect
       effect="bspline"
       id="path-effect849"
       is_visible="true"
       lpeversion="1"
       weight="33.333333"
       steps="2"
       helper_size="0"
       apply_no_weight="true"
       apply_with_weight="true"
       only_selected="false" />
  </defs>
  <sodipodi:namedview
     id="base"
     pagecolor="#ffffff"
     bordercolor="#666666"
     borderopacity="1.0"
     inkscape:pageopacity="0.0"
     inkscape:pageshadow="2"
     inkscape:zoom="1.4"
     inkscape:cx="253.35142"
     inkscape:cy="236.94813"
     inkscape:document-units="mm"
     inkscape:current-layer="layer1"
     inkscape:document-rotation="0"
     showgrid="false"
     fit-margin-top="0"
     fit-margin-left="0"
     fit-margin-right="0"
     fit-margin-bottom="0"
     inkscape:window-width="1920"
     inkscape:window-height="1017"
     inkscape:window-x="-8"
     inkscape:window-y="-8"
     inkscape:window-maximized="1" />
  <metadata
     id="metadata5">
    <rdf:RDF>
      <cc:Work
         rdf:about="">
        <dc:format>image/svg+xml</dc:format>
        <dc:type
           rdf:resource="http://purl.org/dc/dcmitype/StillImage" />
        <dc:title></dc:title>
      </cc:Work>
    </rdf:RDF>
  </metadata>
  <g
     inkscape:label="Vrstva 1"
     inkscape:groupmode="layer"
     id="layer1"
     transform="translate(-76.152725,-93.420607)">
    <path
       style="fill:none;stroke:#000000;stroke-width:0.264583px;stroke-linecap:butt;stroke-linejoin:miter;stroke-opacity:1"
       d="m 76.165387,192.50171 c 2.027029,-0.19491 4.053823,-0.38979 5.952544,-0.70162 1.898722,-0.31183 3.669348,-0.74057 5.111456,-1.24728 1.442107,-0.5067 2.555709,-1.09134 3.521748,-1.72331 0.966039,-0.63198 1.784538,-1.31127 2.745022,-2.31909 0.960485,-1.00782 2.062948,-2.34414 3.140377,-4.00899 1.077428,-1.66486 2.129779,-3.6582 2.987277,-5.69333 0.857499,-2.03514 1.520089,-4.112 2.152079,-6.19727 0.63199,-2.08528 1.23333,-4.17885 1.79572,-6.49242 0.56239,-2.31356 1.08578,-4.847 1.58413,-7.46961 0.49835,-2.6226 0.97163,-5.33421 1.3447,-7.58096 0.37307,-2.24676 0.64591,-4.02851 0.94938,-6.16948 0.30346,-2.14096 0.63754,-4.64099 0.97999,-7.25525 0.34244,-2.61426 0.69322,-5.34258 0.98555,-7.83989 0.29233,-2.49732 0.52619,-4.7635 0.89647,-7.89561 0.37028,-3.13211 0.87697,-7.12994 1.38367,-10.5822 0.5067,-3.45227 1.01339,-6.35877 1.44213,-8.76143 0.42875,-2.402665 0.77954,-4.301353 1.01339,-5.367699 0.23386,-1.066347 0.35079,-1.300204 0.45666,-1.4367 0.10588,-0.136497 0.20056,-0.175482 0.31755,-0.194943 0.117,-0.01946 0.2562,-0.01946 0.35357,0.05866 0.0974,0.07812 0.15304,0.234012 0.21985,0.437245 0.0668,0.203234 0.14477,0.4538 0.23383,0.979984 0.0891,0.526183 0.18928,1.327976 0.28672,2.177119 0.0974,0.849143 0.1921,1.745594 0.2979,2.700536 0.1058,0.954945 0.22272,1.968325 0.32016,3.226725 0.0974,1.2584 0.17538,2.76176 0.26448,4.17886 0.0891,1.4171 0.18931,2.74786 0.28676,4.04246 0.0974,1.2946 0.1921,2.55297 0.29789,4.00626 0.10579,1.45329 0.22272,3.10142 0.32294,4.86096 0.10023,1.75954 0.18375,3.63039 0.30347,5.55698 0.11972,1.9266 0.27563,3.9088 0.42875,6.34488 0.15312,2.43607 0.30345,5.32587 0.5067,8.38559 0.20324,3.05971 0.45937,6.28915 0.71272,9.50198 0.25335,3.21284 0.50391,6.40887 0.83522,9.74421 0.33131,3.33535 0.74334,6.80978 1.10528,9.61057 0.36194,2.80078 0.67375,4.92775 1.04405,6.85713 0.3703,1.92938 0.79903,3.66103 1.26678,5.21455 0.46775,1.55352 0.97444,2.92882 1.52851,4.13154 0.55406,1.20272 1.1554,2.23279 1.75124,3.01509 0.59584,0.7823 1.18605,1.31683 1.94891,1.79007 0.76286,0.47324 1.69829,0.88527 2.80635,1.22489 1.10806,0.33962 2.38871,0.60688 3.61369,0.75998 1.22498,0.1531 2.39426,0.19207 4.02295,0.2032 1.62869,0.0111 3.71669,-0.006 5.763,-0.006 2.0463,0 4.05078,0.0167 5.60986,0.025 1.55908,0.008 2.67268,0.008 3.78604,0.008"
       id="path847"
       inkscape:path-effect="#path-effect849"
       inkscape:original-d="m 76.165387,192.50171 c 2.027057,-0.19462 4.05385,-0.38951 6.080381,-0.58465 1.77096,-0.42849 3.541586,-0.85723 5.311982,-1.28624 1.113909,-0.5844 2.227511,-1.16904 3.340867,-1.75395 0.818795,-0.67906 1.637292,-1.35836 2.45554,-2.03793 1.102772,-1.33611 2.205238,-2.67243 3.307461,-4.00905 1.052658,-1.99316 2.105011,-3.9865 3.157122,-5.98015 0.66288,-2.07669 1.32547,-4.15355 1.98782,-6.23072 0.60163,-2.09339 1.20297,-4.18696 1.80407,-6.28084 0.52367,-2.53328 1.04707,-5.06672 1.5702,-7.60047 0.47357,-2.71147 0.94685,-5.42308 1.41987,-8.13502 0.27311,-1.78157 0.54594,-3.56333 0.81852,-5.34539 0.33436,-2.49987 0.66843,-4.9999 1.00226,-7.50025 0.35106,-2.72817 0.70184,-5.45649 1.05237,-8.18513 0.23413,-2.266 0.46799,-4.53218 0.70158,-6.79867 0.50698,-3.99772 1.01366,-7.99555 1.5201,-11.99372 0.50697,-2.90635 1.01366,-5.81285 1.52009,-8.71967 0.35107,-1.898498 0.70185,-3.797187 1.05238,-5.696179 0.11719,-0.233601 0.23412,-0.467457 0.35079,-0.701583 0.0949,-0.03871 0.18958,-0.07769 0.28397,-0.11693 0.13947,2.65e-4 0.27867,2.65e-4 0.41761,0 0.056,0.156175 0.11163,0.312079 0.16704,0.467722 0.0782,0.250834 0.15617,0.501395 0.23386,0.751695 0.1005,0.802089 0.20072,1.603882 0.30068,2.405426 0.0949,0.896749 0.18958,1.793198 0.28398,2.6894 0.11719,1.013679 0.23412,2.027059 0.35079,3.040189 0.0782,1.50369 0.15617,3.00705 0.23386,4.51018 0.10049,1.33106 0.20071,2.66182 0.30068,3.99233 0.0949,1.25869 0.18958,2.51706 0.28397,3.77518 0.1172,1.64846 0.23413,3.29659 0.35079,4.94449 0.0838,1.87119 0.16731,3.74204 0.25057,5.61266 0.15617,1.98256 0.31208,3.96476 0.46772,5.94675 0.15061,2.89017 0.30094,5.77997 0.45102,8.66955 0.2564,3.22984 0.51253,6.45928 0.7684,9.68852 0.25083,3.19643 0.50139,6.39246 0.75169,9.5883 0.41231,3.47484 0.82435,6.94927 1.23612,10.42351 0.31209,2.12733 0.6239,4.2543 0.93545,6.38106 0.42902,1.73198 0.85775,3.46363 1.28623,5.19505 0.50697,1.37562 1.01366,2.75092 1.5201,4.12597 0.60163,1.03039 1.20297,2.06047 1.80407,3.09031 0.59049,0.53481 1.1807,1.06934 1.77066,1.60362 0.93572,0.41231 1.87115,0.82434 2.80633,1.23612 1.28095,0.26753 2.5616,0.5348 3.842,0.80181 1.16959,0.0392 2.33887,0.0782 3.50791,0.11693 2.08835,-0.0164 4.17635,-0.0332 6.26413,-0.0501 2.00483,0.017 4.00931,0.0337 6.01356,0.0501 1.11391,2.6e-4 2.22751,2.6e-4 3.34087,0" />
  </g>
</svg>
