<svg xmlns="http://www.w3.org/2000/svg" viewBox="0 0 495.15 165.15"><defs><style>.cls-1{fill:#108498;}.cls-2{fill:#27cfd5;}.cls-3{fill:#fff;}</style></defs><g id="Capa_2" data-name="Capa 2"><g id="Capa_1-2" data-name="Capa 1"><rect class="cls-1" width="495.15" height="165.15" rx="15.91"/><path class="cls-2" d="M303.81,52.64V51.45h-26V25.84h-1.19V51.45H249.24V25.84h-1.19V51.45H220.68V25.84h-1.19V51.45H193.11v1.19h26.38V80H193.11V81.2h26.38v27.37H193.11v1.19h26.38V136h1.19V109.76h27.37V136h1.19V109.76h27.37V136h1.19V109.76h26v-1.19h-26V81.2h26V80h-26V52.64Zm-83.13,0h27.37V80H220.68Zm0,55.93V81.2h27.37v27.37Zm55.93,0H249.24V81.2h27.37Zm0-28.56H249.24V52.64h27.37Z"/><path class="cls-3" d="M290.19,22.44H205A15.89,15.89,0,0,0,189.09,38.3v85.24A15.89,15.89,0,0,0,205,139.41h85.23a15.89,15.89,0,0,0,15.87-15.87V38.31A15.89,15.89,0,0,0,290.19,22.44Zm11.62,101.1a11.64,11.64,0,0,1-11.62,11.62H205a11.64,11.64,0,0,1-11.62-11.62V83.8a3,3,0,0,0,1.84.65h19.3a3,3,0,0,0,2.91-2.35l2.13-9.92,7.95,40.49a3,3,0,0,0,2.91,2.4h0a3,3,0,0,0,2.91-2.39l12.76-64.1,11.23,57.92a3,3,0,0,0,2.9,2.41,2.91,2.91,0,0,0,2.93-2.37L267.8,84l10,0a10.57,10.57,0,1,0-.25-6l-12.16,0a3,3,0,0,0-2.9,2.37l-2.16,10.36L249,32.59a3,3,0,0,0-2.92-2.41h0a3,3,0,0,0-2.91,2.39L230.4,96.75l-7.83-39.91a3,3,0,0,0-2.9-2.4h0a3,3,0,0,0-2.91,2.35L212.07,78.5H195.18a3,3,0,0,0-1.84.65V38.3A11.63,11.63,0,0,1,205,26.69h85.23a11.63,11.63,0,0,1,11.62,11.62ZM283.16,80.61a4.61,4.61,0,1,1,4.61,4.61A4.6,4.6,0,0,1,283.16,80.61Z"/></g></g></svg>