<svg xmlns="http://www.w3.org/2000/svg" viewBox="0 0 491.15 165.15"><defs><style>.cls-1{fill:#108498;}.cls-2{fill:#fff;}.cls-3{fill:#2feded;opacity:0.65;}</style></defs><g id="Capa_2" data-name="Capa 2"><g id="Capa_1-2" data-name="Capa 1"><rect class="cls-1" width="491.15" height="165.15" rx="15.91"/><path class="cls-2" d="M291.12,22.16a4.78,4.78,0,0,0-4.78-4.77H208.12A12.52,12.52,0,0,0,195.61,29.9v95.43a12.52,12.52,0,0,0,12.51,12.51h0v8.7a1.92,1.92,0,0,0,3.06,1.55l5.27-3.86,5.27,3.86a1.93,1.93,0,0,0,1.13.37,1.89,1.89,0,0,0,.87-.21,1.92,1.92,0,0,0,1.06-1.71v-8.7h61.53a4.79,4.79,0,0,0,4.78-4.78V112.52h0ZM199.45,29.9a8.68,8.68,0,0,1,8.67-8.67h78.22a.93.93,0,0,1,.93.93v88.43H208.12a12.45,12.45,0,0,0-8.67,3.5ZM221,142.75l-3.35-2.45a1.89,1.89,0,0,0-1.13-.37,1.92,1.92,0,0,0-1.14.37L212,142.75V129.18h9ZM286.34,134H224.81v-4.81h54.86a1.92,1.92,0,0,0,0-3.84H204.94a1.93,1.93,0,1,0,0,3.85h3.21V134h0a8.68,8.68,0,0,1-8.67-8.66V123.1a8.68,8.68,0,0,1,8.67-8.67h79.15v18.63A.93.93,0,0,1,286.34,134Z"/><path class="cls-2" d="M279.69,117.84H205.45a1.93,1.93,0,0,0,0,3.85h74.24a1.93,1.93,0,0,0,0-3.85Z"/><path class="cls-3" d="M240.93,38.36A24.37,24.37,0,0,1,257,44a33.1,33.1,0,0,1,9.57-1.32c6.42,0,12.22,2.64,11.81,7.12-.71,6.72-13.54,9.88-22.8,10.79a48.28,48.28,0,0,1-9.47,0c-6.41,9.88-15.68,16-18.22,17.61,1.53.21,4.58,1,9.47,2.35a37.6,37.6,0,0,0,7.43,1.11c6.21,0,11.09-1.11,16.69-6.41.21-.2.72-.61,1-.3s-.3.91-.81,1.42c-6.72,6.72-11.2,10-17.82,10a26.56,26.56,0,0,1-9.77-2c-3.67-1.32-7.84-3-9.67-3.36C221,83.46,216.8,86,210.7,86.1c-4.18.11-6.21-.81-6.11-2.34.1-3.36,8.85-5.9,15.17-6.11a45.67,45.67,0,0,1,5.9.11c4.78-5.09,7.43-13.24,11.3-18.53-5.9-1.22-11-4.78-11-10S231.36,38.36,240.93,38.36Zm-26.06,41c-2.75.11-6,1.63-5.8,3.77.1,1.12,1.22,1.83,3.26,1.73a19.06,19.06,0,0,0,10.48-4.48A25.14,25.14,0,0,0,214.87,79.38Zm22.6-21c6.11-9.17,13-12.32,17.41-13.85-2.85-1.93-7.33-3.87-14.46-3.87-8.65,0-13.44,4-13.44,8.55S232.38,57.4,237.47,58.42Zm18.22.91c5.6-.71,18-4.27,18.63-10.38.3-3.87-3.26-5.5-7-5.5A14.87,14.87,0,0,0,259,46.2a8.3,8.3,0,0,1,1.53,3.16c.61,2.13.3,3.76.1,3.76s0-.91-1.53-3.56a10.56,10.56,0,0,0-1.63-2.24c-3.36,2.54-7,6.92-10.79,12.32A39.63,39.63,0,0,0,255.69,59.33Z"/></g></g></svg>