<svg xmlns="http://www.w3.org/2000/svg" viewBox="0 0 491.15 165.15"><defs><style>.cls-1{fill:#108498;}.cls-2{fill:#fff;}.cls-3{fill:#2feded;opacity:0.65;}</style></defs><g id="Capa_2" data-name="Capa 2"><g id="Capa_1-2" data-name="Capa 1"><rect class="cls-1" width="491.15" height="165.15" rx="15.91"/><path class="cls-2" d="M307.23,79.77a4,4,0,0,0-4.1-3.48q-6.27,0-12.55,0a5.93,5.93,0,0,0-1.25-4.55L297,42.92a7,7,0,0,0-4.88-8.59L223.08,15.77a6.82,6.82,0,0,0-5.29.74,7,7,0,0,0-3.23,4.26L203.51,62.13c-2.4.83-3.93,3.12-5.25,5.22-.8,1-1.37,2.59-2.83,2.79-2.45.15-4.91-.08-7.36.09a4.83,4.83,0,0,0-4.15,5q0,32.15,0,64.3a4.76,4.76,0,0,0,5,4.9h97a5.11,5.11,0,0,0,3.84-1.89c1-1,1.25-2.53,1.65-3.87,4.91-18,9.92-36,14.8-54A15.63,15.63,0,0,0,307.23,79.77ZM219.39,22.06a2.08,2.08,0,0,1,.94-1.25,1.91,1.91,0,0,1,1.45-.21l69.07,18.56a2,2,0,0,1,1.35,2.47l-7.65,28.63-3.18-.15h0l-.71,0h-.1a2.44,2.44,0,0,0-.48,0c-1.83,0-3.69,0-5.5,0-1.33,0-2.66,0-4,0v0H270a1.81,1.81,0,0,0-.23,0h-4.61a2.62,2.62,0,0,0-.57.07h-11.1l-.13,0h-.58a2,2,0,0,0-.24,0h-6.87a2.25,2.25,0,0,0-.58.08h-2.2c-.76,0-1.53,0-2.3,0A2.31,2.31,0,0,1,240,70c-.15-.2-.35-.49-.48-.69s-.27-.41-.42-.6c-.28-.39-.54-.8-.81-1.2a15.26,15.26,0,0,0-3-3.65,10.72,10.72,0,0,0-.88-.62,7.09,7.09,0,0,0-4.24-1.49,7.38,7.38,0,0,0-.94,0h-8.79l-.32,0H208.8Zm66.41,73c0,14.89,0,29.78,0,44.67H188.68c0-16.56,0-33.12,0-49.69h0v-15l.06-.11c2.85-.1,5.8.37,8.58-.39,3.28-1,4.59-4.45,6.53-6.94a2.73,2.73,0,0,1,1.28-1,3,3,0,0,0,.67,0h13.87a3,3,0,0,0,.42,0h9.17a4.4,4.4,0,0,1,2.87,1l.19.19c.31.43.58.89.87,1.28A26,26,0,0,0,236,73a4.91,4.91,0,0,0,3.79,2.11c1,0,2.06,0,3.1,0s1.84,0,2.76,0a2.25,2.25,0,0,0,.73-.09h5.76a3.16,3.16,0,0,0,1,.07h12.08a2,2,0,0,0,.61-.08h3.3a3.05,3.05,0,0,0,.66.08c1.59,0,3.17,0,4.76,0,2,0,4,0,6,0l.27,0c1,0,3.65.16,5,.26,0,3.24-.22,6.5.13,9.72C285.48,88.39,286.07,91.73,285.8,95.05Zm15.78-10.71c-.15.42-.3.84-.43,1.26A26.13,26.13,0,0,0,300,89.29q-4.69,17.16-9.44,34.33c-.1-10.22,0-20.45-.05-30.67-.23-4,.09-8,0-11.94,3.61,0,7.22,0,10.83,0v0h.86l.07,0C302,82.12,301.79,83.22,301.58,84.34Z"/><path class="cls-3" d="M278.58,45.11l-50-13.43a2.5,2.5,0,1,0-1.29,4.83l50,13.43a2.36,2.36,0,0,0,.65.08,2.5,2.5,0,0,0,.64-4.91Z"/><path class="cls-3" d="M276,55,226,41.55a2.5,2.5,0,1,0-1.3,4.82l50,13.43a2.46,2.46,0,0,0,.65.08A2.5,2.5,0,0,0,276,55Z"/><path class="cls-3" d="M245.46,57.27l-22.28-5.91a2.5,2.5,0,1,0-1.28,4.84l22.28,5.9a2.35,2.35,0,0,0,.64.09,2.5,2.5,0,0,0,.64-4.92Z"/></g></g></svg>