<svg xmlns="http://www.w3.org/2000/svg" viewBox="0 0 491.15 165.15"><defs><style>.cls-1{fill:#108498;}.cls-2{fill:#fff;}.cls-3{fill:#2feded;opacity:0.65;}</style></defs><g id="Capa_2" data-name="Capa 2"><g id="Capa_1-2" data-name="Capa 1"><rect class="cls-1" width="491.15" height="165.15" rx="15.91"/><path class="cls-2" d="M309.47,110.78V94.65c.06-6.21-3.29-10.42-9-11.24s-7-1.21-9-3.58l0,0L277.32,63.6l-.06-.06c-4.21-4.43-5.95-6.26-10.79-6.26h-13V52.94a8.41,8.41,0,0,0-8.4-8.41h-.64A8.42,8.42,0,0,0,236,52.94v4.34H188.56a6.87,6.87,0,0,0-6.84,6.88v46.61a6.64,6.64,0,0,0,1.51,13.11h12.38a16.5,16.5,0,0,0,32.92,0h36.21a16.51,16.51,0,0,0,32.94,0h10.24a6.64,6.64,0,0,0,1.55-13.1Zm-43-49.42c3,0,3.63.56,7.81,5l14.07,16.16c3,3.6,5.9,4.16,11.56,5A5.77,5.77,0,0,1,305.12,92h-5.89a4.87,4.87,0,0,0-4.86,4.86V99a4.87,4.87,0,0,0,4.86,4.86h6.16v6.73H292.34a16.47,16.47,0,0,0-22.26,0h-22.8V61.36Zm38.92,34.75V99.8h-6.16a.79.79,0,0,1-.79-.79V96.89a.8.8,0,0,1,.79-.78Zm-61-47.51H245a4.34,4.34,0,0,1,4.33,4.34v4.34h-9.31V52.94h0A4.35,4.35,0,0,1,244.39,48.6ZM185.8,64.16a2.81,2.81,0,0,1,2.76-2.8h54.8V110.6H223.2a16.47,16.47,0,0,0-22.26,0H185.8Zm10,55.65H183.23a2.57,2.57,0,1,1,0-5.14h0a2,2,0,0,0,1,0H197.7A16.22,16.22,0,0,0,195.84,119.81Zm16.23,15.39a12.43,12.43,0,1,1,12.43-12.42A12.44,12.44,0,0,1,212.07,135.2ZM265,119.81H228.3a16.22,16.22,0,0,0-1.86-5.14h40.39A16.47,16.47,0,0,0,265,119.81Zm16.24,15.39a12.43,12.43,0,1,1,12.43-12.42A12.44,12.44,0,0,1,281.21,135.2Zm26.71-15.39H297.44a16.22,16.22,0,0,0-1.86-5.14h11.33a1.81,1.81,0,0,0,.52.07,1.7,1.7,0,0,0,.51-.07,2.57,2.57,0,0,1,0,5.14Z"/><path class="cls-2" d="M281.21,115a7.79,7.79,0,1,0,7.78,7.79A7.79,7.79,0,0,0,281.21,115Zm0,11.49a3.71,3.71,0,1,1,3.71-3.7A3.71,3.71,0,0,1,281.21,126.48Z"/><path class="cls-2" d="M212.07,115a7.79,7.79,0,1,0,7.78,7.79A7.79,7.79,0,0,0,212.07,115Zm0,11.49a3.71,3.71,0,1,1,3.71-3.7A3.71,3.71,0,0,1,212.07,126.48Z"/><path class="cls-2" d="M259.64,87.67h16.7A2.67,2.67,0,0,0,279,85.1v-.82a4,4,0,0,0-1.42-3c-.31-.34-.69-.75-1.18-1.36h0l-6.94-8.63a6.5,6.5,0,0,0-5.66-2.79h-6.84A2.76,2.76,0,0,0,254.07,71v.12l0,11.6a5.29,5.29,0,0,0,5.55,5Zm4.11-15.28a2.73,2.73,0,0,1,2.6,1.32l6.94,8.64c.49.61.9,1.06,1.21,1.4H259.64c-1.15,0-1.63-.7-1.63-1.08l0-10.28Z"/><path class="cls-2" d="M230.25,48.9h-9.34a1.76,1.76,0,1,0,0,3.52h9.34a1.76,1.76,0,1,0,0-3.52Z"/><path class="cls-2" d="M227.83,31.68a1.77,1.77,0,0,0-1.25-.52h0a1.75,1.75,0,0,0-1.24.52,1.76,1.76,0,0,0,0,2.49L233.11,42a1.76,1.76,0,0,0,3-1.24,1.78,1.78,0,0,0-.51-1.25Z"/><path class="cls-2" d="M244.94,14.62a1.76,1.76,0,0,0-1.76,1.77v17a1.76,1.76,0,1,0,3.52,0v-17A1.76,1.76,0,0,0,244.94,14.62Z"/><path class="cls-2" d="M269,48.9h-9.35a1.76,1.76,0,1,0,0,3.52H269a1.76,1.76,0,0,0,0-3.52Z"/><path class="cls-2" d="M265.13,32.93a1.78,1.78,0,0,0-1.76-1.77h0a1.75,1.75,0,0,0-1.25.52l-7.78,7.79a1.76,1.76,0,0,0,1.25,3,1.73,1.73,0,0,0,1.25-.52l7.77-7.79A1.71,1.71,0,0,0,265.13,32.93Z"/><polygon class="cls-3" points="229.32 78.73 218.84 78.73 218.84 68.23 210.29 68.23 210.29 78.73 199.81 78.73 199.81 87.3 210.29 87.3 210.29 97.8 218.84 97.8 218.84 87.3 229.32 87.3 229.32 78.73"/></g></g></svg>