<svg xmlns="http://www.w3.org/2000/svg" viewBox="0 0 781.04 781.04"><defs><style>.cls-1{fill:#dff0f3;}.cls-2{fill:#108599;}.cls-3{fill:#27cfd5;}</style></defs><g id="Capa_2" data-name="Capa 2"><g id="Capa_1-2" data-name="Capa 1"><rect class="cls-1" width="781.04" height="781.04"/><path class="cls-2" d="M472.66,193.28H437.45v-21a13.56,13.56,0,0,0-13.54-13.53H357.12a13.56,13.56,0,0,0-13.53,13.53v21H308.38a21.36,21.36,0,0,0-21.33,21.33V602.92a21.36,21.36,0,0,0,21.33,21.33H472.66A21.36,21.36,0,0,0,494,602.92V214.61A21.36,21.36,0,0,0,472.66,193.28Zm-120.9-21a5.38,5.38,0,0,1,5.36-5.36h66.8a5.36,5.36,0,0,1,5.35,5.35v21H351.76ZM485.82,602.92a13.17,13.17,0,0,1-13.16,13.16H308.38a13.17,13.17,0,0,1-13.16-13.16V214.61a13.17,13.17,0,0,1,13.16-13.15H472.66a13.17,13.17,0,0,1,13.16,13.15Z"/><path class="cls-3" d="M450.88,438.15H330.16a9.85,9.85,0,0,0-9.83,9.84v42.44a9.85,9.85,0,0,0,9.83,9.84H450.88a9.85,9.85,0,0,0,9.83-9.84V448A9.85,9.85,0,0,0,450.88,438.15Z"/><path class="cls-3" d="M450.88,354.85H330.16a9.84,9.84,0,0,0-9.83,9.83v42.45a9.85,9.85,0,0,0,9.83,9.84H450.88a9.85,9.85,0,0,0,9.83-9.84V364.68A9.84,9.84,0,0,0,450.88,354.85Z"/><path class="cls-2" d="M420.81,259.85a3.64,3.64,0,0,0-3.28-2h-20l7.22-32.77a3.66,3.66,0,0,0-6.59-2.86l-36.81,53.14a3.67,3.67,0,0,0,3,5.75h19.47l-10.7,32.39a3.67,3.67,0,0,0,1.76,4.39,3.79,3.79,0,0,0,1.71.42,3.61,3.61,0,0,0,2.9-1.43l40.91-53.15A3.65,3.65,0,0,0,420.81,259.85Z"/><path class="cls-3" d="M450.88,521.46H330.16a9.84,9.84,0,0,0-9.83,9.83v42.44a9.84,9.84,0,0,0,9.83,9.84H450.88a9.84,9.84,0,0,0,9.83-9.84V531.29A9.84,9.84,0,0,0,450.88,521.46Z"/></g></g></svg>