<svg xmlns="http://www.w3.org/2000/svg" viewBox="0 0 781.04 781.04"><defs><style>.cls-1{fill:#dff0f3;}.cls-2{fill:#108599;}.cls-3{fill:#27cfd5;}</style></defs><g id="Capa_2" data-name="Capa 2"><g id="Capa_1-2" data-name="Capa 1"><rect class="cls-1" width="781.04" height="781.04"/><path class="cls-2" d="M472.66,191.33H437.45v-21a13.58,13.58,0,0,0-13.54-13.54H357.12a13.57,13.57,0,0,0-13.53,13.54v21H308.38a21.35,21.35,0,0,0-21.33,21.33V601a21.35,21.35,0,0,0,21.33,21.33H472.66A21.36,21.36,0,0,0,494,601V212.66A21.36,21.36,0,0,0,472.66,191.33Zm-120.9-21a5.37,5.37,0,0,1,5.36-5.36h66.8a5.36,5.36,0,0,1,5.35,5.35v21H351.76ZM485.82,601a13.17,13.17,0,0,1-13.16,13.16H308.38A13.17,13.17,0,0,1,295.22,601V212.66a13.18,13.18,0,0,1,13.16-13.16H472.66a13.18,13.18,0,0,1,13.16,13.16Z"/><path class="cls-2" d="M450.87,436.2H330.16a9.85,9.85,0,0,0-9.83,9.84v42.44a9.84,9.84,0,0,0,9.83,9.83H450.87a9.84,9.84,0,0,0,9.84-9.83V446A9.85,9.85,0,0,0,450.87,436.2Zm1.67,53.94h-124V444.38h124Z"/><path class="cls-2" d="M450.87,352.9H330.16a9.84,9.84,0,0,0-9.83,9.83v42.45a9.84,9.84,0,0,0,9.83,9.83H450.87a9.84,9.84,0,0,0,9.84-9.83V362.73A9.84,9.84,0,0,0,450.87,352.9Zm1.67,53.94h-124V361.07h124Z"/><path class="cls-3" d="M450.87,519.51H330.16a9.84,9.84,0,0,0-9.83,9.83v42.44a9.85,9.85,0,0,0,9.83,9.84H450.87a9.85,9.85,0,0,0,9.84-9.84V529.34A9.84,9.84,0,0,0,450.87,519.51Z"/><path class="cls-2" d="M417.53,255.86h-20l7.22-32.76a3.66,3.66,0,0,0-6.59-2.87l-36.81,53.15a3.66,3.66,0,0,0,3,5.74h19.47l-10.7,32.4a3.67,3.67,0,0,0,3.47,4.81,3.61,3.61,0,0,0,2.9-1.43l40.91-53.15a3.66,3.66,0,0,0-2.9-5.89Z"/></g></g></svg>