<svg xmlns="http://www.w3.org/2000/svg" viewBox="0 0 491.15 165.15"><defs><style>.cls-1{fill:#108498;}.cls-2{fill:#2feded;opacity:0.65;}.cls-3{fill:#fff;}</style></defs><g id="Capa_2" data-name="Capa 2"><g id="Capa_1-2" data-name="Capa 1"><rect class="cls-1" width="491.15" height="165.15" rx="15.91"/><path class="cls-2" d="M241.58,70.91a30.86,30.86,0,0,1-17.43-5.38c-14.91-10-30.4-.39-31.05,0a2.5,2.5,0,0,1-2.7-4.22c.77-.49,18.86-11.81,36.54,0,14.89,10,30.06.4,30.7,0a2.5,2.5,0,0,1,2.73,4.19A37.27,37.27,0,0,1,241.58,70.91Z"/><path class="cls-3" d="M256.92,144.85H193.8a2.5,2.5,0,0,1-2.49-2.31L182,21a2.53,2.53,0,0,1,.66-1.89,2.5,2.5,0,0,1,1.83-.8h82a2.52,2.52,0,0,1,2.49,2.7l-9.65,121.58A2.5,2.5,0,0,1,256.92,144.85Zm-60.8-5h58.49l9.25-116.58H187.22Z"/><path class="cls-3" d="M209,124.71a2.5,2.5,0,0,1-2.5-2.35l-.46-8a2.5,2.5,0,1,1,5-.29l.46,7.95a2.49,2.49,0,0,1-2.34,2.64Z"/><path class="cls-3" d="M207.65,104.2a2.51,2.51,0,0,1-2.5-2.36l-1.3-23.65a2.5,2.5,0,0,1,5-.27l1.3,23.65a2.51,2.51,0,0,1-2.36,2.63Z"/><path class="cls-1" d="M253.59,37.52c-2.22-2.3,0-6.52,3.12-6.06,2.43,0,3.67,2.51,4.91,4.23,2.75,4,3.64,8.89,4.32,13.62,3.59,1.35,7.25,3.24,9.08,6.8,3.59,6.7,4.16,14.5,7.43,21.35,2.66,7.16,8.44,12.47,11.74,19.29,4.73,8.85,7.48,19.5,4.23,29.3-2.59,7.21-8.27,13.77-15.8,16-8,2.35-16.22-1.18-24.36,0-6.37.8-13.26,1.8-19.25-1.2-10-5.08-15.28-17.15-13.55-28a56.77,56.77,0,0,1,12.07-26.68c5.84-7.83,7.7-17.57,10.65-26.65,1.49-5,5.6-8.48,10.4-10.18A25.29,25.29,0,0,0,253.59,37.52Z"/><path class="cls-3" d="M308.19,36.35a30.55,30.55,0,0,0-29.63-4.52c-5.26,2-10.28,7.39-9.71,13.93l0,.2a10.48,10.48,0,0,0,.61,2.13q-.64-.31-1.29-.57c-.71-4.53-1.76-9.19-4.55-13.29l-.53-.76c-1.18-1.75-2.95-4.37-6.21-4.5a6.21,6.21,0,0,0-5.22,10.19,21.72,21.72,0,0,1,4,8.63,18,18,0,0,0-9.92,10.94c-.66,2-1.26,4.1-1.85,6.1-2.13,7.24-4.14,14.07-8.38,19.76A59,59,0,0,0,223,112.44c-2,12.37,4.29,25.25,14.9,30.64,6.47,3.23,13.68,2.32,20.05,1.52l.68-.08a40.19,40.19,0,0,1,10.23.3,65.29,65.29,0,0,0,7.45.56,24.86,24.86,0,0,0,7-.93c7.8-2.31,14.32-8.87,17.46-17.61,3-9.17,1.48-20.26-4.38-31.22a61.84,61.84,0,0,0-5.58-8.84c-2.41-3.36-4.68-6.54-6-10.19l-.09-.21a56.72,56.72,0,0,1-3.26-9.68A55.36,55.36,0,0,0,277.24,55l-.05-.07a13.38,13.38,0,0,0,2.9.64,24.86,24.86,0,0,0,3.22.2,28.94,28.94,0,0,0,25.57-16.34A2.51,2.51,0,0,0,308.19,36.35ZM280.14,78.44c1.6,4.23,4.15,7.8,6.62,11.25a55.29,55.29,0,0,1,5.17,8.15.31.31,0,0,1,.05.1c5.23,9.75,6.67,19.46,4.09,27.27-2.55,7.07-8,12.61-14.15,14.44-4,1.17-8.12.7-12.51.2a68.37,68.37,0,0,0-7.5-.56,27.94,27.94,0,0,0-4,.27l-.64.08c-5.94.75-12.08,1.52-17.17-1-8.71-4.43-13.85-15.11-12.21-25.42a54.23,54.23,0,0,1,11.6-25.55c4.83-6.48,7.06-14.07,9.21-21.41.58-2,1.18-4,1.83-6,1.16-3.85,4.38-7,8.84-8.54A2.49,2.49,0,0,0,261,48.92a27.56,27.56,0,0,0-5.49-13l-.16-.18c-.39-.41-.09-1.06,0-1.18s.42-.75,1-.67l.33,0c.71,0,1.4,1,2.31,2.31l.57.83c2.45,3.6,3.28,8.19,3.92,12.57a2.5,2.5,0,0,0,1.59,2c2.8,1.05,6.21,2.64,7.75,5.64A50.64,50.64,0,0,1,276.62,68,62.08,62.08,0,0,0,280.14,78.44Zm.52-27.87c-2.89-.3-6.25-2.27-6.83-5.35-.29-4,3.11-7.45,6.5-8.71h0a25.55,25.55,0,0,1,23,2.52C298.66,46.88,289.43,51.68,280.66,50.57Z"/><path class="cls-3" d="M274.1,130.38a2.49,2.49,0,0,1-.91-4.82,10.84,10.84,0,0,0,6.88-7.15c1.74-5.81-.66-13.9-6.56-22.2a2.5,2.5,0,1,1,4.08-2.9c6.9,9.7,9.48,19.12,7.27,26.52A15.76,15.76,0,0,1,275,130.21,2.41,2.41,0,0,1,274.1,130.38Z"/></g></g></svg>