<?xml version="1.0" encoding="UTF-8" standalone="no"?>
<svg
   xmlns:dc="http://purl.org/dc/elements/1.1/"
   xmlns:cc="http://creativecommons.org/ns#"
   xmlns:rdf="http://www.w3.org/1999/02/22-rdf-syntax-ns#"
   xmlns:svg="http://www.w3.org/2000/svg"
   xmlns="http://www.w3.org/2000/svg"
   xmlns:sodipodi="http://sodipodi.sourceforge.net/DTD/sodipodi-0.dtd"
   xmlns:inkscape="http://www.inkscape.org/namespaces/inkscape"
   viewBox="0 0 33.169763 47.148548"
   version="1.1"
   id="svg74"
   sodipodi:docname="lock-icon.svg"
   inkscape:version="1.0.1 (3bc2e813f5, 2020-09-07)"
   width="33.169765"
   height="47.148548">
  <metadata
     id="metadata78">
    <rdf:RDF>
      <cc:Work
         rdf:about="">
        <dc:format>image/svg+xml</dc:format>
        <dc:type
           rdf:resource="http://purl.org/dc/dcmitype/StillImage" />
        <dc:title />
      </cc:Work>
    </rdf:RDF>
  </metadata>
  <sodipodi:namedview
     pagecolor="#ffffff"
     bordercolor="#666666"
     borderopacity="1"
     objecttolerance="10"
     gridtolerance="10"
     guidetolerance="10"
     inkscape:pageopacity="0"
     inkscape:pageshadow="2"
     inkscape:window-width="1920"
     inkscape:window-height="1015"
     id="namedview76"
     showgrid="false"
     inkscape:zoom="1.2316035"
     inkscape:cx="42.563482"
     inkscape:cy="23.532956"
     inkscape:window-x="0"
     inkscape:window-y="0"
     inkscape:window-maximized="1"
     inkscape:current-layer="Capa_1-2"
     inkscape:document-rotation="0" />
  <defs
     id="defs4">
    <style
       id="style2">.cls-1{fill:#24c8cf;}.cls-2{fill:none;stroke:#08828b;stroke-linecap:round;stroke-linejoin:round;stroke-width:4px;}.cls-3{fill:#fff;}.cls-4{fill:#08828b;}</style>
  </defs>
  <g
     id="Capa_2"
     data-name="Capa 2"
     transform="translate(-90.411528,-55.027042)">
    <g
       id="Capa_1-2"
       data-name="Capa 1">
      <g
         id="g112"
         transform="matrix(0.3,0,0,0.3,43.795447,55.020921)">
        <line
           class="cls-2"
           x1="171.27"
           y1="58.59"
           x2="249.78999"
           y2="58.59"
           id="line10" />
        <g
           id="g81">
          <path
             class="cls-2"
             d="m 183.47,14.12 a 36.61,36.61 0 0 1 63.79,23.48 c 0.08,7 0,14 0,21 2.75,0.05 5.51,-0.1 8.26,0.09 a 9.6,9.6 0 0 1 8.38,9.56 q 0,36.78 0,73.58 c 0,2.59 0.3,5.34 -0.9,7.75 a 9.68,9.68 0 0 1 -8.76,5.56 h -84.52 a 20.53,20.53 0 0 1 -5.31,-0.35 9.65,9.65 0 0 1 -6.65,-6.66 12.69,12.69 0 0 1 -0.36,-3.63 q 0,-38.11 0,-76.23 a 9.63,9.63 0 0 1 8.39,-9.58 c 2.74,-0.18 5.49,-0.06 8.24,-0.09 q 0,-10.16 0,-20.31 a 36.52,36.52 0 0 1 9.44,-24.17 z m 20.12,9.45 A 16.63,16.63 0 0 0 194.7,34 a 22,22 0 0 0 -0.68,6.67 c 0,6 0,12 0,17.95 11.1,0 22.19,0 33.29,0 q 0,-9.48 0,-19 a 18.77,18.77 0 0 0 -0.68,-5.63 16.6,16.6 0 0 0 -23,-10.42 z"
             id="path8" />
        </g>
        <line
           class="cls-2"
           x1="158.39999"
           y1="79.559998"
           x2="173.92"
           y2="79.559998"
           id="line20" />
        <line
           class="cls-2"
           x1="158.39999"
           y1="88.559998"
           x2="173.92"
           y2="88.559998"
           id="line22" />
        <line
           class="cls-2"
           x1="158.39999"
           y1="106.57"
           x2="173.92"
           y2="106.57"
           id="line24" />
        <line
           class="cls-2"
           x1="158.39999"
           y1="115.57"
           x2="173.92"
           y2="115.57"
           id="line26" />
        <line
           class="cls-2"
           x1="158.39999"
           y1="133.57001"
           x2="173.92"
           y2="133.57001"
           id="line28" />
        <line
           class="cls-2"
           x1="158.39999"
           y1="97.559998"
           x2="173.92"
           y2="97.559998"
           id="line30" />
        <line
           class="cls-2"
           x1="158.39999"
           y1="124.57"
           x2="173.92"
           y2="124.57"
           id="line32" />
        <path
           class="cls-2"
           d="M 182.26,31.09 A 27.56,27.56 0 0 1 199.13,11.58"
           id="path34" />
        <path
           class="cls-4"
           d="m 168.92,72 a 2.92,2.92 0 1 1 2.91,-3 2.92,2.92 0 0 1 -2.91,3 z"
           id="path36" />
        <path
           class="cls-4"
           d="m 168.92,66.62 a 2.42,2.42 0 1 1 -2.42,2.38 2.41,2.41 0 0 1 2.42,-2.41 m 0,-1 a 3.42,3.42 0 1 0 3.41,3.41 3.42,3.42 0 0 0 -3.41,-3.41 z"
           id="path38" />
        <path
           class="cls-4"
           d="m 253.4,72 a 2.92,2.92 0 1 1 2.92,-3 2.92,2.92 0 0 1 -2.92,3 z"
           id="path40" />
        <path
           class="cls-4"
           d="M 253.4,66.62 A 2.42,2.42 0 1 1 251,69 a 2.41,2.41 0 0 1 2.41,-2.41 m 0,-1 a 3.42,3.42 0 1 0 3.41,3.41 3.41,3.41 0 0 0 -3.42,-3.41 z"
           id="path42" />
        <path
           class="cls-4"
           d="m 167.92,147.81 a 2.92,2.92 0 1 1 2.91,-2.92 2.92,2.92 0 0 1 -2.91,2.92 z"
           id="path44" />
        <path
           class="cls-4"
           d="m 167.92,142.48 a 2.42,2.42 0 1 1 -2.42,2.41 2.41,2.41 0 0 1 2.42,-2.41 m 0,-1 a 3.42,3.42 0 1 0 3.41,3.41 3.42,3.42 0 0 0 -3.41,-3.41 z"
           id="path46" />
        <path
           class="cls-4"
           d="m 253.4,147.37 a 2.92,2.92 0 1 1 2.92,-2.92 2.92,2.92 0 0 1 -2.92,2.92 z"
           id="path48" />
        <path
           class="cls-4"
           d="m 253.4,142 a 2.42,2.42 0 1 1 -2.41,2.41 2.41,2.41 0 0 1 2.41,-2.41 m 0,-1 a 3.42,3.42 0 1 0 3.42,3.41 3.41,3.41 0 0 0 -3.42,-3.41 z"
           id="path50" />
        <path
           class="cls-4"
           d="m 220.18,109.74 0.38,-0.29 a 15.13,15.13 0 0 0 -9,-27.28 14.31,14.31 0 0 0 -2.17,0.16 15.21,15.21 0 0 0 -12.89,13.28 v 0 a 15.05,15.05 0 0 0 6,13.78 l 0.39,0.29 v 0.49 c 0,1.56 0,3.12 0,4.68 0,1.95 0,4 0.06,5.94 a 8.66,8.66 0 0 0 7.91,8 8.62,8.62 0 0 0 9.21,-7.62 c 0.12,-2.16 0.1,-4.41 0.08,-6.58 0,-1.47 0,-2.93 0,-4.39 z m -1.07,-4.53 a 12.92,12.92 0 0 1 -1.24,1 c -1.09,0.78 -1.75,1.32 -1.81,2.18 -0.06,2 -0.05,4.19 0,6.25 0,1.81 0,3.67 0,5.51 a 4.57,4.57 0 0 1 -2.07,3.87 4.15,4.15 0 0 1 -2.36,0.7 5.26,5.26 0 0 1 -0.89,-0.08 4.39,4.39 0 0 1 -2.82,-1.86 5.12,5.12 0 0 1 -0.81,-3 c 0,-1.61 0,-3.21 0,-4.8 0,-2.18 0,-4.44 0,-6.64 0,-0.83 -0.8,-1.43 -1.86,-2.19 a 10.71,10.71 0 0 1 -4.58,-8.22 11,11 0 0 1 20.52,-5.93 10.9,10.9 0 0 1 -2.08,13.21 z"
           id="path52" />
        <circle
           class="cls-4"
           cx="211.53"
           cy="97.129997"
           r="2.9200001"
           id="circle54" />
        <path
           class="cls-4"
           d="m 211.53,94.72 a 2.42,2.42 0 1 1 -2.42,2.41 2.41,2.41 0 0 1 2.42,-2.41 m 0,-1 a 3.42,3.42 0 1 0 3.41,3.41 3.42,3.42 0 0 0 -3.41,-3.41 z"
           id="path56" />
        <line
           class="cls-2"
           x1="248.39999"
           y1="79.559998"
           x2="263.92001"
           y2="79.559998"
           id="line58" />
        <line
           class="cls-2"
           x1="248.39999"
           y1="88.559998"
           x2="263.92001"
           y2="88.559998"
           id="line60" />
        <line
           class="cls-2"
           x1="248.39999"
           y1="106.57"
           x2="263.92001"
           y2="106.57"
           id="line62" />
        <line
           class="cls-2"
           x1="248.39999"
           y1="115.57"
           x2="263.92001"
           y2="115.57"
           id="line64" />
        <line
           class="cls-2"
           x1="248.39999"
           y1="133.57001"
           x2="263.92001"
           y2="133.57001"
           id="line66" />
        <line
           class="cls-2"
           x1="248.39999"
           y1="97.559998"
           x2="263.92001"
           y2="97.559998"
           id="line68" />
        <line
           class="cls-2"
           x1="248.39999"
           y1="124.57"
           x2="263.92001"
           y2="124.57"
           id="line70" />
      </g>
    </g>
  </g>
</svg>
