<svg xmlns="http://www.w3.org/2000/svg" viewBox="0 0 781.04 781.04"><defs><style>.cls-1{fill:#dff0f3;}.cls-2{fill:#108599;}</style></defs><g id="Capa_2" data-name="Capa 2"><g id="Capa_1-2" data-name="Capa 1"><rect class="cls-1" width="781.04" height="781.04"/><path class="cls-2" d="M344.78,184.26c17.44-.42,34.92-.06,52.37-.18,3.16-.47,6.49,2.37,5.88,5.65-3.56,14.77-18.91,35.28-33.93,33.7-12.78-1.07-24.54-20.51-28-32.9C340.18,187.94,341.91,184.49,344.78,184.26Z"/><path class="cls-2" d="M355.91,164a121.62,121.62,0,0,0-13.71-6.43,3.43,3.43,0,0,0-3.45.46,4.8,4.8,0,0,0-1.61,4.31l0,.21.18.13a49.27,49.27,0,0,0,6.94,3.86l.88.44-1.92.9a29.14,29.14,0,0,0-4.79,2.57,3.18,3.18,0,0,0-.45,4.66,3.06,3.06,0,0,0,2.7,1.3,8.6,8.6,0,0,0,3.35-.83c1.36-.67,2.79-1.3,4.16-1.91a60.59,60.59,0,0,0,7.69-3.84,3.4,3.4,0,0,0,0-5.83Z"/><path class="cls-2" d="M405.34,170.76a24.9,24.9,0,0,0-5.13-2.87c-.69-.32-1.4-.64-2.09-1,.73-.38,1.49-.72,2.23-1.06a30,30,0,0,0,4.48-2.36,2.52,2.52,0,0,0,1.14-1.69,5.75,5.75,0,0,0-1.13-3.87l-.1-.15-.17,0a7.15,7.15,0,0,0-5.56.65c-1.54.78-3.15,1.5-4.7,2.2a73.82,73.82,0,0,0-6.92,3.39,2.92,2.92,0,0,0-1.65,2.85,3.58,3.58,0,0,0,2,3.29c2.29,1.26,4.7,2.33,7,3.37,1.1.49,2.19,1,3.29,1.5l.66.29a9,9,0,0,0,3.72,1.09,5.12,5.12,0,0,0,.67,0,2.4,2.4,0,0,0,2.34-1.22,4.26,4.26,0,0,0,0-4.22Z"/><path class="cls-2" d="M525.8,30.93c-14.25-3.35-24.51,3.09-28.23,17.69-3.16.77-5.61,3.73-6.46,6.8-1.11,4.31-3.29,11.2-1.33,15.43a23.49,23.49,0,0,1,2.1,11.68l-4.8,13.88c-3.3,10-7.47,21.31-7.47,21.31V118l-16.9,58.42c.23-3.39.35-6.69.35-9.86,0-26.55-8.46-51.36-23.83-69.88l.09-.07a74.84,74.84,0,0,0-13.54-13.35l-.1.14h0A84.66,84.66,0,0,0,373.5,65H373a84.66,84.66,0,0,0-52.17,18.41h0l-.11-.14a74.71,74.71,0,0,0-13.53,13.35l.08.07C291.9,115.2,283.44,140,283.44,166.56c0,1.75.05,3.54.12,5.36l-20-56.35c0-.1,0-.28,0-.28S259.34,103.94,256,94l-4.8-13.88a23.7,23.7,0,0,1,2.11-11.68c2-4.23-.22-11.12-1.34-15.43-.84-3.07-3.3-6-6.46-6.8-3.72-14.6-14-21-28.23-17.69-15.83,3.72-19.17,22.11-14.57,38.6,3.17,9.13,2.9,16.25,10,22.6-1.28,3.56,9.27,33.71,16.56,64.59a3.06,3.06,0,0,0,.13.43l12.68,50.83c.17.66.38,1.31.57,2a44.76,44.76,0,0,0,2.21,7.36c16,40.3,24.3,61.17,24.65,62a28.51,28.51,0,0,0,2.34,4.31,4.38,4.38,0,0,0,.26,1.18l2.91,7.19c.06.13.12.25.19.37l-.19.05L298.1,368l-47.94,163.3,50.22,0L324.3,678.07a29.44,29.44,0,0,0,10.18,18c-24.19,5.28-33.81,19.16-32,45.56l.25,3.73h142l.25-3.73c1.79-26.3-7.76-40.17-31.74-45.5a29.47,29.47,0,0,0,10.23-17.63l25.11-145.74,48.64-.5L453.35,368l19.07-77.74a4.14,4.14,0,0,0,.37-.69l2.9-7.19a4,4,0,0,0,.27-1.18,28.51,28.51,0,0,0,2.34-4.31c.35-.79,8.62-21.66,24.65-62a44.76,44.76,0,0,0,2.21-7.36c.19-.66.4-1.31.57-2l12.68-50.83a3.06,3.06,0,0,0,.13-.43c7.29-30.88,13.14-58.6,11.85-62.16,7.09-6.35,6.81-13.47,10-22.6C545,53,541.64,34.65,525.8,30.93ZM313.15,145.58c23.53-4.48,37.44-21.41,43.17-30.1,22.17,22.15,46.23,29.26,77.57,36.28V182.1h.2v2.18c0,31.68-27.53,56.94-60,56.3h-.68c-32.48.64-60-24.62-60-56.3l-.24-6.45Zm60.59,132.28-.34-.07v.15a6.77,6.77,0,0,1-5.12-1.32,73.05,73.05,0,0,1-15.87-16.07c-1.6-2.24-1.27-2.95-1.27-15.44a80.2,80.2,0,0,0,45.2,0c0,12.49.33,13.2-1.27,15.44a73.05,73.05,0,0,1-15.87,16.07,6.77,6.77,0,0,1-5.12,1.32v-.15Zm-160-200.7c-.95-5.07-9.36-23.71-2.37-35.32a12,12,0,0,1,7.74-5.75c10.25-2.41,16.49,1.72,19.05,12.64.34,1.45.4,3.18,2.29,4.44a4.6,4.6,0,0,0,3.35.69,3.75,3.75,0,0,1,.91,1.94c1.43,5.14,2,8.31,1.53,9.44A31.39,31.39,0,0,0,243.38,78l-24.27,6.89A14.33,14.33,0,0,1,213.73,77.16Zm297.43,74.52a3.06,3.06,0,0,0-.13.43l-12,48.28s-1.07,3.65-1.46,5.55c-.73,2.25-2.18,7-2.18,7l-23.85,60c-2,5.06-6.38,14.77-6.38,14.77v.08l-.32-.08L445.1,368.05l41.69,156.3-45,.46-26.24,152.3a21.47,21.47,0,0,1-21.18,17.79h-16.6l-.06-11.66.35-150.68h-.69v0l-3.65,0-3.66,0v0h-.69l.34,150.65-.05,11.69H353.44a21.43,21.43,0,0,1-21.24-18.1l-25-153.49H260.84l45.27-154.17.33-1.12-23.72-80.3s-4.37-9.71-6.38-14.77l-23.85-60s-1.45-4.73-2.18-7c-.39-1.9-1.46-5.55-1.46-5.55l-12-48.28a3.06,3.06,0,0,0-.13-.43L220.26,92.62l24.65-7L277.8,179.1c.95,2.75,6.11,18,7.13,20.41,19.23,45.92,18.36,43.87,18.45,44.05a25.31,25.31,0,0,0,29.11,13.14c4.26-1.15,8.07-2.09,10.86-2.76v2.69c0,5.06,2.15,9.15,10.63,17.85a75.22,75.22,0,0,0,10.09,8.72,19.61,19.61,0,0,0,19.34,0,75.22,75.22,0,0,0,10.09-8.72c8.48-8.7,10.64-12.79,10.64-17.85v-2.69c2.79.67,6.59,1.61,10.85,2.76a25.82,25.82,0,0,0,29.46-13.14l11.45-27.35.12,0c.06-.26.12-.51.19-.76,1.9-4.55,4.11-9.83,6.69-16,1-2.44,6.18-17.66,7.13-20.41l28.19-91,24.64,7ZM529.4,79.59A14.39,14.39,0,0,1,524,87.28l-24.28-6.89a31.15,31.15,0,0,0-2.85-12.73c-.41-1.12.1-4.29,1.53-9.43a3.88,3.88,0,0,1,.92-1.94,4.62,4.62,0,0,0,3.35-.69c1.89-1.26,1.94-3,2.28-4.44,2.57-10.92,8.8-15.06,19-12.64a12,12,0,0,1,7.74,5.74C538.75,55.88,530.34,74.52,529.4,79.59Z"/></g></g></svg>