<svg xmlns="http://www.w3.org/2000/svg" viewBox="0 0 781.04 781.04"><defs><style>.cls-1{fill:#dff0f3;}.cls-2{fill:#108599;}</style></defs><g id="Capa_2" data-name="Capa 2"><g id="Capa_1-2" data-name="Capa 1"><rect class="cls-1" width="781.04" height="781.04"/><path class="cls-2" d="M346.11,161.1c4.56-2.08,10.25,1.52,10.64,6.43a7.82,7.82,0,0,1-7.62,8.5c-4,.21-8.19-3.56-7.78-7.68C341,165.22,343.36,162.32,346.11,161.1Z"/><path class="cls-2" d="M392.21,161.3c4.61-2.52,11.1,1.11,11,6.46.87,5.84-6.5,10.57-11.43,7.19C386.4,172.37,386.72,163.58,392.21,161.3Z"/><path class="cls-2" d="M345.38,196.73c17.41-.2,34.84,0,52.26-.08A5.29,5.29,0,0,1,403,200c1.75,3.34-1.78,7.55-5.36,7.18q-25.5,0-51,0c-2.7.09-5.61-2.3-5.33-5.14C340.89,199.53,343.19,197.38,345.38,196.73Z"/><path class="cls-2" d="M420,678.48l25.11-145.74,48.64-.5L459.67,404.42l7.52-8.47A44.34,44.34,0,0,0,478,372.59c3.19-22.51,8.05-53.19,8.11-53.31a29.39,29.39,0,0,0-3.67-22.9c-1.63-2.57-3.35-5.09-5.13-7.54a269.93,269.93,0,0,0-20.07-22.45,29.27,29.27,0,0,0-4.91-4.72c-2.22-2-3.61-2.84-3.84-2.47l-.13-.07s-5.44-2.76-8.19-4c13-29.86,21-64.17,21-90.44,0-26.55-8.46-51.36-23.83-69.88l.09-.07a74.5,74.5,0,0,0-13.54-13.35l-.1.14h0A84.59,84.59,0,0,0,371.6,63.11h-.49A84.55,84.55,0,0,0,319,81.52h0l-.11-.14a74.71,74.71,0,0,0-13.53,13.35l.08.07c-15.36,18.52-23.83,43.33-23.83,69.88,0,26.27,8,60.58,21,90.44-2.75,1.24-5.5,2.57-8.19,4h0c-.21-.32-1.41.35-3.31,2.09a29.39,29.39,0,0,0-6.09,5.85,275.29,275.29,0,0,0-19.39,21.77c-1.78,2.45-3.5,5-5.13,7.54a29.43,29.43,0,0,0-3.67,22.9c.06.12,4.92,30.8,8.11,53.31A44.5,44.5,0,0,0,275.67,396l8.13,9.14-37.06,126.2,50.22,0,23.93,146.76a29.39,29.39,0,0,0,10.18,18c-24.19,5.28-33.81,19.16-32,45.56l.26,3.73h142l.25-3.73c1.79-26.3-7.76-40.17-31.74-45.5A29.46,29.46,0,0,0,420,678.48ZM311.89,143.17c23-4.48,36.55-21.41,42.15-30.09,21.63,22.14,45.12,29.25,75.71,36.27v30.34h.29v.74c0,26.58-19.54,49.18-45.84,54.91a59.35,59.35,0,0,1-25.72,0c-26.3-5.73-45.84-28.33-45.84-54.91l-.76-10Zm38.52,102v-3.94a69.21,69.21,0,0,0,20.7,3.27h.49a69.32,69.32,0,0,0,20.7-3.27v3.94c-.27,6.32.75,8.7-1.28,11.51a72.58,72.58,0,0,1-16.26,16.35,5.78,5.78,0,0,1-6.81,0,72.58,72.58,0,0,1-16.26-16.35C349.66,253.89,350.68,251.51,350.41,245.19ZM281.49,390.78a36.71,36.71,0,0,1-8.92-19.28l-8.79-57.22A21.59,21.59,0,0,1,267,300.54a148,148,0,0,1,10.34-14.23c.43.76,15.42-17.53,20.65-20.3,16.55-8.78,35.93-13.94,44.62-16,.18,1.6-.83,6.25,2.75,11.23a81.28,81.28,0,0,0,18,18.08,14.17,14.17,0,0,0,7.77,2.62v0h.49v0a14.17,14.17,0,0,0,7.77-2.62,81.18,81.18,0,0,0,18-18.08c3.59-5,2.58-9.63,2.75-11.23,8.7,2,28.08,7.2,44.63,16,4.69,2.49,20.17,20.91,20.59,20a151.12,151.12,0,0,1,10.56,14.49,21.71,21.71,0,0,1,3.22,13.74L470.3,371.5a36.72,36.72,0,0,1-8.93,19.28l-35.3,39.71c-.1.11-.19.23-.28.35l-27.31,30.69c-2.85-3.3-6.65-7.5-10.55-8.15a23.74,23.74,0,0,1-10.84-4.86l-.81-1.09,48.94-66a36.73,36.73,0,0,0,6.92-17.33c.39-3.15.75-6.08,1.09-8.82l-.1-.05.27-2a4,4,0,0,0-7.93-1.08l-1,7.69a4,4,0,0,0,.16,1.77l-.18,1.49A29,29,0,0,1,419,376.76L389.87,416l-15.36,20.72h0l-3.08,4.15-3.08-4.15h0L353,416l-29.08-39.25a28.75,28.75,0,0,1-5.45-13.64l-.19-1.49a3.9,3.9,0,0,0,.16-1.77l-1-7.69a4,4,0,0,0-7.93,1.08l.27,2-.09.05c.33,2.74.69,5.67,1.08,8.82a36.65,36.65,0,0,0,6.93,17.33l48.93,66,2.38,3.2L356.5,461l-.18,0c-.88.22-2.46,1.57-4.68,4l-2.36,2-4.9-5.5-27.31-30.69a2.26,2.26,0,0,0-.28-.35Zm76.86,90.37a14.35,14.35,0,0,1-3.31-8.78l16.39-13.66,3-2.49A31.27,31.27,0,0,0,386.36,461l4.86,4.05c.69.76,1.44,1.61,2.25,2.58a3.82,3.82,0,0,1,1.08,1.84,4.66,4.66,0,0,0-1.32,3.16,5.13,5.13,0,0,0,1.91,3.91c.16.16.32.32.47.49,7.56,8.27,7.46,15.75-.32,22.85a12,12,0,0,1-9.11,3.15,19.93,19.93,0,0,1-8.21-2.48,35.21,35.21,0,0,1-6.54-4.65C365.17,490.38,360.52,483.32,358.35,481.15Zm6.54,19.41a19.93,19.93,0,0,1-8.21,2.48,12,12,0,0,1-9.11-3.15c-7.77-7.1-7.88-14.58-.32-22.85.15-.17.31-.33.47-.49,1.69,8.25,7.35,12,12.74,19.34A51.61,51.61,0,0,0,364.89,500.56ZM391,694.9H374.34l0-11.66.35-150.68h-.7v0l-3.65,0-3.65,0v0h-.7l.35,150.65-.05,11.69H350a21.41,21.41,0,0,1-21.23-18.1l-25-153.49H257.43l32.63-111.15,20.41,23c.09.12.18.24.28.35,13.88,15.22,23.65,26.89,29.8,33.47a7.68,7.68,0,0,0,.44,3.43c-10,11.31-9.49,23.41,1.33,33.29,8.48,7.75,19.49,6.21,29.11,0,9.62,6.19,20.63,7.73,29.12,0,10.81-9.88,11.28-22,1.33-33.29a7.82,7.82,0,0,0,.43-3.43c6.15-6.58,15.92-18.25,29.8-33.47.1-.11.19-.23.28-.35l20.91-23.53,30.08,112.77-45,.46-26.24,152.3A21.47,21.47,0,0,1,391,694.9Z"/></g></g></svg>