<svg xmlns="http://www.w3.org/2000/svg" viewBox="0 0 781.04 781.04"><defs><style>.cls-1{fill:#dff0f3;}.cls-2{fill:#108599;}</style></defs><g id="Capa_2" data-name="Capa 2"><g id="Capa_1-2" data-name="Capa 1"><rect class="cls-1" width="781.04" height="781.04"/><path class="cls-2" d="M348.7,160.42c4.6-2.23,10.64,1.35,10.83,6.44.74,4.67-4,9.1-8.59,8.37-4-.37-7.44-4.41-6.86-8.46A8,8,0,0,1,348.7,160.42Z"/><path class="cls-2" d="M395.52,160.38c4.58-2.23,10.27,1.48,10.73,6.35.65,4.67-3.87,9.21-8.55,8.5-4.09-.26-7.35-4.5-6.83-8.5A8.14,8.14,0,0,1,395.52,160.38Z"/><path class="cls-2" d="M371,182.13c15.37-2.3,31.36,8.19,35.22,23.26.9,3.72-3.22,7.31-6.75,5.79-3.68-1.27-3.64-5.79-5.6-8.55-6.08-10.66-21.71-13.58-31.45-6.3-4.44,2.89-6.89,7.73-8.72,12.52-2,4.5-9.21,2.81-9.64-1.82,0-3,1.42-5.69,2.75-8.26A33.15,33.15,0,0,1,371,182.13Z"/><path class="cls-2" d="M423.07,678.48l25.11-145.74,48.64-.5-25-93.79c1.78-8.64,4-20.07,7.13-33.94a3.47,3.47,0,0,0,.06-.45l10.8-51.26a44.45,44.45,0,0,0-2.2-25.65c-10.31-25.94-17.41-43.81-21.26-53.48l-.26.09a29.58,29.58,0,0,0-13.5-15c-2.69-1.42-5.44-2.75-8.2-4,13-29.85,21-64.16,21-90.44,0-26.54-8.46-51.35-23.83-69.87l.09-.07A74.84,74.84,0,0,0,428.08,81l-.1.14,0,0A84.72,84.72,0,0,0,375.8,62.75h-.49a84.72,84.72,0,0,0-52.17,18.41v0L323,81a74.71,74.71,0,0,0-13.53,13.35l.08.07c-15.36,18.52-23.83,43.33-23.83,69.87,0,26.28,8,60.59,21,90.44-2.76,1.25-5.5,2.58-8.19,4A29.44,29.44,0,0,0,284,276.84a15.42,15.42,0,0,0-.63,3.06l-18.78,47.25a44.45,44.45,0,0,0-2.2,25.65l10.8,51.26a3.47,3.47,0,0,0,.06.45c2.37,10.56,4.23,19.71,5.77,27.29L249.8,531.29l50.22,0L324,678.07a29.43,29.43,0,0,0,10.17,18c-24.18,5.28-33.81,19.16-32,45.56l.26,3.73h142l.26-3.73c1.79-26.3-7.76-40.17-31.74-45.5A29.46,29.46,0,0,0,423.07,678.48Zm-107-535.66c23-4.48,36.55-21.41,42.14-30.1C379.87,134.87,403.36,142,434,149v30.34h.29v.73c0,26.59-19.54,49.18-45.84,54.92a59.76,59.76,0,0,1-25.72,0c-26.3-5.74-45.84-28.33-45.84-54.92l-.76-10Zm38.52,102V240.9a69.53,69.53,0,0,0,20.7,3.27h.49a69.64,69.64,0,0,0,20.7-3.27v3.94c-.27,6.32.75,8.69-1.28,11.51A73,73,0,0,1,379,272.7a5.78,5.78,0,0,1-6.81,0,72.79,72.79,0,0,1-16.26-16.35C353.85,253.53,354.88,251.16,354.61,244.84ZM394,694.9H377.4l0-11.66.35-150.68H377v0l-3.65,0-3.65,0v0H369l.35,150.65-.05,11.69H353.08a21.43,21.43,0,0,1-21.24-18.1l-25-153.49H260.49l22-75c1.13,4.77,2.08,7.71,3,8.64-3.6,8.8-.24,15.09.89,24.69,3.06,16.84,14.1,31.92,30,28.36,14.29-3.21,20.7-13.49,17.67-28.25,2.51-2.07,3.42-5.8,2.84-8.94-.88-4.36-1.93-11.51-5.54-14.46a23.67,23.67,0,0,1-7-9.59l-1.74-14.58h0l-3.05-25.61-5.78-48.5a28.88,28.88,0,0,1,2-14.55l4.26-10.17H320l.74-1.83a4,4,0,1,0-7.42-3l-2.9,7.18a4,4,0,0,0-.28,1.33l-1.46,3.49A36.63,36.63,0,0,0,306.05,361l10.2,85.56L291,451l-10-47.4a3.32,3.32,0,0,0-.06-.44l-10.95-52A36.7,36.7,0,0,1,271.82,330l21.39-53.82-.63-.22a21.65,21.65,0,0,1,9.61-10.33c16.55-8.78,35.93-13.94,44.62-16,.18,1.6-.83,6.25,2.75,11.23a81.28,81.28,0,0,0,18,18.08,14.17,14.17,0,0,0,7.77,2.62v0h.49v0a14.14,14.14,0,0,0,7.76-2.62,81.05,81.05,0,0,0,18-18.08c3.59-5,2.58-9.63,2.75-11.23,8.7,2,28.07,7.2,44.62,16a21.66,21.66,0,0,1,10.25,11.91l.33,0L480.35,330a36.62,36.62,0,0,1,1.81,21.16l-10.94,52a2.24,2.24,0,0,0-.07.44l-6.42,30.44-1.05,5-2.54,12-25.22-4.47L446.12,361a36.63,36.63,0,0,0-2.58-18.48c-.55-1.32-1.09-2.6-1.61-3.83a4,4,0,0,0-.24-1l-2.91-7.18a4,4,0,1,0-7.41,3l.74,1.83h0l.46,1.1,1.72,4.26a5.07,5.07,0,0,0,.32.61l1.76,4.2a28.88,28.88,0,0,1,2,14.55l-5.78,48.5-3.05,25.61h0l-1.74,14.58a23.67,23.67,0,0,1-7,9.59c-3.61,2.95-4.66,10.1-5.54,14.46-.58,3.14.33,6.87,2.84,8.94-3,14.76,3.39,25,17.68,28.25,15.86,3.56,26.9-11.52,30-28.36,1.13-9.6,4.49-15.89.89-24.69a6.5,6.5,0,0,0,1.22-2.24l18.58,69.64-45,.46-26.24,152.3A21.47,21.47,0,0,1,394,694.9ZM326.29,482.71c2.46,10.93-1.34,17.38-11.61,19.69a12,12,0,0,1-9.48-1.8c-11.36-7.39-11.93-27.83-13.3-32.8a14.3,14.3,0,0,1,1.49-9.27l24.84-4.41a31.19,31.19,0,0,0,8.12,10.2c.87.83,1.79,3.92,2.75,9.16a3.78,3.78,0,0,1,0,2.14,4.61,4.61,0,0,0-2.71,2.09C325.26,479.67,326,481.25,326.29,482.71Zm99.47-5a4.61,4.61,0,0,0-2.71-2.09,4,4,0,0,1,0-2.14c1-5.24,1.89-8.33,2.75-9.16a31.19,31.19,0,0,0,8.12-10.2l24.85,4.41a14.36,14.36,0,0,1,1.48,9.27c-1.36,5-1.94,25.41-13.3,32.8a12,12,0,0,1-9.48,1.8c-10.27-2.31-14.07-8.76-11.61-19.69C426.21,481.25,426.92,479.67,425.76,477.71Z"/></g></g></svg>