<svg xmlns="http://www.w3.org/2000/svg" viewBox="0 0 781.04 781.04"><defs><style>.cls-1{fill:#dff0f3;}.cls-2{fill:#108599;}</style></defs><g id="Capa_2" data-name="Capa 2"><g id="Capa_1-2" data-name="Capa 1"><rect class="cls-1" width="781.04" height="781.04"/><path class="cls-2" d="M371.85,161.31c4.77-2.55,11.53,1.61,10.83,7.14.56,5.59-6.62,9.65-11.27,6.65C366,172.49,366.28,163.57,371.85,161.31Z"/><path class="cls-2" d="M418.62,161.26c5.12-2.58,11.92,2.12,10.92,7.88-.19,6.07-8.6,9.19-12.88,5C412.58,170.62,413.58,163.37,418.62,161.26Z"/><path class="cls-2" d="M371.79,190a5.17,5.17,0,0,1,4.93,2c1.2,2.14,1.79,4.59,3.14,6.66,3.84,6,10.61,10.48,17.91,10.43,6.59.5,13.11-2.74,17.33-7.73,2.46-2.46,3.47-5.85,4.95-8.9,1.48-3.22,6.52-3.22,8.55-.59,1.26,1.29,1,3.34.7,5-4.28,14.1-19.17,24.07-33.83,22.47a32.82,32.82,0,0,1-26.38-18.9c-1.09-2.37-2.18-5.12-1.19-7.71A5.13,5.13,0,0,1,371.79,190Z"/><path class="cls-2" d="M499,288.71l2.91-7.19a4,4,0,0,0,.23-.82,28.43,28.43,0,0,0,2.59-4.67c.34-.79,8.62-21.66,24.64-62a44.46,44.46,0,0,0,2.2-25.65l-10.79-51.27c0-.14,0-.29-.07-.44-6.93-31-9.57-49.8-12.29-52.44,3.6-8.81.24-15.1-.88-24.69-3.07-16.84-14.1-31.93-30-28.36-14.29,3.21-20.7,13.49-17.67,28.24-2.51,2.07-3.43,5.81-2.84,8.95.87,4.36,1.93,11.51,5.53,14.45a23.8,23.8,0,0,1,7,9.59L471.28,107c-29.54-45.69-87-53-125.62-22.5l0,0-.1-.15A74.49,74.49,0,0,0,332,97.76l.08.06c-15.36,18.52-23.82,43.34-23.82,69.88,0,26.28,8,60.59,21,90.44q-3.45,1.56-6.84,3.32a49.87,49.87,0,0,0-10.61,8.39c-4.88,5-11.26,11.89-18.48,20.86-1.78,2.44-3.5,5-5.13,7.54a29.46,29.46,0,0,0-3.67,22.9c.06.12,4.92,30.8,8.11,53.31a44.5,44.5,0,0,0,10.82,23.36l7.69,8.65L274.52,531.16l50.21,0,23.93,146.76a29.39,29.39,0,0,0,10.18,18c-24.19,5.29-33.81,19.17-32,45.57l.25,3.72h142l.25-3.72c1.79-26.3-7.76-40.17-31.74-45.5a29.47,29.47,0,0,0,10.23-17.63L472.9,532.61l48.64-.5L477.72,367.85S498.65,289.44,499,288.71ZM467.55,76.89c-.86-.83-1.79-3.91-2.74-9.16a3.78,3.78,0,0,1,0-2.14,4.57,4.57,0,0,0,2.7-2.08c1.16-2,.45-3.54.12-5-2.46-10.94,1.34-17.38,11.62-19.69a12,12,0,0,1,9.47,1.79C500.06,48,500.64,68.45,502,73.42a14.3,14.3,0,0,1-1.48,9.27L475.68,87.1A31.39,31.39,0,0,0,467.55,76.89Zm-128.18,70c23-4.49,36.56-21.41,42.15-30.1,21.64,22.15,45.13,29.25,75.72,36.28v30.33c0,26.58-19.54,49.18-45.84,54.92-37.42,8.11-72-19.39-72-54.92Zm37.75,101.28v-3.94a70.21,70.21,0,0,0,42.38,0c0,12.49.33,13.2-1.28,15.44a73,73,0,0,1-15.86,16.07,6.5,6.5,0,0,1-7.7.29,72.79,72.79,0,0,1-16.26-16.35C376.37,256.9,377.39,254.53,377.12,248.21Zm92.33,119.68,41.7,156.32-45,.47L439.9,677a21.47,21.47,0,0,1-21.18,17.78h-16.6l-.06-11.58.35-150.76h-.69v0h-7.31v0h-.69l.34,150.76L394,694.76H377.8a21.43,21.43,0,0,1-21.24-18.1l-25-153.48-46.34,0,32.19-109.64L338.25,437a1.93,1.93,0,0,0,.28.36c21.38,23.44,33,38.49,36.68,39.44,1.25,9.42,7.28,13.22,13,21,11,13.1,28.08,20.72,40.09,9.75,10.81-9.87,11.28-22,1.33-33.29,1.15-3,.09-6.74-2-9.17-2.93-3.35-7.39-9-12-9.8a23.6,23.6,0,0,1-10.83-4.86l-8.75-11.8h0l-15.35-20.72-29.09-39.24A28.89,28.89,0,0,1,346.23,365L346,363.5a3.93,3.93,0,0,0,.16-1.78l-1-7.68a4,4,0,1,0-7.92,1.07l.26,2-.09.06c.34,2.74.7,5.67,1.08,8.82a36.75,36.75,0,0,0,6.93,17.32l51.31,69.23-19.68,16.4-32.21-36.19a3,3,0,0,0-.27-.35l-35.3-39.72a36.61,36.61,0,0,1-8.93-19.27l-8.79-57.22a21.62,21.62,0,0,1,3.22-13.74,140.65,140.65,0,0,1,8.64-12.1c.33,1.14,16.18-18.58,21.29-21.29,16.55-8.77,35.93-13.93,44.63-16,.17,1.6-.84,6.25,2.75,11.22a81,81,0,0,0,18,18.08,14.19,14.19,0,0,0,16.51,0,74.42,74.42,0,0,0,10.09-8.71c8.48-8.7,10.64-12.79,10.64-17.85V253.1c2.79.67,6.59,1.61,10.85,2.76a24.7,24.7,0,0,0,28.68-13.11c.09-.18-.78,1.87,18.45-44.05a36.74,36.74,0,0,0,2.59-18.48L477.65,94.66l25.23-4.48,10,47.41c0,.14,0,.29.07.44l10.94,52a36.65,36.65,0,0,1-1.81,21.17l-24.22,60.94c-2,5-6.48,14.54-6.59,14.76Zm-46.07,111c7.56,8.28,7.46,15.76-.31,22.86a12,12,0,0,1-9.12,3.15c-13.54-.79-24.18-18.25-27.82-21.89a14.23,14.23,0,0,1-3.31-8.78l19.38-16.15a31.27,31.27,0,0,0,12.11,4.82c1.17.3,3.5,2.51,6.93,6.59a3.83,3.83,0,0,1,1.08,1.85,4.66,4.66,0,0,0-1.32,3.16C421,476.78,422.38,477.8,423.38,478.9Z"/></g></g></svg>