<svg xmlns="http://www.w3.org/2000/svg" viewBox="0 0 781.04 781.04"><defs><style>.cls-1{fill:#dff0f3;}.cls-2{fill:#108599;}</style></defs><g id="Capa_2" data-name="Capa 2"><g id="Capa_1-2" data-name="Capa 1"><rect class="cls-1" width="781.04" height="781.04"/><path class="cls-2" d="M358.21,160.68c5.17-2.47,11.61,2.36,10.75,8-.39,5.89-8.42,9.21-12.7,5C351.75,170.33,353,162.65,358.21,160.68Z"/><path class="cls-2" d="M405,160.65c4.55-2.06,10.3,1.47,10.64,6.42a7.79,7.79,0,0,1-6.8,8.44c-4.37.7-8.74-3.25-8.67-7.62C399.88,164.71,402.32,162,405,160.65Z"/><path class="cls-2" d="M357.38,189.56c17.45-.43,34.92-.07,52.38-.18,3.15-.48,6.49,2.36,5.88,5.65-3.57,14.76-18.92,25.27-33.93,23.69-12.78-1.07-24.54-10.51-28-22.9C352.79,193.24,354.51,189.78,357.38,189.56Z"/><path class="cls-2" d="M489.62,280.47a28.51,28.51,0,0,0,2.34-4.31c.35-.78,8.63-21.65,24.65-62a44.45,44.45,0,0,0,2.2-25.65L508,137.29a3.47,3.47,0,0,0-.06-.45c-6.94-31-9.58-49.8-12.29-52.44,3.6-8.8.24-15.09-.89-24.69-3.06-16.84-14.1-31.92-30-28.36-14.29,3.22-20.7,13.49-17.68,28.25-2.51,2.07-3.42,5.81-2.84,8.94.88,4.36,1.93,11.51,5.54,14.46a23.67,23.67,0,0,1,7,9.59l1.74,14.58c-18-27.8-46.28-41.37-74.39-40.89-28.11-.48-56.42,13.09-74.39,40.89l1.74-14.58a23.67,23.67,0,0,1,7-9.59c3.61-3,4.66-10.1,5.53-14.46.59-3.13-.33-6.87-2.84-8.94,3-14.76-3.38-25-17.67-28.25-15.86-3.56-26.9,11.52-30,28.36-1.12,9.6-4.48,15.89-.88,24.69-2.71,2.64-5.36,21.48-12.29,52.44,0,.15-.05.3-.07.45l-10.79,51.26a44.45,44.45,0,0,0,2.2,25.65c16,40.31,24.3,61.18,24.64,62a29.35,29.35,0,0,0,2.38,4.37,4.12,4.12,0,0,0,.26,1.13l2.91,7.18a3.87,3.87,0,0,0,1.08,1.51h0l27.58,77.75L262.68,531.29l50.22,0,23.93,146.76a29.44,29.44,0,0,0,10.18,18c-24.19,5.28-33.81,19.16-32,45.56l.25,3.73h142l.25-3.73c1.79-26.3-7.76-40.17-31.74-45.5A29.47,29.47,0,0,0,436,678.48l25.11-145.74,48.64-.5L465.89,368,487,288l-.19-.05,2.57-6.33A4.17,4.17,0,0,0,489.62,280.47ZM454.84,77c-.86-.83-1.79-3.91-2.75-9.16a3.88,3.88,0,0,1,0-2.14,4.61,4.61,0,0,0,2.71-2.09c1.16-2,.45-3.54.12-5-2.46-10.94,1.34-17.39,11.61-19.69A12,12,0,0,1,476,40.75c11.36,7.4,11.94,27.83,13.3,32.81a14.34,14.34,0,0,1-1.48,9.26L463,87.23A31.19,31.19,0,0,0,454.84,77ZM323.58,144.87c23.53-4.48,37.45-21.41,43.18-30.09C388.93,136.92,413,144,444.33,151.05v30.34h.21v2.19c0,31.67-27.54,56.93-60,56.3h-.68c-32.49.63-60-24.63-60-56.3l-.24-6.46Zm60.6,132.29-.34-.08v.15a6.76,6.76,0,0,1-5.13-1.32,73,73,0,0,1-15.86-16.07c-1.6-2.23-1.27-2.95-1.27-15.44a80.2,80.2,0,0,0,45.2,0c0,12.49.33,13.21-1.27,15.44a72.84,72.84,0,0,1-15.87,16.07,6.73,6.73,0,0,1-5.12,1.32v-.15ZM279.07,73.56c1.36-5,1.94-25.41,13.3-32.81A12,12,0,0,1,301.84,39c10.28,2.3,14.08,8.75,11.62,19.69-.33,1.45-1,3,.12,5a4.58,4.58,0,0,0,2.71,2.09,4,4,0,0,1,0,2.14c-1,5.25-1.89,8.33-2.75,9.16a31.35,31.35,0,0,0-8.13,10.2l-24.84-4.41A14.34,14.34,0,0,1,279.07,73.56ZM499.32,524.35l-45,.46-26.24,152.3a21.47,21.47,0,0,1-21.18,17.79H390.28l0-11.66.35-150.68h-.7v0l-3.65,0-3.65,0v0h-.7l.35,150.65-.05,11.69H366a21.42,21.42,0,0,1-21.23-18.1l-25-153.49H273.37L319,367.88l-28.45-80.2-1,.36a4.2,4.2,0,0,0,.06-1s-4.4-9.72-6.41-14.78L259,211.32a36.62,36.62,0,0,1-1.81-21.16l10.94-52c0-.15.05-.29.07-.44l10-47.4,25.22,4.47-10.2,85.56a36.63,36.63,0,0,0,2.58,18.48c19.23,45.92,18.36,43.87,18.45,44.06A24.72,24.72,0,0,0,342.93,256c4.26-1.15,8.06-2.1,10.85-2.76v2.68c0,5.06,2.16,9.15,10.64,17.85a75.22,75.22,0,0,0,10.09,8.72,19.61,19.61,0,0,0,19.34,0,75.22,75.22,0,0,0,10.09-8.72c8.48-8.7,10.63-12.79,10.63-17.85v-2.68c2.79.66,6.6,1.61,10.86,2.76a24.73,24.73,0,0,0,28.68-13.11c.09-.19-.78,1.86,18.45-44.06a36.63,36.63,0,0,0,2.58-18.48l-10.2-85.56,25.22-4.47,10,47.4a3.32,3.32,0,0,0,.06.44l10.95,52a36.62,36.62,0,0,1-1.81,21.16l-24.22,60.94c-2,5.06-6.38,14.78-6.38,14.78a4.09,4.09,0,0,0,0,.7L457.61,368Z"/></g></g></svg>