<svg xmlns="http://www.w3.org/2000/svg" viewBox="0 0 781.04 781.04"><defs><style>.cls-1{fill:#dff0f3;}.cls-2{fill:#108599;}</style></defs><g id="Capa_2" data-name="Capa 2"><g id="Capa_1-2" data-name="Capa 1"><rect class="cls-1" width="781.04" height="781.04"/><path class="cls-2" d="M389.81,182.9a32.19,32.19,0,0,1,25.4,4.18c6.28,4.42,11.8,10.72,13.43,18.39.82,3.24-2.27,6.39-5.46,6q-25.85,0-51.7,0a5.12,5.12,0,0,1-4.64-6.46C369.68,194.21,379,185.52,389.81,182.9Z"/><path class="cls-2" d="M368.3,162.65c5.32-2.09,10.84-3.55,16.32-5.13-.46,5,1.14,11.69-3.78,14.92a13.77,13.77,0,0,1-13.64,0C363.5,170.18,364.35,164.11,368.3,162.65Z"/><path class="cls-2" d="M410.57,157.46c5.86,1.76,11.92,3,17.45,5.72,3.57,1.7,3.68,7.41.25,9.34-5.13,2.61-12.76,2.62-16.11-2.79C410.4,165.92,410.57,161.57,410.57,157.46Z"/><path class="cls-2" d="M448.6,678.48l25.11-145.74,48.64-.5-26.58-99.65-.26.07c1.57-7.74,3.49-17.18,5.95-28.15a3.47,3.47,0,0,0,.06-.45l10.8-51.26a44.45,44.45,0,0,0-2.2-25.65c-10.31-25.94-17.41-43.81-21.26-53.48l-.26.09a29.56,29.56,0,0,0-13.51-15c-2.69-1.42-5.43-2.75-8.19-4,13-29.85,21-64.16,21-90.44,0-26.54-8.46-51.35-23.83-69.87l.09-.07A74.84,74.84,0,0,0,450.61,81l-.1.14,0,0a84.72,84.72,0,0,0-52.16-18.41h-.49a84.72,84.72,0,0,0-52.17,18.41v0l-.11-.14A74.71,74.71,0,0,0,332,94.39l.08.07c-15.37,18.52-23.83,43.33-23.83,69.87,0,26.28,8,60.59,21,90.44-2.76,1.25-5.5,2.58-8.19,4a29.44,29.44,0,0,0-14.55,18.07,15.42,15.42,0,0,0-.63,3.06l-18.78,47.25a44.45,44.45,0,0,0-2.2,25.65l10.8,51.26a3.47,3.47,0,0,0,.06.45c3,13.54,5.25,24.76,7,33.32l-27.44,93.46,50.22,0,23.93,146.76a29.43,29.43,0,0,0,10.17,18c-24.18,5.28-33.81,19.16-32,45.56l.26,3.73h142l.26-3.73c1.79-26.3-7.76-40.17-31.74-45.5A29.46,29.46,0,0,0,448.6,678.48Zm-110-535.66c23-4.48,36.55-21.41,42.14-30.1C402.4,134.87,425.89,142,456.48,149v30.34h.29v.73c0,26.59-19.54,49.18-45.84,54.92a59.76,59.76,0,0,1-25.72,0c-26.3-5.74-45.84-28.33-45.84-54.92l-.77-10Zm38.52,102V240.9a69.53,69.53,0,0,0,20.7,3.27h.49A69.64,69.64,0,0,0,419,240.9v3.94c-.27,6.32.75,8.69-1.28,11.51a73,73,0,0,1-16.26,16.35,5.78,5.78,0,0,1-6.81,0,72.79,72.79,0,0,1-16.26-16.35C376.38,253.53,377.41,251.16,377.14,244.84ZM419.53,694.9h-16.6l-.05-11.66.35-150.68h-.7v0l-3.65,0-3.65,0v0h-.7l.35,150.65-.05,11.69H378.61a21.43,21.43,0,0,1-21.24-18.1l-25-153.49H286l20.45-69.66a9,9,0,0,0,1.59,3.31c-3.6,8.8-.24,15.09.89,24.69,3.06,16.84,14.1,31.92,30,28.36,14.3-3.21,20.7-13.49,17.68-28.25,2.51-2.07,3.42-5.8,2.84-8.94-.88-4.36-1.93-11.51-5.54-14.46a23.67,23.67,0,0,1-7-9.59l-1.74-14.58h0l-3-25.61-5.78-48.5a28.88,28.88,0,0,1,2-14.55l4.26-10.17h-.13l.74-1.83a4,4,0,0,0-7.42-3l-2.91,7.18a4.2,4.2,0,0,0-.27,1.33l-1.46,3.49A36.63,36.63,0,0,0,328.58,361l10.2,85.56L313.56,451l-2.65-12.53,0-.11-.07,0-7.33-34.74a3.32,3.32,0,0,0-.06-.44l-10.95-52A36.62,36.62,0,0,1,294.35,330l21.39-53.82-.63-.22a21.65,21.65,0,0,1,9.61-10.33c16.55-8.78,35.93-13.94,44.62-16,.18,1.6-.83,6.25,2.75,11.23a81.28,81.28,0,0,0,18,18.08,14.17,14.17,0,0,0,7.77,2.62v0h.49v0a14.17,14.17,0,0,0,7.76-2.62,81.05,81.05,0,0,0,18-18.08c3.59-5,2.58-9.63,2.75-11.23,8.69,2,28.07,7.2,44.62,16a21.66,21.66,0,0,1,10.25,11.91l.33,0L502.88,330a36.62,36.62,0,0,1,1.81,21.16l-10.95,52a3.32,3.32,0,0,0-.06.44l-10,47.4-25.22-4.47L468.65,361a36.63,36.63,0,0,0-2.58-18.48c-.55-1.32-1.09-2.6-1.61-3.83a4,4,0,0,0-.24-1l-2.91-7.18a4,4,0,1,0-7.42,3l.75,1.83h0l.46,1.1,1.72,4.26a5.07,5.07,0,0,0,.32.61l1.76,4.2a28.88,28.88,0,0,1,2,14.55l-5.78,48.5-3.05,25.61h0l-1.74,14.58a23.67,23.67,0,0,1-7,9.59c-3.61,2.95-4.66,10.1-5.54,14.46-.58,3.14.33,6.87,2.84,8.94-3,14.76,3.38,25,17.68,28.25,15.86,3.56,26.9-11.52,30-28.36,1.13-9.6,4.49-15.89.89-24.69.88-.86,1.76-3.46,2.78-7.62l20,75-45,.46-26.24,152.3A21.48,21.48,0,0,1,419.53,694.9ZM348.82,482.71c2.46,10.93-1.34,17.38-11.61,19.69a12,12,0,0,1-9.48-1.8c-11.36-7.39-11.94-27.83-13.3-32.8a14.3,14.3,0,0,1,1.49-9.27l24.84-4.41a31.19,31.19,0,0,0,8.12,10.2c.87.83,1.79,3.92,2.75,9.16a3.78,3.78,0,0,1,0,2.14,4.61,4.61,0,0,0-2.71,2.09C347.78,479.67,348.49,481.25,348.82,482.71Zm99.47-5a4.61,4.61,0,0,0-2.71-2.09,3.78,3.78,0,0,1,0-2.14c1-5.24,1.88-8.33,2.75-9.16a31.19,31.19,0,0,0,8.12-10.2l24.84,4.41a14.3,14.3,0,0,1,1.49,9.27c-1.36,5-1.94,25.41-13.3,32.8a12,12,0,0,1-9.48,1.8c-10.27-2.31-14.07-8.76-11.61-19.69C448.74,481.25,449.45,479.67,448.29,477.71Z"/></g></g></svg>