<svg xmlns="http://www.w3.org/2000/svg" viewBox="0 0 781.04 781.04"><defs><style>.cls-1{fill:#dff0f3;}.cls-2{fill:#108599;}</style></defs><g id="Capa_2" data-name="Capa 2"><g id="Capa_1-2" data-name="Capa 1"><rect class="cls-1" width="781.04" height="781.04"/><path class="cls-2" d="M358.64,161.1c4.56-2.08,10.25,1.52,10.64,6.43a7.83,7.83,0,0,1-7.62,8.5c-4,.21-8.19-3.56-7.78-7.68C353.55,165.22,355.89,162.32,358.64,161.1Z"/><path class="cls-2" d="M404.74,161.3c4.61-2.52,11.1,1.11,11,6.46.87,5.84-6.5,10.57-11.43,7.19C398.93,172.37,399.25,163.58,404.74,161.3Z"/><path class="cls-2" d="M357.51,204.19c16.72-4.89,33.55-9.4,50.31-14.15a5.29,5.29,0,0,1,6.08,1.77c2.58,2.74.32,7.75-3.23,8.35q-24.56,6.9-49.13,13.73c-2.58.81-6-.71-6.52-3.51C353.94,208.09,355.58,205.4,357.51,204.19Z"/><path class="cls-2" d="M434.54,678.48l25.11-145.74,48.64-.5L473.5,401.82l5.22-5.87a44.34,44.34,0,0,0,10.82-23.36c3.19-22.51,8-53.19,8.11-53.31a29.39,29.39,0,0,0-3.67-22.9c-1.63-2.57-3.35-5.09-5.13-7.54-6.17-7.67-11.73-13.85-16.26-18.58a29.48,29.48,0,0,0-10.09-9.83c-1.35-1.22-2.22-1.62-2.43-1.3q-3.4-1.75-6.87-3.32c13-29.86,21-64.16,21-90.44,0-26.55-8.46-51.36-23.83-69.88l.09-.07a74.5,74.5,0,0,0-13.54-13.35l-.1.14h0a84.66,84.66,0,0,0-52.16-18.41h-.49A84.66,84.66,0,0,0,332,82.2h0l-.11-.14a74.71,74.71,0,0,0-13.53,13.35l.08.07C303,114,294.57,138.82,294.57,165.37c0,26.28,8,60.58,21,90.44-2.75,1.24-5.5,2.57-8.19,4a29.42,29.42,0,0,0-14.55,18.06,15.42,15.42,0,0,0-.63,3.06q-6.17,15.52-18.78,47.25a44.38,44.38,0,0,0-2.19,25.65L282,405.1a3.56,3.56,0,0,0,.06.44c2.88,12.85,5,23.61,6.73,32l-27.53,93.76,50.22,0,23.93,146.76a29.43,29.43,0,0,0,10.17,18c-24.18,5.28-33.8,19.16-32,45.56l.26,3.73h142l.26-3.73c1.79-26.3-7.76-40.17-31.74-45.5A29.46,29.46,0,0,0,434.54,678.48ZM324.92,143.85c23-4.48,36.55-21.41,42.15-30.09C388.7,135.91,412.19,143,442.78,150v30.34h.29v.74c0,26.58-19.54,49.18-45.84,54.91a59.35,59.35,0,0,1-25.72,0c-26.3-5.73-45.84-28.33-45.84-54.91l-.76-10Zm38.52,102v-3.93a69.52,69.52,0,0,0,20.7,3.26h.49a69.63,69.63,0,0,0,20.7-3.26v3.93c-.27,6.32.75,8.7-1.28,11.51a72.58,72.58,0,0,1-16.26,16.35,5.78,5.78,0,0,1-6.81,0,72.58,72.58,0,0,1-16.26-16.35C362.69,254.57,363.71,252.19,363.44,245.87Zm42,449H388.87l-.05-11.66.35-150.68h-.7v0l-3.65,0-3.65,0v0h-.7l.35,150.65-.05,11.69H364.55a21.43,21.43,0,0,1-21.24-18.1l-25-153.49H272l20.47-69.73c.68,2.31,1.3,3.8,1.93,4.41-3.6,8.81-.24,15.1.89,24.69,3.06,16.84,14.1,31.92,30,28.36,14.29-3.21,20.7-13.49,17.67-28.25,2.51-2.06,3.42-5.8,2.84-8.94-.88-4.36-1.93-11.51-5.54-14.45a23.8,23.8,0,0,1-7-9.59l-1.74-14.58h0L328.4,409.6l-5.78-48.5a28.82,28.82,0,0,1,2-14.54l.58-1.39a4,4,0,0,0,1-1.46l2.91-7.19a4,4,0,1,0-7.41-3l-.75,1.83h-.1c-1.07,2.55-2.21,5.28-3.44,8.2A36.63,36.63,0,0,0,314.88,362l10.2,85.56-25.22,4.47-2.92-13.84.16-.56-.3-.09-6.95-32.91a3.56,3.56,0,0,0-.06-.44l-11-52a36.74,36.74,0,0,1,1.81-21.17L302,277.24l-.63-.22A21.65,21.65,0,0,1,311,266.69c16.55-8.78,35.93-13.94,44.62-16,.18,1.6-.83,6.25,2.75,11.23a81.28,81.28,0,0,0,18,18.08,14.27,14.27,0,0,0,7.77,2.63h.49A14.29,14.29,0,0,0,392.4,280a81.18,81.18,0,0,0,18-18.08c3.59-5,2.58-9.63,2.75-11.23,8.7,2,28.07,7.2,44.63,16a21.09,21.09,0,0,1,3.53,2.36c1,1,2.09,2.07,3.21,3.23,1.81,2.25,13.49,17,13.87,15.66a145.23,145.23,0,0,1,9,12.6,21.71,21.71,0,0,1,3.22,13.74l-8.79,57.22a36.72,36.72,0,0,1-8.93,19.28l-35.3,39.71c-.1.11-.19.23-.28.35L405.12,467l-19.68-16.4,51.31-69.22a36.73,36.73,0,0,0,6.92-17.33c.39-3.15.75-6.08,1.09-8.82l-.1-.05.27-2a4,4,0,0,0-7.93-1.08l-1,7.69a4,4,0,0,0,.16,1.77l-.18,1.49a28.86,28.86,0,0,1-5.46,13.64L401.4,416,386,436.73h0l-8.74,11.79a23.67,23.67,0,0,1-10.84,4.86c-4.59.77-9,6.45-12,9.8-2.06,2.44-3.12,6.13-2,9.18-10,11.31-9.49,23.41,1.33,33.29,12,11,29.07,3.35,40.08-9.76,5.74-7.77,11.78-11.56,13-21,3.67-.95,15.31-16,36.69-39.44.1-.11.19-.23.28-.35L467.13,409l30.78,115.36-45,.46-26.24,152.3A21.47,21.47,0,0,1,405.48,694.9ZM335.12,483.74c2.46,10.94-1.34,17.38-11.61,19.69a12,12,0,0,1-9.48-1.79c-11.36-7.4-11.93-27.84-13.3-32.81a14.31,14.31,0,0,1,1.49-9.27l24.84-4.41a31.23,31.23,0,0,0,8.12,10.21c.87.83,1.79,3.91,2.75,9.16a3.78,3.78,0,0,1,0,2.14,4.6,4.6,0,0,0-2.71,2.08C334.09,480.7,334.8,482.28,335.12,483.74Zm24.72-14.26a3.82,3.82,0,0,1,1.08-1.84c3.44-4.08,5.77-6.3,6.93-6.59A31.49,31.49,0,0,0,380,456.22l19.38,16.15a14.29,14.29,0,0,1-3.31,8.78c-3.65,3.64-14.29,21.1-27.83,21.89a12,12,0,0,1-9.11-3.15c-7.78-7.1-7.88-14.58-.32-22.85,1-1.1,2.41-2.13,2.38-4.4A4.61,4.61,0,0,0,359.84,469.48Z"/></g></g></svg>