<svg xmlns="http://www.w3.org/2000/svg" viewBox="0 0 495.15 165.15"><defs><style>.cls-1{fill:#108498;}.cls-2{fill:#fff;}.cls-3{opacity:0.65;}.cls-4{fill:#2feded;}</style></defs><g id="Capa_2" data-name="Capa 2"><g id="Capa_1-2" data-name="Capa 1"><rect class="cls-1" width="495.15" height="165.15" rx="15.91"/><path class="cls-2" d="M231.43,143.06a7.09,7.09,0,0,1-5-2,5.74,5.74,0,0,1-1.74-4.07v-8.38H209.15v-.27c-5.76-1-10.12-5.57-10.12-11V97.48h-4.38a5.39,5.39,0,0,1-4.48-2.31,4.71,4.71,0,0,1-.54-4.41L199,66.58c.21-3.39,2.16-24.35,18.44-37.33,11.8-9.39,28.1-12.19,48.45-8.32C288.37,25.21,298,37.55,302.2,47.16c6.68,15.44,4.14,35-6.81,52.2-7.22,11.37-6.44,33.82-5.4,38a4.27,4.27,0,0,1-.81,3.67,5,5,0,0,1-3.93,1.86l-53.79.14Zm-17.28-19.45h12.47l.68.53.12.08a2.72,2.72,0,0,1,2.29,2.69V137a.82.82,0,0,0,.27.53,2.1,2.1,0,0,0,1.46.54h0l53.55-.14c-1.24-6.48-1.63-28.93,6.18-41.24,9.91-15.61,12.38-33.82,6.44-47.54C292.34,37,281.05,28.9,265,25.84h0c-18.85-3.59-33.79-1.12-44.39,7.32C205,45.6,204,67,204,67.21v.42l-9.63,24.78a.61.61,0,0,0,.29.07h4.76A4.38,4.38,0,0,1,204,97.21v20.14c0,3.37,3.49,6.21,7.62,6.21Z"/><g class="cls-3"><path class="cls-4" d="M294.6,78.45l0-4.13c-2-.47-4-1-6-1.42a18.63,18.63,0,0,0-2.68-6.65c1.13-1.71,2.18-3.46,3.35-5.14l-2.85-3c-1.81,1-3.5,2.21-5.29,3.27a19.8,19.8,0,0,0-6.65-2.88c-.37-2-.78-4-1.27-6l-4.07,0c-.53,2-.93,4-1.45,6a19.49,19.49,0,0,0-6.63,2.74c-1.76-1.09-3.44-2.32-5.23-3.37-1,1-1.91,2-2.89,2.92,1.1,1.73,2.13,3.5,3.26,5.22a18.37,18.37,0,0,0-2.8,6.6c-2,.48-4,.85-6.06,1.32l0,4.13c2,.43,4,.92,6,1.37A19.28,19.28,0,0,0,256,86.09c-1.1,1.73-2.28,3.41-3.33,5.17,1,.91,1.86,2.17,3,2.85q2.56-1.58,5.11-3.17a18.63,18.63,0,0,0,6.64,2.82c.39,2,.81,4,1.28,6l4.1,0c.52-2,.9-4,1.43-6a18.89,18.89,0,0,0,6.65-2.72c1.69,1.15,3.44,2.18,5.1,3.37,1-.92,2-1.92,3-2.88-1-1.79-2.19-3.48-3.2-5.27a19.14,19.14,0,0,0,2.8-6.59Q291.58,79.06,294.6,78.45Zm-12.42,5.24a13.51,13.51,0,1,1,2-10.21A13.5,13.5,0,0,1,282.18,83.69Z"/><path class="cls-4" d="M269.39,72a4.55,4.55,0,0,0-2.81,3.62A4.42,4.42,0,1,0,269.39,72Z"/><path class="cls-4" d="M254.38,49.62a13.54,13.54,0,0,0-.14-5.15Q256,43.21,257.79,42l-1.2-2.76c-1.45.23-2.91.44-4.36.69a13.93,13.93,0,0,0-3.72-3.7c.23-1.44.4-2.9.66-4.33l-2.75-1.22c-.88,1.16-1.63,2.42-2.48,3.61a14.17,14.17,0,0,0-5.19-.11q-1.26-1.86-2.62-3.65l-2.66,1.08c.24,1.47.58,2.92.84,4.39a13,13,0,0,0-3.51,3.63c-1.47-.26-2.93-.61-4.42-.83-.34.91-.66,1.83-1,2.73,1.24.85,2.44,1.75,3.68,2.59a13.15,13.15,0,0,0,.14,5.15c-1.17.87-2.38,1.67-3.56,2.53l1.2,2.75c1.44-.25,2.88-.46,4.32-.7a14.73,14.73,0,0,0,3.76,3.71c-.2,1.45-.47,2.89-.63,4.35a17.9,17.9,0,0,0,2.8,1.08c.8-1.17,1.6-2.33,2.39-3.5a13.24,13.24,0,0,0,5.17.07c.85,1.23,1.72,2.46,2.62,3.65l2.69-1.09c-.26-1.46-.61-2.91-.85-4.37a12.78,12.78,0,0,0,3.53-3.61c1.44.3,2.9.51,4.33.85.4-.89.72-1.81,1.09-2.72C256.85,51.34,255.58,50.54,254.38,49.62Zm-3.13-.77a9.18,9.18,0,0,1-4.86,6.7,9.62,9.62,0,0,1-8.32.17,10.32,10.32,0,0,1-5.36-5.62,9.52,9.52,0,0,1,3.47-11.42,9.41,9.41,0,0,1,6.76-1.36,10.14,10.14,0,0,1,6.59,4.18A9.93,9.93,0,0,1,251.25,48.85Z"/><path class="cls-4" d="M239.44,44.55a3.19,3.19,0,0,0-.76,3.17,3.3,3.3,0,0,0,4.4,2.07A3.13,3.13,0,0,0,244.16,45,3.21,3.21,0,0,0,239.44,44.55Z"/></g></g></g></svg>