<svg xmlns="http://www.w3.org/2000/svg" xmlns:xlink="http://www.w3.org/1999/xlink" version="1.1" id="Calque_1" x="0px"
     y="0px" viewBox="0 0 1300 550" style="enable-background:new 0 0 1300 550;" xml:space="preserve">
<style type="text/css">
	.st1{fill:url(#SVGID_1_);}
</style>


    <svg xmlns="http://www.w3.org/2000/svg" viewBox="350 -80 400 283.43">
    <path d="M676.86,254V200.55c0-56.34-39-102.19-86.87-102.19l-33.18.13C509.83,36.55,440.69.31,366.65.31,234.36.31,126.26,113.31,121.7,254H.39v24.72H735.7V254ZM590,125.51c33,0,59.72,33.66,59.72,75V254H638.17v-54.1c0-32-21.69-58.33-48.22-58.33-11,0-21.07,4.49-29.15,12,17.9,7.7,30.81,28.44,30.81,52.67V254H530.24V200.55C530.24,166.89,551.66,125.51,590,125.51Zm-59.54.67c-16.86,18.65-27.36,45.07-27.36,74.37V254H465.27V200.55c0-40.31,25.45-74.37,55.55-74.37Zm-109,55.72c6.3-.48,11.68-1,17-1.6a124.56,124.56,0,0,0-1.62,20.25V254H423.63C423.46,233.33,422.87,208.2,421.45,181.9ZM486.79,69.66A222,222,0,0,1,518.3,97.75,70.3,70.3,0,0,0,491,104.39,277.75,277.75,0,0,0,474.61,75Q480.84,72.46,486.79,69.66Zm-20.1,52.28a101.76,101.76,0,0,0-18.84,27.61l-8.9.92c-6.13.69-12.11,1.4-19.42,2-1.65-20.85-3.93-41.73-7-61a291.74,291.74,0,0,0,32.88-6.77A240,240,0,0,1,466.69,121.94ZM423.85,59c-5.62,1.12-11.33,2-17.11,2.8C405,54.23,403,47.18,400.87,40.72A125.87,125.87,0,0,1,423.85,59Zm-56.5-26.24c3.74,5.79,7.17,16.88,10.23,31.48-6.84.25-13.74.25-20.59,0C360.59,48.84,364.22,38.3,367.35,32.73ZM351.07,94.39c5.18.25,10.36.37,15.58.37,5.37,0,10.75-.12,16.09-.4,2.53,17.92,4.72,38.28,6.44,59.43-6.53.14-14,.19-22.53.19-7,0-14.66-.17-22.76-.52C345.9,130.73,348.36,111,351.07,94.39Zm15.58,89.13c9.38,0,17.52-.07,24.62-.23,1.5,24.23,2.45,48.56,2.76,70.73H339.24c.26-25.9,1.14-49.65,2.46-71.15C350.94,183.31,359.34,183.52,366.65,183.52ZM309.74,254H241.8a400.28,400.28,0,0,1,9.68-79.87c20.64,2.94,41.58,5.23,60.86,6.81C310.59,210,310,236.28,309.74,254ZM334.13,38.23a241.28,241.28,0,0,0-6.79,23.66q-10-1.34-19.73-3.32A106.15,106.15,0,0,1,334.13,38.23ZM287.38,84.49a290.82,290.82,0,0,0,34.15,7c-3.11,19.22-5.4,39.85-7.1,60.09-17.88-1.45-36.72-3.53-55.09-6.09C266.77,122.4,276.32,101.74,287.38,84.49ZM246.43,69.64c3.78,1.78,7.64,3.43,11.6,5a294.27,294.27,0,0,0-28.72,66.11c-14.82-2.62-28.71-5.57-40.85-8.8A226.53,226.53,0,0,1,246.43,69.64Zm-72.49,89c14.15,4.08,30.59,7.68,47.95,10.81A437.94,437.94,0,0,0,212.25,254h-61A247.79,247.79,0,0,1,173.94,158.62Z"
          opacity="0.1" fill="none" stroke="#2ce5ff" stroke-miterlimit="10" stroke-width="1">
        <animate
                attributeName="stroke-dasharray"
                dur="10s"
				begin="0s"
                values="0; 750; 0"
                repeatCount="indefinite"
        />
    </path>
    </svg>
</svg>