<?xml version="1.0" encoding="iso-8859-1"?>
<!-- Generator: Adobe Illustrator 19.0.0, SVG Export Plug-In . SVG Version: 6.00 Build 0)  -->
<svg version="1.1" id="Capa_1" xmlns="http://www.w3.org/2000/svg" xmlns:xlink="http://www.w3.org/1999/xlink" x="0px" y="0px"
	 viewBox="0 0 512 512" style="enable-background:new 0 0 512 512;" xml:space="preserve">
<g>
	<path style="fill:#4482C3;" d="M35.31,397.241v61.793c0,9.751,7.904,17.655,17.655,17.655h406.069
		c9.751,0,17.655-7.905,17.655-17.655V52.966c0-9.751-7.905-17.655-17.655-17.655H52.966c-9.751,0-17.655,7.904-17.655,17.655
		V397.241z"/>
	<polygon style="fill:#CC66A1;" points="150.069,213.628 43.343,326.621 69.12,351.779 170.902,243.994 204.447,241.523 
		291.575,313.379 361.931,317.263 475.719,132.326 445.617,113.876 340.215,285.219 313.026,285.308 312.938,285.308 
		220.601,209.214 	"/>
	<g>
		<circle style="fill:#F0C419;" cx="185.379" cy="211.862" r="35.31"/>
		<circle style="fill:#F0C419;" cx="326.621" cy="317.793" r="35.31"/>
		<circle style="fill:#F0C419;" cx="476.69" cy="97.103" r="35.31"/>
		<circle style="fill:#F0C419;" cx="35.31" cy="361.931" r="35.31"/>
	</g>
</g>
<g>
</g>
<g>
</g>
<g>
</g>
<g>
</g>
<g>
</g>
<g>
</g>
<g>
</g>
<g>
</g>
<g>
</g>
<g>
</g>
<g>
</g>
<g>
</g>
<g>
</g>
<g>
</g>
<g>
</g>
</svg>
