<?xml version="1.0" encoding="UTF-8"?>
<svg width="254px" height="44px" viewBox="0 0 254 44" version="1.1" xmlns="http://www.w3.org/2000/svg" xmlns:xlink="http://www.w3.org/1999/xlink">
    <!-- Generator: Sketch 50.2 (55047) - http://www.bohemiancoding.com/sketch -->
    <title>Logo White</title>
    <desc>Created with Sketch.</desc>
    <defs>
        <polygon id="path-1" points="0 0.639241071 39.5057818 0.639241071 39.5057818 43.9766445 0 43.9766445"></polygon>
        <polygon id="path-3" points="0 45 253.656051 45 253.656051 1.02272727 0 1.02272727"></polygon>
    </defs>
    <g id="Planning-Tool" stroke="none" stroke-width="1" fill="none" fill-rule="evenodd">
        <g id="LandingPage" transform="translate(-592.000000, -238.000000)">
            <g id="General/LogoWhite" transform="translate(587.000000, 234.000000)">
                <g id="Group-18" transform="translate(5.006369, 3.333333)">
                    <g id="Group-3">
                        <mask id="mask-2" fill="white">
                            <use xlink:href="#path-1"></use>
                        </mask>
                        <g id="Clip-2"></g>
                        <path d="M19.7526506,5.11015909 L34.944779,13.7092865 L19.7526506,22.308414 L4.56052219,13.7092865 L19.7526506,5.11015909 Z M37.2244794,9.83614529 L22.032351,1.23701786 C21.3274542,0.838081169 20.5392514,0.638612825 19.7526506,0.638612825 C18.9660498,0.638612825 18.177847,0.838081169 17.4729502,1.23701786 L2.28082181,9.83614529 C0.86942614,10.6355893 -0.000480611465,12.1119692 -0.000480611465,13.7092865 L-0.000480611465,30.9075414 C-0.000480611465,32.5048588 0.86942614,33.9812386 2.28082181,34.779112 L17.4729502,43.3782394 C18.177847,43.7771761 18.9660498,43.9766445 19.7526506,43.9766445 C20.5392514,43.9766445 21.3274542,43.7771761 22.032351,43.3782394 L37.2244794,34.779112 C38.6358751,33.9812386 39.5057818,32.5048588 39.5057818,30.9075414 L39.5057818,13.7092865 C39.5057818,12.1119692 38.6358751,10.6355893 37.2244794,9.83614529 Z" id="Fill-1" fill="#3ED67E" mask="url(#mask-2)"></path>
                    </g>
                    <path d="M64.2176868,16.2512582 C62.9575036,16.2512582 62.0384839,16.6284229 61.4573631,17.3843438 C60.8778747,18.1402646 60.5775202,19.3863405 60.5546671,21.1257542 L60.5546671,21.6636516 C60.5546671,23.6194974 60.8533893,25.0215317 61.4492013,25.8697545 C62.0466457,26.7179772 62.9917832,27.1428843 64.2846137,27.1428843 C66.5699201,27.1428843 67.7125733,25.3048031 67.7125733,21.6318234 C67.7125733,19.8383016 67.4318071,18.4935582 66.8686423,17.5960016 C66.3054775,16.698445 65.4223698,16.2512582 64.2176868,16.2512582 M65.7227244,31.1691576 C63.5255655,31.1691576 61.8034238,30.3925484 60.5546671,28.8377385 L60.2869598,28.8377385 C60.4665196,30.3591287 60.5546671,31.2391798 60.5546671,31.4778916 L60.5546671,38.8636364 L55.455169,38.8636364 L55.455169,12.6164723 L59.6013678,12.6164723 L60.3212394,14.9797197 L60.5546671,14.9797197 C61.7479235,13.1750581 63.5157713,12.2727273 65.856578,12.2727273 C68.0635311,12.2727273 69.7922022,13.1050359 71.0409589,14.7680619 C72.2880833,16.4310878 72.9132778,18.7402271 72.9132778,21.6970713 C72.9132778,23.6417772 72.6210851,25.3318571 72.0350672,26.767311 C71.4506817,28.2011736 70.6165448,29.2944739 69.5359214,30.0440291 C68.4536655,30.7935843 67.1836881,31.1691576 65.7227244,31.1691576" id="Fill-4" fill="#FFFFFF"></path>
                    <mask id="mask-4" fill="white">
                        <use xlink:href="#path-3"></use>
                    </mask>
                    <g id="Clip-7"></g>
                    <polygon id="Fill-6" fill="#FFFFFF" mask="url(#mask-4)" points="77.0210681 31.7045455 82.155806 31.7045455 82.155806 6.13636364 77.0210681 6.13636364"></polygon>
                    <path d="M97.7013832,22.1513801 L95.7564769,22.2148437 C94.2957862,22.2566368 93.2083117,22.5104913 92.4940532,22.9748592 C91.7797948,23.4407749 91.4226656,24.1497099 91.4226656,25.1001162 C91.4226656,26.4638099 92.2350541,27.1464307 93.8614399,27.1464307 C95.0261315,27.1464307 95.9575631,26.8244689 96.654126,26.1789976 C97.3522975,25.5350741 97.7013832,24.6775414 97.7013832,23.6094953 L97.7013832,22.1513801 Z M99.1845956,30.366048 L98.2129467,27.9559787 L98.0810341,27.9559787 C97.2348631,28.9806838 96.362953,29.6911667 95.4685213,30.0874273 C94.5724809,30.4836879 93.4045719,30.6818182 91.9664029,30.6818182 C90.1968437,30.6818182 88.803718,30.1957798 87.7886345,29.223703 C86.7719424,28.2516262 86.2635963,26.866262 86.2635963,25.0691583 C86.2635963,23.1869205 86.9472896,21.8000084 88.3162849,20.9068742 C89.6836715,20.0137399 91.7460123,19.5184142 94.5033072,19.4239927 L97.7013832,19.3280234 L97.7013832,18.552529 C97.7013832,16.7538774 96.7458213,15.8560995 94.8346974,15.8560995 C93.3611372,15.8560995 91.6301866,16.2833179 89.6418456,17.1393027 L87.97846,13.8732486 C90.0987136,12.8052024 92.4490099,12.2727273 95.0309576,12.2727273 C97.5035144,12.2727273 99.3985514,12.7897235 100.717677,13.8252639 C102.035195,14.8623522 102.694757,16.4381072 102.694757,18.552529 L102.694757,30.366048 L99.1845956,30.366048 Z" id="Fill-8" fill="#FFFFFF" mask="url(#mask-4)"></path>
                    <path d="M123.233709,30.6818182 L118.377246,30.6818182 L118.377246,20.1276303 C118.377246,18.8245273 118.148798,17.8464112 117.693456,17.1948597 C117.23656,16.5433082 116.509257,16.2167437 115.511545,16.2167437 C114.15329,16.2167437 113.172673,16.6774048 112.566586,17.598727 C111.962054,18.5200492 111.65901,20.0471724 111.65901,22.1800964 L111.65901,30.6818182 L106.802548,30.6818182 L106.802548,12.6134903 L110.512108,12.6134903 L111.164817,14.9231063 L111.436779,14.9231063 C111.977594,14.0506899 112.723547,13.3912503 113.673082,12.9432101 C114.622618,12.4967474 115.702695,12.2727273 116.913314,12.2727273 C118.983333,12.2727273 120.552942,12.8422432 121.625249,13.97812 C122.697555,15.1155743 123.233709,16.7562851 123.233709,18.9002524 L123.233709,30.6818182 Z" id="Fill-9" fill="#FFFFFF" mask="url(#mask-4)"></path>
                    <path d="M145.826556,30.6818182 L140.970093,30.6818182 L140.970093,20.1276303 C140.970093,18.8245273 140.743199,17.8464112 140.286303,17.1948597 C139.829407,16.5433082 139.102103,16.2167437 138.104392,16.2167437 C136.746136,16.2167437 135.765519,16.6774048 135.159433,17.598727 C134.5549,18.5200492 134.251857,20.0471724 134.251857,22.1800964 L134.251857,30.6818182 L129.395394,30.6818182 L129.395394,12.6134903 L133.106509,12.6134903 L133.757663,14.9231063 L134.029625,14.9231063 C134.570441,14.0506899 135.316394,13.3912503 136.265929,12.9432101 C137.215465,12.4967474 138.295542,12.2727273 139.506161,12.2727273 C141.57618,12.2727273 143.145788,12.8422432 144.218095,13.97812 C145.290402,15.1155743 145.826556,16.7562851 145.826556,18.9002524 L145.826556,30.6818182 Z" id="Fill-10" fill="#FFFFFF" mask="url(#mask-4)"></path>
                    <path d="M151.162093,31.7045455 L155.880134,31.7045455 L155.880134,13.3336304 L151.162093,13.3336304 L151.162093,31.7045455 Z M150.961293,8.58410802 C150.961293,6.95281311 151.817335,6.13636364 153.529417,6.13636364 C155.23999,6.13636364 156.096031,6.95281311 156.096031,8.58410802 C156.096031,9.36206085 155.883153,9.96677883 155.454378,10.399866 C155.027112,10.8329531 154.385459,11.0494967 153.529417,11.0494967 C151.817335,11.0494967 150.961293,10.2282351 150.961293,8.58410802 Z" id="Fill-11" fill="#FFFFFF" mask="url(#mask-4)"></path>
                    <path d="M177.66193,30.6818182 L172.805468,30.6818182 L172.805468,20.1276303 C172.805468,18.8245273 172.578574,17.8464112 172.121678,17.1948597 C171.664782,16.5433082 170.937478,16.2167437 169.939766,16.2167437 C168.581511,16.2167437 167.600894,16.6774048 166.994808,17.598727 C166.390275,18.5200492 166.087232,20.0471724 166.087232,22.1800964 L166.087232,30.6818182 L161.230769,30.6818182 L161.230769,12.6134903 L164.941884,12.6134903 L165.593038,14.9231063 L165.865,14.9231063 C166.405816,14.0506899 167.151768,13.3912503 168.101304,12.9432101 C169.05084,12.4967474 170.130917,12.2727273 171.341536,12.2727273 C173.411554,12.2727273 174.981163,12.8422432 176.05347,13.97812 C177.125777,15.1155743 177.66193,16.7562851 177.66193,18.9002524 L177.66193,30.6818182 Z" id="Fill-12" fill="#FFFFFF" mask="url(#mask-4)"></path>
                    <path d="M186.893785,18.5826773 C186.893785,19.5709443 187.121126,20.3539192 187.574207,20.9300105 C188.028889,21.5061018 188.720517,21.7941474 189.649093,21.7941474 C190.590476,21.7941474 191.278903,21.5061018 191.715974,20.9300105 C192.153045,20.3539192 192.372381,19.5709443 192.372381,18.5826773 C192.372381,16.3865282 191.464618,15.2900451 189.649093,15.2900451 C187.812755,15.2900451 186.893785,16.3865282 186.893785,18.5826773 Z M185.073457,33.4194147 C185.073457,34.103722 185.404863,34.6416194 186.066072,35.0331068 C186.727282,35.4245943 187.654257,35.620338 188.845395,35.620338 C190.638506,35.620338 192.044177,35.3752605 193.060807,34.8851055 C194.077437,34.3965419 194.586553,33.7281487 194.586553,32.8799259 C194.586553,32.1956186 194.285566,31.7229691 193.685194,31.4619775 C193.083221,31.2009859 192.153045,31.07049 190.896266,31.07049 L188.304259,31.07049 C187.38529,31.07049 186.618415,31.2853307 186.000432,31.7150121 C185.382449,32.1446934 185.073457,32.7112362 185.073457,33.4194147 Z M199.227829,12.6148809 L199.227829,15.1420438 L196.35725,15.8756849 C196.882376,16.6920794 197.144939,17.6039587 197.144939,18.6160969 C197.144939,20.5719427 196.458113,22.0965158 195.086063,23.1882246 C193.714012,24.2799335 191.808831,24.8273794 189.37052,24.8273794 L188.469162,24.7780456 L187.731104,24.6968836 C187.217186,25.0867796 186.959426,25.5228266 186.959426,26.0002503 C186.959426,26.7179772 187.878396,27.076045 189.714734,27.076045 L192.831866,27.076045 C194.842712,27.076045 196.376462,27.5057264 197.431516,28.365089 C198.48657,29.2228603 199.014898,30.4848503 199.014898,32.1462848 C199.014898,34.2771859 198.121544,35.929072 196.333236,37.1035343 C194.544927,38.2764052 191.978537,38.8636364 188.632463,38.8636364 C186.074077,38.8636364 184.119266,38.4212237 182.769629,37.534807 C181.418392,36.6499818 180.742773,35.4070887 180.742773,33.8093107 C180.742773,32.7112362 181.088587,31.7945827 181.777014,31.0545759 C182.465441,30.3161606 183.477268,29.7894031 184.810894,29.472712 C184.296976,29.25628 183.848698,28.8998036 183.466061,28.4048743 C183.083424,27.9115365 182.891305,27.3863704 182.891305,26.8325589 C182.891305,26.1371117 183.094631,25.5578376 183.498081,25.0963281 C183.903132,24.6332271 184.487494,24.1796745 185.254369,23.7340791 C184.292173,23.3219033 183.5285,22.6582843 182.966551,21.7448136 C182.403002,20.8329343 182.121227,19.7555482 182.121227,18.5174294 C182.121227,16.5281639 182.77123,14.9908596 184.072837,13.9039249 C185.374444,12.8169903 187.233196,12.2727273 189.649093,12.2727273 C190.163011,12.2727273 190.77299,12.3188782 191.479027,12.4111801 C192.183464,12.5034821 192.634943,12.5719128 192.831866,12.6148809 L199.227829,12.6148809 Z" id="Fill-13" fill="#FFFFFF" mask="url(#mask-4)"></path>
                    <path d="M206.727564,30.2601208 C207.786001,30.2601208 208.709248,30.1719484 209.497305,29.9972067 L209.497305,31.3117774 C208.686167,31.5746915 207.751379,31.7045455 206.692942,31.7045455 C205.072314,31.7045455 203.87539,31.2829209 203.105467,30.4412751 C202.333897,29.598026 201.948111,28.2722334 201.948111,26.4655002 L201.948111,14.9373563 L199.227829,14.9373563 L199.227829,13.9834909 L201.948111,13.2444457 L202.792223,9.20454545 L203.652821,9.20454545 L203.652821,13.5249943 L209.042276,13.5249943 L209.042276,14.9373563 L203.652821,14.9373563 L203.652821,26.2362519 C203.652821,27.6053292 203.901768,28.6169074 204.396365,29.2741928 C204.89261,29.9314781 205.669127,30.2601208 206.727564,30.2601208" id="Fill-14" fill="#FFFFFF" mask="url(#mask-4)"></path>
                    <path d="M213.217281,22.4840697 C213.217281,24.9214104 213.742425,26.8218989 214.794275,28.1871283 C215.846125,29.5523577 217.332469,30.2357689 219.253307,30.2357689 C221.175708,30.2357689 222.660489,29.5523577 223.712339,28.1871283 C224.76419,26.8218989 225.289333,24.9214104 225.289333,22.4840697 C225.289333,20.0355777 224.759501,18.1366822 223.69671,16.7873832 C222.633919,15.4396771 221.142887,14.7642311 219.222049,14.7642311 C217.299648,14.7642311 215.819555,15.4364911 214.778646,16.779418 C213.737736,18.123938 213.217281,20.0260195 213.217281,22.4840697 M226.955414,22.4840697 C226.955414,25.3786109 226.266163,27.6391249 224.889224,29.2656117 C223.512285,30.8920986 221.611765,31.7045455 219.189227,31.7045455 C217.662247,31.7045455 216.318129,31.3285896 215.155311,30.578271 C213.99093,29.8279524 213.100062,28.751062 212.481142,27.3475998 C211.862223,25.9441376 211.5512,24.3224299 211.5512,22.4840697 C211.5512,19.5895285 212.240451,17.3353866 213.617391,15.7184579 C214.99433,14.1031223 216.883909,13.2954545 219.286129,13.2954545 C221.677408,13.2954545 223.552921,14.1142736 224.914231,15.7519116 C226.273978,17.3895497 226.955414,19.6325404 226.955414,22.4840697" id="Fill-15" fill="#FFFFFF" mask="url(#mask-4)"></path>
                    <path d="M232.727891,22.4840697 C232.727891,24.9214104 233.253088,26.8218989 234.305045,28.1871283 C235.357002,29.5523577 236.843497,30.2357689 238.76453,30.2357689 C240.687125,30.2357689 242.172057,29.5523577 243.224014,28.1871283 C244.275971,26.8218989 244.801168,24.9214104 244.801168,22.4840697 C244.801168,20.0355777 244.271282,18.1366822 243.208383,16.7873832 C242.145485,15.4396771 240.654301,14.7642311 238.733268,14.7642311 C236.810672,14.7642311 235.330429,15.4364911 234.289414,16.779418 C233.248399,18.123938 232.727891,20.0260195 232.727891,22.4840697 M246.467418,22.4840697 C246.467418,25.3786109 245.778097,27.6391249 244.401018,29.2656117 C243.023939,30.8920986 241.123227,31.7045455 238.700443,31.7045455 C237.174871,31.7045455 235.829054,31.3285896 234.666118,30.578271 C233.501619,29.8279524 232.61066,28.751062 231.991677,27.3475998 C231.372695,25.9441376 231.063204,24.3224299 231.063204,22.4840697 C231.063204,19.5895285 231.750962,17.3353866 233.128041,15.7184579 C234.50512,14.1031223 236.394891,13.2954545 238.797354,13.2954545 C241.188876,13.2954545 243.064579,14.1142736 244.426027,15.7519116 C245.785912,17.3895497 246.467418,19.6325404 246.467418,22.4840697" id="Fill-16" fill="#FFFFFF" mask="url(#mask-4)"></path>
                    <polygon id="Fill-17" fill="#FFFFFF" mask="url(#mask-4)" points="251.602156 31.7045455 253.656051 31.7045455 253.656051 6.13636364 251.602156 6.13636364"></polygon>
                </g>
            </g>
        </g>
    </g>
</svg>