<?xml version="1.0" encoding="UTF-8"?>
<svg width="152px" height="27px" viewBox="0 0 152 27" version="1.1" xmlns="http://www.w3.org/2000/svg" xmlns:xlink="http://www.w3.org/1999/xlink">
    <!-- Generator: Sketch 50.2 (55047) - http://www.bohemiancoding.com/sketch -->
    <title>Group 18</title>
    <desc>Created with Sketch.</desc>
    <defs>
        <polygon id="path-1" points="0 0.383544643 23.673312 0.383544643 23.673312 26.3859867 0 26.3859867"></polygon>
        <polygon id="path-3" points="0 27 152 27 152 0.613636364 0 0.613636364"></polygon>
    </defs>
    <g id="Symbols" stroke="none" stroke-width="1" fill="none" fill-rule="evenodd">
        <g id="General/LogoDark" transform="translate(-3.000000, -2.000000)">
            <g id="Group-18" transform="translate(3.000000, 2.000000)">
                <g id="Group-3">
                    <mask id="mask-2" fill="white">
                        <use xlink:href="#path-1"></use>
                    </mask>
                    <g id="Clip-2"></g>
                    <path d="M11.836512,3.06609545 L20.940192,8.22557192 L11.836512,13.3850484 L2.732832,8.22557192 L11.836512,3.06609545 Z M22.306272,5.90168718 L13.202592,0.742210714 C12.780192,0.502848701 12.307872,0.383167695 11.836512,0.383167695 C11.365152,0.383167695 10.892832,0.502848701 10.470432,0.742210714 L1.366752,5.90168718 C0.520992,6.38135357 -0.000288,7.26718149 -0.000288,8.22557192 L-0.000288,18.5445248 C-0.000288,19.5029153 0.520992,20.3887432 1.366752,20.8674672 L10.470432,26.0269437 C10.892832,26.2663057 11.365152,26.3859867 11.836512,26.3859867 C12.307872,26.3859867 12.780192,26.2663057 13.202592,26.0269437 L22.306272,20.8674672 C23.152032,20.3887432 23.673312,19.5029153 23.673312,18.5445248 L23.673312,8.22557192 C23.673312,7.26718149 23.152032,6.38135357 22.306272,5.90168718 Z" id="Fill-1" fill="#3ED67E" mask="url(#mask-2)"></path>
                </g>
                <path d="M38.481591,9.7507549 C37.726443,9.7507549 37.1757327,9.97705374 36.8275039,10.4306063 C36.4802532,10.8841588 36.3002697,11.6318043 36.2865753,12.6754525 L36.2865753,12.998191 C36.2865753,14.1716984 36.4655806,15.012919 36.822613,15.5218527 C37.1806236,16.0307863 37.7469846,16.2857306 38.521696,16.2857306 C39.8911353,16.2857306 40.575855,15.1828818 40.575855,12.979094 C40.575855,11.902981 40.4076096,11.0961349 40.0701406,10.557601 C39.7326716,10.019067 39.2034811,9.7507549 38.481591,9.7507549 M39.3834646,18.7014946 C38.0668465,18.7014946 37.0348761,18.235529 36.2865753,17.3026431 L36.1261553,17.3026431 C36.2337541,18.2154772 36.2865753,18.7435079 36.2865753,18.886735 L36.2865753,23.3181818 L33.2307692,23.3181818 L33.2307692,7.56988341 L35.7153235,7.56988341 L36.1466969,8.98783182 L36.2865753,8.98783182 C37.0016183,7.90503485 38.0609775,7.36363636 39.4636746,7.36363636 C40.7861618,7.36363636 41.8220448,7.86302156 42.5703456,8.86083711 C43.3176682,9.85865266 43.6923077,11.2441363 43.6923077,13.0182428 C43.6923077,14.1850663 43.5172151,15.1991142 43.1660517,16.0603866 C42.8158665,16.9207041 42.3160211,17.5766843 41.668472,18.0264174 C41.0199446,18.4761506 40.2589276,18.7014946 39.3834646,18.7014946" id="Fill-4" fill="#12111D"></path>
                <mask id="mask-4" fill="white">
                    <use xlink:href="#path-3"></use>
                </mask>
                <g id="Clip-7"></g>
                <polygon id="Fill-6" fill="#12111D" mask="url(#mask-4)" points="46.1538462 19.0227273 49.2307692 19.0227273 49.2307692 3.68181818 46.1538462 3.68181818"></polygon>
                <path d="M58.5462487,13.2908281 L57.3807896,13.3289062 C56.5054902,13.3539821 55.8538356,13.5062948 55.4258258,13.7849155 C54.997816,14.064465 54.7838111,14.4898259 54.7838111,15.0600697 C54.7838111,15.8782859 55.270624,16.2878584 56.245214,16.2878584 C56.9431399,16.2878584 57.5012878,16.0946814 57.9186938,15.7073985 C58.3370638,15.3210445 58.5462487,14.8065248 58.5462487,14.1656972 L58.5462487,13.2908281 Z M59.4350439,18.2196288 L58.8527963,16.7735872 L58.7737495,16.7735872 C58.2666928,17.3884103 57.7442123,17.8147 57.2082361,18.0524564 C56.6712958,18.2902127 55.9714419,18.4090909 55.1096384,18.4090909 C54.0492537,18.4090909 53.2144417,18.1174679 52.6061665,17.5342218 C51.9969273,16.9509757 51.6923077,16.1197572 51.6923077,15.041495 C51.6923077,13.9121523 52.1020018,13.080005 52.9223539,12.5441245 C53.7417421,12.008244 54.9775723,11.7110485 56.6298444,11.6543956 L58.5462487,11.596814 L58.5462487,11.1315174 C58.5462487,10.0523264 57.973641,9.51365968 56.8284255,9.51365968 C55.9454143,9.51365968 54.9081653,9.76999075 53.7166785,10.2835816 L52.7199169,8.32394915 C53.9904505,7.68312147 55.3988342,7.36363636 56.9460318,7.36363636 C58.4276785,7.36363636 59.5632541,7.67383411 60.3537226,8.29515834 C61.1432272,8.91741131 61.5384615,9.86286433 61.5384615,11.1315174 L61.5384615,18.2196288 L59.4350439,18.2196288 Z" id="Fill-8" fill="#12111D" mask="url(#mask-4)"></path>
                <path d="M73.8461538,18.4090909 L70.9359835,18.4090909 L70.9359835,12.0765782 C70.9359835,11.2947164 70.7990891,10.7078467 70.5262315,10.3169158 C70.2524427,9.92598493 69.8166156,9.7300462 69.2187502,9.7300462 C68.4048338,9.7300462 67.8172122,10.0064429 67.4540229,10.5592362 C67.0917649,11.1120295 66.9101703,12.0283034 66.9101703,13.3080579 L66.9101703,18.4090909 L64,18.4090909 L64,7.56809417 L66.2229045,7.56809417 L66.6140314,8.95386377 L66.7770009,8.95386377 C67.1010775,8.43041392 67.5480797,8.03475019 68.1170762,7.76592604 C68.6860727,7.49804844 69.3332945,7.36363636 70.0587418,7.36363636 C71.2991728,7.36363636 72.2397398,7.70534594 72.8823054,8.38687198 C73.524871,9.06934457 73.8461538,10.0537711 73.8461538,11.3401515 L73.8461538,18.4090909 Z" id="Fill-9" fill="#12111D" mask="url(#mask-4)"></path>
                <path d="M87.3846154,18.4090909 L84.4744451,18.4090909 L84.4744451,12.0765782 C84.4744451,11.2947164 84.3384819,10.7078467 84.0646931,10.3169158 C83.7909043,9.92598493 83.3550772,9.7300462 82.7572118,9.7300462 C81.9432953,9.7300462 81.3556737,10.0064429 80.9924845,10.5592362 C80.6302265,11.1120295 80.4486319,12.0283034 80.4486319,13.3080579 L80.4486319,18.4090909 L77.5384615,18.4090909 L77.5384615,7.56809417 L79.7622973,7.56809417 L80.1524929,8.95386377 L80.3154625,8.95386377 C80.639539,8.43041392 81.0865412,8.03475019 81.6555377,7.76592604 C82.2245342,7.49804844 82.8717561,7.36363636 83.5972033,7.36363636 C84.8376343,7.36363636 85.7782014,7.70534594 86.420767,8.38687198 C87.0633326,9.06934457 87.3846154,10.0537711 87.3846154,11.3401515 L87.3846154,18.4090909 Z" id="Fill-10" fill="#12111D" mask="url(#mask-4)"></path>
                <path d="M90.5818651,19.0227273 L93.4090878,19.0227273 L93.4090878,8.00017823 L90.5818651,8.00017823 L90.5818651,19.0227273 Z M90.4615385,5.15046481 C90.4615385,4.17168786 90.9745098,3.68181818 92.0004524,3.68181818 C93.0254902,3.68181818 93.5384615,4.17168786 93.5384615,5.15046481 C93.5384615,5.61723651 93.4108972,5.9800673 93.1539592,6.23991958 C92.8979259,6.49977187 92.5134237,6.62969802 92.0004524,6.62969802 C90.9745098,6.62969802 90.4615385,6.13694109 90.4615385,5.15046481 Z" id="Fill-11" fill="#12111D" mask="url(#mask-4)"></path>
                <path d="M106.461538,18.4090909 L103.551368,18.4090909 L103.551368,12.0765782 C103.551368,11.2947164 103.415405,10.7078467 103.141616,10.3169158 C102.867827,9.92598493 102.432,9.7300462 101.834135,9.7300462 C101.020218,9.7300462 100.432597,10.0064429 100.069408,10.5592362 C99.7071496,11.1120295 99.5255549,12.0283034 99.5255549,13.3080579 L99.5255549,18.4090909 L96.6153846,18.4090909 L96.6153846,7.56809417 L98.8392204,7.56809417 L99.229416,8.95386377 L99.3923855,8.95386377 C99.7164621,8.43041392 100.163464,8.03475019 100.732461,7.76592604 C101.301457,7.49804844 101.948679,7.36363636 102.674126,7.36363636 C103.914557,7.36363636 104.855124,7.70534594 105.49769,8.38687198 C106.140256,9.06934457 106.461538,10.0537711 106.461538,11.3401515 L106.461538,18.4090909 Z" id="Fill-12" fill="#12111D" mask="url(#mask-4)"></path>
                <path d="M111.993604,11.1496064 C111.993604,11.7425666 112.129835,12.2123515 112.401338,12.5580063 C112.6738,12.9036611 113.088249,13.0764884 113.644685,13.0764884 C114.208797,13.0764884 114.621327,12.9036611 114.883236,12.5580063 C115.145145,12.2123515 115.276579,11.7425666 115.276579,11.1496064 C115.276579,9.83191693 114.732615,9.17402706 113.644685,9.17402706 C112.544284,9.17402706 111.993604,9.83191693 111.993604,11.1496064 Z M110.902797,20.0516488 C110.902797,20.4622332 111.101387,20.7849716 111.497608,21.0198641 C111.893829,21.2547566 112.449306,21.3722028 113.16308,21.3722028 C114.237578,21.3722028 115.079908,21.2251563 115.68911,20.9310633 C116.298312,20.6379251 116.603392,20.2368892 116.603392,19.7279555 C116.603392,19.3173712 116.42303,19.0337815 116.063265,18.8771865 C115.702541,18.7205915 115.145145,18.642294 114.392037,18.642294 L112.838812,18.642294 C112.288132,18.642294 111.828592,18.7711984 111.458274,19.0290072 C111.087956,19.286816 110.902797,19.6267417 110.902797,20.0516488 Z M119.384615,7.56892856 L119.384615,9.08522625 L117.664459,9.52541091 C117.979134,10.0152476 118.136471,10.5623752 118.136471,11.1696582 C118.136471,12.3431656 117.7249,13.2579095 116.902717,13.9129348 C116.080534,14.5679601 114.93888,14.8964276 113.477755,14.8964276 L112.937627,14.8668273 L112.495356,14.8181301 C112.187398,15.0520677 112.032938,15.3136959 112.032938,15.6001502 C112.032938,16.0307863 112.583619,16.245627 113.68402,16.245627 L115.551919,16.245627 C116.756892,16.245627 117.675972,16.5034358 118.308199,17.0190534 C118.940426,17.5337162 119.257019,18.2909102 119.257019,19.2877709 C119.257019,20.5663116 118.721688,21.5574432 117.650069,22.2621206 C116.578449,22.9658431 115.040573,23.3181818 113.035483,23.3181818 C111.502405,23.3181818 110.33101,23.0527342 109.522259,22.5208842 C108.712548,21.9899891 108.307692,21.2442532 108.307692,20.2855864 C108.307692,19.6267417 108.514917,19.0767496 108.927447,18.6327456 C109.339978,18.1896964 109.946302,17.8736419 110.74546,17.6836272 C110.437501,17.553768 110.168876,17.3398822 109.939586,17.0429246 C109.710296,16.7469219 109.595171,16.4318223 109.595171,16.0995354 C109.595171,15.682267 109.717012,15.3347026 109.958774,15.0577968 C110.201495,14.7799362 110.551666,14.5078047 111.011206,14.2404474 C110.434623,13.993142 109.977002,13.5949706 109.640262,13.0468882 C109.302562,12.4997606 109.133713,11.8533289 109.133713,11.1104576 C109.133713,9.91689835 109.523218,8.99451575 110.303189,8.34235496 C111.083159,7.69019418 112.196991,7.36363636 113.644685,7.36363636 C113.952644,7.36363636 114.318165,7.39132694 114.741249,7.44670809 C115.163373,7.50208924 115.433917,7.54314768 115.551919,7.56892856 L119.384615,7.56892856 Z" id="Fill-13" fill="#12111D" mask="url(#mask-4)"></path>
                <path d="M123.878731,18.1560725 C124.512985,18.1560725 125.066229,18.103169 125.538462,17.998324 L125.538462,18.7870664 C125.052398,18.9448149 124.492239,19.0227273 123.857984,19.0227273 C122.886844,19.0227273 122.169604,18.7697526 121.708238,18.264765 C121.245885,17.7588156 121.014708,16.96334 121.014708,15.8793001 L121.014708,8.96241377 L119.384615,8.96241377 L119.384615,8.39009457 L121.014708,7.94666742 L121.520531,5.52272727 L122.036233,5.52272727 L122.036233,8.1149966 L125.265792,8.1149966 L125.265792,8.96241377 L122.036233,8.96241377 L122.036233,15.7417511 C122.036233,16.5631975 122.185411,17.1701444 122.481791,17.5645157 C122.77916,17.9588869 123.244477,18.1560725 123.878731,18.1560725" id="Fill-14" fill="#12111D" mask="url(#mask-4)"></path>
                <path d="M127.767607,13.4904418 C127.767607,14.9528462 128.082293,16.0931393 128.7126,16.912277 C129.342907,17.7314146 130.233579,18.1414613 131.384615,18.1414613 C132.536588,18.1414613 133.426324,17.7314146 134.056631,16.912277 C134.686938,16.0931393 135.001623,14.9528462 135.001623,13.4904418 C135.001623,12.0213466 134.684128,10.8820093 134.047265,10.0724299 C133.410402,9.26380629 132.516921,8.85853866 131.365884,8.85853866 C130.213911,8.85853866 129.326986,9.26189465 128.703234,10.0676508 C128.079483,10.8743628 127.767607,12.0156117 127.767607,13.4904418 M136,13.4904418 C136,15.2271665 135.586976,16.5834749 134.761863,17.559367 C133.936751,18.5352591 132.79789,19.0227273 131.346216,19.0227273 C130.431194,19.0227273 129.625749,18.7971538 128.928946,18.3469626 C128.231206,17.8967715 127.697365,17.2506372 127.326486,16.4085599 C126.955607,15.5664826 126.769231,14.5934579 126.769231,13.4904418 C126.769231,11.7537171 127.182255,10.4012319 128.007368,9.43107477 C128.83248,8.46187341 129.964785,7.97727273 131.404283,7.97727273 C132.837225,7.97727273 133.961101,8.46856415 134.776848,9.45114698 C135.591658,10.4337298 136,11.7795242 136,13.4904418" id="Fill-15" fill="#12111D" mask="url(#mask-4)"></path>
                <path d="M139.45908,13.4904418 C139.45908,14.9528462 139.773797,16.0931393 140.404168,16.912277 C141.034539,17.7314146 141.925301,18.1414613 143.076455,18.1414613 C144.228545,18.1414613 145.11837,17.7314146 145.748741,16.912277 C146.379113,16.0931393 146.69383,14.9528462 146.69383,13.4904418 C146.69383,12.0213466 146.376303,10.8820093 145.739375,10.0724299 C145.102447,9.26380629 144.208875,8.85853866 143.057722,8.85853866 C141.905632,8.85853866 141.018616,9.26189465 140.394802,10.0676508 C139.770987,10.8743628 139.45908,12.0156117 139.45908,13.4904418 M147.692308,13.4904418 C147.692308,15.2271665 147.279241,16.5834749 146.454045,17.559367 C145.628849,18.5352591 144.489872,19.0227273 143.038052,19.0227273 C142.123873,19.0227273 141.31741,18.7971538 140.620536,18.3469626 C139.922726,17.8967715 139.38883,17.2506372 139.017914,16.4085599 C138.646997,15.5664826 138.461538,14.5934579 138.461538,13.4904418 C138.461538,11.7537171 138.873668,10.4012319 139.698864,9.43107477 C140.52406,8.46187341 141.656481,7.97727273 143.096125,7.97727273 C144.529212,7.97727273 145.653202,8.46856415 146.469032,9.45114698 C147.283925,10.4337298 147.692308,11.7795242 147.692308,13.4904418" id="Fill-16" fill="#12111D" mask="url(#mask-4)"></path>
                <polygon id="Fill-17" fill="#12111D" mask="url(#mask-4)" points="150.769231 19.0227273 152 19.0227273 152 3.68181818 150.769231 3.68181818"></polygon>
            </g>
        </g>
    </g>
</svg>