<?xml version="1.0" encoding="UTF-8" standalone="no"?>
<svg
   xmlns:dc="http://purl.org/dc/elements/1.1/"
   xmlns:cc="http://creativecommons.org/ns#"
   xmlns:rdf="http://www.w3.org/1999/02/22-rdf-syntax-ns#"
   xmlns:svg="http://www.w3.org/2000/svg"
   xmlns="http://www.w3.org/2000/svg"
   width="640"
   height="512"
   viewBox="0 0 169.33333 135.46667"
   version="1.1"
   id="svg8">
  <defs
     id="defs2" />
  <metadata
     id="metadata5">
    <rdf:RDF>
      <cc:Work
         rdf:about="">
        <dc:format>image/svg+xml</dc:format>
        <dc:type
           rdf:resource="http://purl.org/dc/dcmitype/StillImage" />
        <dc:title></dc:title>
      </cc:Work>
    </rdf:RDF>
  </metadata>
  <g
     id="layer1">
    <path
       id="path14-3"
       style="fill:#000000;fill-opacity:0.5;stroke-width:0.0097745"
       d="m 84.676458,19.843752 c -0.949251,-1.19e-4 -1.898373,0.07973 -2.11339,0.239078 -0.243364,0.168134 -0.468058,1.02898 -0.841405,3.217662 l -0.505166,2.993502 -1.590485,0.206016 c -0.879615,0.130993 -1.776544,0.243512 -1.982764,0.243512 -0.336206,0.01859 -0.579502,-0.411705 -1.590085,-2.618961 -0.654823,-1.459448 -1.365717,-2.768173 -1.571935,-2.899161 -0.317638,-0.206258 -0.635923,-0.168028 -2.206521,0.24351 -1.309652,0.35582 -1.889268,0.598955 -2.038805,0.859954 -0.186675,0.355817 0.03699,3.79792 0.337046,5.668906 0.112395,0.5611 0.07519,0.598134 -1.084917,1.066373 -0.636254,0.261973 -1.496361,0.598113 -1.870682,0.767222 l -0.691835,0.29915 -1.889227,-2.319411 c -1.047719,-1.291314 -2.038821,-2.376601 -2.206926,-2.41375 -0.355759,-0.07525 -2.899672,1.197454 -3.53495,1.795698 -0.243357,0.206259 -0.430175,0.467336 -0.430175,0.57975 0,0.112417 0.467304,1.421347 1.029279,2.918919 0.561,1.496593 1.02928,2.768281 1.02928,2.824979 0,0.09384 -1.646026,1.40292 -2.899965,2.301267 -0.149534,0.112415 -0.972291,-0.374297 -2.618153,-1.53364 -1.49632,-1.085058 -2.56259,-1.721517 -2.861663,-1.721517 -0.67339,0 -3.030992,2.357885 -3.030992,3.031398 0,0.280553 0.636303,1.346962 1.684019,2.824981 0.935326,1.291315 1.68281,2.394721 1.68281,2.450441 0,0.07428 -0.35571,0.561336 -0.804313,1.103864 -0.430035,0.523958 -0.953663,1.215975 -1.178452,1.515095 L 50.503,44.031251 47.71552,42.96246 c -1.552033,-0.579673 -2.899443,-1.047828 -2.992289,-1.047827 -0.112395,0 -0.374506,0.186796 -0.579751,0.411631 -0.598139,0.654941 -1.870545,3.199462 -1.795293,3.554306 0.03714,0.168132 1.121859,1.160405 2.41294,2.207327 1.291079,1.047911 2.319455,1.964917 2.282317,2.039213 -0.03713,0.05572 -0.392874,0.898076 -0.785768,1.85214 l -0.729326,1.740062 -0.673285,-0.09394 c -0.374325,-0.0567 -1.758435,-0.20626 -3.068084,-0.317696 -2.020183,-0.186709 -2.450232,-0.186762 -2.656452,0.03708 -0.130966,0.149564 -0.466994,1.066567 -0.728922,2.039213 -0.411466,1.515162 -0.430212,1.833998 -0.224966,2.151692 0.130964,0.206258 1.440779,0.916998 2.899964,1.571941 2.205878,1.010766 2.635915,1.254047 2.617345,1.591296 0,0.205266 -0.112543,1.103395 -0.24351,1.983169 l -0.206018,1.590488 -2.974147,0.505567 c -1.627287,0.28055 -3.068124,0.599317 -3.217658,0.729329 -0.35478,0.28055 -0.373314,3.871839 -0.01854,4.340073 0.168102,0.243407 1.029371,0.468392 3.217657,0.841808 l 2.992693,0.505166 0.206019,1.590488 c 0.130965,0.879771 0.243509,1.777315 0.243509,1.983573 0.01859,0.337243 -0.411699,0.579319 -2.618554,1.590083 -1.459185,0.654944 -2.768597,1.365686 -2.899562,1.57194 -0.20622,0.3177 -0.168354,0.636446 0.243109,2.207332 0.355758,1.291311 0.598421,1.889651 0.860353,2.039211 0.337186,0.168132 3.273067,2.9e-5 5.573753,-0.336241 l 0.673286,-0.09394 0.729325,1.740054 c 0.392894,0.95407 0.748626,1.77728 0.785767,1.85255 0.01859,0.0557 -0.991237,0.97232 -2.282315,2.03881 -1.29108,1.0479 -2.375802,2.03939 -2.412941,2.22708 -0.07525,0.33725 1.215723,2.88081 1.795292,3.53576 0.206222,0.22484 0.467332,0.41123 0.598297,0.41123 0.112395,0 1.402455,-0.4672 2.880209,-1.02928 1.477754,-0.56111 2.749316,-1.02928 2.824574,-1.02928 0.112393,0 1.346542,1.55237 2.319002,2.90037 0.112397,0.14956 -0.374096,0.9728 -1.533234,2.61896 -1.084861,1.4966 -1.721111,2.56294 -1.721111,2.86207 0,0.673532 2.357198,3.030202 3.030589,3.030202 0.280503,0 1.34682,-0.63631 2.824572,-1.68321 1.291082,-0.93551 2.394701,-1.683232 2.468982,-1.683232 0.130961,0 2.973877,2.263792 3.049134,2.413362 0.01859,0.0743 -0.411408,1.34695 -0.990979,2.82496 -0.560997,1.49662 -1.02928,2.78797 -1.02928,2.90039 0,0.13098 0.186818,0.39325 0.430179,0.59952 0.63625,0.5992 3.18017,1.87094 3.534948,1.79568 0.168104,-0.037 1.160192,-1.12243 2.206922,-2.41375 l 1.889234,-2.31941 0.691829,0.29876 c 0.374329,0.16813 1.234429,0.50565 1.870684,0.76763 1.160115,0.46821 1.197315,0.50527 1.084919,1.06637 -0.05571,0.31767 -0.186731,1.70287 -0.317695,3.06847 -0.186677,2.09584 -0.168154,2.54432 0.03709,2.7496 0.149535,0.13098 1.066337,0.46735 2.038803,0.72932 1.514895,0.41154 1.833647,0.43001 2.151289,0.22376 0.20622,-0.13099 0.916718,-1.4405 1.571534,-2.89996 1.009605,-2.20727 1.252895,-2.63853 1.590083,-2.61896 0.206221,0 1.103551,0.11251 1.983167,0.2435 l 1.590083,0.20522 0.505166,2.99309 c 0.374321,2.18868 0.598448,3.04992 0.841809,3.21807 0.430035,0.31769 3.796745,0.31769 4.226778,0 0.243361,-0.16815 0.468462,-1.02939 0.841808,-3.21807 l 0.505166,-2.99309 1.590083,-0.20522 c 0.879616,-0.13099 1.776941,-0.2435 1.983168,-0.2435 0.336203,-0.0186 0.579498,0.41169 1.59008,2.61896 0.654822,1.45946 1.365314,2.76897 1.571537,2.89996 0.317635,0.20625 0.636319,0.16842 2.206923,-0.2431 1.271536,-0.35485 1.889265,-0.59839 2.038807,-0.86037 0.168099,-0.33627 -0.01861,-3.46155 -0.336242,-5.57497 l -0.09394,-0.67327 1.178854,-0.48784 c 0.654821,-0.26196 1.477791,-0.59907 1.870681,-0.76721 l 0.67329,-0.29917 1.90777,2.33796 c 1.04772,1.27177 2.03862,2.35707 2.22628,2.3952 0.33621,0.0753 2.88052,-1.21601 3.53535,-1.79569 0.22479,-0.20627 0.41123,-0.46733 0.41123,-0.57976 0,-0.0938 -0.46827,-1.44084 -1.04782,-2.956 -0.56101,-1.53374 -1.01055,-2.84362 -0.97244,-2.93746 0.0371,-0.13098 1.38419,-1.27185 2.60001,-2.207342 0.24337,-0.20528 0.67307,0.0369 2.78709,1.533642 1.55203,1.10364 2.67508,1.77716 2.95558,1.77716 0.67339,0 3.02976,-2.37622 3.02976,-3.030202 0,-0.29913 -0.63622,-1.36547 -1.72109,-2.86207 -1.1601,-1.64616 -1.64563,-2.4694 -1.53323,-2.61896 0.89817,-1.25318 2.20662,-2.90037 2.30045,-2.90037 0.0556,0 1.32825,0.4672 2.82457,1.02928 1.49633,0.56109 2.8061,1.02928 2.91849,1.02928 0.11241,0 0.37413,-0.18639 0.57937,-0.41123 0.57957,-0.65495 1.87096,-3.19949 1.7957,-3.53576 -0.037,-0.18671 -1.12228,-1.17918 -2.41335,-2.22708 -1.29109,-1.06649 -2.30049,-1.98309 -2.28191,-2.03881 0.037,-0.0753 0.39288,-0.89848 0.78575,-1.85255 l 0.72892,-1.740054 0.67329,0.09394 c 0.37433,0.05573 1.75843,0.205278 3.0681,0.317694 2.02019,0.186706 2.45023,0.186759 2.65645,-0.03709 0.13098,-0.149557 0.46797,-1.066573 0.72893,-2.039209 0.41146,-1.533737 0.43036,-1.815397 0.22415,-2.170237 -0.14953,-0.206261 -1.40266,-0.898428 -2.89996,-1.571944 -2.22542,-0.991213 -2.63672,-1.234293 -2.61815,-1.571536 0,-0.206258 0.11215,-1.103799 0.24309,-1.983573 l 0.20641,-1.590488 2.99271,-0.505168 c 2.18828,-0.374396 3.04916,-0.598399 3.21725,-0.841805 0.31765,-0.430113 0.31765,-3.797888 0,-4.227996 -0.16809,-0.243408 -1.02897,-0.467015 -3.21725,-0.84141 l -2.99271,-0.505565 -0.20641,-1.590487 c -0.13094,-0.87978 -0.24309,-1.776921 -0.24309,-1.983172 -0.0187,-0.33627 0.41128,-0.579724 2.61815,-1.590488 1.45918,-0.654942 2.769,-1.365682 2.89996,-1.571943 0.20621,-0.317696 0.16796,-0.636444 -0.24351,-2.207329 -0.35477,-1.271763 -0.599,-1.889243 -0.85995,-2.038806 -0.31764,-0.168135 -3.46111,0.01838 -5.57416,0.337047 l -0.67329,0.09394 -0.72891,-1.740062 c -0.39288,-0.954061 -0.74863,-1.795845 -0.78577,-1.852542 -0.037,-0.07526 0.99082,-0.9909 2.28191,-2.038808 1.29009,-1.04791 2.37523,-2.039196 2.41335,-2.20733 0.0753,-0.355822 -1.19756,-2.900342 -1.7957,-3.554305 -0.20621,-0.224831 -0.46792,-0.411631 -0.57937,-0.411631 -0.11239,0 -1.42119,0.467202 -2.91849,1.029281 -1.49729,0.562077 -2.76887,1.02928 -2.82457,1.02928 -0.0938,0 -1.40228,-1.645984 -2.30045,-2.89916 -0.1124,-0.149567 0.37411,-0.972817 1.53323,-2.618961 1.08487,-1.496597 1.72109,-2.56295 1.72109,-2.862072 0,-0.673516 -2.35637,-3.031399 -3.02976,-3.031399 -0.2805,0 -1.34682,0.636517 -2.82457,1.684424 -1.29108,0.91692 -2.3943,1.683215 -2.45003,1.683215 -0.0743,0 -0.56102,-0.35563 -1.10346,-0.804316 -0.52386,-0.430108 -1.21602,-0.972999 -1.51509,-1.179258 l -0.5608,-0.392683 1.06637,-2.787887 c 0.57957,-1.533742 1.06637,-2.880683 1.06637,-2.9931 0,-0.112418 -0.18683,-0.374471 -0.41163,-0.579751 -0.65483,-0.579674 -3.19874,-1.870969 -3.53495,-1.795699 -0.18667,0.03714 -1.17896,1.122063 -2.22668,2.394802 l -1.90778,2.338356 -0.67329,-0.299149 c -0.39289,-0.168133 -1.23443,-0.505651 -1.870682,-0.767626 -1.160115,-0.467258 -1.197314,-0.505272 -1.084917,-1.066372 0.05571,-0.317698 0.186729,-1.702888 0.317695,-3.068492 0.186681,-2.095821 0.168153,-2.544306 -0.03709,-2.749587 -0.149534,-0.130986 -1.066346,-0.467347 -2.038803,-0.729326 -1.514894,-0.411538 -1.833647,-0.430247 -2.151288,-0.224965 -0.205242,0.130989 -0.91671,1.441092 -1.571535,2.899565 -1.009603,2.207255 -1.252897,2.638108 -1.590083,2.618558 -0.205244,0 -1.103551,-0.11212 -1.983169,-0.243108 L 88.136823,26.2948 87.631655,23.301699 C 87.257326,21.113017 87.03361,20.251769 86.79025,20.083635 86.575231,19.923809 85.6257,19.843871 84.676456,19.843751 Z m -0.07299,14.862286 a 33.027257,33.027299 0 0 1 5.32e-4,0 33.027257,33.027299 0 0 1 0.0629,0 33.027257,33.027299 0 0 1 25.52033,12.062706 c -0.26804,0.09384 -0.54267,0.194367 -0.82407,0.301566 -0.53754,0.215022 -1.39764,0.416609 -2.58025,0.604747 -1.15573,0.161268 -2.47275,0.2419 -3.95102,0.2419 H 66.230858 c -1.478267,0 -2.795285,-0.08063 -3.951015,-0.2419 -1.155736,-0.188138 -2.015831,-0.389725 -2.580254,-0.604747 -0.210231,-0.08009 -0.412861,-0.152739 -0.615635,-0.225368 A 33.027257,33.027299 0 0 1 84.603484,34.706038 Z M 66.50178,54.522418 h 11.559542 v 5.825738 a 9.9081773,9.9081897 0 0 0 -3.302726,7.385182 9.9081773,9.9081897 0 0 0 3.302726,7.38518 v 14.08256 c 0,2.41899 -0.04033,4.23324 -0.12095,5.44274 -0.08063,1.20949 -0.282222,2.23085 -0.604745,3.06405 -0.236526,0.64507 -1.357372,0.95393 -3.6047,1.18973 a 33.027257,33.027299 0 0 1 -22.091408,-31.16426 33.027257,33.027299 0 0 1 0.05403,-1.880767 c 0.425708,0.320613 0.822472,0.584379 1.034521,0.632565 0.618185,0.134387 1.128862,0.201587 1.532027,0.201587 0.510671,0 0.806328,-0.147831 0.886963,-0.443485 0.483795,-3.010291 2.141618,-5.28967 3.996167,-7.574266 1.854554,-2.284594 5.100848,-4.146554 7.358563,-4.146554 z m 24.770445,0 h 11.559545 c 2.25771,0 5.50401,1.803904 7.35856,4.088498 1.88143,2.284597 3.53926,4.622031 3.99617,7.632322 0.0807,0.295654 0.3763,0.443485 0.88696,0.443485 0.43005,0 0.94072,-0.0672 1.53203,-0.201587 0.21209,-0.04819 0.60911,-0.31186 1.03492,-0.632565 a 33.027257,33.027299 0 0 1 0.0537,1.880767 33.027257,33.027299 0 0 1 -22.091806,31.16426 c -2.247091,-0.23579 -3.367814,-0.5447 -3.604322,-1.18973 -0.18814,-0.43003 -0.335971,-0.91385 -0.443481,-1.45139 -0.08062,-0.56443 -0.147831,-1.26326 -0.201584,-2.09646 -0.02688,-0.83321 -0.05376,-1.54548 -0.08062,-2.13678 v -2.82216 -14.08256 a 9.9081773,9.9081897 0 0 0 3.302725,-7.38518 9.9081773,9.9081897 0 0 0 -3.302725,-7.385182 z m -6.648994,8.256827 a 4.9540888,4.9540951 0 0 1 0.04354,0 4.9540888,4.9540951 0 0 1 4.954088,4.954093 4.9540888,4.9540951 0 0 1 -4.954088,4.954095 4.9540888,4.9540951 0 0 1 -4.954088,-4.954095 4.9540888,4.9540951 0 0 1 4.910546,-4.954093 z" />
    <path
       id="path14"
       style="fill:#ffffff;stroke-width:0.00972049"
       d="m 84.676397,20.108333 c -0.944008,-1.19e-4 -1.887886,0.07929 -2.101715,0.237757 -0.24202,0.167205 -0.465471,1.023295 -0.836756,3.199885 l -0.502373,2.976963 -1.581699,0.204879 c -0.874755,0.130268 -1.766728,0.242166 -1.971809,0.242166 -0.33435,0.01849 -0.5763,-0.409431 -1.581298,-2.604491 -0.651207,-1.451385 -1.358173,-2.75288 -1.563253,-2.883145 -0.315883,-0.205118 -0.632408,-0.167099 -2.19433,0.242166 -1.302416,0.353854 -1.878828,0.595645 -2.02754,0.855202 -0.185642,0.353852 0.03678,3.776938 0.335184,5.637587 0.111774,0.558 0.07478,0.594829 -1.078922,1.060481 -0.63274,0.260526 -1.488094,0.594809 -1.860348,0.762984 l -0.688012,0.297497 -1.87879,-2.306597 c -1.041929,-1.28418 -2.027555,-2.363471 -2.194731,-2.400414 -0.353793,-0.07484 -2.883651,1.190837 -3.515419,1.785777 -0.242013,0.205119 -0.427799,0.464754 -0.427799,0.576547 0,0.111796 0.464723,1.413494 1.023593,2.902792 0.5579,1.488325 1.023593,2.752987 1.023593,2.809372 0,0.09332 -1.636932,1.395169 -2.883942,2.288553 -0.148709,0.111794 -0.966919,-0.372229 -2.603688,-1.525167 -1.488053,-1.079063 -2.548432,-1.712006 -2.845852,-1.712006 -0.66967,0 -3.014246,2.344859 -3.014246,3.014651 0,0.279003 0.632787,1.339519 1.674715,2.809373 0.930158,1.28418 1.673512,2.38149 1.673512,2.436902 0,0.07387 -0.353744,0.558236 -0.799869,1.097766 -0.427659,0.521063 -0.948394,1.209257 -1.171941,1.506725 l -0.390914,0.539663 -2.772079,-1.062886 c -1.543458,-0.576471 -2.883424,-1.042039 -2.975757,-1.042038 -0.111774,0 -0.372436,0.185764 -0.576548,0.409357 -0.594834,0.651322 -1.86021,3.181785 -1.785374,3.534669 0.03694,0.167203 1.115661,1.153994 2.399609,2.195133 1.283945,1.04212 2.30664,1.954061 2.269707,2.027945 -0.03693,0.05541 -0.390703,0.893114 -0.781427,1.841908 l -0.725296,1.730449 -0.669565,-0.09342 c -0.372257,-0.05638 -1.74872,-0.20512 -3.051133,-0.315942 -2.009021,-0.185675 -2.436694,-0.185728 -2.641775,0.03688 -0.130242,0.148736 -0.464414,1.060675 -0.724895,2.027946 -0.409192,1.506792 -0.427835,1.823865 -0.223723,2.139805 0.130241,0.205118 1.432819,0.911931 2.883942,1.563256 2.19369,1.005179 2.621352,1.247118 2.602884,1.582503 0,0.204132 -0.111921,1.097298 -0.242165,1.972213 l -0.204879,1.5817 -2.957715,0.502774 c -1.618296,0.279002 -3.051173,0.596006 -3.199881,0.725299 -0.352819,0.279002 -0.371251,3.850449 -0.01844,4.316095 0.167174,0.242063 1.023684,0.465805 3.19988,0.837158 l 2.976158,0.502376 0.20488,1.581701 c 0.130242,0.874911 0.242164,1.767494 0.242164,1.972612 0.01848,0.335383 -0.409424,0.576121 -2.604087,1.5813 -1.451122,0.651324 -2.7533,1.358139 -2.883541,1.563256 -0.20508,0.315943 -0.167424,0.632929 0.241766,2.195136 0.353792,1.284178 0.595114,1.879211 0.855599,2.027944 0.335323,0.167205 3.254983,2.9e-5 5.542958,-0.334383 l 0.669566,-0.09342 0.725295,1.730451 c 0.390724,0.94879 0.74449,1.76745 0.781426,1.84231 0.01848,0.0554 -0.98576,0.96695 -2.269705,2.02754 -1.283947,1.04212 -2.362676,2.02813 -2.39961,2.21478 -0.07484,0.33538 1.209007,2.8649 1.785374,3.51623 0.205082,0.22359 0.46475,0.40895 0.594991,0.40895 0.111774,0 1.394707,-0.46462 2.864296,-1.02359 1.469589,-0.55801 2.734125,-1.0236 2.808968,-1.0236 0.111772,0 1.339102,1.5438 2.306189,2.88435 0.111776,0.14873 -0.372029,0.96743 -1.524763,2.60449 -1.078866,1.48832 -1.711602,2.54879 -1.711602,2.84625 0,0.669812 2.344174,3.013462 3.013846,3.013462 0.278953,0 1.339378,-0.63279 2.808966,-1.67391 1.283948,-0.93034 2.381469,-1.673922 2.455341,-1.673922 0.130237,0 2.957446,2.251272 3.032287,2.400022 0.01848,0.0739 -0.409135,1.33951 -0.985504,2.80935 -0.557898,1.48835 -1.023593,2.77257 -1.023593,2.88437 0,0.13025 0.185785,0.39107 0.427802,0.5962 0.632735,0.59589 3.162599,1.86061 3.515418,1.78576 0.167174,-0.0368 1.15378,-1.11623 2.194729,-2.40041 l 1.878794,-2.3066 0.688007,0.29711 c 0.37226,0.1672 1.227609,0.50286 1.860349,0.76339 1.153705,0.46563 1.190698,0.50248 1.078923,1.06048 -0.0554,0.31592 -0.185698,1.69346 -0.315938,3.05152 -0.185646,2.08426 -0.167224,2.53026 0.03688,2.73441 0.148708,0.13025 1.060445,0.46476 2.027539,0.72529 1.506523,0.40926 1.823517,0.42763 2.139401,0.22252 0.205081,-0.13027 0.911655,-1.43255 1.562853,-2.88394 1.004026,-2.19507 1.245973,-2.62395 1.581297,-2.60449 0.205081,0 1.097456,0.11189 1.972211,0.24216 l 1.581297,0.20408 0.502374,2.97656 c 0.372254,2.17658 0.595141,3.03307 0.837158,3.20029 0.427659,0.31593 3.775769,0.31593 4.203426,0 0.242017,-0.16722 0.465872,-1.02371 0.837158,-3.20029 l 0.502373,-2.97656 1.581298,-0.20408 c 0.874755,-0.13027 1.767123,-0.24216 1.97221,-0.24216 0.334347,-0.0185 0.576297,0.40942 1.581296,2.60449 0.651204,1.45139 1.357771,2.75367 1.562853,2.88394 0.315882,0.20511 0.632806,0.16749 2.194731,-0.24176 1.264508,-0.35289 1.878828,-0.59508 2.02754,-0.85561 0.167173,-0.33441 -0.0185,-3.44243 -0.334381,-5.54417 l -0.09342,-0.66955 1.17234,-0.48515 c 0.651209,-0.26051 1.469619,-0.59576 1.860349,-0.76297 l 0.66956,-0.29752 1.89724,2.32505 c 1.04193,1.26474 2.02736,2.34405 2.21398,2.38196 0.33435,0.0749 2.8646,-1.20929 3.51581,-1.78576 0.22355,-0.20513 0.40896,-0.46475 0.40896,-0.57656 0,-0.0933 -0.46569,-1.43288 -1.04203,-2.93967 -0.55791,-1.52527 -1.00497,-2.82791 -0.96707,-2.92123 0.0369,-0.13026 1.37655,-1.26482 2.58565,-2.195142 0.24202,-0.20415 0.66935,0.0367 2.77168,1.525162 1.54347,1.09754 2.66032,1.76734 2.93927,1.76734 0.66968,0 3.01304,-2.36309 3.01304,-3.013462 0,-0.29746 -0.63271,-1.35793 -1.71159,-2.84625 -1.15371,-1.63706 -1.63655,-2.45576 -1.52478,-2.60449 0.89323,-1.24625 2.19445,-2.88435 2.28777,-2.88435 0.0553,0 1.32091,0.46462 2.80895,1.0236 1.48807,0.55799 2.79061,1.02359 2.90238,1.02359 0.11178,0 0.37205,-0.18536 0.57616,-0.40895 0.57637,-0.65133 1.86062,-3.18182 1.78578,-3.51623 -0.0368,-0.18568 -1.11608,-1.17266 -2.40001,-2.21478 -1.28397,-1.06059 -2.28778,-1.97213 -2.26931,-2.02754 0.0368,-0.0748 0.39071,-0.89352 0.78142,-1.84231 l 0.72489,-1.730451 0.66957,0.09342 c 0.37225,0.05542 1.74871,0.204145 3.05114,0.315939 2.00903,0.185675 2.43669,0.185727 2.64177,-0.03688 0.13026,-0.14873 0.46539,-1.060679 0.72491,-2.027943 0.40918,-1.525264 0.42798,-1.805366 0.22291,-2.158247 -0.14871,-0.20512 -1.39491,-0.893463 -2.88394,-1.563258 -2.21313,-0.985738 -2.62215,-1.227473 -2.60369,-1.562856 0,-0.205118 0.11153,-1.0977 0.24176,-1.972614 l 0.20527,-1.5817 2.97618,-0.502376 c 2.17618,-0.372327 3.03231,-0.595095 3.19946,-0.837157 0.3159,-0.427734 0.3159,-3.776901 0,-4.204635 -0.16715,-0.242062 -1.02328,-0.464433 -3.19946,-0.83676 l -2.97618,-0.502773 -0.20527,-1.581701 c -0.13023,-0.874917 -0.24176,-1.767104 -0.24176,-1.972213 -0.0186,-0.334414 0.40901,-0.576524 2.60369,-1.5817 1.45112,-0.651325 2.75371,-1.358139 2.88394,-1.563259 0.20507,-0.315942 0.16703,-0.632929 -0.24217,-2.195135 -0.35281,-1.264737 -0.59569,-1.878806 -0.85519,-2.027542 -0.31589,-0.167205 -3.44199,0.01828 -5.54336,0.335184 l -0.66957,0.09342 -0.72489,-1.730448 c -0.39071,-0.948792 -0.7445,-1.785926 -0.78143,-1.842309 -0.0368,-0.07485 0.98534,-0.985425 2.26931,-2.027543 1.28295,-1.042119 2.3621,-2.02793 2.40001,-2.195135 0.0749,-0.353856 -1.19095,-2.884318 -1.78578,-3.534668 -0.20507,-0.223589 -0.46534,-0.409357 -0.57616,-0.409357 -0.11177,0 -1.41334,0.464621 -2.90238,1.023595 -1.48901,0.558971 -2.75356,1.023593 -2.80895,1.023593 -0.0933,0 -1.39454,-1.636891 -2.28777,-2.883143 -0.11177,-0.148741 0.37205,-0.967442 1.52478,-2.604492 1.07888,-1.488328 1.71159,-2.54879 1.71159,-2.846259 0,-0.669795 -2.34336,-3.014652 -3.01304,-3.014652 -0.27895,0 -1.33938,0.633001 -2.80897,1.675118 -1.28395,0.911855 -2.38107,1.673916 -2.43649,1.673916 -0.0739,0 -0.55793,-0.353665 -1.09737,-0.799872 -0.52097,-0.427732 -1.2093,-0.967624 -1.50672,-1.172743 l -0.5577,-0.390514 1.06047,-2.772484 c 0.57637,-1.525269 1.06048,-2.864769 1.06048,-2.976564 0,-0.111797 -0.1858,-0.372403 -0.40935,-0.576548 -0.65121,-0.576471 -3.18107,-1.860632 -3.51542,-1.785779 -0.18564,0.03694 -1.17245,1.115865 -2.21438,2.381572 l -1.89723,2.32544 -0.66957,-0.297496 c -0.39072,-0.167204 -1.22761,-0.502857 -1.860348,-0.763385 -1.153705,-0.464677 -1.1907,-0.502481 -1.078923,-1.060481 0.0554,-0.315942 0.185698,-1.693479 0.31594,-3.051539 0.18565,-2.084242 0.167223,-2.530249 -0.03688,-2.734396 -0.148709,-0.130263 -1.060456,-0.464765 -2.027539,-0.725296 -1.506525,-0.409265 -1.823518,-0.42787 -2.139403,-0.223723 -0.204108,0.130266 -0.911646,1.433131 -1.562853,2.883545 -1.004023,2.195061 -1.245975,2.623534 -1.581297,2.604092 -0.204109,0 -1.097456,-0.111501 -1.972211,-0.241765 L 88.117641,26.52374 87.615265,23.547176 c -0.372261,-2.176591 -0.594741,-3.03308 -0.836757,-3.200286 -0.213831,-0.158943 -1.158115,-0.238438 -2.102114,-0.238558 z m -0.07258,14.780175 a 32.84478,32.84483 0 0 1 4.02e-4,0 32.84478,32.84483 0 0 1 0.06255,0 32.84478,32.84483 0 0 1 25.379331,11.996061 c -0.26656,0.09332 -0.53967,0.193294 -0.81952,0.299902 -0.53457,0.213832 -1.38992,0.414306 -2.566,0.601405 -1.14934,0.160376 -2.45908,0.240565 -3.92918,0.240565 H 66.332708 c -1.470099,0 -2.779839,-0.08019 -3.929184,-0.240565 -1.149352,-0.187099 -2.004694,-0.387573 -2.565999,-0.601405 -0.209069,-0.07965 -0.41058,-0.151895 -0.612233,-0.224124 A 32.84478,32.84483 0 0 1 84.603825,34.888508 Z M 66.602138,54.595406 h 11.495675 v 5.793553 a 9.853434,9.8534489 0 0 0 -3.284479,7.34438 9.853434,9.8534489 0 0 0 3.284479,7.344379 v 14.00476 c 0,2.40562 -0.0401,4.20985 -0.120282,5.41266 -0.08018,1.20281 -0.280661,2.21853 -0.601404,3.04713 -0.235218,0.6415 -1.349872,0.94866 -3.584783,1.18316 a 32.84478,32.84483 0 0 1 -21.969353,-30.992089 32.84478,32.84483 0 0 1 0.05373,-1.870376 c 0.423355,0.318841 0.817928,0.58115 1.028805,0.62907 0.614769,0.133645 1.122625,0.200472 1.523562,0.200472 0.507851,0 0.801874,-0.147013 0.882063,-0.441033 0.481122,-2.99366 2.129785,-5.260447 3.974088,-7.532421 1.844308,-2.271972 5.072666,-4.123645 7.317906,-4.123645 z m 24.633587,0 H 102.7314 c 2.24524,0 5.4736,1.793939 7.31791,4.06591 1.87103,2.271974 3.5197,4.596496 3.97409,7.590156 0.0802,0.29402 0.37422,0.441033 0.88206,0.441033 0.42767,0 0.93553,-0.06683 1.52356,-0.200472 0.21093,-0.04793 0.60575,-0.310137 1.02921,-0.62907 a 32.84478,32.84483 0 0 1 0.0534,1.870376 32.84478,32.84483 0 0 1 -21.969758,30.992089 c -2.234677,-0.23449 -3.349208,-0.5417 -3.58441,-1.18316 -0.187099,-0.42766 -0.334114,-0.9088 -0.44103,-1.44338 -0.08018,-0.56131 -0.147013,-1.25628 -0.20047,-2.08487 -0.02673,-0.82861 -0.05347,-1.53694 -0.08018,-2.12497 v -2.80657 -14.00476 a 9.853434,9.8534489 0 0 0 3.284478,-7.344379 9.853434,9.8534489 0 0 0 -3.284478,-7.34438 z m -6.612258,8.211209 a 4.9267174,4.9267247 0 0 1 0.0433,0 4.9267174,4.9267247 0 0 1 4.926716,4.926724 4.9267174,4.9267247 0 0 1 -4.926716,4.926724 4.9267174,4.9267247 0 0 1 -4.926718,-4.926724 4.9267174,4.9267247 0 0 1 4.883415,-4.926724 z" />
    <g
       aria-label="T"
       id="text60"
       style="font-style:normal;font-weight:normal;font-size:105.833px;line-height:1.25;font-family:sans-serif;fill:#000000;fill-opacity:1;stroke:none;stroke-width:0.264583" />
    <circle
       style="fill:#2f6099;fill-opacity:1;stroke-width:0.264583"
       id="path854"
       cx="84.666664"
       cy="67.73333"
       r="63.5" />
    <path
       id="path14-2"
       style="fill:#ffffff;fill-opacity:1;stroke-width:0.0103685"
       d="m 84.677056,16.933307 c -1.00694,-1.27e-4 -2.01375,0.08458 -2.24183,0.253608 -0.25815,0.178352 -0.4965,1.091514 -0.89254,3.41321 l -0.53586,3.175426 -1.68715,0.218539 c -0.93307,0.138952 -1.88451,0.25831 -2.10326,0.25831 -0.35664,0.01972 -0.61472,-0.436726 -1.68672,-2.778123 -0.69462,-1.548144 -1.44872,-2.936406 -1.66747,-3.075355 -0.33694,-0.218793 -0.67457,-0.178239 -2.34062,0.258311 -1.38924,0.377444 -2.00407,0.635354 -2.16271,0.912216 -0.19801,0.377441 0.0392,4.028732 0.35753,6.013424 0.11924,0.5952 0.0798,0.634484 -1.15085,1.13118 -0.67491,0.277894 -1.5873,0.634464 -1.98437,0.813849 l -0.73388,0.317331 -2.00404,-2.46037 c -1.11139,-1.369792 -2.16273,-2.521036 -2.34104,-2.560442 -0.37739,-0.07983 -3.0759,1.270227 -3.74979,1.90483 -0.25815,0.218794 -0.45632,0.495736 -0.45632,0.614984 0,0.119248 0.49571,1.507726 1.09184,3.096311 0.59509,1.587545 1.09184,2.93652 1.09184,2.996662 0,0.09954 -1.74607,1.488181 -3.07621,2.441123 -0.15862,0.119248 -1.03138,-0.397045 -2.77727,-1.626844 -1.58726,-1.151001 -2.718327,-1.82614 -3.035575,-1.82614 -0.714322,0 -3.215201,2.501182 -3.215201,3.215629 0,0.2976 0.67497,1.428819 1.786361,2.996663 0.992169,1.369793 1.785075,2.540256 1.785075,2.599362 0,0.0788 -0.377317,0.595452 -0.853186,1.17095 -0.456171,0.5558 -1.011622,1.289876 -1.250069,1.607172 l -0.416981,0.575641 -2.95688,-1.133745 c -1.646361,-0.614902 -3.075651,-1.111507 -3.17414,-1.111507 -0.11923,0 -0.397271,0.198149 -0.614981,0.436647 -0.63449,0.694746 -1.98423,3.393906 -1.904399,3.770315 0.0394,0.178351 1.190029,1.230927 2.55958,2.341476 1.369539,1.111594 2.460419,2.084329 2.42102,2.16314 -0.0394,0.05911 -0.41675,0.952654 -0.83352,1.964701 l -0.773651,1.84581 -0.714199,-0.0996 c -0.397081,-0.0601 -1.865311,-0.218789 -3.254551,-0.337 -2.142949,-0.198059 -2.59914,-0.198109 -2.81789,0.0393 -0.13892,0.158649 -0.49537,1.131379 -0.77322,2.163138 -0.43647,1.60724 -0.45636,1.94546 -0.23864,2.28246 0.13893,0.218792 1.528341,0.972722 3.07621,1.66747 2.33993,1.072192 2.7961,1.330261 2.77641,1.688002 0,0.217739 -0.11939,1.170458 -0.25831,2.103699 l -0.21854,1.68714 -3.1549,0.5363 c -1.72618,0.2976 -3.25458,0.63574 -3.4132,0.773649 -0.37634,0.297601 -0.396,4.107141 -0.0197,4.603832 0.17832,0.258199 1.09193,0.496859 3.4132,0.892969 l 3.17457,0.535871 0.21854,1.68715 c 0.13892,0.933239 0.25831,1.885318 0.25831,2.104118 0.0197,0.35774 -0.436719,0.614532 -2.7777,1.686721 -1.54786,0.69474 -2.93685,1.448681 -3.07577,1.66747 -0.21875,0.337 -0.17859,0.675119 0.25788,2.341481 0.37738,1.36979 0.63479,2.004489 0.91264,2.163138 0.35768,0.17835 3.47198,3.2e-5 5.91249,-0.35668 l 0.7142,-0.0996 0.77365,1.84581 c 0.41677,1.01205 0.79412,1.885291 0.83352,1.965129 0.0197,0.0591 -1.05148,1.03142 -2.42102,2.162712 -1.36954,1.111599 -2.52018,2.163339 -2.55958,2.362438 -0.0798,0.357741 1.28961,3.05589 1.9044,3.750641 0.21875,0.238501 0.495731,0.436221 0.63466,0.436221 0.11922,0 1.48768,-0.495601 3.05525,-1.09184 1.56756,-0.595201 2.916392,-1.09183 2.99623,-1.09183 0.119222,0 1.428372,1.646719 2.459932,3.076639 0.119225,0.158641 -0.39683,1.03192 -1.626409,2.77812 -1.150792,1.587541 -1.825712,2.718711 -1.825712,3.036001 0,0.71446 2.500449,3.21435 3.214771,3.21435 0.297548,0 1.428665,-0.67497 2.996225,-1.7855 1.36954,-0.99236 2.54024,-1.78551 2.61904,-1.78551 0.13892,0 3.1546,2.40135 3.23443,2.56002 0.0197,0.0788 -0.4364,1.4288 -1.0512,2.99664 -0.59509,1.58757 -1.09184,2.9574 -1.09184,3.07666 0,0.13893 0.19817,0.41714 0.45633,0.63595 0.67492,0.63561 3.37344,1.98465 3.74977,1.90481 0.17833,-0.0393 1.23071,-1.19065 2.34106,-2.56044 l 2.00405,-2.46038 0.73386,0.31692 c 0.39709,0.17834 1.30945,0.53638 1.98437,0.81429 1.23062,0.49667 1.27008,0.53597 1.15085,1.13117 -0.0591,0.33698 -0.19806,1.80636 -0.337,3.25496 -0.19801,2.22321 -0.17836,2.69894 0.0393,2.9167 0.15863,0.13894 1.13115,0.49574 2.16271,0.77365 1.60696,0.43654 1.94509,0.45614 2.28203,0.23736 0.21875,-0.13896 0.97243,-1.52807 1.66704,-3.07621 1.07096,-2.34141 1.32904,-2.79888 1.68672,-2.77812 0.21875,0 1.17062,0.11934 2.10369,0.2583 l 1.68672,0.21768 0.53586,3.175 c 0.39707,2.32168 0.63482,3.23528 0.89297,3.41365 0.45617,0.33699 4.02749,0.33699 4.48366,0 0.25815,-0.17837 0.49693,-1.09197 0.89297,-3.41365 l 0.53586,-3.175 1.68672,-0.21768 c 0.93307,-0.13896 1.88493,-0.2583 2.10369,-0.2583 0.35663,-0.0198 0.61471,0.43671 1.68671,2.77812 0.69462,1.54814 1.44829,2.93725 1.66705,3.07621 0.33694,0.21878 0.67499,0.17865 2.34104,-0.25789 1.34881,-0.37642 2.00409,-0.63475 2.16271,-0.91264 0.178324,-0.35671 -0.0197,-3.67194 -0.35667,-5.91378 l -0.0996,-0.7142 1.250504,-0.51749 c 0.69462,-0.27788 1.5676,-0.63548 1.98437,-0.81383 l 0.7142,-0.31736 2.02372,2.48005 c 1.11139,1.34906 2.16251,2.50032 2.36157,2.54077 0.35664,0.0799 3.05558,-1.28992 3.75021,-1.90482 0.23844,-0.2188 0.43622,-0.49573 0.43622,-0.61499 0,-0.0995 -0.49673,-1.52842 -1.1115,-3.13566 -0.5951,-1.62695 -1.07197,-3.01643 -1.03154,-3.11598 0.0393,-0.13894 1.46831,-1.34913 2.75802,-2.34147 0.25816,-0.21777 0.71398,0.0392 2.95646,1.62683 1.64637,1.17071 2.83768,1.88516 3.13523,1.88516 0.71433,0 3.21391,-2.52062 3.21391,-3.21435 0,-0.31729 -0.67489,-1.44846 -1.82569,-3.036001 -1.23063,-1.7462 -1.74566,-2.619479 -1.62644,-2.77812 0.95278,-1.329341 2.34075,-3.076639 2.44029,-3.076639 0.0589,0 1.40897,0.495589 2.99621,1.09183 1.58727,0.595188 2.97665,1.09184 3.09587,1.09184 0.11924,0 0.39686,-0.19772 0.61458,-0.436221 0.61479,-0.694751 1.98465,-3.39394 1.90483,-3.750641 -0.0393,-0.198059 -1.19049,-1.250839 -2.56001,-2.362438 -1.36957,-1.131292 -2.44031,-2.103601 -2.42061,-2.162712 0.0393,-0.0798 0.41677,-0.953079 0.83352,-1.965129 l 0.77322,-1.84581 0.71421,0.0996 c 0.39706,0.0591 1.86529,0.21776 3.25454,0.337 2.14297,0.198062 2.59914,0.198112 2.81789,-0.0393 0.13895,-0.158642 0.49642,-1.13139 0.77324,-2.163141 0.43646,-1.626939 0.45651,-1.92572 0.23777,-2.302129 -0.15863,-0.218792 -1.4879,-0.953021 -3.0762,-1.66747 -2.36067,-1.051452 -2.79696,-1.309312 -2.77727,-1.66705 0,-0.218792 0.11896,-1.170882 0.25787,-2.10412 l 0.21896,-1.687142 3.1746,-0.535869 c 2.32125,-0.39715 3.23446,-0.63477 3.41275,-0.892971 0.33696,-0.45625 0.33696,-4.028689 0,-4.484939 -0.17829,-0.258199 -1.0915,-0.495401 -3.41275,-0.892551 l -3.1746,-0.536289 -0.21896,-1.68715 c -0.13891,-0.933241 -0.25787,-1.88491 -0.25787,-2.103691 -0.0199,-0.356709 0.43628,-0.614958 2.77727,-1.68715 1.54786,-0.694738 2.93729,-1.448679 3.0762,-1.667468 0.21874,-0.337011 0.17817,-0.675132 -0.25831,-2.341481 -0.37633,-1.349049 -0.63541,-2.00406 -0.9122,-2.162709 -0.33695,-0.17835 -3.67147,0.0195 -5.91292,0.357529 l -0.71421,0.0996 -0.77322,-1.84581 c -0.41675,-1.012047 -0.79413,-1.904989 -0.83353,-1.965131 -0.0393,-0.07984 1.05104,-1.051121 2.42061,-2.162713 1.36848,-1.111594 2.51956,-2.163124 2.56001,-2.341477 0.0799,-0.377447 -1.27035,-3.076604 -1.90483,-3.770313 -0.21875,-0.238495 -0.49637,-0.436647 -0.61458,-0.436647 -0.11922,0 -1.50756,0.495596 -3.09587,1.091835 -1.58827,0.596236 -2.93712,1.091832 -2.99621,1.091832 -0.0995,0 -1.48751,-1.746017 -2.44029,-3.075353 -0.11922,-0.158657 0.39685,-1.031938 1.62644,-2.778125 1.1508,-1.587547 1.82569,-2.71871 1.82569,-3.036009 0,-0.714449 -2.49958,-3.215627 -3.21391,-3.215627 -0.29755,0 -1.42867,0.675199 -2.99624,1.786793 -1.36955,0.972642 -2.53981,1.785509 -2.59892,1.785509 -0.0788,0 -0.59512,-0.377243 -1.17053,-0.853197 -0.55569,-0.456248 -1.28992,-1.032132 -1.60717,-1.250926 l -0.59488,-0.416547 1.13118,-2.957317 c 0.61479,-1.626954 1.13117,-3.055754 1.13117,-3.175002 0,-0.11925 -0.19818,-0.39723 -0.43664,-0.614985 -0.69463,-0.614902 -3.39314,-1.984673 -3.74978,-1.904829 -0.19802,0.0394 -1.25061,1.190255 -2.362,2.540343 l -2.02372,2.480469 -0.71421,-0.317329 c -0.41677,-0.178349 -1.30944,-0.536378 -1.98437,-0.814275 -1.230624,-0.495655 -1.270084,-0.535978 -1.150854,-1.131178 0.0591,-0.337006 0.19808,-1.806379 0.337,-3.254976 0.198034,-2.223191 0.178374,-2.698932 -0.0393,-2.916689 -0.15862,-0.138947 -1.13115,-0.495749 -2.16271,-0.773649 -1.60696,-0.436549 -1.94508,-0.456395 -2.28203,-0.238638 -0.21771,0.13895 -0.97242,1.528674 -1.66704,3.075781 -1.07096,2.341398 -1.32904,2.798437 -1.68672,2.777698 -0.21771,0 -1.17062,-0.118934 -2.10369,-0.257882 l -1.68671,-0.218965 -0.53587,-3.175003 c -0.39708,-2.321696 -0.63439,-3.235284 -0.89254,-3.413638 -0.22809,-0.169538 -1.23532,-0.254333 -2.24225,-0.254461 z m -0.0774,15.765519 a 35.034434,35.034482 0 0 1 5.3e-4,0 35.034434,35.034482 0 0 1 0.0667,0 35.034434,35.034482 0 0 1 27.071304,12.795798 c -0.28433,0.09954 -0.57565,0.206179 -0.87415,0.319894 -0.57022,0.22809 -1.48258,0.441926 -2.73707,0.641499 -1.22597,0.171069 -2.62303,0.256603 -4.19113,0.256603 H 65.110456 c -1.56811,0 -2.96516,-0.08554 -4.19113,-0.256603 -1.22597,-0.199573 -2.13833,-0.413409 -2.73707,-0.641499 -0.223,-0.08496 -0.43794,-0.16202 -0.65304,-0.239064 a 35.034434,35.034482 0 0 1 27.07043,-12.876628 z m -19.2018,21.020686 h 12.26205 v 6.179791 a 10.51033,10.510345 0 0 0 -3.50344,7.834008 10.51033,10.510345 0 0 0 3.50344,7.834 v 14.938412 c 0,2.565998 -0.0428,4.490508 -0.1283,5.77351 -0.0855,1.282989 -0.29937,2.366428 -0.64149,3.250269 -0.25091,0.684268 -1.43986,1.011908 -3.82377,1.262028 A 35.034434,35.034482 0 0 1 49.63237,67.733311 a 35.034434,35.034482 0 0 1 0.0573,-1.99507 c 0.45158,0.340101 0.87245,0.61989 1.097391,0.67101 0.655745,0.14255 1.197465,0.213842 1.625125,0.213842 0.54171,0 0.85534,-0.156821 0.94088,-0.47044 0.51319,-3.19324 2.27176,-5.611141 4.23903,-8.034581 1.96725,-2.42344 5.41084,-4.39856 7.80575,-4.39856 z m 26.27583,0 h 12.262054 c 2.39493,0 5.83851,1.91354 7.80577,4.336981 1.99576,2.42343 3.75434,4.90292 4.23903,8.09616 0.0855,0.313619 0.39917,0.47044 0.94087,0.47044 0.45618,0 0.9979,-0.0713 1.62513,-0.213842 0.22499,-0.0511 0.64613,-0.330808 1.09782,-0.67101 a 35.034434,35.034482 0 0 1 0.0569,1.99507 35.034434,35.034482 0 0 1 -23.434424,33.058219 c -2.38366,-0.2501 -3.57249,-0.57781 -3.82337,-1.262028 -0.19957,-0.456171 -0.35639,-0.969389 -0.47043,-1.539611 -0.0855,-0.598728 -0.15682,-1.34003 -0.21384,-2.22386 -0.0285,-0.883848 -0.057,-1.639398 -0.0855,-2.26664 V 90.505723 75.567311 a 10.51033,10.510345 0 0 0 3.50344,-7.834 10.51033,10.510345 0 0 0 -3.50344,-7.834008 z m -7.05308,8.758629 a 5.2551655,5.2551727 0 0 1 0.0462,0 5.2551655,5.2551727 0 0 1 5.25516,5.25517 5.2551655,5.2551727 0 0 1 -5.25516,5.25517 5.2551655,5.2551727 0 0 1 -5.25517,-5.25517 5.2551655,5.2551727 0 0 1 5.20898,-5.25517 z" />
  </g>
</svg>
