<?xml version="1.0" encoding="UTF-8" standalone="no"?>
<svg
   xmlns:dc="http://purl.org/dc/elements/1.1/"
   xmlns:cc="http://creativecommons.org/ns#"
   xmlns:rdf="http://www.w3.org/1999/02/22-rdf-syntax-ns#"
   xmlns:svg="http://www.w3.org/2000/svg"
   xmlns="http://www.w3.org/2000/svg"
   xmlns:sodipodi="http://sodipodi.sourceforge.net/DTD/sodipodi-0.dtd"
   xmlns:inkscape="http://www.inkscape.org/namespaces/inkscape"
   width="512"
   height="512"
   viewBox="0 0 135.46666 135.46667"
   version="1.1"
   id="svg8"
   inkscape:version="1.0.1 (c497b03c, 2020-09-10)"
   sodipodi:docname="typed-settings Kopie.svg"
   inkscape:export-filename="/Users/stefan/Projects/typed-settings/typed-settings.png"
   inkscape:export-xdpi="96"
   inkscape:export-ydpi="96">
  <defs
     id="defs2" />
  <sodipodi:namedview
     id="base"
     pagecolor="#ffffff"
     bordercolor="#666666"
     borderopacity="1.0"
     inkscape:pageopacity="0.0"
     inkscape:pageshadow="2"
     inkscape:zoom="1.2636719"
     inkscape:cx="256"
     inkscape:cy="256"
     inkscape:document-units="mm"
     inkscape:current-layer="layer1"
     inkscape:document-rotation="0"
     showgrid="true"
     units="px"
     inkscape:snap-bbox="true"
     inkscape:bbox-nodes="true"
     inkscape:window-width="1440"
     inkscape:window-height="855"
     inkscape:window-x="0"
     inkscape:window-y="23"
     inkscape:window-maximized="1"
     inkscape:snap-smooth-nodes="true"
     inkscape:snap-intersection-paths="true"
     inkscape:snap-bbox-edge-midpoints="true"
     inkscape:snap-bbox-midpoints="true"
     inkscape:bbox-paths="true">
    <inkscape:grid
       type="xygrid"
       id="grid56"
       spacingx="0.26458333"
       spacingy="0.26458333"
       empspacing="8" />
  </sodipodi:namedview>
  <metadata
     id="metadata5">
    <rdf:RDF>
      <cc:Work
         rdf:about="">
        <dc:format>image/svg+xml</dc:format>
        <dc:type
           rdf:resource="http://purl.org/dc/dcmitype/StillImage" />
        <dc:title />
      </cc:Work>
    </rdf:RDF>
  </metadata>
  <g
     inkscape:label="Ebene 1"
     inkscape:groupmode="layer"
     id="layer1">
    <circle
       style="fill:#2f6099;stroke-width:0.264583;fill-opacity:1"
       id="path854"
       cx="67.73333"
       cy="67.73333"
       r="63.5" />
    <path
       id="path14"
       style="fill:#ffffff;fill-opacity:1;stroke-width:0.0103685"
       d="m 67.743748,16.933305 c -1.006942,-1.27e-4 -2.013745,0.08458 -2.24183,0.253608 -0.258154,0.178352 -0.496502,1.091514 -0.89254,3.41321 l -0.535864,3.175426 -1.687145,0.218539 c -0.933072,0.138952 -1.884511,0.25831 -2.103263,0.25831 -0.35664,0.01972 -0.614713,-0.436726 -1.686713,-2.778124 -0.69462,-1.548143 -1.44872,-2.936405 -1.66747,-3.075354 -0.33694,-0.218793 -0.67457,-0.178239 -2.34062,0.258311 -1.38924,0.377444 -2.00408,0.635354 -2.16271,0.912215 -0.19802,0.377442 0.0392,4.028733 0.35753,6.013425 0.11923,0.5952 0.0798,0.634484 -1.15085,1.13118 -0.67492,0.277894 -1.5873,0.634463 -1.98437,0.813849 l -0.73388,0.31733 -2.00404,-2.460369 c -1.11139,-1.369793 -2.16273,-2.521036 -2.34105,-2.560442 -0.37738,-0.07983 -3.07589,1.270227 -3.74978,1.904829 -0.25815,0.218794 -0.45632,0.495737 -0.45632,0.614984 0,0.119248 0.4957,1.507726 1.09183,3.096311 0.5951,1.587546 1.09184,2.936519 1.09184,2.996663 0,0.09954 -1.74607,1.48818 -3.07621,2.441122 -0.15862,0.119248 -1.03138,-0.397043 -2.77727,-1.626844 -1.58725,-1.151 -2.71832,-1.826139 -3.03557,-1.826139 -0.71432,0 -3.2152,2.501183 -3.2152,3.215627 0,0.297603 0.67497,1.42882 1.78636,2.996664 0.99217,1.369792 1.78508,2.540256 1.78508,2.599362 0,0.0788 -0.37732,0.595452 -0.85319,1.170951 -0.45617,0.5558 -1.01162,1.289874 -1.25007,1.607172 l -0.41698,0.575641 -2.95688,-1.133745 c -1.64636,-0.614903 -3.07565,-1.111508 -3.17414,-1.111507 -0.11923,0 -0.39727,0.198148 -0.61498,0.436647 -0.63449,0.694744 -1.98423,3.393904 -1.9044,3.770314 0.0394,0.17835 1.19003,1.230926 2.55958,2.341475 1.36954,1.111594 2.46042,2.084331 2.42102,2.163141 -0.0394,0.05911 -0.41675,0.952655 -0.83352,1.964702 l -0.77365,1.84581 -0.7142,-0.0996 c -0.39708,-0.0601 -1.86531,-0.21879 -3.25455,-0.337 -2.14295,-0.19806 -2.59914,-0.19811 -2.81789,0.0393 -0.13892,0.15865 -0.49537,1.13138 -0.77322,2.16314 -0.43647,1.60724 -0.45636,1.94546 -0.23864,2.28246 0.13893,0.21879 1.52834,0.97272 3.07621,1.66747 2.33993,1.07219 2.7961,1.33026 2.77641,1.688 0,0.21774 -0.11939,1.17046 -0.25831,2.1037 l -0.21854,1.68714 -3.1549,0.5363 c -1.72618,0.2976 -3.25458,0.63574 -3.4132,0.77365 -0.37634,0.2976 -0.396,4.10714 -0.0197,4.60383 0.17832,0.2582 1.09193,0.49686 3.4132,0.89297 l 3.17457,0.53587 0.21854,1.68715 c 0.13892,0.93324 0.25831,1.88532 0.25831,2.10412 0.0197,0.35774 -0.43672,0.61453 -2.7777,1.68672 -1.54786,0.69474 -2.93685,1.44868 -3.07577,1.66747 -0.21875,0.337 -0.17859,0.67512 0.25788,2.34148 0.37738,1.36979 0.63479,2.00449 0.91264,2.16314 0.35768,0.17835 3.47198,3e-5 5.91249,-0.35668 l 0.7142,-0.0996 0.77365,1.84581 c 0.41677,1.01205 0.79412,1.88529 0.83352,1.96513 0.0197,0.0591 -1.05148,1.03142 -2.42102,2.16271 -1.36954,1.1116 -2.52018,2.16334 -2.55958,2.36244 -0.0798,0.35774 1.28961,3.05589 1.9044,3.75064 0.21875,0.2385 0.49573,0.43622 0.63466,0.43622 0.11922,0 1.48768,-0.4956 3.05525,-1.09184 1.56756,-0.5952 2.91639,-1.09183 2.99623,-1.09183 0.11922,0 1.42837,1.64672 2.45993,3.07664 0.11923,0.15864 -0.39683,1.03192 -1.62641,2.77812 -1.15079,1.587541 -1.82571,2.718711 -1.82571,3.036001 0,0.71446 2.50045,3.21435 3.21477,3.21435 0.29755,0 1.42867,-0.67497 2.99623,-1.7855 1.36954,-0.99236 2.54023,-1.78551 2.61903,-1.78551 0.13892,0 3.15461,2.40135 3.23444,2.56002 0.0197,0.0788 -0.43641,1.4288 -1.0512,2.99664 -0.5951,1.58757 -1.09184,2.9574 -1.09184,3.07666 0,0.13893 0.19817,0.41714 0.45632,0.63595 0.67492,0.63561 3.37344,1.98465 3.74978,1.90481 0.17832,-0.0393 1.2307,-1.19065 2.34105,-2.56044 l 2.00405,-2.46038 0.73387,0.31692 c 0.39708,0.17834 1.30945,0.53638 1.98437,0.81429 1.23062,0.49667 1.27008,0.53597 1.15085,1.13117 -0.0591,0.33698 -0.19807,1.80636 -0.337,3.25496 -0.19802,2.22321 -0.17837,2.69894 0.0393,2.9167 0.15863,0.13894 1.13115,0.49574 2.16271,0.77365 1.60696,0.43654 1.94509,0.45614 2.28203,0.23736 0.21875,-0.13896 0.97243,-1.52807 1.66704,-3.07621 1.07096,-2.34141 1.329037,-2.79888 1.686715,-2.77812 0.218754,0 1.17062,0.11934 2.103692,0.2583 l 1.686718,0.21768 0.535865,3.175 c 0.397071,2.32168 0.634817,3.23528 0.892969,3.41365 0.456169,0.33699 4.027487,0.33699 4.483654,0 0.258152,-0.17837 0.496931,-1.09197 0.892969,-3.41365 l 0.535864,-3.175 1.686718,-0.21768 c 0.933072,-0.13896 1.884932,-0.2583 2.103692,-0.2583 0.356636,-0.0198 0.614716,0.43671 1.686715,2.77812 0.694617,1.54814 1.448289,2.93725 1.667044,3.07621 0.336941,0.21878 0.674992,0.17865 2.341046,-0.25789 1.348809,-0.37642 2.004083,-0.63475 2.162709,-0.91264 0.178318,-0.35671 -0.01974,-3.67194 -0.356672,-5.91378 l -0.09965,-0.7142 1.250496,-0.51749 c 0.69462,-0.27788 1.567597,-0.63548 1.984372,-0.81383 l 0.7142,-0.31736 2.023719,2.48005 c 1.111393,1.34906 2.162515,2.50032 2.361576,2.54077 0.35664,0.0799 3.055579,-1.28992 3.750204,-1.90482 0.238445,-0.2188 0.436222,-0.49573 0.436222,-0.61499 0,-0.0995 -0.496732,-1.52842 -1.111505,-3.13566 -0.595097,-1.62695 -1.071962,-3.01643 -1.031532,-3.11598 0.03934,-0.13894 1.468312,-1.34913 2.758021,-2.34147 0.258156,-0.21777 0.713974,0.0392 2.956458,1.62683 1.646368,1.17071 2.837678,1.88516 3.135228,1.88516 0.71433,0 3.21391,-2.52062 3.21391,-3.21435 0,-0.31729 -0.67489,-1.44846 -1.82569,-3.036001 -1.23063,-1.7462 -1.74566,-2.61948 -1.62644,-2.77812 0.95278,-1.32934 2.34075,-3.07664 2.44029,-3.07664 0.0589,0 1.40897,0.49559 2.99621,1.09183 1.58727,0.59519 2.97665,1.09184 3.09587,1.09184 0.11924,0 0.39686,-0.19772 0.61458,-0.43622 0.61479,-0.69475 1.98465,-3.39394 1.90483,-3.75064 -0.0393,-0.19806 -1.19049,-1.25084 -2.56001,-2.36244 -1.36957,-1.13129 -2.44031,-2.1036 -2.42061,-2.16271 0.0393,-0.0798 0.41677,-0.95308 0.83352,-1.96513 l 0.77322,-1.84581 0.71421,0.0996 c 0.39706,0.0591 1.86529,0.21776 3.25454,0.337 2.14297,0.19806 2.59914,0.19811 2.81789,-0.0393 0.13895,-0.15864 0.49642,-1.13139 0.77324,-2.16314 0.43646,-1.62694 0.45651,-1.92572 0.23777,-2.30213 -0.15863,-0.21879 -1.4879,-0.95302 -3.0762,-1.66747 -2.36067,-1.05145 -2.79696,-1.30931 -2.77727,-1.66705 0,-0.21879 0.11896,-1.17088 0.25787,-2.10412 l 0.21896,-1.68714 3.1746,-0.53587 c 2.32125,-0.39715 3.23446,-0.63477 3.41275,-0.89297 0.33696,-0.45625 0.33696,-4.02869 0,-4.48494 -0.17829,-0.2582 -1.0915,-0.4954 -3.41275,-0.89255 l -3.1746,-0.53629 -0.21896,-1.68715 c -0.13891,-0.93324 -0.25787,-1.88491 -0.25787,-2.10369 -0.0199,-0.35671 0.43628,-0.61496 2.77727,-1.68715 1.54786,-0.69474 2.93729,-1.44868 3.0762,-1.66747 0.21874,-0.33701 0.17817,-0.67513 -0.25831,-2.34148 -0.37633,-1.34905 -0.63541,-2.00406 -0.9122,-2.16271 -0.33695,-0.17835 -3.67147,0.0195 -5.91292,0.35753 l -0.71421,0.0996 -0.77322,-1.84581 c -0.41675,-1.012047 -0.79413,-1.904991 -0.83353,-1.965133 -0.0393,-0.07984 1.05104,-1.051119 2.42061,-2.162712 1.36848,-1.111593 2.51956,-2.163125 2.56001,-2.341477 0.0799,-0.377446 -1.27035,-3.076605 -1.90483,-3.770313 -0.21875,-0.238494 -0.49637,-0.436647 -0.61458,-0.436647 -0.11922,0 -1.50756,0.495596 -3.09587,1.091835 -1.58827,0.596236 -2.93712,1.091833 -2.99621,1.091833 -0.0995,0 -1.48751,-1.746017 -2.44029,-3.075352 -0.11922,-0.158658 0.39685,-1.031939 1.62644,-2.778125 1.1508,-1.58755 1.82569,-2.71871 1.82569,-3.03601 0,-0.714448 -2.49958,-3.215628 -3.21391,-3.215628 -0.29755,0 -1.42867,0.6752 -2.996238,1.786792 -1.369552,0.972645 -2.539812,1.785511 -2.598927,1.785511 -0.07879,0 -0.59512,-0.377243 -1.170524,-0.853197 -0.555697,-0.456248 -1.289922,-1.032133 -1.607172,-1.250926 l -0.594882,-0.416548 1.131178,-2.957317 c 0.614791,-1.626953 1.131178,-3.055753 1.131178,-3.175001 0,-0.11925 -0.198188,-0.39723 -0.436647,-0.614985 -0.694622,-0.614902 -3.39314,-1.984673 -3.74978,-1.90483 -0.198019,0.0394 -1.250611,1.190256 -2.362002,2.540344 l -2.023718,2.480469 -0.714203,-0.317329 c -0.416774,-0.178352 -1.309448,-0.536381 -1.984372,-0.814278 -1.230619,-0.495656 -1.27008,-0.535979 -1.150852,-1.131179 0.0591,-0.337005 0.198078,-1.806378 0.337003,-3.254975 0.198026,-2.223191 0.178371,-2.698932 -0.03934,-2.916689 -0.158623,-0.138947 -1.131154,-0.495749 -2.162709,-0.773649 -1.60696,-0.436549 -1.945086,-0.456395 -2.28203,-0.238638 -0.217716,0.13895 -0.972422,1.528673 -1.667043,3.075781 -1.070958,2.341398 -1.32904,2.798437 -1.686717,2.777698 -0.217717,0 -1.17062,-0.118934 -2.103692,-0.257882 l -1.686715,-0.218965 -0.535868,-3.175003 c -0.397078,-2.321696 -0.63439,-3.235284 -0.89254,-3.413638 -0.228087,-0.169538 -1.235323,-0.254333 -2.242255,-0.254461 z m -0.07741,15.765518 a 35.034434,35.034482 0 0 1 4.28e-4,0 35.034434,35.034482 0 0 1 0.06672,0 35.034434,35.034482 0 0 1 27.071287,12.795798 c -0.284327,0.09954 -0.575652,0.20618 -0.874151,0.319896 -0.570215,0.228087 -1.48258,0.441925 -2.737066,0.641498 -1.225969,0.171068 -2.623025,0.256603 -4.191131,0.256603 H 48.177153 c -1.56811,0 -2.96516,-0.08554 -4.19113,-0.256603 -1.22597,-0.199573 -2.13834,-0.413411 -2.73707,-0.641498 -0.223,-0.08496 -0.43795,-0.162022 -0.65304,-0.239066 A 35.034434,35.034482 0 0 1 67.666338,32.698823 Z M 48.464543,53.719509 h 12.262048 v 6.17979 a 10.51033,10.510345 0 0 0 -3.503438,7.83401 10.51033,10.510345 0 0 0 3.503438,7.834 v 14.93841 c 0,2.566 -0.04278,4.49051 -0.128301,5.77351 -0.08553,1.28299 -0.299371,2.36643 -0.641497,3.25027 -0.2509,0.684271 -1.43986,1.011911 -3.82376,1.262031 a 35.034434,35.034482 0 0 1 -23.43398,-33.058221 35.034434,35.034482 0 0 1 0.0573,-1.99507 c 0.45158,0.3401 0.87245,0.61989 1.09739,0.67101 0.65575,0.14255 1.19747,0.21384 1.62513,0.21384 0.54171,0 0.85534,-0.15682 0.94087,-0.47044 0.5132,-3.19324 2.27177,-5.61114 4.23903,-8.03458 1.96726,-2.42344 5.41084,-4.39856 7.80576,-4.39856 z m 26.275822,0 h 12.262054 c 2.394924,0 5.838507,1.91354 7.805768,4.33698 1.995763,2.42343 3.754345,4.90292 4.239031,8.09616 0.08554,0.31362 0.399168,0.47044 0.940867,0.47044 0.456185,0 0.997905,-0.0713 1.625135,-0.21384 0.22499,-0.0511 0.64613,-0.33081 1.09782,-0.67101 a 35.034434,35.034482 0 0 1 0.0569,1.99507 35.034434,35.034482 0 0 1 -23.43442,33.058221 c -2.383656,-0.25011 -3.572489,-0.57781 -3.823371,-1.262031 -0.199572,-0.45617 -0.356388,-0.96939 -0.470432,-1.53961 -0.08553,-0.59873 -0.156813,-1.34003 -0.213834,-2.22386 -0.02851,-0.88385 -0.05703,-1.6394 -0.08553,-2.26664 v -2.99367 -14.93841 a 10.51033,10.510345 0 0 0 3.503443,-7.834 10.51033,10.510345 0 0 0 -3.503443,-7.83401 z m -7.053076,8.75863 a 5.2551656,5.2551725 0 0 1 0.04619,0 5.2551656,5.2551725 0 0 1 5.255164,5.25517 5.2551656,5.2551725 0 0 1 -5.255164,5.25517 5.2551656,5.2551725 0 0 1 -5.255166,-5.25517 5.2551656,5.2551725 0 0 1 5.208976,-5.25517 z" />
    <g
       aria-label="T"
       id="text60"
       style="font-style:normal;font-weight:normal;font-size:105.833px;line-height:1.25;font-family:sans-serif;fill:#000000;fill-opacity:1;stroke:none;stroke-width:0.264583" />
    <text
       xml:space="preserve"
       style="font-style:normal;font-weight:normal;font-size:105.833px;line-height:1.25;font-family:sans-serif;fill:#000000;fill-opacity:1;stroke:none;stroke-width:0.264583"
       x="-178.3136"
       y="90.057983"
       id="text60-2"><tspan
         sodipodi:role="line"
         id="tspan58-4"
         x="-178.3136"
         y="90.057983"
         style="font-style:normal;font-variant:normal;font-weight:bold;font-stretch:normal;font-size:105.833px;font-family:'Crimson Text';-inkscape-font-specification:'Crimson Text Bold';stroke-width:0.264583">T</tspan></text>
    <path
       id="path14-8"
       style="stroke-width:0.0125286"
       d="m -253.98759,107.95 c -1.21673,-1.6e-4 -2.43328,0.10219 -2.70888,0.30644 -0.31194,0.21551 -0.59994,1.31891 -1.07849,4.12429 l -0.6475,3.83698 -2.03864,0.26406 c -1.12746,0.1679 -2.27712,0.31213 -2.54145,0.31213 -0.43094,0.0238 -0.74279,-0.52771 -2.03812,-3.3569 -0.83933,-1.87067 -1.75053,-3.54816 -2.01486,-3.71605 -0.40714,-0.26438 -0.8151,-0.21537 -2.82825,0.31212 -1.67867,0.45608 -2.4216,0.76772 -2.61328,1.10226 -0.23927,0.45608 0.0474,4.86805 0.43202,7.26622 0.14406,0.7192 0.0964,0.76667 -1.39062,1.36685 -0.81553,0.33579 -1.91799,0.76664 -2.39778,0.9834 l -0.88677,0.38344 -2.42156,-2.97295 c -1.34293,-1.65516 -2.6133,-3.04625 -2.82877,-3.09387 -0.456,-0.0965 -3.71671,1.53486 -4.53099,2.30167 -0.31192,0.26438 -0.55138,0.59902 -0.55138,0.74311 0,0.14409 0.59897,1.82183 1.3193,3.74137 0.71907,1.91829 1.3193,3.5483 1.3193,3.62097 0,0.12029 -2.10983,1.79822 -3.71709,2.94969 -0.19167,0.14409 -1.24625,-0.47976 -3.35587,-1.96577 -1.91794,-1.39079 -3.28465,-2.20658 -3.66799,-2.20658 -0.86314,0 -3.88504,3.02226 -3.88504,3.88555 0,0.3596 0.8156,1.72649 2.15853,3.62096 1.19887,1.65517 2.15697,3.06948 2.15697,3.1409 0,0.0952 -0.45593,0.71951 -1.03094,1.4149 -0.55121,0.67159 -1.22238,1.5586 -1.5105,1.942 l -0.50385,0.69556 -3.57291,-1.36994 c -1.98934,-0.74301 -3.71641,-1.34307 -3.83542,-1.34307 -0.14407,0 -0.48003,0.23943 -0.74311,0.52762 -0.76667,0.83948 -2.39761,4.10096 -2.30115,4.55579 0.0476,0.21551 1.43797,1.48737 3.09283,2.82929 1.65487,1.34317 2.97301,2.51856 2.92541,2.61379 -0.0476,0.0714 -0.50358,1.15113 -1.00718,2.37402 l -0.93482,2.23035 -0.863,-0.1204 c -0.4798,-0.0727 -2.25391,-0.26438 -3.93258,-0.40722 -2.58941,-0.23931 -3.14063,-0.23938 -3.40496,0.0476 -0.16786,0.1917 -0.59857,1.36709 -0.93431,2.61379 -0.5274,1.94209 -0.55143,2.35076 -0.28835,2.75797 0.16787,0.26438 1.84675,1.17538 3.71709,2.01487 2.82742,1.29556 3.37863,1.60739 3.35483,2.03967 0,0.26311 -0.14426,1.41429 -0.31213,2.54196 l -0.26406,2.03864 -3.81217,0.64802 c -2.08581,0.3596 -3.93263,0.76818 -4.1243,0.93482 -0.45474,0.35961 -0.4785,4.9628 -0.0238,5.56297 0.21547,0.31199 1.31942,0.60037 4.1243,1.079 l 3.83594,0.64751 0.26406,2.03864 c 0.16787,1.12766 0.31213,2.2781 0.31213,2.54248 0.0238,0.43227 -0.5277,0.74255 -3.35638,2.03812 -1.87034,0.83948 -3.54871,1.75048 -3.71657,2.01486 -0.26433,0.40721 -0.21579,0.81577 0.31161,2.82928 0.456,1.65517 0.76703,2.4221 1.10277,2.6138 0.43219,0.21551 4.19532,4e-5 7.14427,-0.43098 l 0.86299,-0.12041 0.93483,2.23035 c 0.5036,1.2229 0.95957,2.27806 1.00717,2.37454 0.0238,0.0714 -1.27053,1.24629 -2.9254,2.61327 -1.65487,1.34318 -3.04523,2.61403 -3.09283,2.85461 -0.0965,0.43227 1.55827,3.69253 2.30115,4.53202 0.26433,0.28819 0.59901,0.5271 0.76688,0.5271 0.14406,0 1.79762,-0.59884 3.69176,-1.3193 1.89414,-0.71921 3.52399,-1.3193 3.62045,-1.3193 0.14407,0 1.72596,1.98979 2.97243,3.71761 0.14406,0.1917 -0.47951,1.24691 -1.96525,3.3569 -1.39055,1.91828 -2.20607,3.28509 -2.20607,3.66851 0,0.86328 3.02138,3.884 3.88452,3.884 0.35954,0 1.72631,-0.81559 3.62045,-2.15749 1.65486,-1.1991 3.06945,-2.15749 3.16466,-2.15749 0.16786,0 3.81183,2.90164 3.90829,3.09335 0.0238,0.0952 -0.52733,1.72648 -1.27021,3.62097 -0.71907,1.91828 -1.3193,3.57351 -1.3193,3.7176 0,0.16788 0.23946,0.50405 0.55139,0.76843 0.81553,0.76805 4.07625,2.39814 4.53099,2.30167 0.21547,-0.0475 1.48709,-1.43869 2.82877,-3.09387 l 2.42156,-2.97295 0.88676,0.38293 c 0.47981,0.21551 1.58226,0.64813 2.39779,0.98392 1.487,0.60017 1.53468,0.64764 1.39061,1.36684 -0.0714,0.4072 -0.23934,2.18271 -0.40721,3.93309 -0.23927,2.68637 -0.21553,3.26121 0.0475,3.52433 0.19167,0.1679 1.3668,0.59904 2.61328,0.93483 1.94174,0.5275 2.35031,0.55118 2.75745,0.28681 0.26433,-0.16791 1.17502,-1.8464 2.01435,-3.71709 1.29408,-2.82919 1.60592,-3.38196 2.03812,-3.3569 0.26433,0 1.4145,0.14423 2.54196,0.31213 l 2.03812,0.26303 0.64751,3.83646 c 0.47979,2.80537 0.76707,3.9093 1.079,4.12481 0.55121,0.40721 4.86655,0.40721 5.41776,0 0.31193,-0.21551 0.60046,-1.31944 1.079,-4.12481 l 0.64751,-3.83646 2.03812,-0.26303 c 1.12746,-0.1679 2.27763,-0.31213 2.54196,-0.31213 0.43094,-0.0238 0.74278,0.52771 2.03812,3.3569 0.83933,1.87069 1.75002,3.54918 2.01435,3.71709 0.40713,0.26437 0.81561,0.21588 2.82876,-0.31161 1.62982,-0.45484 2.42161,-0.76698 2.61328,-1.10278 0.21547,-0.43102 -0.0238,-4.43691 -0.43098,-7.14582 l -0.12041,-0.86299 1.51102,-0.62529 c 0.83934,-0.33579 1.89419,-0.76788 2.39779,-0.9834 l 0.86299,-0.38344 2.44533,2.99672 c 1.34294,1.63011 2.61305,3.02123 2.85358,3.0701 0.43094,0.0965 3.69216,-1.55866 4.5315,-2.30167 0.28812,-0.26438 0.5271,-0.599 0.5271,-0.74311 0,-0.12028 -0.60021,-1.84683 -1.34307,-3.78892 -0.71907,-1.9659 -1.29529,-3.64485 -1.24643,-3.76514 0.0475,-0.1679 1.77421,-1.63021 3.33261,-2.82929 0.31194,-0.26312 0.86272,0.0474 3.57239,1.96578 1.98937,1.4146 3.42886,2.27789 3.78841,2.27789 0.86314,0 3.88348,-3.04577 3.88348,-3.884 0,-0.38342 -0.81552,-1.75023 -2.20607,-3.66851 -1.487,-2.10999 -2.10932,-3.1652 -1.96525,-3.3569 1.15127,-1.60628 2.82839,-3.71761 2.94866,-3.71761 0.0713,0 1.70252,0.59885 3.62045,1.3193 1.91794,0.71919 3.59677,1.3193 3.74085,1.3193 0.14407,0 0.47952,-0.23891 0.74259,-0.5271 0.74287,-0.83949 2.39814,-4.101 2.30167,-4.53202 -0.0475,-0.23932 -1.43849,-1.51143 -3.09335,-2.85461 -1.65488,-1.36698 -2.94869,-2.54186 -2.92489,-2.61327 0.0476,-0.0965 0.50359,-1.15164 1.00718,-2.37454 l 0.93431,-2.23035 0.86299,0.12041 c 0.47981,0.0714 2.25391,0.26312 3.93258,0.40721 2.58941,0.23931 3.14063,0.23938 3.40496,-0.0475 0.16787,-0.19171 0.59983,-1.3671 0.93431,-2.6138 0.52741,-1.96589 0.55164,-2.32691 0.28732,-2.78174 -0.19167,-0.26438 -1.79789,-1.15157 -3.71708,-2.01486 -2.8525,-1.27051 -3.37967,-1.58208 -3.35587,-2.01435 0,-0.26438 0.14375,-1.41481 0.31161,-2.54248 l 0.26458,-2.03864 3.83594,-0.6475 c 2.80487,-0.47989 3.90833,-0.76701 4.12378,-1.07901 0.40715,-0.5513 0.40715,-4.868 0,-5.4193 -0.21545,-0.31199 -1.31891,-0.5986 -4.12378,-1.07849 l -3.83594,-0.64802 -0.26458,-2.03864 c -0.16786,-1.12767 -0.31161,-2.27759 -0.31161,-2.54196 -0.024,-0.43102 0.52718,-0.74308 3.35587,-2.03864 1.87034,-0.83948 3.54922,-1.75049 3.71708,-2.01486 0.26432,-0.40722 0.21528,-0.81578 -0.31212,-2.82929 -0.45474,-1.6301 -0.76778,-2.42157 -1.10226,-2.61327 -0.40714,-0.21551 -4.43635,0.0236 -7.14479,0.43201 l -0.86299,0.12041 -0.93431,-2.23036 c -0.50359,-1.22289 -0.95957,-2.30186 -1.00718,-2.37453 -0.0475,-0.0965 1.27001,-1.2701 2.92489,-2.61328 1.6536,-1.34317 3.04451,-2.61377 3.09335,-2.82928 0.0965,-0.45608 -1.53499,-3.71757 -2.30167,-4.5558 -0.26432,-0.28818 -0.59978,-0.52761 -0.74259,-0.52761 -0.14408,0 -1.82165,0.59884 -3.74085,1.3193 -1.91918,0.72045 -3.54906,1.3193 -3.62045,1.3193 -0.12027,0 -1.79739,-2.10977 -2.94866,-3.71605 -0.14407,-0.19171 0.47951,-1.24692 1.96525,-3.3569 1.39055,-1.91829 2.20607,-3.28511 2.20607,-3.66852 0,-0.86329 -3.02034,-3.88555 -3.88348,-3.88555 -0.35955,0 -1.72633,0.81587 -3.62046,2.15904 -1.65488,1.17528 -3.06895,2.1575 -3.14038,2.1575 -0.0952,0 -0.7191,-0.45584 -1.41438,-1.03095 -0.67147,-0.5513 -1.55866,-1.24716 -1.942,-1.51153 l -0.71882,-0.50333 1.36684,-3.57343 c 0.74288,-1.9659 1.36684,-3.69237 1.36684,-3.83646 0,-0.14409 -0.23947,-0.47998 -0.52761,-0.7431 -0.83934,-0.74301 -4.10005,-2.39815 -4.53099,-2.30167 -0.23928,0.0476 -1.51116,1.43822 -2.85409,3.06958 l -2.44533,2.99723 -0.863,-0.38344 c -0.5036,-0.21551 -1.58225,-0.64813 -2.39778,-0.98392 -1.487,-0.59892 -1.53468,-0.64764 -1.39061,-1.36684 0.0714,-0.40722 0.23934,-2.18271 0.40721,-3.9331 0.23928,-2.68635 0.21553,-3.26121 -0.0476,-3.52433 -0.19166,-0.16789 -1.3668,-0.59903 -2.61327,-0.93483 -1.94175,-0.52749 -2.35032,-0.55147 -2.75746,-0.28835 -0.26307,0.1679 -1.17501,1.84715 -2.01434,3.71657 -1.29408,2.82919 -1.60593,3.38144 -2.03812,3.35638 -0.26308,0 -1.4145,-0.14371 -2.54197,-0.31161 l -2.03811,-0.26458 -0.64751,-3.83646 c -0.4798,-2.80538 -0.76655,-3.9093 -1.07849,-4.12481 -0.2756,-0.20486 -1.49267,-0.30732 -2.70939,-0.30747 z m -0.093,19.05 a 42.333331,42.333331 0 0 1 0.0806,0 42.333331,42.333331 0 0 1 42.33333,42.33333 A 42.333331,42.333331 0 0 1 -254,211.66667 42.333331,42.333331 0 0 1 -296.33333,169.33333 42.333331,42.333331 0 0 1 -254.08061,127 Z" />
    <g
       aria-label="T"
       id="text60-8"
       style="font-style:normal;font-weight:normal;font-size:105.833px;line-height:1.25;font-family:sans-serif;fill:#000000;fill-opacity:1;stroke:none;stroke-width:0.264583"
       transform="translate(-321.73333,101.6)">
      <path
         d="m 23.283333,63.499999 7.38369,-23.027012 c 0.482312,-0.206705 0.947399,-0.310058 1.39526,-0.310058 0.41341,0 0.947398,0.120578 1.601964,0.361734 0.654566,0.206705 1.343583,0.447861 2.067051,0.723468 0.723467,0.275607 1.825894,0.533988 3.307281,0.775144 1.481387,0.206705 3.169478,0.310058 5.064275,0.310058 h 46.913812 c 1.894797,0 3.582888,-0.103353 5.064275,-0.310058 1.515837,-0.241156 2.618264,-0.499537 3.307281,-0.775144 0.723468,-0.275607 1.412488,-0.516763 2.067058,-0.723468 0.65456,-0.241156 1.18855,-0.361734 1.60196,-0.361734 0.44786,0 0.91295,0.103353 1.39526,0.310058 l 7.73083,23.027012 c -0.17225,0.172255 -2.754,2.461176 -3.51192,2.63343 -0.75791,0.172254 -1.41248,0.258381 -1.9637,0.258381 -0.65456,0 -1.03352,-0.18948 -1.13687,-0.568439 -0.58566,-3.858495 -2.71062,-6.854471 -5.12217,-9.782793 -2.377109,-2.928322 -6.538132,-5.240579 -9.432004,-5.240579 H 76.199999 v 44.45 3.617339 c 0.03445,0.757919 0.0689,1.670862 0.103353,2.738842 0.0689,1.06797 0.155028,1.9637 0.258381,2.68717 0.137803,0.68901 0.327283,1.30913 0.568439,1.86034 0.378959,1.03353 2.488704,1.396 7.036216,1.74051 0.275607,0.41341 0.396184,1.13688 0.361733,2.17041 0,1.03352 -0.120578,1.73976 -0.361733,2.11872 -5.27098,-0.55121 -10.783116,-0.82682 -16.536407,-0.82682 -5.615488,0 -11.058722,0.27561 -16.329701,0.82682 -0.241156,-0.37896 -0.378959,-1.0852 -0.41341,-2.11872 0,-1.03353 0.137803,-1.757 0.41341,-2.17041 4.547512,-0.34451 6.657255,-0.70698 7.036214,-1.74051 0.41341,-1.06797 0.671791,-2.3771 0.775144,-3.92739 0.103352,-1.55029 0.155028,-3.875725 0.155028,-6.976301 v -44.45 H 44.449999 c -2.893871,0 -7.054892,2.386765 -9.432001,5.315087 -2.377108,2.928322 -4.502047,5.84979 -5.122162,9.708285 -0.103353,0.378959 -0.482312,0.568439 -1.136878,0.568439 -0.516763,0 -1.171329,-0.08613 -1.963698,-0.258381 -0.757919,-0.172254 -3.339672,-2.461175 -3.511927,-2.63343 z"
         style="font-style:normal;font-variant:normal;font-weight:bold;font-stretch:normal;font-size:105.833px;font-family:'Crimson Text';-inkscape-font-specification:'Crimson Text Bold';stroke-width:0.264583"
         id="path860-3"
         sodipodi:nodetypes="ccscscsscccsccssccscccccccccsccccsscsscscc" />
    </g>
    <circle
       style="fill:#000000;fill-opacity:1;stroke-width:0.264583"
       id="path863-5"
       cx="-254"
       cy="169.33333"
       r="12.7" />
    <circle
       style="fill:#ffffff;fill-opacity:1;stroke-width:0.15875"
       id="path865-2"
       cx="-254"
       cy="169.33333"
       r="6.3499999" />
  </g>
</svg>
