<svg version="1" xmlns="http://www.w3.org/2000/svg" width="426.667" height="426.667" viewBox="0 0 320.000000 320.000000"><path d="M268 53.6c-8.7 2.3-14.9 6.5-19.8 13.3-8.8 12.2-9.8 35.3-2.2 50.2 8.7 17 34 23.4 48.7 12.3 1.7-1.3 3.4-2.4 3.6-2.4.3 0 1 1.3 1.7 3 1.2 3 1.3 3 9.1 3h7.8v-22.5l-.1-22.5h-37.3v15h8.2c9 0 9.6.4 8 6-3 11.3-18 13.9-25.9 4.6-4-4.7-6.2-18.2-4.6-28.4C267 74 272.4 68 280.8 68c6.4 0 10.1 2.4 12.3 8 .9 2.5 1 2.5 12 2.3 6.1-.1 11.2-.3 11.4-.5.2-.2-.6-2.7-1.7-5.7-2.8-7.4-9.6-14.1-17.4-17.1-7.5-2.8-21.4-3.5-29.4-1.4zM3.8 55.2c.5.7 1.9 2.9 2.9 4.8 1.1 1.9 7.2 12 13.6 22.5l11.5 19V115c0 7.4.1 14.5.1 15.7.1 2.2.4 2.3 11.1 2.3h11v-32l14-22.9c7.7-12.7 14-23.2 14-23.5 0-.4-4.9-.6-11-.6H60.1l-2.4 4.2c-1.4 2.4-5.2 9.2-8.5 15.1l-6 10.8-7.6-15L27.9 54H15.3c-9.9 0-12.3.3-11.5 1.2zM102.2 55.7c-.5 1-2.6 6.5-4.7 12.3-2 5.8-4.1 11.4-4.5 12.5-.5 1.1-2.7 7.2-5 13.5s-4.5 12.4-5 13.5c-1.2 2.7-9 24.5-9 25.1 0 .2 5.1.4 11.3.4h11.4l2.5-8.3 2.6-8.2 12.3-.3 12.4-.3 2.4 8.6 2.3 8.5h24.6l-11.5-30.8c-6.2-16.9-12.8-34.6-14.5-39.5l-3.2-8.7h-11.8c-10.2 0-11.9.2-12.6 1.7zM118 87c1.8 6.3 3.5 12.1 3.7 12.7.4 1-1.4 1.3-7.1 1.3-4.9 0-7.6-.4-7.6-1.1 0-.9 5.2-19.8 6.6-23.8.7-2.1.9-1.5 4.4 10.9zM161.1 93.5L161 133h20V84.6l13.6 24.2 13.6 24.2H231V53.9l-9.7.3-9.8.3-.1 21.7c0 12-.2 21.9-.5 22.2-.2.2-6-9.6-12.9-22L185.5 54H161.2l-.1 39.5zM33.1 171.5c-10.1 2.9-16.2 8.4-18 16.4-2.7 12.4 4 19.9 23.3 26 14.3 4.6 18.3 8 17.3 15.1-1.1 8.5-8.6 14-20.1 14.5-10.8.5-18.1-3.6-19.3-10.7l-.6-3.9-5.6.3-5.6.3.4 3.5c1.2 12.6 13.2 20.2 30.6 19.6 12-.5 20.7-4 26.3-10.6 4.6-5.4 6.7-16 4.3-22.1-2.4-6.5-11.1-11.9-27-17-4.2-1.4-8.7-3.6-10.4-5.2-2.6-2.4-2.9-3.2-2.4-6.8.9-7.1 5.4-10.2 16.6-11.4 10.2-1.1 18.9 3.1 19.4 9.4.2 2.5-.2 2.3 6.5 2.5l5.4.2-.7-4.1c-.9-5.8-4.2-10.1-10.7-13.5-4.8-2.6-7.1-3.1-15-3.5-6.6-.4-10.9-.1-14.7 1zM92 172.3c0 .2-1.3 6.4-2.9 13.8-1.7 7.3-3.2 14.6-3.5 16.2-.2 1.5-.7 3.5-1 4.5-.3.9-.7 3.3-1 5.2-.3 1.9-1.2 6-1.9 9.1-1.7 7.2-1.2 15 1.3 20 6.4 12.5 29.6 15.7 45.6 6.4 7.4-4.3 12-11.4 14.4-22 1.7-7.5 2-8.7 2.6-12.5.3-1.9.8-3.8 1-4.1.2-.3.6-2.1.9-4 .3-1.9 1.9-9.4 3.6-16.6 1.6-7.3 2.9-14 2.9-14.8 0-1.1-1.2-1.5-4.9-1.5-5.5 0-5.8.2-6.6 4.9-1.3 7.5-10.6 49.9-11.5 52.6-3.7 10.8-18.6 16.8-31.4 12.5-8.6-2.8-9.4-7.5-5-28.9 4.2-19.8 4.2-19.8 4.8-21.9.3-.9.7-3.3 1-5.2.4-1.9 1-5.3 1.6-7.5 1.6-6.5 1.5-6.5-4.5-6.5-3 0-5.5.1-5.5.3zM170.5 173.2c-.4 1.4-5.3 23.9-5.9 27.3-.2 1.1-2 9.4-3.9 18.5-2 9.1-3.8 17.6-4.1 19-.2 1.4-.9 4.5-1.5 7s-1.1 4.8-1.1 5.2c0 .5 2.5.8 5.5.8h5.4l1-3.8c.5-2 1.2-5.1 1.5-6.7.8-4.8 1.6-8.9 2.2-10.7.3-.9.7-2.7.9-4 .3-1.3.9-4.6 1.5-7.3.6-2.8 1.2-6 1.5-7.3.2-1.3.6-3.1.9-4 .3-.9.7-2.9 1-4.3.6-3.6 5.6-27 6.2-29.2.5-1.5-.2-1.7-5.1-1.7-3.6 0-5.7.4-6 1.2zM190.4 177l-1.1 5h26.5l-1.4 5.7c-.7 3.2-3.9 17.7-6.9 32.3-3.1 14.6-5.9 27.5-6.2 28.7-.5 2.2-.2 2.3 5.4 2.3 4.1 0 6-.4 6-1.3 0-.6 1.2-6.6 2.6-13.2 1.4-6.6 4.4-21 6.7-32s4.3-20.6 4.6-21.3c.2-.9 3.9-1.2 13.7-1.2h13.3l1-5 1.1-5H191.4l-1 5zM264.6 172.8c-.3.5-.8 2.4-1.1 4.3-.3 1.9-1.4 7.4-2.5 12.4-2.7 12.3-13 60.7-13 61.1 0 .2 11 .4 24.5.4h24.4l1.1-4.1c.8-2.9.8-4.4.1-4.8-.6-.4-8.7-.6-18.1-.6-9.4 0-17.5-.2-17.9-.5-.5-.3.3-6.1 1.8-13l2.6-12.5 17.3-.1c9.5-.1 17.5-.3 17.7-.6.2-.2.7-2.3 1.1-4.6l.7-4.2h-34.5l.4-2.8c1.6-8.9 4.2-19.8 5-20.7.5-.6 8.3-1 18.9-1 19.7-.1 19 .1 20.4-6.3l.7-3.2h-24.6c-13.4 0-24.7.4-25 .8z"/></svg>