<?xml version="1.0" standalone="no"?>
<!DOCTYPE svg PUBLIC "-//W3C//DTD SVG 20010904//EN"
 "http://www.w3.org/TR/2001/REC-SVG-20010904/DTD/svg10.dtd">
<svg version="1.0" xmlns="http://www.w3.org/2000/svg"
 width="200.000000pt" height="200.000000pt" viewBox="0 0 200.000000 200.000000"
 preserveAspectRatio="xMidYMid meet">

<g transform="translate(0.000000,200.000000) scale(0.100000,-0.100000)"
fill="#000000" stroke="none">
<path d="M953 1953 c26 -2 68 -2 95 0 26 2 4 3 -48 3 -52 0 -74 -1 -47 -3z"/>
<path d="M858 1943 c7 -3 16 -2 19 1 4 3 -2 6 -13 5 -11 0 -14 -3 -6 -6z"/>
<path d="M1128 1943 c7 -3 16 -2 19 1 4 3 -2 6 -13 5 -11 0 -14 -3 -6 -6z"/>
<path d="M1168 1933 c7 -3 16 -2 19 1 4 3 -2 6 -13 5 -11 0 -14 -3 -6 -6z"/>
<path d="M1235 1910 c22 -11 47 -19 55 -19 17 1 -32 23 -70 33 -14 3 -7 -3 15
-14z"/>
<path d="M660 1880 c-8 -5 -10 -10 -5 -10 6 0 17 5 25 10 8 5 11 10 5 10 -5 0
-17 -5 -25 -10z"/>
<path d="M870 1875 c-121 -17 -175 -35 -247 -81 -58 -37 -151 -110 -165 -129
-5 -6 -8 -3 -8 7 0 9 27 45 60 79 64 69 71 87 16 45 -97 -73 -196 -228 -243
-376 -48 -153 -35 -365 31 -500 55 -113 92 -169 144 -221 64 -63 109 -93 99
-65 -7 19 -3 20 21 6 37 -21 169 -78 202 -88 19 -6 83 -16 141 -23 91 -10 119
-9 204 5 54 10 122 27 149 39 79 33 196 98 196 108 0 5 5 9 12 9 6 0 20 8 31
17 19 17 20 17 8 -4 -18 -35 -13 -34 30 10 73 74 144 206 175 322 27 104 25
276 -5 375 -59 194 -169 340 -333 445 -43 27 -32 4 13 -30 63 -46 134 -124
131 -141 -2 -9 1 -13 7 -9 6 3 11 1 11 -4 0 -20 -20 -11 -32 14 -6 14 -17 25
-23 25 -7 0 -23 11 -36 24 -13 13 -33 26 -45 30 -11 3 -29 14 -40 24 -32 29
-72 52 -92 52 -10 0 -22 4 -27 9 -32 28 -258 44 -385 26z m90 -60 c0 -17 45
-21 55 -6 3 6 15 8 28 5 12 -2 34 -5 50 -6 15 -1 27 -5 27 -9 0 -4 18 -10 40
-14 22 -4 46 -12 53 -19 7 -7 25 -16 40 -20 15 -3 27 -11 27 -16 0 -6 10 -20
22 -32 l21 -21 -6 24 -6 24 16 -22 c8 -13 22 -23 29 -23 16 0 17 -9 5 -29 -9
-15 15 -51 35 -51 12 0 34 -42 34 -65 0 -8 7 -15 15 -15 13 0 20 -18 16 -42 0
-5 4 -8 10 -8 8 0 8 -5 -1 -15 -10 -13 -9 -15 11 -16 17 -1 19 -3 7 -6 -10 -2
-18 -11 -18 -19 0 -28 -16 -12 -55 57 -49 85 -116 142 -217 183 -61 25 -91 30
-178 34 -89 3 -115 1 -170 -18 -89 -30 -149 -61 -189 -98 -18 -18 -37 -32 -42
-32 -5 0 -9 -8 -9 -18 0 -9 -11 -29 -25 -44 -14 -15 -25 -32 -25 -38 0 -16
-20 -12 -21 5 -1 8 -2 20 -3 25 -1 6 3 9 8 8 4 -2 14 13 20 32 7 19 18 34 25
32 8 -2 11 5 7 20 -3 13 -3 17 0 11 3 -7 10 -13 15 -13 6 0 8 4 4 9 -8 14 35
91 52 91 8 0 11 5 8 10 -3 6 1 10 9 10 9 0 16 3 16 8 0 12 71 57 99 62 14 3
24 9 23 14 -5 13 19 26 51 26 15 0 27 5 27 10 0 6 12 10 26 10 14 0 23 4 19
10 -3 6 -1 10 4 10 6 0 11 -7 11 -15z m607 -177 c-3 -8 -6 -5 -6 6 -1 11 2 17
5 13 3 -3 4 -12 1 -19z m-647 -29 c-42 -26 -55 -42 -81 -97 -38 -81 -23 -193
36 -255 29 -31 91 -60 115 -54 9 3 7 5 -6 6 -25 1 -47 24 -36 36 4 5 1 5 -6 1
-14 -9 -40 14 -35 31 2 6 13 9 23 6 11 -3 17 -10 14 -17 -3 -6 0 -4 8 5 11 13
32 14 143 8 72 -4 150 -12 175 -19 25 -7 62 -17 82 -22 20 -5 44 -15 52 -23 8
-8 19 -15 25 -15 9 0 31 -31 31 -44 0 -12 -48 -56 -61 -56 -8 0 -27 -7 -42
-15 -15 -8 -43 -17 -62 -21 -29 -5 -40 0 -85 35 -59 47 -75 47 -37 1 34 -40
51 -103 44 -162 -6 -47 -38 -111 -45 -89 -2 6 -11 2 -22 -11 -10 -13 -26 -23
-37 -23 -10 0 -18 -5 -18 -12 0 -6 -3 -15 -7 -19 -5 -4 -8 -2 -8 4 0 7 -9 12
-20 12 -11 0 -20 -4 -20 -10 0 -5 -8 -10 -17 -10 -15 0 -16 2 -3 10 11 7 5 10
-22 10 -21 0 -38 4 -38 9 0 5 -9 7 -20 4 -11 -3 -17 -10 -13 -16 4 -7 0 -8
-11 -4 -10 4 -28 10 -41 13 -13 3 -25 14 -28 24 -3 13 -12 18 -32 16 -17 -2
-30 3 -38 15 -7 11 -18 19 -26 19 -11 0 -11 -4 2 -18 39 -43 13 -26 -35 23
-69 69 -78 81 -78 100 0 8 -4 15 -9 15 -5 0 -12 8 -15 18 -3 9 -13 28 -21 42
-9 15 -13 37 -10 55 4 22 2 26 -5 15 -7 -11 -10 7 -10 58 0 76 15 156 34 182
6 8 22 37 35 63 41 81 156 169 242 186 70 14 76 12 39 -10z m123 -151 c46 -54
-14 -117 -84 -88 -34 15 -45 44 -29 75 25 46 78 53 113 13z m454 -93 l-14 -28
-7 26 c-3 14 -3 33 0 42 6 14 9 15 21 2 13 -13 13 -18 0 -42z m-986 -41 c-5
-16 -10 -21 -10 -12 -1 18 10 51 15 45 2 -1 -1 -16 -5 -33z m1006 -56 c-3 -7
-5 -2 -5 12 0 14 2 19 5 13 2 -7 2 -19 0 -25z m-1030 -20 c-3 -7 -5 -2 -5 12
0 14 2 19 5 13 2 -7 2 -19 0 -25z m343 -438 c0 -5 -2 -10 -4 -10 -3 0 -8 5
-11 10 -3 6 -1 10 4 10 6 0 11 -4 11 -10z m35 -20 c3 -5 1 -10 -4 -10 -6 0
-11 5 -11 10 0 6 2 10 4 10 3 0 8 -4 11 -10z"/>
<path d="M828 1733 c7 -3 16 -2 19 1 4 3 -2 6 -13 5 -11 0 -14 -3 -6 -6z"/>
<path d="M941 1004 c-25 -32 -26 -46 -6 -84 12 -24 22 -30 48 -30 51 0 77 24
77 70 0 29 -6 43 -22 54 -34 24 -73 20 -97 -10z"/>
<path d="M1320 1880 c8 -5 20 -10 25 -10 6 0 3 5 -5 10 -8 5 -19 10 -25 10 -5
0 -3 -5 5 -10z"/>
<path d="M596 1844 c-11 -7 -18 -16 -15 -18 2 -2 13 2 23 10 11 7 18 16 15 18
-2 2 -13 -2 -23 -10z"/>
<path d="M742 467 c-18 -5 -31 -15 -29 -20 7 -21 64 -28 242 -33 177 -5 339 9
340 30 0 4 -17 15 -39 24 -33 13 -52 13 -152 2 -89 -10 -131 -11 -196 -2 -97
14 -121 14 -166 -1z"/>
</g>
</svg>
