<svg id="Layer_1" enable-background="new 0 0 256 256" height="512" viewBox="0 0 256 256" width="512" xmlns="http://www.w3.org/2000/svg"><path d="m242 244h-228c-3.314 0-6-2.686-6-6 0-3.314 2.686-6 6-6h228c3.314 0 6 2.686 6 6 0 3.314-2.686 6-6 6z" fill="#6bdddd"/><path d="m56.5 222h-25c-2.761 0-5-2.239-5-5v-105c0-2.761 2.239-5 5-5h25c2.761 0 5 2.239 5 5v105c0 2.761-2.239 5-5 5z" fill="#a4c9ff"/><path d="m112.5 222h-25c-2.761 0-5-2.239-5-5v-72.333c0-2.761 2.239-5 5-5h25c2.761 0 5 2.239 5 5v72.333c0 2.761-2.239 5-5 5z" fill="#a4c9ff"/><path d="m168.5 222h-25c-2.761 0-5-2.239-5-5v-143.667c0-2.761 2.239-5 5-5h25c2.761 0 5 2.239 5 5v143.667c0 2.761-2.239 5-5 5z" fill="#a4c9ff"/><path d="m224.5 222h-25c-2.761 0-5-2.239-5-5v-105c0-2.761 2.239-5 5-5h25c2.761 0 5 2.239 5 5v105c0 2.761-2.239 5-5 5z" fill="#a4c9ff"/><path d="m100 112.833c-.738 0-1.463-.233-2.067-.676l-56-41c-1.56-1.142-1.898-3.332-.757-4.892s3.332-1.898 4.892-.757l52.97 38.782 54-85.821c.555-.882 1.474-1.471 2.507-1.606 1.035-.136 2.073.197 2.836.905l56 52c1.417 1.315 1.499 3.53.184 4.946-1.314 1.417-3.529 1.499-4.946.184l-52.905-49.126-53.751 85.425c-.517.822-1.353 1.392-2.306 1.574-.219.042-.438.062-.657.062z" fill="#4671c6"/><circle cx="44" cy="68.333" fill="#ffea92" r="7.92"/><circle cx="100" cy="109.333" fill="#ffea92" r="7.92"/><circle cx="156" cy="20.333" fill="#ffea92" r="7.92"/><circle cx="212" cy="72.333" fill="#ffea92" r="7.92"/><g fill="#3762cc"><path d="m44 78.253c-5.47 0-9.92-4.45-9.92-9.92s4.45-9.92 9.92-9.92 9.92 4.45 9.92 9.92-4.45 9.92-9.92 9.92zm0-15.84c-3.264 0-5.92 2.655-5.92 5.92s2.656 5.92 5.92 5.92 5.92-2.655 5.92-5.92-2.656-5.92-5.92-5.92z"/><path d="m100 119.253c-5.47 0-9.92-4.45-9.92-9.92s4.45-9.92 9.92-9.92 9.92 4.45 9.92 9.92-4.45 9.92-9.92 9.92zm0-15.84c-3.264 0-5.92 2.655-5.92 5.92s2.656 5.92 5.92 5.92 5.92-2.655 5.92-5.92-2.656-5.92-5.92-5.92z"/><path d="m156 30.253c-5.47 0-9.92-4.45-9.92-9.92s4.45-9.92 9.92-9.92 9.92 4.45 9.92 9.92-4.45 9.92-9.92 9.92zm0-15.84c-3.264 0-5.92 2.655-5.92 5.92s2.656 5.92 5.92 5.92 5.92-2.655 5.92-5.92-2.656-5.92-5.92-5.92z"/><path d="m212 82.253c-5.47 0-9.92-4.45-9.92-9.92s4.45-9.92 9.92-9.92 9.92 4.45 9.92 9.92-4.45 9.92-9.92 9.92zm0-15.84c-3.264 0-5.92 2.655-5.92 5.92s2.656 5.92 5.92 5.92 5.92-2.655 5.92-5.92-2.656-5.92-5.92-5.92z"/><path d="m242 246h-228c-4.411 0-8-3.589-8-8s3.589-8 8-8h228c4.411 0 8 3.589 8 8s-3.589 8-8 8zm-228-12c-2.206 0-4 1.794-4 4s1.794 4 4 4h228c2.206 0 4-1.794 4-4s-1.794-4-4-4z"/><path d="m56.5 224h-25c-3.86 0-7-3.141-7-7v-105c0-3.859 3.14-7 7-7h25c3.86 0 7 3.141 7 7v105c0 3.859-3.14 7-7 7zm-25-115c-1.654 0-3 1.346-3 3v105c0 1.654 1.346 3 3 3h25c1.654 0 3-1.346 3-3v-105c0-1.654-1.346-3-3-3z"/><path d="m112.5 224h-25c-3.86 0-7-3.141-7-7v-72.333c0-3.859 3.14-7 7-7h25c3.86 0 7 3.141 7 7v72.333c0 3.859-3.14 7-7 7zm-25-82.333c-1.654 0-3 1.346-3 3v72.333c0 1.654 1.346 3 3 3h25c1.654 0 3-1.346 3-3v-72.333c0-1.654-1.346-3-3-3z"/><path d="m168.5 224h-25c-3.86 0-7-3.141-7-7v-143.667c0-3.859 3.14-7 7-7h25c3.86 0 7 3.141 7 7v143.667c0 3.859-3.14 7-7 7zm-25-153.667c-1.654 0-3 1.346-3 3v143.667c0 1.654 1.346 3 3 3h25c1.654 0 3-1.346 3-3v-143.667c0-1.654-1.346-3-3-3z"/><path d="m224.5 224h-25c-3.86 0-7-3.141-7-7v-105c0-3.859 3.14-7 7-7h25c3.86 0 7 3.141 7 7v105c0 3.859-3.14 7-7 7zm-25-115c-1.654 0-3 1.346-3 3v105c0 1.654 1.346 3 3 3h25c1.654 0 3-1.346 3-3v-105c0-1.654-1.346-3-3-3z"/></g></svg>