<?xml version="1.0" encoding="UTF-8" standalone="no"?>
<!DOCTYPE svg PUBLIC "-//W3C//DTD SVG 1.1//EN" "http://www.w3.org/Graphics/SVG/1.1/DTD/svg11.dtd">
<svg width="100%" height="100%" viewBox="0 0 244 210" version="1.1" xmlns="http://www.w3.org/2000/svg" xmlns:xlink="http://www.w3.org/1999/xlink" xml:space="preserve" xmlns:serif="http://www.serif.com/" style="fill-rule:evenodd;clip-rule:evenodd;stroke-linecap:round;stroke-linejoin:round;stroke-miterlimit:1.5;">
    <g transform="matrix(1,0,0,1,-2989.71,-2702.36)">
        <path d="M3009,2777C2999.69,2804.28 3001.33,2819.17 3006,2835C3010.55,2850.43 3023.7,2864.83 3037,2872C3073.17,2891.5 3067,2885.5 3076,2891C3081.84,2894.57 3084.7,2902.35 3091,2905C3097.33,2907.67 3107.67,2906.83 3114,2907C3119.01,2907.13 3124.58,2908.37 3129,2906C3133.67,2903.5 3137.5,2895.83 3142,2892C3146.22,2888.4 3151.13,2885.66 3156,2883C3164.83,2878.17 3185,2871.33 3195,2863C3204.38,2855.19 3213.74,2844.24 3216,2833C3221.83,2804 3215.43,2790.55 3213,2777C3212.17,2772.38 3227,2765 3229,2749C3229.95,2741.36 3225.67,2732.33 3222,2727C3218.6,2722.05 3212.97,2717.72 3207,2717C3179.17,2713.67 3175.7,2728.96 3172,2727C3159.14,2720.19 3142.67,2710.83 3128,2708C3113.59,2705.22 3097.17,2706.67 3084,2710C3071.28,2713.22 3061.29,2720.4 3049,2728C3046.69,2729.43 3033.5,2719.17 3026,2719C3018.5,2718.83 3009.33,2722.17 3004,2727C2998.67,2731.83 2994.83,2741.5 2994,2748C2993.21,2754.18 2996.5,2761.17 2999,2766C3001.28,2770.4 3009.36,2775.95 3009,2777Z" style="fill:rgb(4,0,0);stroke:rgb(0,147,255);stroke-width:8.33px;"/>
    </g>
    <g transform="matrix(1,0,0,0.942029,-2994.71,-2542.51)">
        <ellipse cx="3072.5" cy="2826.5" rx="32.5" ry="34.5" style="fill:white;"/>
    </g>
    <g transform="matrix(1,0,0,0.942029,-2907.71,-2542.51)">
        <ellipse cx="3072.5" cy="2826.5" rx="32.5" ry="34.5" style="fill:white;"/>
    </g>
    <g transform="matrix(0.553846,0,0,0.538838,-1536.41,-1404.98)">
        <ellipse cx="3072.5" cy="2826.5" rx="32.5" ry="34.5"/>
    </g>
    <g transform="matrix(0.553846,0,0,0.538838,-1625.41,-1404.98)">
        <ellipse cx="3072.5" cy="2826.5" rx="32.5" ry="34.5"/>
    </g>
    <g transform="matrix(0.153846,0,0,0.14623,-395.906,-294.773)">
        <ellipse cx="3072.5" cy="2826.5" rx="32.5" ry="34.5" style="fill:white;"/>
    </g>
    <g transform="matrix(0.0769231,0,0,0.0737667,-167.059,-94.9989)">
        <ellipse cx="3072.5" cy="2826.5" rx="32.5" ry="34.5" style="fill:white;"/>
    </g>
    <g transform="matrix(0.153846,0,0,0.14623,-306.906,-294.773)">
        <ellipse cx="3072.5" cy="2826.5" rx="32.5" ry="34.5" style="fill:white;"/>
    </g>
    <g transform="matrix(0.0769231,0,0,0.0737667,-78.0594,-94.9989)">
        <ellipse cx="3072.5" cy="2826.5" rx="32.5" ry="34.5" style="fill:white;"/>
    </g>
    <g transform="matrix(1,0,0,1,-2989.71,-2702.36)">
        <path d="M3026,2776C3025.33,2777.86 3016.83,2800.67 3018,2813C3019.17,2825.33 3025.67,2840.5 3033,2850C3040.18,2859.3 3054.17,2865.17 3062,2870C3067.71,2873.52 3075.17,2875 3080,2879C3084.78,2882.95 3087.33,2891.15 3091,2894C3093.95,2896.29 3098.27,2896 3102,2896.11C3108.17,2896.3 3121.83,2897.46 3128,2895.11C3133.33,2893.08 3134.43,2885.41 3139,2882C3144.83,2877.65 3155.33,2873.67 3163,2869C3170.58,2864.39 3179.27,2860.78 3185,2854C3191.33,2846.5 3199.17,2834.68 3201,2824C3202.55,2814.98 3201.17,2800 3200,2792C3199.18,2786.36 3193.82,2773.44 3194,2776C3194.47,2782.59 3196.83,2814.5 3194,2827C3191.83,2836.56 3183.67,2846 3177,2851C3170.66,2855.75 3161.67,2856.17 3154,2857C3146.37,2857.83 3136.17,2857.17 3131,2856C3127.75,2855.27 3124.31,2853.06 3123,2850C3121,2845.33 3119.83,2835.33 3119,2828C3118.17,2820.71 3117,2812.83 3118,2806C3118.98,2799.32 3121.55,2792.8 3125,2787C3128.67,2780.83 3142.35,2775.33 3140,2769C3137.65,2762.67 3120.92,2749 3110.92,2749C3100.92,2749 3082.49,2763 3080,2769C3077.51,2775 3092.89,2778.13 3096,2785C3100,2793.83 3102.83,2812.83 3104,2822C3104.76,2827.96 3104.17,2834.5 3103,2840C3101.88,2845.27 3102.19,2853.57 3097,2855C3088.5,2857.33 3063.67,2858.33 3052,2854C3040.95,2849.9 3032,2837.7 3027,2829C3022.41,2821.01 3022.17,2810.65 3022,2801.82C3021.84,2793.11 3026.67,2774.14 3026,2776Z" style="fill:white;"/>
    </g>
    <g transform="matrix(1,0,0,1,-2989.71,-2702.36)">
        <path d="M3111,2876C3107.67,2876.17 3102,2877.5 3100,2879C3098.38,2880.22 3098.33,2883.67 3099,2885C3099.67,2886.33 3102.5,2886.33 3104,2887C3105.36,2887.61 3106.59,2888.53 3108,2889C3109.5,2889.5 3111.33,2890.33 3113,2890C3114.67,2889.67 3116.33,2887.83 3118,2887C3119.61,2886.2 3122.67,2886.5 3123,2885C3123.33,2883.5 3122,2879.5 3120,2878C3118,2876.5 3114.07,2875.85 3111,2876Z"/>
    </g>
    <g transform="matrix(1,0,0,1,-2988.86,-2699.83)">
        <path d="M3003,2751C3003.54,2751 3010.67,2736.17 3016,2734C3021.33,2731.83 3030.83,2738 3035,2738C3037.4,2738 3041.67,2735.83 3041,2734C3040.33,2732.17 3034.97,2727.91 3031,2727C3026.67,2726 3019.33,2726 3015,2728C3010.67,2730 3006,2737 3005,2739C3004.35,2740.29 3001.67,2751 3003,2751Z" style="fill:white;"/>
    </g>
    <g transform="matrix(-1,0,0,1,3231.84,-2702.83)">
        <path d="M3003,2751C3003.54,2751 3010.67,2736.17 3016,2734C3021.33,2731.83 3030.83,2738 3035,2738C3037.4,2738 3041.67,2735.83 3041,2734C3040.33,2732.17 3034.97,2727.91 3031,2727C3026.67,2726 3019.33,2726 3015,2728C3010.67,2730 3006,2737 3005,2739C3004.35,2740.29 3001.67,2751 3003,2751Z" style="fill:white;"/>
    </g>
</svg>
